<svg width="587" height="244" viewBox="0 0 587 244" fill="none" xmlns="http://www.w3.org/2000/svg">
<rect width="587" height="244" rx="8" fill="white"/>
<path d="M22.736 10.272V27H20.552V19.416H12.032V27H9.848V10.272H12.032V17.616H20.552V10.272H22.736ZM25.6492 20.376C25.6492 19.032 25.9212 17.856 26.4652 16.848C27.0092 15.824 27.7532 15.032 28.6972 14.472C29.6572 13.912 30.7212 13.632 31.8892 13.632C33.0412 13.632 34.0412 13.88 34.8892 14.376C35.7372 14.872 36.3692 15.496 36.7852 16.248V13.848H38.9932V27H36.7852V24.552C36.3532 25.32 35.7052 25.96 34.8412 26.472C33.9932 26.968 33.0012 27.216 31.8652 27.216C30.6972 27.216 29.6412 26.928 28.6972 26.352C27.7532 25.776 27.0092 24.968 26.4652 23.928C25.9212 22.888 25.6492 21.704 25.6492 20.376ZM36.7852 20.4C36.7852 19.408 36.5852 18.544 36.1852 17.808C35.7852 17.072 35.2412 16.512 34.5532 16.128C33.8812 15.728 33.1372 15.528 32.3212 15.528C31.5052 15.528 30.7612 15.72 30.0892 16.104C29.4172 16.488 28.8812 17.048 28.4812 17.784C28.0812 18.52 27.8812 19.384 27.8812 20.376C27.8812 21.384 28.0812 22.264 28.4812 23.016C28.8812 23.752 29.4172 24.32 30.0892 24.72C30.7612 25.104 31.5052 25.296 32.3212 25.296C33.1372 25.296 33.8812 25.104 34.5532 24.72C35.2412 24.32 35.7852 23.752 36.1852 23.016C36.5852 22.264 36.7852 21.392 36.7852 20.4ZM44.8679 16.272C45.2999 15.52 45.9399 14.896 46.7879 14.4C47.6519 13.888 48.6519 13.632 49.7879 13.632C50.9559 13.632 52.0119 13.912 52.9559 14.472C53.9159 15.032 54.6679 15.824 55.2119 16.848C55.7559 17.856 56.0279 19.032 56.0279 20.376C56.0279 21.704 55.7559 22.888 55.2119 23.928C54.6679 24.968 53.9159 25.776 52.9559 26.352C52.0119 26.928 50.9559 27.216 49.7879 27.216C48.6679 27.216 47.6759 26.968 46.8119 26.472C45.9639 25.96 45.3159 25.328 44.8679 24.576V33.24H42.6839V13.848H44.8679V16.272ZM53.7959 20.376C53.7959 19.384 53.5959 18.52 53.1959 17.784C52.7959 17.048 52.2519 16.488 51.5639 16.104C50.8919 15.72 50.1479 15.528 49.3319 15.528C48.5319 15.528 47.7879 15.728 47.0999 16.128C46.4279 16.512 45.8839 17.08 45.4679 17.832C45.0679 18.568 44.8679 19.424 44.8679 20.4C44.8679 21.392 45.0679 22.264 45.4679 23.016C45.8839 23.752 46.4279 24.32 47.0999 24.72C47.7879 25.104 48.5319 25.296 49.3319 25.296C50.1479 25.296 50.8919 25.104 51.5639 24.72C52.2519 24.32 52.7959 23.752 53.1959 23.016C53.5959 22.264 53.7959 21.384 53.7959 20.376ZM61.0867 16.272C61.5187 15.52 62.1587 14.896 63.0067 14.4C63.8707 13.888 64.8707 13.632 66.0067 13.632C67.1747 13.632 68.2307 13.912 69.1747 14.472C70.1347 15.032 70.8867 15.824 71.4307 16.848C71.9747 17.856 72.2467 19.032 72.2467 20.376C72.2467 21.704 71.9747 22.888 71.4307 23.928C70.8867 24.968 70.1347 25.776 69.1747 26.352C68.2307 26.928 67.1747 27.216 66.0067 27.216C64.8867 27.216 63.8947 26.968 63.0307 26.472C62.1827 25.96 61.5347 25.328 61.0867 24.576V33.24H58.9027V13.848H61.0867V16.272ZM70.0147 20.376C70.0147 19.384 69.8147 18.52 69.4147 17.784C69.0147 17.048 68.4707 16.488 67.7827 16.104C67.1107 15.72 66.3667 15.528 65.5507 15.528C64.7507 15.528 64.0067 15.728 63.3187 16.128C62.6467 16.512 62.1027 17.08 61.6867 17.832C61.2867 18.568 61.0867 19.424 61.0867 20.4C61.0867 21.392 61.2867 22.264 61.6867 23.016C62.1027 23.752 62.6467 24.32 63.3187 24.72C64.0067 25.104 64.7507 25.296 65.5507 25.296C66.3667 25.296 67.1107 25.104 67.7827 24.72C68.4707 24.32 69.0147 23.752 69.4147 23.016C69.8147 22.264 70.0147 21.384 70.0147 20.376ZM86.4494 13.848L78.5294 33.192H76.2734L78.8654 26.856L73.5614 13.848H75.9854L80.1134 24.504L84.1934 13.848H86.4494ZM95.4849 18.648L100.621 27H98.1489L94.1409 20.472L90.3249 27H87.9009L93.0129 18.648L87.8769 10.272H90.3249L94.3569 16.824L98.1969 10.272H100.645L95.4849 18.648ZM109.134 20.4C109.134 19.04 109.406 17.856 109.95 16.848C110.494 15.824 111.246 15.032 112.206 14.472C113.182 13.912 114.294 13.632 115.542 13.632C117.158 13.632 118.486 14.024 119.526 14.808C120.582 15.592 121.278 16.68 121.614 18.072H119.262C119.038 17.272 118.598 16.64 117.942 16.176C117.302 15.712 116.502 15.48 115.542 15.48C114.294 15.48 113.286 15.912 112.518 16.776C111.75 17.624 111.366 18.832 111.366 20.4C111.366 21.984 111.75 23.208 112.518 24.072C113.286 24.936 114.294 25.368 115.542 25.368C116.502 25.368 117.302 25.144 117.942 24.696C118.582 24.248 119.022 23.608 119.262 22.776H121.614C121.262 24.12 120.558 25.2 119.502 26.016C118.446 26.816 117.126 27.216 115.542 27.216C114.294 27.216 113.182 26.936 112.206 26.376C111.246 25.816 110.494 25.024 109.95 24C109.406 22.976 109.134 21.776 109.134 20.4ZM130.264 27.216C129.032 27.216 127.912 26.936 126.904 26.376C125.912 25.816 125.128 25.024 124.552 24C123.992 22.96 123.712 21.76 123.712 20.4C123.712 19.056 124 17.872 124.576 16.848C125.168 15.808 125.968 15.016 126.976 14.472C127.984 13.912 129.112 13.632 130.36 13.632C131.608 13.632 132.736 13.912 133.744 14.472C134.752 15.016 135.544 15.8 136.12 16.824C136.712 17.848 137.008 19.04 137.008 20.4C137.008 21.76 136.704 22.96 136.096 24C135.504 25.024 134.696 25.816 133.672 26.376C132.648 26.936 131.512 27.216 130.264 27.216ZM130.264 25.296C131.048 25.296 131.784 25.112 132.472 24.744C133.16 24.376 133.712 23.824 134.128 23.088C134.56 22.352 134.776 21.456 134.776 20.4C134.776 19.344 134.568 18.448 134.152 17.712C133.736 16.976 133.192 16.432 132.52 16.08C131.848 15.712 131.12 15.528 130.336 15.528C129.536 15.528 128.8 15.712 128.128 16.08C127.472 16.432 126.944 16.976 126.544 17.712C126.144 18.448 125.944 19.344 125.944 20.4C125.944 21.472 126.136 22.376 126.52 23.112C126.92 23.848 127.448 24.4 128.104 24.768C128.76 25.12 129.48 25.296 130.264 25.296ZM155.695 13.608C156.719 13.608 157.631 13.824 158.431 14.256C159.231 14.672 159.863 15.304 160.327 16.152C160.791 17 161.023 18.032 161.023 19.248V27H158.863V19.56C158.863 18.248 158.535 17.248 157.879 16.56C157.239 15.856 156.367 15.504 155.263 15.504C154.127 15.504 153.223 15.872 152.551 16.608C151.879 17.328 151.543 18.376 151.543 19.752V27H149.383V19.56C149.383 18.248 149.055 17.248 148.399 16.56C147.759 15.856 146.887 15.504 145.783 15.504C144.647 15.504 143.743 15.872 143.071 16.608C142.399 17.328 142.063 18.376 142.063 19.752V27H139.879V13.848H142.063V15.744C142.495 15.056 143.071 14.528 143.791 14.16C144.527 13.792 145.335 13.608 146.215 13.608C147.319 13.608 148.295 13.856 149.143 14.352C149.991 14.848 150.623 15.576 151.039 16.536C151.407 15.608 152.015 14.888 152.863 14.376C153.711 13.864 154.655 13.608 155.695 13.608ZM166.79 16.272C167.222 15.52 167.862 14.896 168.71 14.4C169.574 13.888 170.574 13.632 171.71 13.632C172.878 13.632 173.934 13.912 174.878 14.472C175.838 15.032 176.59 15.824 177.134 16.848C177.678 17.856 177.95 19.032 177.95 20.376C177.95 21.704 177.678 22.888 177.134 23.928C176.59 24.968 175.838 25.776 174.878 26.352C173.934 26.928 172.878 27.216 171.71 27.216C170.59 27.216 169.598 26.968 168.734 26.472C167.886 25.96 167.238 25.328 166.79 24.576V33.24H164.606V13.848H166.79V16.272ZM175.718 20.376C175.718 19.384 175.518 18.52 175.118 17.784C174.718 17.048 174.174 16.488 173.486 16.104C172.814 15.72 172.07 15.528 171.254 15.528C170.454 15.528 169.71 15.728 169.022 16.128C168.35 16.512 167.806 17.08 167.39 17.832C166.99 18.568 166.79 19.424 166.79 20.4C166.79 21.392 166.99 22.264 167.39 23.016C167.806 23.752 168.35 24.32 169.022 24.72C169.71 25.104 170.454 25.296 171.254 25.296C172.07 25.296 172.814 25.104 173.486 24.72C174.174 24.32 174.718 23.752 175.118 23.016C175.518 22.264 175.718 21.384 175.718 20.376ZM186.561 27.216C185.329 27.216 184.209 26.936 183.201 26.376C182.209 25.816 181.425 25.024 180.849 24C180.289 22.96 180.009 21.76 180.009 20.4C180.009 19.056 180.297 17.872 180.873 16.848C181.465 15.808 182.265 15.016 183.273 14.472C184.281 13.912 185.409 13.632 186.657 13.632C187.905 13.632 189.033 13.912 190.041 14.472C191.049 15.016 191.841 15.8 192.417 16.824C193.009 17.848 193.305 19.04 193.305 20.4C193.305 21.76 193.001 22.96 192.393 24C191.801 25.024 190.993 25.816 189.969 26.376C188.945 26.936 187.809 27.216 186.561 27.216ZM186.561 25.296C187.345 25.296 188.081 25.112 188.769 24.744C189.457 24.376 190.009 23.824 190.425 23.088C190.857 22.352 191.073 21.456 191.073 20.4C191.073 19.344 190.865 18.448 190.449 17.712C190.033 16.976 189.489 16.432 188.817 16.08C188.145 15.712 187.417 15.528 186.633 15.528C185.833 15.528 185.097 15.712 184.425 16.08C183.769 16.432 183.241 16.976 182.841 17.712C182.441 18.448 182.241 19.344 182.241 20.4C182.241 21.472 182.433 22.376 182.817 23.112C183.217 23.848 183.745 24.4 184.401 24.768C185.057 25.12 185.777 25.296 186.561 25.296ZM202.584 13.608C204.184 13.608 205.48 14.096 206.472 15.072C207.464 16.032 207.96 17.424 207.96 19.248V27H205.8V19.56C205.8 18.248 205.472 17.248 204.816 16.56C204.16 15.856 203.264 15.504 202.128 15.504C200.976 15.504 200.056 15.864 199.368 16.584C198.696 17.304 198.36 18.352 198.36 19.728V27H196.176V13.848H198.36V15.72C198.792 15.048 199.376 14.528 200.112 14.16C200.864 13.792 201.688 13.608 202.584 13.608ZM223.528 19.92C223.528 20.336 223.504 20.776 223.456 21.24H212.944C213.024 22.536 213.464 23.552 214.264 24.288C215.08 25.008 216.064 25.368 217.216 25.368C218.16 25.368 218.944 25.152 219.568 24.72C220.208 24.272 220.656 23.68 220.912 22.944H223.264C222.912 24.208 222.208 25.24 221.152 26.04C220.096 26.824 218.784 27.216 217.216 27.216C215.968 27.216 214.848 26.936 213.856 26.376C212.88 25.816 212.112 25.024 211.552 24C210.992 22.96 210.712 21.76 210.712 20.4C210.712 19.04 210.984 17.848 211.528 16.824C212.072 15.8 212.832 15.016 213.808 14.472C214.8 13.912 215.936 13.632 217.216 13.632C218.464 13.632 219.568 13.904 220.528 14.448C221.488 14.992 222.224 15.744 222.736 16.704C223.264 17.648 223.528 18.72 223.528 19.92ZM221.272 19.464C221.272 18.632 221.088 17.92 220.72 17.328C220.352 16.72 219.848 16.264 219.208 15.96C218.584 15.64 217.888 15.48 217.12 15.48C216.016 15.48 215.072 15.832 214.288 16.536C213.52 17.24 213.08 18.216 212.968 19.464H221.272ZM232.819 13.608C234.419 13.608 235.715 14.096 236.707 15.072C237.699 16.032 238.195 17.424 238.195 19.248V27H236.035V19.56C236.035 18.248 235.707 17.248 235.051 16.56C234.395 15.856 233.499 15.504 232.363 15.504C231.211 15.504 230.291 15.864 229.603 16.584C228.931 17.304 228.595 18.352 228.595 19.728V27H226.411V13.848H228.595V15.72C229.027 15.048 229.611 14.528 230.347 14.16C231.099 13.792 231.923 13.608 232.819 13.608ZM244.426 15.648V23.4C244.426 24.04 244.562 24.496 244.834 24.768C245.106 25.024 245.578 25.152 246.25 25.152H247.858V27H245.89C244.674 27 243.762 26.72 243.154 26.16C242.546 25.6 242.242 24.68 242.242 23.4V15.648H240.538V13.848H242.242V10.536H244.426V13.848H247.858V15.648H244.426ZM259.087 9.24V27H256.903V9.24H259.087ZM263.937 11.712C263.521 11.712 263.169 11.568 262.881 11.28C262.593 10.992 262.449 10.64 262.449 10.224C262.449 9.808 262.593 9.456 262.881 9.168C263.169 8.88 263.521 8.736 263.937 8.736C264.337 8.736 264.673 8.88 264.945 9.168C265.233 9.456 265.377 9.808 265.377 10.224C265.377 10.64 265.233 10.992 264.945 11.28C264.673 11.568 264.337 11.712 263.937 11.712ZM264.993 13.848V27H262.809V13.848H264.993ZM274.067 15.648H271.307V27H269.123V15.648H267.419V13.848H269.123V12.912C269.123 11.44 269.499 10.368 270.251 9.696C271.019 9.008 272.243 8.664 273.923 8.664V10.488C272.963 10.488 272.283 10.68 271.883 11.064C271.499 11.432 271.307 12.048 271.307 12.912V13.848H274.067V15.648ZM288.614 19.92C288.614 20.336 288.59 20.776 288.542 21.24H278.03C278.11 22.536 278.55 23.552 279.35 24.288C280.166 25.008 281.15 25.368 282.302 25.368C283.246 25.368 284.03 25.152 284.654 24.72C285.294 24.272 285.742 23.68 285.998 22.944H288.35C287.998 24.208 287.294 25.24 286.238 26.04C285.182 26.824 283.87 27.216 282.302 27.216C281.054 27.216 279.934 26.936 278.942 26.376C277.966 25.816 277.198 25.024 276.638 24C276.078 22.96 275.798 21.76 275.798 20.4C275.798 19.04 276.07 17.848 276.614 16.824C277.158 15.8 277.918 15.016 278.894 14.472C279.886 13.912 281.022 13.632 282.302 13.632C283.55 13.632 284.654 13.904 285.614 14.448C286.574 14.992 287.31 15.744 287.822 16.704C288.35 17.648 288.614 18.72 288.614 19.92ZM286.358 19.464C286.358 18.632 286.174 17.92 285.806 17.328C285.438 16.72 284.934 16.264 284.294 15.96C283.67 15.64 282.974 15.48 282.206 15.48C281.102 15.48 280.158 15.832 279.374 16.536C278.606 17.24 278.166 18.216 278.054 19.464H286.358ZM290.68 20.4C290.68 19.04 290.952 17.856 291.496 16.848C292.04 15.824 292.792 15.032 293.752 14.472C294.728 13.912 295.84 13.632 297.088 13.632C298.704 13.632 300.032 14.024 301.072 14.808C302.128 15.592 302.824 16.68 303.16 18.072H300.808C300.584 17.272 300.144 16.64 299.488 16.176C298.848 15.712 298.048 15.48 297.088 15.48C295.84 15.48 294.832 15.912 294.064 16.776C293.296 17.624 292.912 18.832 292.912 20.4C292.912 21.984 293.296 23.208 294.064 24.072C294.832 24.936 295.84 25.368 297.088 25.368C298.048 25.368 298.848 25.144 299.488 24.696C300.128 24.248 300.568 23.608 300.808 22.776H303.16C302.808 24.12 302.104 25.2 301.048 26.016C299.992 26.816 298.672 27.216 297.088 27.216C295.84 27.216 294.728 26.936 293.752 26.376C292.792 25.816 292.04 25.024 291.496 24C290.952 22.976 290.68 21.776 290.68 20.4ZM317.403 13.848L309.483 33.192H307.227L309.819 26.856L304.515 13.848H306.939L311.067 24.504L315.147 13.848H317.403ZM318.782 20.4C318.782 19.04 319.054 17.856 319.598 16.848C320.142 15.824 320.894 15.032 321.854 14.472C322.83 13.912 323.942 13.632 325.19 13.632C326.806 13.632 328.134 14.024 329.174 14.808C330.23 15.592 330.926 16.68 331.262 18.072H328.91C328.686 17.272 328.246 16.64 327.59 16.176C326.95 15.712 326.15 15.48 325.19 15.48C323.942 15.48 322.934 15.912 322.166 16.776C321.398 17.624 321.014 18.832 321.014 20.4C321.014 21.984 321.398 23.208 322.166 24.072C322.934 24.936 323.942 25.368 325.19 25.368C326.15 25.368 326.95 25.144 327.59 24.696C328.23 24.248 328.67 23.608 328.91 22.776H331.262C330.91 24.12 330.206 25.2 329.15 26.016C328.094 26.816 326.774 27.216 325.19 27.216C323.942 27.216 322.83 26.936 321.854 26.376C320.894 25.816 320.142 25.024 319.598 24C319.054 22.976 318.782 21.776 318.782 20.4ZM336.36 9.24V27H334.176V9.24H336.36ZM352.082 19.92C352.082 20.336 352.058 20.776 352.01 21.24H341.498C341.578 22.536 342.018 23.552 342.818 24.288C343.634 25.008 344.618 25.368 345.77 25.368C346.714 25.368 347.498 25.152 348.122 24.72C348.762 24.272 349.21 23.68 349.466 22.944H351.818C351.466 24.208 350.762 25.24 349.706 26.04C348.65 26.824 347.338 27.216 345.77 27.216C344.522 27.216 343.402 26.936 342.41 26.376C341.434 25.816 340.666 25.024 340.106 24C339.546 22.96 339.266 21.76 339.266 20.4C339.266 19.04 339.538 17.848 340.082 16.824C340.626 15.8 341.386 15.016 342.362 14.472C343.354 13.912 344.49 13.632 345.77 13.632C347.018 13.632 348.122 13.904 349.082 14.448C350.042 14.992 350.778 15.744 351.29 16.704C351.818 17.648 352.082 18.72 352.082 19.92ZM349.826 19.464C349.826 18.632 349.642 17.92 349.274 17.328C348.906 16.72 348.402 16.264 347.762 15.96C347.138 15.64 346.442 15.48 345.674 15.48C344.57 15.48 343.626 15.832 342.842 16.536C342.074 17.24 341.634 18.216 341.522 19.464H349.826ZM359.621 27.216C358.613 27.216 357.709 27.048 356.909 26.712C356.109 26.36 355.477 25.88 355.013 25.272C354.549 24.648 354.293 23.936 354.245 23.136H356.501C356.565 23.792 356.869 24.328 357.413 24.744C357.973 25.16 358.701 25.368 359.597 25.368C360.429 25.368 361.085 25.184 361.565 24.816C362.045 24.448 362.285 23.984 362.285 23.424C362.285 22.848 362.029 22.424 361.517 22.152C361.005 21.864 360.213 21.584 359.141 21.312C358.165 21.056 357.365 20.8 356.741 20.544C356.133 20.272 355.605 19.88 355.157 19.368C354.725 18.84 354.509 18.152 354.509 17.304C354.509 16.632 354.709 16.016 355.109 15.456C355.509 14.896 356.077 14.456 356.813 14.136C357.549 13.8 358.389 13.632 359.333 13.632C360.789 13.632 361.965 14 362.861 14.736C363.757 15.472 364.237 16.48 364.301 17.76H362.117C362.069 17.072 361.789 16.52 361.277 16.104C360.781 15.688 360.109 15.48 359.261 15.48C358.477 15.48 357.853 15.648 357.389 15.984C356.925 16.32 356.693 16.76 356.693 17.304C356.693 17.736 356.829 18.096 357.101 18.384C357.389 18.656 357.741 18.88 358.157 19.056C358.589 19.216 359.181 19.4 359.933 19.608C360.877 19.864 361.645 20.12 362.237 20.376C362.829 20.616 363.333 20.984 363.749 21.48C364.181 21.976 364.405 22.624 364.421 23.424C364.421 24.144 364.221 24.792 363.821 25.368C363.421 25.944 362.853 26.4 362.117 26.736C361.397 27.056 360.565 27.216 359.621 27.216Z" fill="black"/>
<rect x="19.5" y="51.5" width="76" height="31" rx="7.5" stroke="black"/>
<path d="M39.336 73.144C38.664 73.144 38.0613 73.032 37.528 72.808C36.9947 72.5733 36.5733 72.2533 36.264 71.848C35.9547 71.432 35.784 70.9573 35.752 70.424H37.256C37.2987 70.8613 37.5013 71.2187 37.864 71.496C38.2373 71.7733 38.7227 71.912 39.32 71.912C39.8747 71.912 40.312 71.7893 40.632 71.544C40.952 71.2987 41.112 70.9893 41.112 70.616C41.112 70.232 40.9413 69.9493 40.6 69.768C40.2587 69.576 39.7307 69.3893 39.016 69.208C38.3653 69.0373 37.832 68.8667 37.416 68.696C37.0107 68.5147 36.6587 68.2533 36.36 67.912C36.072 67.56 35.928 67.1013 35.928 66.536C35.928 66.088 36.0613 65.6773 36.328 65.304C36.5947 64.9307 36.9733 64.6373 37.464 64.424C37.9547 64.2 38.5147 64.088 39.144 64.088C40.1147 64.088 40.8987 64.3333 41.496 64.824C42.0933 65.3147 42.4133 65.9867 42.456 66.84H41C40.968 66.3813 40.7813 66.0133 40.44 65.736C40.1093 65.4587 39.6613 65.32 39.096 65.32C38.5733 65.32 38.1573 65.432 37.848 65.656C37.5387 65.88 37.384 66.1733 37.384 66.536C37.384 66.824 37.4747 67.064 37.656 67.256C37.848 67.4373 38.0827 67.5867 38.36 67.704C38.648 67.8107 39.0427 67.9333 39.544 68.072C40.1733 68.2427 40.6853 68.4133 41.08 68.584C41.4747 68.744 41.8107 68.9893 42.088 69.32C42.376 69.6507 42.5253 70.0827 42.536 70.616C42.536 71.096 42.4027 71.528 42.136 71.912C41.8693 72.296 41.4907 72.6 41 72.824C40.52 73.0373 39.9653 73.144 39.336 73.144ZM44.0474 68.6C44.0474 67.6933 44.2287 66.904 44.5914 66.232C44.954 65.5493 45.4554 65.0213 46.0954 64.648C46.746 64.2747 47.4874 64.088 48.3194 64.088C49.3967 64.088 50.282 64.3493 50.9754 64.872C51.6794 65.3947 52.1434 66.12 52.3674 67.048H50.7994C50.65 66.5147 50.3567 66.0933 49.9194 65.784C49.4927 65.4747 48.9594 65.32 48.3194 65.32C47.4874 65.32 46.8154 65.608 46.3034 66.184C45.7914 66.7493 45.5354 67.5547 45.5354 68.6C45.5354 69.656 45.7914 70.472 46.3034 71.048C46.8154 71.624 47.4874 71.912 48.3194 71.912C48.9594 71.912 49.4927 71.7627 49.9194 71.464C50.346 71.1653 50.6394 70.7387 50.7994 70.184H52.3674C52.1327 71.08 51.6634 71.8 50.9594 72.344C50.2554 72.8773 49.3754 73.144 48.3194 73.144C47.4874 73.144 46.746 72.9573 46.0954 72.584C45.4554 72.2107 44.954 71.6827 44.5914 71C44.2287 70.3173 44.0474 69.5173 44.0474 68.6ZM55.7661 65.656C56.0221 65.1547 56.3848 64.7653 56.8541 64.488C57.3341 64.2107 57.9155 64.072 58.5981 64.072V65.576H58.2141C56.5821 65.576 55.7661 66.4613 55.7661 68.232V73H54.3101V64.232H55.7661V65.656ZM61.0309 62.808C60.7535 62.808 60.5189 62.712 60.3269 62.52C60.1349 62.328 60.0389 62.0933 60.0389 61.816C60.0389 61.5387 60.1349 61.304 60.3269 61.112C60.5189 60.92 60.7535 60.824 61.0309 60.824C61.2975 60.824 61.5215 60.92 61.7029 61.112C61.8949 61.304 61.9909 61.5387 61.9909 61.816C61.9909 62.0933 61.8949 62.328 61.7029 62.52C61.5215 62.712 61.2975 62.808 61.0309 62.808ZM61.7349 64.232V73H60.2789V64.232H61.7349ZM65.6724 65.848C65.9604 65.3467 66.387 64.9307 66.9524 64.6C67.5284 64.2587 68.195 64.088 68.9524 64.088C69.731 64.088 70.435 64.2747 71.0644 64.648C71.7044 65.0213 72.2057 65.5493 72.5684 66.232C72.931 66.904 73.1124 67.688 73.1124 68.584C73.1124 69.4693 72.931 70.2587 72.5684 70.952C72.2057 71.6453 71.7044 72.184 71.0644 72.568C70.435 72.952 69.731 73.144 68.9524 73.144C68.2057 73.144 67.5444 72.9787 66.9684 72.648C66.403 72.3067 65.971 71.8853 65.6724 71.384V77.16H64.2164V64.232H65.6724V65.848ZM71.6244 68.584C71.6244 67.9227 71.491 67.3467 71.2244 66.856C70.9577 66.3653 70.595 65.992 70.1364 65.736C69.6884 65.48 69.1924 65.352 68.6484 65.352C68.115 65.352 67.619 65.4853 67.1604 65.752C66.7124 66.008 66.3497 66.3867 66.0724 66.888C65.8057 67.3787 65.6724 67.9493 65.6724 68.6C65.6724 69.2613 65.8057 69.8427 66.0724 70.344C66.3497 70.8347 66.7124 71.2133 67.1604 71.48C67.619 71.736 68.115 71.864 68.6484 71.864C69.1924 71.864 69.6884 71.736 70.1364 71.48C70.595 71.2133 70.9577 70.8347 71.2244 70.344C71.491 69.8427 71.6244 69.256 71.6244 68.584ZM76.8049 65.432V70.6C76.8049 71.0267 76.8955 71.3307 77.0769 71.512C77.2582 71.6827 77.5729 71.768 78.0209 71.768H79.0929V73H77.7809C76.9702 73 76.3622 72.8133 75.9569 72.44C75.5515 72.0667 75.3489 71.4533 75.3489 70.6V65.432H74.2129V64.232H75.3489V62.024H76.8049V64.232H79.0929V65.432H76.8049Z" fill="black"/>
<rect x="193.5" y="51.5" width="111" height="31" rx="7.5" stroke="black"/>
<path d="M218.232 62.744C219.416 62.744 220.445 62.968 221.32 63.416C222.195 63.864 222.867 64.4933 223.336 65.304C223.805 66.104 224.04 67.032 224.04 68.088C224.04 68.9307 223.901 69.7413 223.624 70.52C223.347 71.288 222.941 71.912 222.408 72.392C221.885 72.872 221.272 73.112 220.568 73.112C220.035 73.112 219.624 72.9787 219.336 72.712C219.048 72.4453 218.883 72.0827 218.84 71.624C218.509 72.0827 218.088 72.4453 217.576 72.712C217.075 72.9787 216.541 73.112 215.976 73.112C215.165 73.112 214.525 72.8667 214.056 72.376C213.597 71.8747 213.368 71.2027 213.368 70.36C213.368 69.56 213.533 68.8133 213.864 68.12C214.205 67.4267 214.675 66.872 215.272 66.456C215.869 66.0293 216.547 65.816 217.304 65.816C218.317 65.816 219 66.2 219.352 66.968L219.528 65.976H220.792L219.992 70.6C219.96 70.8027 219.944 70.9893 219.944 71.16C219.944 71.8 220.227 72.12 220.792 72.12C221.219 72.12 221.587 71.9173 221.896 71.512C222.216 71.1067 222.456 70.6 222.616 69.992C222.776 69.3733 222.856 68.7653 222.856 68.168C222.856 66.7707 222.435 65.688 221.592 64.92C220.76 64.152 219.581 63.768 218.056 63.768C216.787 63.768 215.64 64.0773 214.616 64.696C213.603 65.304 212.808 66.1413 212.232 67.208C211.656 68.2747 211.368 69.4533 211.368 70.744C211.357 72.152 211.779 73.2347 212.632 73.992C213.485 74.76 214.669 75.144 216.184 75.144C217.187 75.144 218.072 74.9627 218.84 74.6L219.032 75.592C218.083 75.9867 217.037 76.184 215.896 76.184C214.755 76.184 213.747 75.9653 212.872 75.528C212.008 75.1013 211.336 74.4827 210.856 73.672C210.387 72.872 210.152 71.9387 210.152 70.872C210.152 69.368 210.499 67.9973 211.192 66.76C211.885 65.512 212.845 64.5307 214.072 63.816C215.309 63.1013 216.696 62.744 218.232 62.744ZM216.408 71.976C216.888 71.976 217.331 71.8373 217.736 71.56C218.141 71.272 218.461 70.888 218.696 70.408C218.931 69.9173 219.048 69.384 219.048 68.808C219.048 68.2533 218.893 67.8053 218.584 67.464C218.285 67.112 217.859 66.936 217.304 66.936C216.792 66.936 216.339 67.0907 215.944 67.4C215.56 67.6987 215.261 68.0987 215.048 68.6C214.835 69.0907 214.728 69.6027 214.728 70.136C214.728 70.7013 214.872 71.1493 215.16 71.48C215.448 71.8107 215.864 71.976 216.408 71.976ZM225.891 68.6C225.891 67.6933 226.072 66.904 226.435 66.232C226.798 65.5493 227.299 65.0213 227.939 64.648C228.59 64.2747 229.331 64.088 230.163 64.088C231.24 64.088 232.126 64.3493 232.819 64.872C233.523 65.3947 233.987 66.12 234.211 67.048H232.643C232.494 66.5147 232.2 66.0933 231.763 65.784C231.336 65.4747 230.803 65.32 230.163 65.32C229.331 65.32 228.659 65.608 228.147 66.184C227.635 66.7493 227.379 67.5547 227.379 68.6C227.379 69.656 227.635 70.472 228.147 71.048C228.659 71.624 229.331 71.912 230.163 71.912C230.803 71.912 231.336 71.7627 231.763 71.464C232.19 71.1653 232.483 70.7387 232.643 70.184H234.211C233.976 71.08 233.507 71.8 232.803 72.344C232.099 72.8773 231.219 73.144 230.163 73.144C229.331 73.144 228.59 72.9573 227.939 72.584C227.299 72.2107 226.798 71.6827 226.435 71C226.072 70.3173 225.891 69.5173 225.891 68.6ZM237.61 65.656C237.866 65.1547 238.229 64.7653 238.698 64.488C239.178 64.2107 239.759 64.072 240.442 64.072V65.576H240.058C238.426 65.576 237.61 66.4613 237.61 68.232V73H236.154V64.232H237.61V65.656ZM250.123 68.28C250.123 68.5573 250.107 68.8507 250.075 69.16H243.067C243.12 70.024 243.413 70.7013 243.947 71.192C244.491 71.672 245.147 71.912 245.915 71.912C246.544 71.912 247.067 71.768 247.483 71.48C247.909 71.1813 248.208 70.7867 248.379 70.296H249.947C249.712 71.1387 249.243 71.8267 248.539 72.36C247.835 72.8827 246.96 73.144 245.915 73.144C245.083 73.144 244.336 72.9573 243.675 72.584C243.024 72.2107 242.512 71.6827 242.139 71C241.765 70.3067 241.579 69.5067 241.579 68.6C241.579 67.6933 241.76 66.8987 242.123 66.216C242.485 65.5333 242.992 65.0107 243.643 64.648C244.304 64.2747 245.061 64.088 245.915 64.088C246.747 64.088 247.483 64.2693 248.123 64.632C248.763 64.9947 249.253 65.496 249.595 66.136C249.947 66.7653 250.123 67.48 250.123 68.28ZM248.619 67.976C248.619 67.4213 248.496 66.9467 248.251 66.552C248.005 66.1467 247.669 65.8427 247.243 65.64C246.827 65.4267 246.363 65.32 245.851 65.32C245.115 65.32 244.485 65.5547 243.963 66.024C243.451 66.4933 243.157 67.144 243.083 67.976H248.619ZM251.501 68.584C251.501 67.688 251.682 66.904 252.045 66.232C252.407 65.5493 252.903 65.0213 253.533 64.648C254.173 64.2747 254.882 64.088 255.661 64.088C256.429 64.088 257.095 64.2533 257.661 64.584C258.226 64.9147 258.647 65.3307 258.925 65.832V64.232H260.397V73H258.925V71.368C258.637 71.88 258.205 72.3067 257.629 72.648C257.063 72.9787 256.402 73.144 255.645 73.144C254.866 73.144 254.162 72.952 253.533 72.568C252.903 72.184 252.407 71.6453 252.045 70.952C251.682 70.2587 251.501 69.4693 251.501 68.584ZM258.925 68.6C258.925 67.9387 258.791 67.3627 258.525 66.872C258.258 66.3813 257.895 66.008 257.437 65.752C256.989 65.4853 256.493 65.352 255.949 65.352C255.405 65.352 254.909 65.48 254.461 65.736C254.013 65.992 253.655 66.3653 253.389 66.856C253.122 67.3467 252.989 67.9227 252.989 68.584C252.989 69.256 253.122 69.8427 253.389 70.344C253.655 70.8347 254.013 71.2133 254.461 71.48C254.909 71.736 255.405 71.864 255.949 71.864C256.493 71.864 256.989 71.736 257.437 71.48C257.895 71.2133 258.258 70.8347 258.525 70.344C258.791 69.8427 258.925 69.2613 258.925 68.6ZM264.633 65.432V70.6C264.633 71.0267 264.724 71.3307 264.905 71.512C265.086 71.6827 265.401 71.768 265.849 71.768H266.921V73H265.609C264.798 73 264.19 72.8133 263.785 72.44C263.38 72.0667 263.177 71.4533 263.177 70.6V65.432H262.041V64.232H263.177V62.024H264.633V64.232H266.921V65.432H264.633ZM276.685 68.28C276.685 68.5573 276.669 68.8507 276.637 69.16H269.629C269.682 70.024 269.976 70.7013 270.509 71.192C271.053 71.672 271.709 71.912 272.477 71.912C273.106 71.912 273.629 71.768 274.045 71.48C274.472 71.1813 274.77 70.7867 274.941 70.296H276.509C276.274 71.1387 275.805 71.8267 275.101 72.36C274.397 72.8827 273.522 73.144 272.477 73.144C271.645 73.144 270.898 72.9573 270.237 72.584C269.586 72.2107 269.074 71.6827 268.701 71C268.328 70.3067 268.141 69.5067 268.141 68.6C268.141 67.6933 268.322 66.8987 268.685 66.216C269.048 65.5333 269.554 65.0107 270.205 64.648C270.866 64.2747 271.624 64.088 272.477 64.088C273.309 64.088 274.045 64.2693 274.685 64.632C275.325 64.9947 275.816 65.496 276.157 66.136C276.509 66.7653 276.685 67.48 276.685 68.28ZM275.181 67.976C275.181 67.4213 275.058 66.9467 274.813 66.552C274.568 66.1467 274.232 65.8427 273.805 65.64C273.389 65.4267 272.925 65.32 272.413 65.32C271.677 65.32 271.048 65.5547 270.525 66.024C270.013 66.4933 269.72 67.144 269.645 67.976H275.181ZM278.063 68.584C278.063 67.688 278.244 66.904 278.607 66.232C278.97 65.5493 279.466 65.0213 280.095 64.648C280.735 64.2747 281.45 64.088 282.239 64.088C282.922 64.088 283.556 64.248 284.143 64.568C284.73 64.8773 285.178 65.288 285.487 65.8V61.16H286.959V73H285.487V71.352C285.199 71.8747 284.772 72.3067 284.207 72.648C283.642 72.9787 282.98 73.144 282.223 73.144C281.444 73.144 280.735 72.952 280.095 72.568C279.466 72.184 278.97 71.6453 278.607 70.952C278.244 70.2587 278.063 69.4693 278.063 68.584ZM285.487 68.6C285.487 67.9387 285.354 67.3627 285.087 66.872C284.82 66.3813 284.458 66.008 283.999 65.752C283.551 65.4853 283.055 65.352 282.511 65.352C281.967 65.352 281.471 65.48 281.023 65.736C280.575 65.992 280.218 66.3653 279.951 66.856C279.684 67.3467 279.551 67.9227 279.551 68.584C279.551 69.256 279.684 69.8427 279.951 70.344C280.218 70.8347 280.575 71.2133 281.023 71.48C281.471 71.736 281.967 71.864 282.511 71.864C283.055 71.864 283.551 71.736 283.999 71.48C284.458 71.2133 284.82 70.8347 285.087 70.344C285.354 69.8427 285.487 69.2613 285.487 68.6Z" fill="black"/>
<rect x="402.5" y="51.5" width="170" height="31" rx="7.5" stroke="black"/>
<path d="M427.232 62.744C428.416 62.744 429.445 62.968 430.32 63.416C431.195 63.864 431.867 64.4933 432.336 65.304C432.805 66.104 433.04 67.032 433.04 68.088C433.04 68.9307 432.901 69.7413 432.624 70.52C432.347 71.288 431.941 71.912 431.408 72.392C430.885 72.872 430.272 73.112 429.568 73.112C429.035 73.112 428.624 72.9787 428.336 72.712C428.048 72.4453 427.883 72.0827 427.84 71.624C427.509 72.0827 427.088 72.4453 426.576 72.712C426.075 72.9787 425.541 73.112 424.976 73.112C424.165 73.112 423.525 72.8667 423.056 72.376C422.597 71.8747 422.368 71.2027 422.368 70.36C422.368 69.56 422.533 68.8133 422.864 68.12C423.205 67.4267 423.675 66.872 424.272 66.456C424.869 66.0293 425.547 65.816 426.304 65.816C427.317 65.816 428 66.2 428.352 66.968L428.528 65.976H429.792L428.992 70.6C428.96 70.8027 428.944 70.9893 428.944 71.16C428.944 71.8 429.227 72.12 429.792 72.12C430.219 72.12 430.587 71.9173 430.896 71.512C431.216 71.1067 431.456 70.6 431.616 69.992C431.776 69.3733 431.856 68.7653 431.856 68.168C431.856 66.7707 431.435 65.688 430.592 64.92C429.76 64.152 428.581 63.768 427.056 63.768C425.787 63.768 424.64 64.0773 423.616 64.696C422.603 65.304 421.808 66.1413 421.232 67.208C420.656 68.2747 420.368 69.4533 420.368 70.744C420.357 72.152 420.779 73.2347 421.632 73.992C422.485 74.76 423.669 75.144 425.184 75.144C426.187 75.144 427.072 74.9627 427.84 74.6L428.032 75.592C427.083 75.9867 426.037 76.184 424.896 76.184C423.755 76.184 422.747 75.9653 421.872 75.528C421.008 75.1013 420.336 74.4827 419.856 73.672C419.387 72.872 419.152 71.9387 419.152 70.872C419.152 69.368 419.499 67.9973 420.192 66.76C420.885 65.512 421.845 64.5307 423.072 63.816C424.309 63.1013 425.696 62.744 427.232 62.744ZM425.408 71.976C425.888 71.976 426.331 71.8373 426.736 71.56C427.141 71.272 427.461 70.888 427.696 70.408C427.931 69.9173 428.048 69.384 428.048 68.808C428.048 68.2533 427.893 67.8053 427.584 67.464C427.285 67.112 426.859 66.936 426.304 66.936C425.792 66.936 425.339 67.0907 424.944 67.4C424.56 67.6987 424.261 68.0987 424.048 68.6C423.835 69.0907 423.728 69.6027 423.728 70.136C423.728 70.7013 423.872 71.1493 424.16 71.48C424.448 71.8107 424.864 71.976 425.408 71.976ZM436.891 65.864C437.19 65.3413 437.627 64.9147 438.203 64.584C438.779 64.2533 439.435 64.088 440.171 64.088C440.96 64.088 441.67 64.2747 442.299 64.648C442.928 65.0213 443.424 65.5493 443.787 66.232C444.15 66.904 444.331 67.688 444.331 68.584C444.331 69.4693 444.15 70.2587 443.787 70.952C443.424 71.6453 442.923 72.184 442.283 72.568C441.654 72.952 440.95 73.144 440.171 73.144C439.414 73.144 438.747 72.9787 438.171 72.648C437.606 72.3173 437.179 71.896 436.891 71.384V73H435.435V61.16H436.891V65.864ZM442.843 68.584C442.843 67.9227 442.71 67.3467 442.443 66.856C442.176 66.3653 441.814 65.992 441.355 65.736C440.907 65.48 440.411 65.352 439.867 65.352C439.334 65.352 438.838 65.4853 438.379 65.752C437.931 66.008 437.568 66.3867 437.291 66.888C437.024 67.3787 436.891 67.9493 436.891 68.6C436.891 69.2613 437.024 69.8427 437.291 70.344C437.568 70.8347 437.931 71.2133 438.379 71.48C438.838 71.736 439.334 71.864 439.867 71.864C440.411 71.864 440.907 71.736 441.355 71.48C441.814 71.2133 442.176 70.8347 442.443 70.344C442.71 69.8427 442.843 69.256 442.843 68.584ZM454.248 68.28C454.248 68.5573 454.232 68.8507 454.2 69.16H447.192C447.245 70.024 447.538 70.7013 448.072 71.192C448.616 71.672 449.272 71.912 450.04 71.912C450.669 71.912 451.192 71.768 451.608 71.48C452.034 71.1813 452.333 70.7867 452.504 70.296H454.072C453.837 71.1387 453.368 71.8267 452.664 72.36C451.96 72.8827 451.085 73.144 450.04 73.144C449.208 73.144 448.461 72.9573 447.8 72.584C447.149 72.2107 446.637 71.6827 446.264 71C445.89 70.3067 445.704 69.5067 445.704 68.6C445.704 67.6933 445.885 66.8987 446.248 66.216C446.61 65.5333 447.117 65.0107 447.768 64.648C448.429 64.2747 449.186 64.088 450.04 64.088C450.872 64.088 451.608 64.2693 452.248 64.632C452.888 64.9947 453.378 65.496 453.72 66.136C454.072 66.7653 454.248 67.48 454.248 68.28ZM452.744 67.976C452.744 67.4213 452.621 66.9467 452.376 66.552C452.13 66.1467 451.794 65.8427 451.368 65.64C450.952 65.4267 450.488 65.32 449.976 65.32C449.24 65.32 448.61 65.5547 448.088 66.024C447.576 66.4933 447.282 67.144 447.208 67.976H452.744ZM459.738 65.432H457.898V73H456.442V65.432H455.306V64.232H456.442V63.608C456.442 62.6267 456.692 61.912 457.194 61.464C457.706 61.0053 458.522 60.776 459.641 60.776V61.992C459.002 61.992 458.548 62.12 458.282 62.376C458.026 62.6213 457.898 63.032 457.898 63.608V64.232H459.738V65.432ZM465.259 73.144C464.438 73.144 463.691 72.9573 463.019 72.584C462.358 72.2107 461.835 71.6827 461.451 71C461.078 70.3067 460.891 69.5067 460.891 68.6C460.891 67.704 461.083 66.9147 461.467 66.232C461.862 65.5387 462.395 65.0107 463.067 64.648C463.739 64.2747 464.491 64.088 465.323 64.088C466.155 64.088 466.907 64.2747 467.579 64.648C468.251 65.0107 468.779 65.5333 469.163 66.216C469.558 66.8987 469.755 67.6933 469.755 68.6C469.755 69.5067 469.552 70.3067 469.147 71C468.752 71.6827 468.214 72.2107 467.531 72.584C466.848 72.9573 466.091 73.144 465.259 73.144ZM465.259 71.864C465.782 71.864 466.272 71.7413 466.731 71.496C467.19 71.2507 467.558 70.8827 467.835 70.392C468.123 69.9013 468.267 69.304 468.267 68.6C468.267 67.896 468.128 67.2987 467.851 66.808C467.574 66.3173 467.211 65.9547 466.763 65.72C466.315 65.4747 465.83 65.352 465.307 65.352C464.774 65.352 464.283 65.4747 463.835 65.72C463.398 65.9547 463.046 66.3173 462.779 66.808C462.512 67.2987 462.379 67.896 462.379 68.6C462.379 69.3147 462.507 69.9173 462.763 70.408C463.03 70.8987 463.382 71.2667 463.819 71.512C464.256 71.7467 464.736 71.864 465.259 71.864ZM473.126 65.656C473.382 65.1547 473.744 64.7653 474.214 64.488C474.694 64.2107 475.275 64.072 475.958 64.072V65.576H475.574C473.942 65.576 473.126 66.4613 473.126 68.232V73H471.67V64.232H473.126V65.656ZM485.638 68.28C485.638 68.5573 485.622 68.8507 485.59 69.16H478.582C478.636 70.024 478.929 70.7013 479.462 71.192C480.006 71.672 480.662 71.912 481.43 71.912C482.06 71.912 482.582 71.768 482.998 71.48C483.425 71.1813 483.724 70.7867 483.894 70.296H485.462C485.228 71.1387 484.758 71.8267 484.054 72.36C483.35 72.8827 482.476 73.144 481.43 73.144C480.598 73.144 479.852 72.9573 479.19 72.584C478.54 72.2107 478.028 71.6827 477.654 71C477.281 70.3067 477.094 69.5067 477.094 68.6C477.094 67.6933 477.276 66.8987 477.638 66.216C478.001 65.5333 478.508 65.0107 479.158 64.648C479.82 64.2747 480.577 64.088 481.43 64.088C482.262 64.088 482.998 64.2693 483.638 64.632C484.278 64.9947 484.769 65.496 485.11 66.136C485.462 66.7653 485.638 67.48 485.638 68.28ZM484.134 67.976C484.134 67.4213 484.012 66.9467 483.766 66.552C483.521 66.1467 483.185 65.8427 482.758 65.64C482.342 65.4267 481.878 65.32 481.366 65.32C480.63 65.32 480.001 65.5547 479.478 66.024C478.966 66.4933 478.673 67.144 478.598 67.976H484.134ZM488.984 61.848V68.904C488.984 69.896 489.224 70.632 489.704 71.112C490.195 71.592 490.872 71.832 491.736 71.832C492.589 71.832 493.256 71.592 493.736 71.112C494.227 70.632 494.472 69.896 494.472 68.904V61.848H495.928V68.888C495.928 69.816 495.741 70.6 495.368 71.24C494.995 71.8693 494.488 72.3387 493.848 72.648C493.219 72.9573 492.509 73.112 491.72 73.112C490.931 73.112 490.216 72.9573 489.576 72.648C488.947 72.3387 488.445 71.8693 488.072 71.24C487.709 70.6 487.528 69.816 487.528 68.888V61.848H488.984ZM499.813 65.848C500.101 65.3467 500.528 64.9307 501.093 64.6C501.669 64.2587 502.336 64.088 503.093 64.088C503.872 64.088 504.576 64.2747 505.205 64.648C505.845 65.0213 506.346 65.5493 506.709 66.232C507.072 66.904 507.253 67.688 507.253 68.584C507.253 69.4693 507.072 70.2587 506.709 70.952C506.346 71.6453 505.845 72.184 505.205 72.568C504.576 72.952 503.872 73.144 503.093 73.144C502.346 73.144 501.685 72.9787 501.109 72.648C500.544 72.3067 500.112 71.8853 499.813 71.384V77.16H498.357V64.232H499.813V65.848ZM505.765 68.584C505.765 67.9227 505.632 67.3467 505.365 66.856C505.098 66.3653 504.736 65.992 504.277 65.736C503.829 65.48 503.333 65.352 502.789 65.352C502.256 65.352 501.76 65.4853 501.301 65.752C500.853 66.008 500.49 66.3867 500.213 66.888C499.946 67.3787 499.813 67.9493 499.813 68.6C499.813 69.2613 499.946 69.8427 500.213 70.344C500.49 70.8347 500.853 71.2133 501.301 71.48C501.76 71.736 502.256 71.864 502.789 71.864C503.333 71.864 503.829 71.736 504.277 71.48C504.736 71.2133 505.098 70.8347 505.365 70.344C505.632 69.8427 505.765 69.256 505.765 68.584ZM508.626 68.584C508.626 67.688 508.807 66.904 509.17 66.232C509.532 65.5493 510.028 65.0213 510.658 64.648C511.298 64.2747 512.012 64.088 512.802 64.088C513.484 64.088 514.119 64.248 514.706 64.568C515.292 64.8773 515.74 65.288 516.05 65.8V61.16H517.522V73H516.05V71.352C515.762 71.8747 515.335 72.3067 514.77 72.648C514.204 72.9787 513.543 73.144 512.786 73.144C512.007 73.144 511.298 72.952 510.658 72.568C510.028 72.184 509.532 71.6453 509.17 70.952C508.807 70.2587 508.626 69.4693 508.626 68.584ZM516.05 68.6C516.05 67.9387 515.916 67.3627 515.65 66.872C515.383 66.3813 515.02 66.008 514.562 65.752C514.114 65.4853 513.618 65.352 513.074 65.352C512.53 65.352 512.034 65.48 511.586 65.736C511.138 65.992 510.78 66.3653 510.514 66.856C510.247 67.3467 510.114 67.9227 510.114 68.584C510.114 69.256 510.247 69.8427 510.514 70.344C510.78 70.8347 511.138 71.2133 511.586 71.48C512.034 71.736 512.53 71.864 513.074 71.864C513.618 71.864 514.114 71.736 514.562 71.48C515.02 71.2133 515.383 70.8347 515.65 70.344C515.916 69.8427 516.05 69.2613 516.05 68.6ZM519.438 68.584C519.438 67.688 519.619 66.904 519.982 66.232C520.345 65.5493 520.841 65.0213 521.47 64.648C522.11 64.2747 522.819 64.088 523.598 64.088C524.366 64.088 525.033 64.2533 525.598 64.584C526.163 64.9147 526.585 65.3307 526.862 65.832V64.232H528.334V73H526.862V71.368C526.574 71.88 526.142 72.3067 525.566 72.648C525.001 72.9787 524.339 73.144 523.582 73.144C522.803 73.144 522.099 72.952 521.47 72.568C520.841 72.184 520.345 71.6453 519.982 70.952C519.619 70.2587 519.438 69.4693 519.438 68.584ZM526.862 68.6C526.862 67.9387 526.729 67.3627 526.462 66.872C526.195 66.3813 525.833 66.008 525.374 65.752C524.926 65.4853 524.43 65.352 523.886 65.352C523.342 65.352 522.846 65.48 522.398 65.736C521.95 65.992 521.593 66.3653 521.326 66.856C521.059 67.3467 520.926 67.9227 520.926 68.584C520.926 69.256 521.059 69.8427 521.326 70.344C521.593 70.8347 521.95 71.2133 522.398 71.48C522.846 71.736 523.342 71.864 523.886 71.864C524.43 71.864 524.926 71.736 525.374 71.48C525.833 71.2133 526.195 70.8347 526.462 70.344C526.729 69.8427 526.862 69.2613 526.862 68.6ZM532.571 65.432V70.6C532.571 71.0267 532.661 71.3307 532.843 71.512C533.024 71.6827 533.339 71.768 533.786 71.768H534.859V73H533.547C532.736 73 532.128 72.8133 531.723 72.44C531.317 72.0667 531.115 71.4533 531.115 70.6V65.432H529.979V64.232H531.115V62.024H532.571V64.232H534.859V65.432H532.571ZM544.623 68.28C544.623 68.5573 544.607 68.8507 544.575 69.16H537.567C537.62 70.024 537.913 70.7013 538.447 71.192C538.991 71.672 539.647 71.912 540.415 71.912C541.044 71.912 541.567 71.768 541.983 71.48C542.409 71.1813 542.708 70.7867 542.879 70.296H544.447C544.212 71.1387 543.743 71.8267 543.039 72.36C542.335 72.8827 541.46 73.144 540.415 73.144C539.583 73.144 538.836 72.9573 538.175 72.584C537.524 72.2107 537.012 71.6827 536.639 71C536.265 70.3067 536.079 69.5067 536.079 68.6C536.079 67.6933 536.26 66.8987 536.623 66.216C536.985 65.5333 537.492 65.0107 538.143 64.648C538.804 64.2747 539.561 64.088 540.415 64.088C541.247 64.088 541.983 64.2693 542.623 64.632C543.263 64.9947 543.753 65.496 544.095 66.136C544.447 66.7653 544.623 67.48 544.623 68.28ZM543.119 67.976C543.119 67.4213 542.996 66.9467 542.751 66.552C542.505 66.1467 542.169 65.8427 541.743 65.64C541.327 65.4267 540.863 65.32 540.351 65.32C539.615 65.32 538.985 65.5547 538.463 66.024C537.951 66.4933 537.657 67.144 537.583 67.976H543.119ZM546.001 68.584C546.001 67.688 546.182 66.904 546.545 66.232C546.907 65.5493 547.403 65.0213 548.033 64.648C548.673 64.2747 549.387 64.088 550.177 64.088C550.859 64.088 551.494 64.248 552.081 64.568C552.667 64.8773 553.115 65.288 553.425 65.8V61.16H554.897V73H553.425V71.352C553.137 71.8747 552.71 72.3067 552.145 72.648C551.579 72.9787 550.918 73.144 550.161 73.144C549.382 73.144 548.673 72.952 548.033 72.568C547.403 72.184 546.907 71.6453 546.545 70.952C546.182 70.2587 546.001 69.4693 546.001 68.584ZM553.425 68.6C553.425 67.9387 553.291 67.3627 553.025 66.872C552.758 66.3813 552.395 66.008 551.937 65.752C551.489 65.4853 550.993 65.352 550.449 65.352C549.905 65.352 549.409 65.48 548.961 65.736C548.513 65.992 548.155 66.3653 547.889 66.856C547.622 67.3467 547.489 67.9227 547.489 68.584C547.489 69.256 547.622 69.8427 547.889 70.344C548.155 70.8347 548.513 71.2133 548.961 71.48C549.409 71.736 549.905 71.864 550.449 71.864C550.993 71.864 551.489 71.736 551.937 71.48C552.395 71.2133 552.758 70.8347 553.025 70.344C553.291 69.8427 553.425 69.2613 553.425 68.6Z" fill="black"/>
<rect x="445.5" y="105.5" width="84" height="31" rx="7.5" stroke="black"/>
<path d="M463.688 119.656C463.944 119.155 464.307 118.765 464.776 118.488C465.256 118.211 465.837 118.072 466.52 118.072V119.576H466.136C464.504 119.576 463.688 120.461 463.688 122.232V127H462.232V118.232H463.688V119.656ZM476.201 122.28C476.201 122.557 476.185 122.851 476.153 123.16H469.145C469.198 124.024 469.491 124.701 470.025 125.192C470.569 125.672 471.225 125.912 471.993 125.912C472.622 125.912 473.145 125.768 473.561 125.48C473.987 125.181 474.286 124.787 474.457 124.296H476.025C475.79 125.139 475.321 125.827 474.617 126.36C473.913 126.883 473.038 127.144 471.993 127.144C471.161 127.144 470.414 126.957 469.753 126.584C469.102 126.211 468.59 125.683 468.217 125C467.843 124.307 467.657 123.507 467.657 122.6C467.657 121.693 467.838 120.899 468.201 120.216C468.563 119.533 469.07 119.011 469.721 118.648C470.382 118.275 471.139 118.088 471.993 118.088C472.825 118.088 473.561 118.269 474.201 118.632C474.841 118.995 475.331 119.496 475.673 120.136C476.025 120.765 476.201 121.48 476.201 122.28ZM474.697 121.976C474.697 121.421 474.574 120.947 474.329 120.552C474.083 120.147 473.747 119.843 473.321 119.64C472.905 119.427 472.441 119.32 471.929 119.32C471.193 119.32 470.563 119.555 470.041 120.024C469.529 120.493 469.235 121.144 469.161 121.976H474.697ZM482.395 118.072C483.461 118.072 484.325 118.397 484.987 119.048C485.648 119.688 485.979 120.616 485.979 121.832V127H484.539V122.04C484.539 121.165 484.32 120.499 483.883 120.04C483.445 119.571 482.848 119.336 482.091 119.336C481.323 119.336 480.709 119.576 480.251 120.056C479.803 120.536 479.579 121.235 479.579 122.152V127H478.123V118.232H479.579V119.48C479.867 119.032 480.256 118.685 480.747 118.44C481.248 118.195 481.797 118.072 482.395 118.072ZM487.813 122.584C487.813 121.688 487.994 120.904 488.357 120.232C488.72 119.549 489.216 119.021 489.845 118.648C490.485 118.275 491.2 118.088 491.989 118.088C492.672 118.088 493.306 118.248 493.893 118.568C494.48 118.877 494.928 119.288 495.237 119.8V115.16H496.709V127H495.237V125.352C494.949 125.875 494.522 126.307 493.957 126.648C493.392 126.979 492.73 127.144 491.973 127.144C491.194 127.144 490.485 126.952 489.845 126.568C489.216 126.184 488.72 125.645 488.357 124.952C487.994 124.259 487.813 123.469 487.813 122.584ZM495.237 122.6C495.237 121.939 495.104 121.363 494.837 120.872C494.57 120.381 494.208 120.008 493.749 119.752C493.301 119.485 492.805 119.352 492.261 119.352C491.717 119.352 491.221 119.48 490.773 119.736C490.325 119.992 489.968 120.365 489.701 120.856C489.434 121.347 489.301 121.923 489.301 122.584C489.301 123.256 489.434 123.843 489.701 124.344C489.968 124.835 490.325 125.213 490.773 125.48C491.221 125.736 491.717 125.864 492.261 125.864C492.805 125.864 493.301 125.736 493.749 125.48C494.208 125.213 494.57 124.835 494.837 124.344C495.104 123.843 495.237 123.261 495.237 122.6ZM507.17 122.28C507.17 122.557 507.154 122.851 507.122 123.16H500.114C500.167 124.024 500.46 124.701 500.994 125.192C501.538 125.672 502.194 125.912 502.962 125.912C503.591 125.912 504.114 125.768 504.53 125.48C504.956 125.181 505.255 124.787 505.426 124.296H506.994C506.759 125.139 506.29 125.827 505.586 126.36C504.882 126.883 504.007 127.144 502.962 127.144C502.13 127.144 501.383 126.957 500.722 126.584C500.071 126.211 499.559 125.683 499.186 125C498.812 124.307 498.626 123.507 498.626 122.6C498.626 121.693 498.807 120.899 499.17 120.216C499.532 119.533 500.039 119.011 500.69 118.648C501.351 118.275 502.108 118.088 502.962 118.088C503.794 118.088 504.53 118.269 505.17 118.632C505.81 118.995 506.3 119.496 506.642 120.136C506.994 120.765 507.17 121.48 507.17 122.28ZM505.666 121.976C505.666 121.421 505.543 120.947 505.298 120.552C505.052 120.147 504.716 119.843 504.29 119.64C503.874 119.427 503.41 119.32 502.898 119.32C502.162 119.32 501.532 119.555 501.01 120.024C500.498 120.493 500.204 121.144 500.13 121.976H505.666ZM510.547 119.656C510.803 119.155 511.166 118.765 511.635 118.488C512.115 118.211 512.697 118.072 513.379 118.072V119.576H512.995C511.363 119.576 510.547 120.461 510.547 122.232V127H509.091V118.232H510.547V119.656Z" fill="black"/>
<rect x="453.5" y="159.5" width="69" height="31" rx="7.5" stroke="black"/>
<path d="M473.336 181.144C472.664 181.144 472.061 181.032 471.528 180.808C470.995 180.573 470.573 180.253 470.264 179.848C469.955 179.432 469.784 178.957 469.752 178.424H471.256C471.299 178.861 471.501 179.219 471.864 179.496C472.237 179.773 472.723 179.912 473.32 179.912C473.875 179.912 474.312 179.789 474.632 179.544C474.952 179.299 475.112 178.989 475.112 178.616C475.112 178.232 474.941 177.949 474.6 177.768C474.259 177.576 473.731 177.389 473.016 177.208C472.365 177.037 471.832 176.867 471.416 176.696C471.011 176.515 470.659 176.253 470.36 175.912C470.072 175.56 469.928 175.101 469.928 174.536C469.928 174.088 470.061 173.677 470.328 173.304C470.595 172.931 470.973 172.637 471.464 172.424C471.955 172.2 472.515 172.088 473.144 172.088C474.115 172.088 474.899 172.333 475.496 172.824C476.093 173.315 476.413 173.987 476.456 174.84H475C474.968 174.381 474.781 174.013 474.44 173.736C474.109 173.459 473.661 173.32 473.096 173.32C472.573 173.32 472.157 173.432 471.848 173.656C471.539 173.88 471.384 174.173 471.384 174.536C471.384 174.824 471.475 175.064 471.656 175.256C471.848 175.437 472.083 175.587 472.36 175.704C472.648 175.811 473.043 175.933 473.544 176.072C474.173 176.243 474.685 176.413 475.08 176.584C475.475 176.744 475.811 176.989 476.088 177.32C476.376 177.651 476.525 178.083 476.536 178.616C476.536 179.096 476.403 179.528 476.136 179.912C475.869 180.296 475.491 180.6 475 180.824C474.52 181.037 473.965 181.144 473.336 181.144ZM480.367 173.432V178.6C480.367 179.027 480.458 179.331 480.639 179.512C480.821 179.683 481.135 179.768 481.583 179.768H482.655V181H481.343C480.533 181 479.925 180.813 479.519 180.44C479.114 180.067 478.911 179.453 478.911 178.6V173.432H477.775V172.232H478.911V170.024H480.367V172.232H482.655V173.432H480.367ZM491.972 172.232L486.692 185.128H485.188L486.916 180.904L483.38 172.232H484.996L487.748 179.336L490.468 172.232H491.972ZM494.891 169.16V181H493.435V169.16H494.891ZM505.373 176.28C505.373 176.557 505.357 176.851 505.325 177.16H498.317C498.37 178.024 498.663 178.701 499.197 179.192C499.741 179.672 500.397 179.912 501.165 179.912C501.794 179.912 502.317 179.768 502.733 179.48C503.159 179.181 503.458 178.787 503.629 178.296H505.197C504.962 179.139 504.493 179.827 503.789 180.36C503.085 180.883 502.21 181.144 501.165 181.144C500.333 181.144 499.586 180.957 498.925 180.584C498.274 180.211 497.762 179.683 497.389 179C497.015 178.307 496.829 177.507 496.829 176.6C496.829 175.693 497.01 174.899 497.373 174.216C497.735 173.533 498.242 173.011 498.893 172.648C499.554 172.275 500.311 172.088 501.165 172.088C501.997 172.088 502.733 172.269 503.373 172.632C504.013 172.995 504.503 173.496 504.845 174.136C505.197 174.765 505.373 175.48 505.373 176.28ZM503.869 175.976C503.869 175.421 503.746 174.947 503.501 174.552C503.255 174.147 502.919 173.843 502.493 173.64C502.077 173.427 501.613 173.32 501.101 173.32C500.365 173.32 499.735 173.555 499.213 174.024C498.701 174.493 498.407 175.144 498.333 175.976H503.869Z" fill="black"/>
<rect x="293.5" y="159.5" width="121" height="31" rx="7.5" stroke="black"/>
<path d="M318.232 170.744C319.416 170.744 320.445 170.968 321.32 171.416C322.195 171.864 322.867 172.493 323.336 173.304C323.805 174.104 324.04 175.032 324.04 176.088C324.04 176.931 323.901 177.741 323.624 178.52C323.347 179.288 322.941 179.912 322.408 180.392C321.885 180.872 321.272 181.112 320.568 181.112C320.035 181.112 319.624 180.979 319.336 180.712C319.048 180.445 318.883 180.083 318.84 179.624C318.509 180.083 318.088 180.445 317.576 180.712C317.075 180.979 316.541 181.112 315.976 181.112C315.165 181.112 314.525 180.867 314.056 180.376C313.597 179.875 313.368 179.203 313.368 178.36C313.368 177.56 313.533 176.813 313.864 176.12C314.205 175.427 314.675 174.872 315.272 174.456C315.869 174.029 316.547 173.816 317.304 173.816C318.317 173.816 319 174.2 319.352 174.968L319.528 173.976H320.792L319.992 178.6C319.96 178.803 319.944 178.989 319.944 179.16C319.944 179.8 320.227 180.12 320.792 180.12C321.219 180.12 321.587 179.917 321.896 179.512C322.216 179.107 322.456 178.6 322.616 177.992C322.776 177.373 322.856 176.765 322.856 176.168C322.856 174.771 322.435 173.688 321.592 172.92C320.76 172.152 319.581 171.768 318.056 171.768C316.787 171.768 315.64 172.077 314.616 172.696C313.603 173.304 312.808 174.141 312.232 175.208C311.656 176.275 311.368 177.453 311.368 178.744C311.357 180.152 311.779 181.235 312.632 181.992C313.485 182.76 314.669 183.144 316.184 183.144C317.187 183.144 318.072 182.963 318.84 182.6L319.032 183.592C318.083 183.987 317.037 184.184 315.896 184.184C314.755 184.184 313.747 183.965 312.872 183.528C312.008 183.101 311.336 182.483 310.856 181.672C310.387 180.872 310.152 179.939 310.152 178.872C310.152 177.368 310.499 175.997 311.192 174.76C311.885 173.512 312.845 172.531 314.072 171.816C315.309 171.101 316.696 170.744 318.232 170.744ZM316.408 179.976C316.888 179.976 317.331 179.837 317.736 179.56C318.141 179.272 318.461 178.888 318.696 178.408C318.931 177.917 319.048 177.384 319.048 176.808C319.048 176.253 318.893 175.805 318.584 175.464C318.285 175.112 317.859 174.936 317.304 174.936C316.792 174.936 316.339 175.091 315.944 175.4C315.56 175.699 315.261 176.099 315.048 176.6C314.835 177.091 314.728 177.603 314.728 178.136C314.728 178.701 314.872 179.149 315.16 179.48C315.448 179.811 315.864 179.976 316.408 179.976ZM327.891 173.656C328.147 173.155 328.51 172.765 328.979 172.488C329.459 172.211 330.04 172.072 330.723 172.072V173.576H330.339C328.707 173.576 327.891 174.461 327.891 176.232V181H326.435V172.232H327.891V173.656ZM340.404 176.28C340.404 176.557 340.388 176.851 340.356 177.16H333.348C333.401 178.024 333.695 178.701 334.228 179.192C334.772 179.672 335.428 179.912 336.196 179.912C336.825 179.912 337.348 179.768 337.764 179.48C338.191 179.181 338.489 178.787 338.66 178.296H340.228C339.993 179.139 339.524 179.827 338.82 180.36C338.116 180.883 337.241 181.144 336.196 181.144C335.364 181.144 334.617 180.957 333.956 180.584C333.305 180.211 332.793 179.683 332.42 179C332.047 178.307 331.86 177.507 331.86 176.6C331.86 175.693 332.041 174.899 332.404 174.216C332.767 173.533 333.273 173.011 333.924 172.648C334.585 172.275 335.343 172.088 336.196 172.088C337.028 172.088 337.764 172.269 338.404 172.632C339.044 172.995 339.535 173.496 339.876 174.136C340.228 174.765 340.404 175.48 340.404 176.28ZM338.9 175.976C338.9 175.421 338.777 174.947 338.532 174.552C338.287 174.147 337.951 173.843 337.524 173.64C337.108 173.427 336.644 173.32 336.132 173.32C335.396 173.32 334.767 173.555 334.244 174.024C333.732 174.493 333.439 175.144 333.364 175.976H338.9ZM346.598 172.072C347.664 172.072 348.528 172.397 349.19 173.048C349.851 173.688 350.182 174.616 350.182 175.832V181H348.742V176.04C348.742 175.165 348.523 174.499 348.086 174.04C347.648 173.571 347.051 173.336 346.294 173.336C345.526 173.336 344.912 173.576 344.454 174.056C344.006 174.536 343.782 175.235 343.782 176.152V181H342.326V172.232H343.782V173.48C344.07 173.032 344.459 172.685 344.95 172.44C345.451 172.195 346 172.072 346.598 172.072ZM352.016 176.584C352.016 175.688 352.197 174.904 352.56 174.232C352.923 173.549 353.419 173.021 354.048 172.648C354.688 172.275 355.403 172.088 356.192 172.088C356.875 172.088 357.509 172.248 358.096 172.568C358.683 172.877 359.131 173.288 359.44 173.8V169.16H360.912V181H359.44V179.352C359.152 179.875 358.725 180.307 358.16 180.648C357.595 180.979 356.933 181.144 356.176 181.144C355.397 181.144 354.688 180.952 354.048 180.568C353.419 180.184 352.923 179.645 352.56 178.952C352.197 178.259 352.016 177.469 352.016 176.584ZM359.44 176.6C359.44 175.939 359.307 175.363 359.04 174.872C358.773 174.381 358.411 174.008 357.952 173.752C357.504 173.485 357.008 173.352 356.464 173.352C355.92 173.352 355.424 173.48 354.976 173.736C354.528 173.992 354.171 174.365 353.904 174.856C353.637 175.347 353.504 175.923 353.504 176.584C353.504 177.256 353.637 177.843 353.904 178.344C354.171 178.835 354.528 179.213 354.976 179.48C355.424 179.736 355.92 179.864 356.464 179.864C357.008 179.864 357.504 179.736 357.952 179.48C358.411 179.213 358.773 178.835 359.04 178.344C359.307 177.843 359.44 177.261 359.44 176.6ZM371.373 176.28C371.373 176.557 371.357 176.851 371.325 177.16H364.317C364.37 178.024 364.663 178.701 365.197 179.192C365.741 179.672 366.397 179.912 367.165 179.912C367.794 179.912 368.317 179.768 368.733 179.48C369.159 179.181 369.458 178.787 369.629 178.296H371.197C370.962 179.139 370.493 179.827 369.789 180.36C369.085 180.883 368.21 181.144 367.165 181.144C366.333 181.144 365.586 180.957 364.925 180.584C364.274 180.211 363.762 179.683 363.389 179C363.015 178.307 362.829 177.507 362.829 176.6C362.829 175.693 363.01 174.899 363.373 174.216C363.735 173.533 364.242 173.011 364.893 172.648C365.554 172.275 366.311 172.088 367.165 172.088C367.997 172.088 368.733 172.269 369.373 172.632C370.013 172.995 370.503 173.496 370.845 174.136C371.197 174.765 371.373 175.48 371.373 176.28ZM369.869 175.976C369.869 175.421 369.746 174.947 369.501 174.552C369.255 174.147 368.919 173.843 368.493 173.64C368.077 173.427 367.613 173.32 367.101 173.32C366.365 173.32 365.735 173.555 365.213 174.024C364.701 174.493 364.407 175.144 364.333 175.976H369.869ZM374.751 173.656C375.007 173.155 375.369 172.765 375.839 172.488C376.319 172.211 376.9 172.072 377.583 172.072V173.576H377.199C375.567 173.576 374.751 174.461 374.751 176.232V181H373.295V172.232H374.751V173.656ZM387.263 176.28C387.263 176.557 387.247 176.851 387.215 177.16H380.207C380.261 178.024 380.554 178.701 381.087 179.192C381.631 179.672 382.287 179.912 383.055 179.912C383.685 179.912 384.207 179.768 384.623 179.48C385.05 179.181 385.349 178.787 385.519 178.296H387.087C386.853 179.139 386.383 179.827 385.679 180.36C384.975 180.883 384.101 181.144 383.055 181.144C382.223 181.144 381.477 180.957 380.815 180.584C380.165 180.211 379.653 179.683 379.279 179C378.906 178.307 378.719 177.507 378.719 176.6C378.719 175.693 378.901 174.899 379.263 174.216C379.626 173.533 380.133 173.011 380.783 172.648C381.445 172.275 382.202 172.088 383.055 172.088C383.887 172.088 384.623 172.269 385.263 172.632C385.903 172.995 386.394 173.496 386.735 174.136C387.087 174.765 387.263 175.48 387.263 176.28ZM385.759 175.976C385.759 175.421 385.637 174.947 385.391 174.552C385.146 174.147 384.81 173.843 384.383 173.64C383.967 173.427 383.503 173.32 382.991 173.32C382.255 173.32 381.626 173.555 381.103 174.024C380.591 174.493 380.298 175.144 380.223 175.976H385.759ZM388.641 176.584C388.641 175.688 388.822 174.904 389.185 174.232C389.548 173.549 390.044 173.021 390.673 172.648C391.313 172.275 392.028 172.088 392.817 172.088C393.5 172.088 394.134 172.248 394.721 172.568C395.308 172.877 395.756 173.288 396.065 173.8V169.16H397.537V181H396.065V179.352C395.777 179.875 395.35 180.307 394.785 180.648C394.22 180.979 393.558 181.144 392.801 181.144C392.022 181.144 391.313 180.952 390.673 180.568C390.044 180.184 389.548 179.645 389.185 178.952C388.822 178.259 388.641 177.469 388.641 176.584ZM396.065 176.6C396.065 175.939 395.932 175.363 395.665 174.872C395.398 174.381 395.036 174.008 394.577 173.752C394.129 173.485 393.633 173.352 393.089 173.352C392.545 173.352 392.049 173.48 391.601 173.736C391.153 173.992 390.796 174.365 390.529 174.856C390.262 175.347 390.129 175.923 390.129 176.584C390.129 177.256 390.262 177.843 390.529 178.344C390.796 178.835 391.153 179.213 391.601 179.48C392.049 179.736 392.545 179.864 393.089 179.864C393.633 179.864 394.129 179.736 394.577 179.48C395.036 179.213 395.398 178.835 395.665 178.344C395.932 177.843 396.065 177.261 396.065 176.6Z" fill="black"/>
<rect x="145.5" y="159.5" width="117" height="31" rx="7.5" stroke="black"/>
<path d="M170.232 170.744C171.416 170.744 172.445 170.968 173.32 171.416C174.195 171.864 174.867 172.493 175.336 173.304C175.805 174.104 176.04 175.032 176.04 176.088C176.04 176.931 175.901 177.741 175.624 178.52C175.347 179.288 174.941 179.912 174.408 180.392C173.885 180.872 173.272 181.112 172.568 181.112C172.035 181.112 171.624 180.979 171.336 180.712C171.048 180.445 170.883 180.083 170.84 179.624C170.509 180.083 170.088 180.445 169.576 180.712C169.075 180.979 168.541 181.112 167.976 181.112C167.165 181.112 166.525 180.867 166.056 180.376C165.597 179.875 165.368 179.203 165.368 178.36C165.368 177.56 165.533 176.813 165.864 176.12C166.205 175.427 166.675 174.872 167.272 174.456C167.869 174.029 168.547 173.816 169.304 173.816C170.317 173.816 171 174.2 171.352 174.968L171.528 173.976H172.792L171.992 178.6C171.96 178.803 171.944 178.989 171.944 179.16C171.944 179.8 172.227 180.12 172.792 180.12C173.219 180.12 173.587 179.917 173.896 179.512C174.216 179.107 174.456 178.6 174.616 177.992C174.776 177.373 174.856 176.765 174.856 176.168C174.856 174.771 174.435 173.688 173.592 172.92C172.76 172.152 171.581 171.768 170.056 171.768C168.787 171.768 167.64 172.077 166.616 172.696C165.603 173.304 164.808 174.141 164.232 175.208C163.656 176.275 163.368 177.453 163.368 178.744C163.357 180.152 163.779 181.235 164.632 181.992C165.485 182.76 166.669 183.144 168.184 183.144C169.187 183.144 170.072 182.963 170.84 182.6L171.032 183.592C170.083 183.987 169.037 184.184 167.896 184.184C166.755 184.184 165.747 183.965 164.872 183.528C164.008 183.101 163.336 182.483 162.856 181.672C162.387 180.872 162.152 179.939 162.152 178.872C162.152 177.368 162.499 175.997 163.192 174.76C163.885 173.512 164.845 172.531 166.072 171.816C167.309 171.101 168.696 170.744 170.232 170.744ZM168.408 179.976C168.888 179.976 169.331 179.837 169.736 179.56C170.141 179.272 170.461 178.888 170.696 178.408C170.931 177.917 171.048 177.384 171.048 176.808C171.048 176.253 170.893 175.805 170.584 175.464C170.285 175.112 169.859 174.936 169.304 174.936C168.792 174.936 168.339 175.091 167.944 175.4C167.56 175.699 167.261 176.099 167.048 176.6C166.835 177.091 166.728 177.603 166.728 178.136C166.728 178.701 166.872 179.149 167.16 179.48C167.448 179.811 167.864 179.976 168.408 179.976ZM186.211 172.232V181H184.755V179.704C184.478 180.152 184.088 180.504 183.587 180.76C183.096 181.005 182.552 181.128 181.955 181.128C181.272 181.128 180.659 180.989 180.115 180.712C179.571 180.424 179.139 179.997 178.819 179.432C178.51 178.867 178.355 178.179 178.355 177.368V172.232H179.795V177.176C179.795 178.04 180.014 178.707 180.451 179.176C180.888 179.635 181.486 179.864 182.243 179.864C183.022 179.864 183.635 179.624 184.083 179.144C184.531 178.664 184.755 177.965 184.755 177.048V172.232H186.211ZM190.126 173.848C190.414 173.347 190.84 172.931 191.406 172.6C191.982 172.259 192.648 172.088 193.406 172.088C194.184 172.088 194.888 172.275 195.517 172.648C196.157 173.021 196.659 173.549 197.022 174.232C197.384 174.904 197.566 175.688 197.566 176.584C197.566 177.469 197.384 178.259 197.022 178.952C196.659 179.645 196.157 180.184 195.517 180.568C194.888 180.952 194.184 181.144 193.406 181.144C192.659 181.144 191.998 180.979 191.422 180.648C190.856 180.307 190.424 179.885 190.126 179.384V185.16H188.67V172.232H190.126V173.848ZM196.078 176.584C196.078 175.923 195.944 175.347 195.678 174.856C195.411 174.365 195.048 173.992 194.59 173.736C194.142 173.48 193.646 173.352 193.102 173.352C192.568 173.352 192.072 173.485 191.614 173.752C191.166 174.008 190.803 174.387 190.526 174.888C190.259 175.379 190.126 175.949 190.126 176.6C190.126 177.261 190.259 177.843 190.526 178.344C190.803 178.835 191.166 179.213 191.614 179.48C192.072 179.736 192.568 179.864 193.102 179.864C193.646 179.864 194.142 179.736 194.59 179.48C195.048 179.213 195.411 178.835 195.678 178.344C195.944 177.843 196.078 177.256 196.078 176.584ZM198.938 176.584C198.938 175.688 199.119 174.904 199.482 174.232C199.845 173.549 200.341 173.021 200.97 172.648C201.61 172.275 202.325 172.088 203.114 172.088C203.797 172.088 204.431 172.248 205.018 172.568C205.605 172.877 206.053 173.288 206.362 173.8V169.16H207.834V181H206.362V179.352C206.074 179.875 205.647 180.307 205.082 180.648C204.517 180.979 203.855 181.144 203.098 181.144C202.319 181.144 201.61 180.952 200.97 180.568C200.341 180.184 199.845 179.645 199.482 178.952C199.119 178.259 198.938 177.469 198.938 176.584ZM206.362 176.6C206.362 175.939 206.229 175.363 205.962 174.872C205.695 174.381 205.333 174.008 204.874 173.752C204.426 173.485 203.93 173.352 203.386 173.352C202.842 173.352 202.346 173.48 201.898 173.736C201.45 173.992 201.093 174.365 200.826 174.856C200.559 175.347 200.426 175.923 200.426 176.584C200.426 177.256 200.559 177.843 200.826 178.344C201.093 178.835 201.45 179.213 201.898 179.48C202.346 179.736 202.842 179.864 203.386 179.864C203.93 179.864 204.426 179.736 204.874 179.48C205.333 179.213 205.695 178.835 205.962 178.344C206.229 177.843 206.362 177.261 206.362 176.6ZM209.751 176.584C209.751 175.688 209.932 174.904 210.295 174.232C210.657 173.549 211.153 173.021 211.783 172.648C212.423 172.275 213.132 172.088 213.911 172.088C214.679 172.088 215.345 172.253 215.911 172.584C216.476 172.915 216.897 173.331 217.175 173.832V172.232H218.647V181H217.175V179.368C216.887 179.88 216.455 180.307 215.879 180.648C215.313 180.979 214.652 181.144 213.895 181.144C213.116 181.144 212.412 180.952 211.783 180.568C211.153 180.184 210.657 179.645 210.295 178.952C209.932 178.259 209.751 177.469 209.751 176.584ZM217.175 176.6C217.175 175.939 217.041 175.363 216.775 174.872C216.508 174.381 216.145 174.008 215.687 173.752C215.239 173.485 214.743 173.352 214.199 173.352C213.655 173.352 213.159 173.48 212.711 173.736C212.263 173.992 211.905 174.365 211.639 174.856C211.372 175.347 211.239 175.923 211.239 176.584C211.239 177.256 211.372 177.843 211.639 178.344C211.905 178.835 212.263 179.213 212.711 179.48C213.159 179.736 213.655 179.864 214.199 179.864C214.743 179.864 215.239 179.736 215.687 179.48C216.145 179.213 216.508 178.835 216.775 178.344C217.041 177.843 217.175 177.261 217.175 176.6ZM222.883 173.432V178.6C222.883 179.027 222.974 179.331 223.155 179.512C223.336 179.683 223.651 179.768 224.099 179.768H225.171V181H223.859C223.048 181 222.44 180.813 222.035 180.44C221.63 180.067 221.427 179.453 221.427 178.6V173.432H220.291V172.232H221.427V170.024H222.883V172.232H225.171V173.432H222.883ZM234.935 176.28C234.935 176.557 234.919 176.851 234.887 177.16H227.879C227.932 178.024 228.226 178.701 228.759 179.192C229.303 179.672 229.959 179.912 230.727 179.912C231.356 179.912 231.879 179.768 232.295 179.48C232.722 179.181 233.02 178.787 233.191 178.296H234.759C234.524 179.139 234.055 179.827 233.351 180.36C232.647 180.883 231.772 181.144 230.727 181.144C229.895 181.144 229.148 180.957 228.487 180.584C227.836 180.211 227.324 179.683 226.951 179C226.578 178.307 226.391 177.507 226.391 176.6C226.391 175.693 226.572 174.899 226.935 174.216C227.298 173.533 227.804 173.011 228.455 172.648C229.116 172.275 229.874 172.088 230.727 172.088C231.559 172.088 232.295 172.269 232.935 172.632C233.575 172.995 234.066 173.496 234.407 174.136C234.759 174.765 234.935 175.48 234.935 176.28ZM233.431 175.976C233.431 175.421 233.308 174.947 233.063 174.552C232.818 174.147 232.482 173.843 232.055 173.64C231.639 173.427 231.175 173.32 230.663 173.32C229.927 173.32 229.298 173.555 228.775 174.024C228.263 174.493 227.97 175.144 227.895 175.976H233.431ZM236.313 176.584C236.313 175.688 236.494 174.904 236.857 174.232C237.22 173.549 237.716 173.021 238.345 172.648C238.985 172.275 239.7 172.088 240.489 172.088C241.172 172.088 241.806 172.248 242.393 172.568C242.98 172.877 243.428 173.288 243.737 173.8V169.16H245.209V181H243.737V179.352C243.449 179.875 243.022 180.307 242.457 180.648C241.892 180.979 241.23 181.144 240.473 181.144C239.694 181.144 238.985 180.952 238.345 180.568C237.716 180.184 237.22 179.645 236.857 178.952C236.494 178.259 236.313 177.469 236.313 176.584ZM243.737 176.6C243.737 175.939 243.604 175.363 243.337 174.872C243.07 174.381 242.708 174.008 242.249 173.752C241.801 173.485 241.305 173.352 240.761 173.352C240.217 173.352 239.721 173.48 239.273 173.736C238.825 173.992 238.468 174.365 238.201 174.856C237.934 175.347 237.801 175.923 237.801 176.584C237.801 177.256 237.934 177.843 238.201 178.344C238.468 178.835 238.825 179.213 239.273 179.48C239.721 179.736 240.217 179.864 240.761 179.864C241.305 179.864 241.801 179.736 242.249 179.48C242.708 179.213 243.07 178.835 243.337 178.344C243.604 177.843 243.737 177.261 243.737 176.6Z" fill="black"/>
<rect x="19.5" y="159.5" width="96" height="31" rx="7.5" stroke="black"/>
<path d="M44.232 170.744C45.416 170.744 46.4453 170.968 47.32 171.416C48.1947 171.864 48.8667 172.493 49.336 173.304C49.8053 174.104 50.04 175.032 50.04 176.088C50.04 176.931 49.9013 177.741 49.624 178.52C49.3467 179.288 48.9413 179.912 48.408 180.392C47.8853 180.872 47.272 181.112 46.568 181.112C46.0347 181.112 45.624 180.979 45.336 180.712C45.048 180.445 44.8827 180.083 44.84 179.624C44.5093 180.083 44.088 180.445 43.576 180.712C43.0747 180.979 42.5413 181.112 41.976 181.112C41.1653 181.112 40.5253 180.867 40.056 180.376C39.5973 179.875 39.368 179.203 39.368 178.36C39.368 177.56 39.5333 176.813 39.864 176.12C40.2053 175.427 40.6747 174.872 41.272 174.456C41.8693 174.029 42.5467 173.816 43.304 173.816C44.3173 173.816 45 174.2 45.352 174.968L45.528 173.976H46.792L45.992 178.6C45.96 178.803 45.944 178.989 45.944 179.16C45.944 179.8 46.2267 180.12 46.792 180.12C47.2187 180.12 47.5867 179.917 47.896 179.512C48.216 179.107 48.456 178.6 48.616 177.992C48.776 177.373 48.856 176.765 48.856 176.168C48.856 174.771 48.4347 173.688 47.592 172.92C46.76 172.152 45.5813 171.768 44.056 171.768C42.7867 171.768 41.64 172.077 40.616 172.696C39.6027 173.304 38.808 174.141 38.232 175.208C37.656 176.275 37.368 177.453 37.368 178.744C37.3573 180.152 37.7787 181.235 38.632 181.992C39.4853 182.76 40.6693 183.144 42.184 183.144C43.1867 183.144 44.072 182.963 44.84 182.6L45.032 183.592C44.0827 183.987 43.0373 184.184 41.896 184.184C40.7547 184.184 39.7467 183.965 38.872 183.528C38.008 183.101 37.336 182.483 36.856 181.672C36.3867 180.872 36.152 179.939 36.152 178.872C36.152 177.368 36.4987 175.997 37.192 174.76C37.8853 173.512 38.8453 172.531 40.072 171.816C41.3093 171.101 42.696 170.744 44.232 170.744ZM42.408 179.976C42.888 179.976 43.3307 179.837 43.736 179.56C44.1413 179.272 44.4613 178.888 44.696 178.408C44.9307 177.917 45.048 177.384 45.048 176.808C45.048 176.253 44.8933 175.805 44.584 175.464C44.2853 175.112 43.8587 174.936 43.304 174.936C42.792 174.936 42.3387 175.091 41.944 175.4C41.56 175.699 41.2613 176.099 41.048 176.6C40.8347 177.091 40.728 177.603 40.728 178.136C40.728 178.701 40.872 179.149 41.16 179.48C41.448 179.811 41.864 179.976 42.408 179.976ZM60.4351 176.28C60.4351 176.557 60.4191 176.851 60.3871 177.16H53.3791C53.4325 178.024 53.7258 178.701 54.2591 179.192C54.8031 179.672 55.4591 179.912 56.2271 179.912C56.8565 179.912 57.3791 179.768 57.7951 179.48C58.2218 179.181 58.5205 178.787 58.6911 178.296H60.2591C60.0245 179.139 59.5551 179.827 58.8511 180.36C58.1471 180.883 57.2725 181.144 56.2271 181.144C55.3951 181.144 54.6485 180.957 53.9871 180.584C53.3365 180.211 52.8245 179.683 52.4511 179C52.0778 178.307 51.8911 177.507 51.8911 176.6C51.8911 175.693 52.0725 174.899 52.4351 174.216C52.7978 173.533 53.3045 173.011 53.9551 172.648C54.6165 172.275 55.3738 172.088 56.2271 172.088C57.0591 172.088 57.7951 172.269 58.4351 172.632C59.0751 172.995 59.5658 173.496 59.9071 174.136C60.2591 174.765 60.4351 175.48 60.4351 176.28ZM58.9311 175.976C58.9311 175.421 58.8085 174.947 58.5631 174.552C58.3178 174.147 57.9818 173.843 57.5551 173.64C57.1391 173.427 56.6751 173.32 56.1631 173.32C55.4271 173.32 54.7978 173.555 54.2751 174.024C53.7631 174.493 53.4698 175.144 53.3951 175.976H58.9311ZM66.933 181L64.853 177.736L62.853 181H61.333L64.165 176.648L61.333 172.232H62.981L65.061 175.48L67.045 172.232H68.565L65.749 176.568L68.581 181H66.933ZM70.7653 170.808C70.4879 170.808 70.2533 170.712 70.0613 170.52C69.8693 170.328 69.7733 170.093 69.7733 169.816C69.7733 169.539 69.8693 169.304 70.0613 169.112C70.2533 168.92 70.4879 168.824 70.7653 168.824C71.0319 168.824 71.2559 168.92 71.4373 169.112C71.6293 169.304 71.7253 169.539 71.7253 169.816C71.7253 170.093 71.6293 170.328 71.4373 170.52C71.2559 170.712 71.0319 170.808 70.7653 170.808ZM71.4693 172.232V181H70.0133V172.232H71.4693ZM75.7268 173.432V178.6C75.7268 179.027 75.8174 179.331 75.9988 179.512C76.1801 179.683 76.4948 179.768 76.9427 179.768H78.0148V181H76.7028C75.8921 181 75.2841 180.813 74.8788 180.44C74.4734 180.067 74.2708 179.453 74.2708 178.6V173.432H73.1348V172.232H74.2708V170.024H75.7268V172.232H78.0148V173.432H75.7268ZM87.7789 176.28C87.7789 176.557 87.7629 176.851 87.7309 177.16H80.7229C80.7762 178.024 81.0695 178.701 81.6029 179.192C82.1469 179.672 82.8029 179.912 83.5709 179.912C84.2002 179.912 84.7229 179.768 85.1389 179.48C85.5655 179.181 85.8642 178.787 86.0349 178.296H87.6029C87.3682 179.139 86.8989 179.827 86.1949 180.36C85.4909 180.883 84.6162 181.144 83.5709 181.144C82.7389 181.144 81.9922 180.957 81.3309 180.584C80.6802 180.211 80.1682 179.683 79.7949 179C79.4215 178.307 79.2349 177.507 79.2349 176.6C79.2349 175.693 79.4162 174.899 79.7789 174.216C80.1415 173.533 80.6482 173.011 81.2989 172.648C81.9602 172.275 82.7175 172.088 83.5709 172.088C84.4029 172.088 85.1389 172.269 85.7789 172.632C86.4189 172.995 86.9095 173.496 87.2509 174.136C87.6029 174.765 87.7789 175.48 87.7789 176.28ZM86.2749 175.976C86.2749 175.421 86.1522 174.947 85.9069 174.552C85.6615 174.147 85.3255 173.843 84.8989 173.64C84.4829 173.427 84.0189 173.32 83.5069 173.32C82.7709 173.32 82.1415 173.555 81.6189 174.024C81.1069 174.493 80.8135 175.144 80.7389 175.976H86.2749ZM89.1568 176.584C89.1568 175.688 89.3381 174.904 89.7008 174.232C90.0634 173.549 90.5594 173.021 91.1888 172.648C91.8288 172.275 92.5434 172.088 93.3328 172.088C94.0154 172.088 94.6501 172.248 95.2368 172.568C95.8234 172.877 96.2714 173.288 96.5808 173.8V169.16H98.0528V181H96.5808V179.352C96.2928 179.875 95.8661 180.307 95.3008 180.648C94.7354 180.979 94.0741 181.144 93.3168 181.144C92.5381 181.144 91.8288 180.952 91.1888 180.568C90.5594 180.184 90.0634 179.645 89.7008 178.952C89.3381 178.259 89.1568 177.469 89.1568 176.584ZM96.5808 176.6C96.5808 175.939 96.4474 175.363 96.1808 174.872C95.9141 174.381 95.5514 174.008 95.0928 173.752C94.6448 173.485 94.1488 173.352 93.6048 173.352C93.0608 173.352 92.5648 173.48 92.1168 173.736C91.6688 173.992 91.3114 174.365 91.0448 174.856C90.7781 175.347 90.6448 175.923 90.6448 176.584C90.6448 177.256 90.7781 177.843 91.0448 178.344C91.3114 178.835 91.6688 179.213 92.1168 179.48C92.5648 179.736 93.0608 179.864 93.6048 179.864C94.1488 179.864 94.6448 179.736 95.0928 179.48C95.5514 179.213 95.9141 178.835 96.1808 178.344C96.4474 177.843 96.5808 177.261 96.5808 176.6Z" fill="black"/>
<path d="M193.707 67.7071C194.098 67.3166 194.098 66.6834 193.707 66.2929L187.343 59.9289C186.953 59.5384 186.319 59.5384 185.929 59.9289C185.538 60.3195 185.538 60.9526 185.929 61.3431L191.586 67L185.929 72.6569C185.538 73.0474 185.538 73.6805 185.929 74.0711C186.319 74.4616 186.953 74.4616 187.343 74.0711L193.707 67.7071ZM96 68H193V66H96V68Z" fill="black"/>
<path d="M402.707 67.7071C403.098 67.3166 403.098 66.6834 402.707 66.2929L396.343 59.9289C395.953 59.5384 395.319 59.5384 394.929 59.9289C394.538 60.3195 394.538 60.9526 394.929 61.3431L400.586 67L394.929 72.6569C394.538 73.0474 394.538 73.6805 394.929 74.0711C395.319 74.4616 395.953 74.4616 396.343 74.0711L402.707 67.7071ZM305 68H402V66H305V68Z" fill="black"/>
<path d="M487.293 105.707C487.683 106.098 488.317 106.098 488.707 105.707L495.071 99.3431C495.462 98.9526 495.462 98.3195 495.071 97.9289C494.681 97.5384 494.047 97.5384 493.657 97.9289L488 103.586L482.343 97.9289C481.953 97.5384 481.319 97.5384 480.929 97.9289C480.538 98.3195 480.538 98.9526 480.929 99.3431L487.293 105.707ZM487 83V105H489V83H487Z" fill="black"/>
<path d="M487.293 159.707C487.683 160.098 488.317 160.098 488.707 159.707L495.071 153.343C495.462 152.953 495.462 152.319 495.071 151.929C494.681 151.538 494.047 151.538 493.657 151.929L488 157.586L482.343 151.929C481.953 151.538 481.319 151.538 480.929 151.929C480.538 152.319 480.538 152.953 480.929 153.343L487.293 159.707ZM487 137V159H489V137H487Z" fill="black"/>
<path d="M414.293 174.293C413.902 174.683 413.902 175.317 414.293 175.707L420.657 182.071C421.047 182.462 421.681 182.462 422.071 182.071C422.462 181.681 422.462 181.047 422.071 180.657L416.414 175L422.071 169.343C422.462 168.953 422.462 168.319 422.071 167.929C421.681 167.538 421.047 167.538 420.657 167.929L414.293 174.293ZM453 174L415 174L415 176L453 176L453 174Z" fill="black"/>
<path d="M262.293 174.293C261.902 174.683 261.902 175.317 262.293 175.707L268.657 182.071C269.047 182.462 269.681 182.462 270.071 182.071C270.462 181.681 270.462 181.047 270.071 180.657L264.414 175L270.071 169.343C270.462 168.953 270.462 168.319 270.071 167.929C269.681 167.538 269.047 167.538 268.657 167.929L262.293 174.293ZM293 174H263V176H293V174Z" fill="black"/>
<path d="M115.293 174.293C114.902 174.683 114.902 175.317 115.293 175.707L121.657 182.071C122.047 182.462 122.681 182.462 123.071 182.071C123.462 181.681 123.462 181.047 123.071 180.657L117.414 175L123.071 169.343C123.462 168.953 123.462 168.319 123.071 167.929C122.681 167.538 122.047 167.538 121.657 167.929L115.293 174.293ZM145 174H116V176H145V174Z" fill="black"/>
<rect x="174.5" y="36.5" width="148" height="68" rx="7.5" stroke="black" stroke-opacity="0.5"/>
<path d="M181.516 92.812C181.516 91.996 181.7 91.264 182.068 90.616C182.436 89.96 182.936 89.448 183.568 89.08C184.208 88.712 184.916 88.528 185.692 88.528C186.604 88.528 187.4 88.748 188.08 89.188C188.76 89.628 189.256 90.252 189.568 91.06H188.26C188.028 90.556 187.692 90.168 187.252 89.896C186.82 89.624 186.3 89.488 185.692 89.488C185.108 89.488 184.584 89.624 184.12 89.896C183.656 90.168 183.292 90.556 183.028 91.06C182.764 91.556 182.632 92.14 182.632 92.812C182.632 93.476 182.764 94.06 183.028 94.564C183.292 95.06 183.656 95.444 184.12 95.716C184.584 95.988 185.108 96.124 185.692 96.124C186.3 96.124 186.82 95.992 187.252 95.728C187.692 95.456 188.028 95.068 188.26 94.564H189.568C189.256 95.364 188.76 95.984 188.08 96.424C187.4 96.856 186.604 97.072 185.692 97.072C184.916 97.072 184.208 96.892 183.568 96.532C182.936 96.164 182.436 95.656 182.068 95.008C181.7 94.36 181.516 93.628 181.516 92.812ZM190.786 93.688C190.786 93.016 190.922 92.428 191.194 91.924C191.466 91.412 191.838 91.016 192.31 90.736C192.79 90.456 193.322 90.316 193.906 90.316C194.482 90.316 194.982 90.44 195.406 90.688C195.83 90.936 196.146 91.248 196.354 91.624V90.424H197.458V97H196.354V95.776C196.138 96.16 195.814 96.48 195.382 96.736C194.958 96.984 194.462 97.108 193.894 97.108C193.31 97.108 192.782 96.964 192.31 96.676C191.838 96.388 191.466 95.984 191.194 95.464C190.922 94.944 190.786 94.352 190.786 93.688ZM196.354 93.7C196.354 93.204 196.254 92.772 196.054 92.404C195.854 92.036 195.582 91.756 195.238 91.564C194.902 91.364 194.53 91.264 194.122 91.264C193.714 91.264 193.342 91.36 193.006 91.552C192.67 91.744 192.402 92.024 192.202 92.392C192.002 92.76 191.902 93.192 191.902 93.688C191.902 94.192 192.002 94.632 192.202 95.008C192.402 95.376 192.67 95.66 193.006 95.86C193.342 96.052 193.714 96.148 194.122 96.148C194.53 96.148 194.902 96.052 195.238 95.86C195.582 95.66 195.854 95.376 196.054 95.008C196.254 94.632 196.354 94.196 196.354 93.7ZM200.395 88.12V97H199.303V88.12H200.395ZM203.348 88.12V97H202.256V88.12H203.348ZM211.209 93.46C211.209 93.668 211.197 93.888 211.173 94.12H205.917C205.957 94.768 206.177 95.276 206.577 95.644C206.985 96.004 207.477 96.184 208.053 96.184C208.525 96.184 208.917 96.076 209.229 95.86C209.549 95.636 209.773 95.34 209.901 94.972H211.077C210.901 95.604 210.549 96.12 210.021 96.52C209.493 96.912 208.837 97.108 208.053 97.108C207.429 97.108 206.869 96.968 206.373 96.688C205.885 96.408 205.501 96.012 205.221 95.5C204.941 94.98 204.801 94.38 204.801 93.7C204.801 93.02 204.937 92.424 205.209 91.912C205.481 91.4 205.861 91.008 206.349 90.736C206.845 90.456 207.413 90.316 208.053 90.316C208.677 90.316 209.229 90.452 209.709 90.724C210.189 90.996 210.557 91.372 210.813 91.852C211.077 92.324 211.209 92.86 211.209 93.46ZM210.081 93.232C210.081 92.816 209.989 92.46 209.805 92.164C209.621 91.86 209.369 91.632 209.049 91.48C208.737 91.32 208.389 91.24 208.005 91.24C207.453 91.24 206.981 91.416 206.589 91.768C206.205 92.12 205.985 92.608 205.929 93.232H210.081ZM212.243 93.688C212.243 93.016 212.379 92.428 212.651 91.924C212.923 91.412 213.295 91.016 213.767 90.736C214.247 90.456 214.783 90.316 215.375 90.316C215.887 90.316 216.363 90.436 216.803 90.676C217.243 90.908 217.579 91.216 217.811 91.6V88.12H218.915V97H217.811V95.764C217.595 96.156 217.275 96.48 216.851 96.736C216.427 96.984 215.931 97.108 215.363 97.108C214.779 97.108 214.247 96.964 213.767 96.676C213.295 96.388 212.923 95.984 212.651 95.464C212.379 94.944 212.243 94.352 212.243 93.688ZM217.811 93.7C217.811 93.204 217.711 92.772 217.511 92.404C217.311 92.036 217.039 91.756 216.695 91.564C216.359 91.364 215.987 91.264 215.579 91.264C215.171 91.264 214.799 91.36 214.463 91.552C214.127 91.744 213.859 92.024 213.659 92.392C213.459 92.76 213.359 93.192 213.359 93.688C213.359 94.192 213.459 94.632 213.659 95.008C213.859 95.376 214.127 95.66 214.463 95.86C214.799 96.052 215.171 96.148 215.579 96.148C215.987 96.148 216.359 96.052 216.695 95.86C217.039 95.66 217.311 95.376 217.511 95.008C217.711 94.632 217.811 94.196 217.811 93.7ZM226.827 97.108C226.211 97.108 225.651 96.968 225.147 96.688C224.651 96.408 224.259 96.012 223.971 95.5C223.691 94.98 223.551 94.38 223.551 93.7C223.551 93.028 223.695 92.436 223.983 91.924C224.279 91.404 224.679 91.008 225.183 90.736C225.687 90.456 226.251 90.316 226.875 90.316C227.499 90.316 228.063 90.456 228.567 90.736C229.071 91.008 229.467 91.4 229.755 91.912C230.051 92.424 230.199 93.02 230.199 93.7C230.199 94.38 230.047 94.98 229.743 95.5C229.447 96.012 229.043 96.408 228.531 96.688C228.019 96.968 227.451 97.108 226.827 97.108ZM226.827 96.148C227.219 96.148 227.587 96.056 227.931 95.872C228.275 95.688 228.551 95.412 228.759 95.044C228.975 94.676 229.083 94.228 229.083 93.7C229.083 93.172 228.979 92.724 228.771 92.356C228.563 91.988 228.291 91.716 227.955 91.54C227.619 91.356 227.255 91.264 226.863 91.264C226.463 91.264 226.095 91.356 225.759 91.54C225.431 91.716 225.167 91.988 224.967 92.356C224.767 92.724 224.667 93.172 224.667 93.7C224.667 94.236 224.763 94.688 224.955 95.056C225.155 95.424 225.419 95.7 225.747 95.884C226.075 96.06 226.435 96.148 226.827 96.148ZM234.839 90.304C235.639 90.304 236.287 90.548 236.783 91.036C237.279 91.516 237.527 92.212 237.527 93.124V97H236.447V93.28C236.447 92.624 236.283 92.124 235.955 91.78C235.627 91.428 235.179 91.252 234.611 91.252C234.035 91.252 233.575 91.432 233.231 91.792C232.895 92.152 232.727 92.676 232.727 93.364V97H231.635V90.424H232.727V91.36C232.943 91.024 233.235 90.764 233.603 90.58C233.979 90.396 234.391 90.304 234.839 90.304ZM238.903 93.7C238.903 93.02 239.039 92.428 239.311 91.924C239.583 91.412 239.959 91.016 240.439 90.736C240.927 90.456 241.483 90.316 242.107 90.316C242.915 90.316 243.579 90.512 244.099 90.904C244.627 91.296 244.975 91.84 245.143 92.536H243.967C243.855 92.136 243.635 91.82 243.307 91.588C242.987 91.356 242.587 91.24 242.107 91.24C241.483 91.24 240.979 91.456 240.595 91.888C240.211 92.312 240.019 92.916 240.019 93.7C240.019 94.492 240.211 95.104 240.595 95.536C240.979 95.968 241.483 96.184 242.107 96.184C242.587 96.184 242.987 96.072 243.307 95.848C243.627 95.624 243.847 95.304 243.967 94.888H245.143C244.967 95.56 244.615 96.1 244.087 96.508C243.559 96.908 242.899 97.108 242.107 97.108C241.483 97.108 240.927 96.968 240.439 96.688C239.959 96.408 239.583 96.012 239.311 95.5C239.039 94.988 238.903 94.388 238.903 93.7ZM252.6 93.46C252.6 93.668 252.588 93.888 252.564 94.12H247.308C247.348 94.768 247.568 95.276 247.968 95.644C248.376 96.004 248.868 96.184 249.444 96.184C249.916 96.184 250.308 96.076 250.62 95.86C250.94 95.636 251.164 95.34 251.292 94.972H252.468C252.292 95.604 251.94 96.12 251.412 96.52C250.884 96.912 250.228 97.108 249.444 97.108C248.82 97.108 248.26 96.968 247.764 96.688C247.276 96.408 246.892 96.012 246.612 95.5C246.332 94.98 246.192 94.38 246.192 93.7C246.192 93.02 246.328 92.424 246.6 91.912C246.872 91.4 247.252 91.008 247.74 90.736C248.236 90.456 248.804 90.316 249.444 90.316C250.068 90.316 250.62 90.452 251.1 90.724C251.58 90.996 251.948 91.372 252.204 91.852C252.468 92.324 252.6 92.86 252.6 93.46ZM251.472 93.232C251.472 92.816 251.38 92.46 251.196 92.164C251.012 91.86 250.76 91.632 250.44 91.48C250.128 91.32 249.78 91.24 249.396 91.24C248.844 91.24 248.372 91.416 247.98 91.768C247.596 92.12 247.376 92.608 247.32 93.232H251.472Z" fill="black" fill-opacity="0.75"/>
<g clip-path="url(#clip0_26_2)">
<path d="M28.684 206.424L26.632 213H25.504L23.92 207.78L22.336 213H21.208L19.144 206.424H20.26L21.772 211.944L23.404 206.424H24.52L26.116 211.956L27.604 206.424H28.684ZM30.3318 205.356C30.1238 205.356 29.9478 205.284 29.8038 205.14C29.6598 204.996 29.5878 204.82 29.5878 204.612C29.5878 204.404 29.6598 204.228 29.8038 204.084C29.9478 203.94 30.1238 203.868 30.3318 203.868C30.5318 203.868 30.6998 203.94 30.8358 204.084C30.9798 204.228 31.0518 204.404 31.0518 204.612C31.0518 204.82 30.9798 204.996 30.8358 205.14C30.6998 205.284 30.5318 205.356 30.3318 205.356ZM30.8598 206.424V213H29.7678V206.424H30.8598ZM35.9249 206.304C36.7249 206.304 37.3729 206.548 37.8689 207.036C38.3649 207.516 38.6129 208.212 38.6129 209.124V213H37.5329V209.28C37.5329 208.624 37.3689 208.124 37.0409 207.78C36.7129 207.428 36.2649 207.252 35.6969 207.252C35.1209 207.252 34.6609 207.432 34.3169 207.792C33.9809 208.152 33.8129 208.676 33.8129 209.364V213H32.7209V206.424H33.8129V207.36C34.0289 207.024 34.3209 206.764 34.6889 206.58C35.0649 206.396 35.4769 206.304 35.9249 206.304ZM39.9887 209.688C39.9887 209.016 40.1247 208.428 40.3967 207.924C40.6687 207.412 41.0407 207.016 41.5127 206.736C41.9927 206.456 42.5287 206.316 43.1207 206.316C43.6327 206.316 44.1087 206.436 44.5487 206.676C44.9887 206.908 45.3247 207.216 45.5567 207.6V204.12H46.6607V213H45.5567V211.764C45.3407 212.156 45.0207 212.48 44.5967 212.736C44.1727 212.984 43.6767 213.108 43.1087 213.108C42.5247 213.108 41.9927 212.964 41.5127 212.676C41.0407 212.388 40.6687 211.984 40.3967 211.464C40.1247 210.944 39.9887 210.352 39.9887 209.688ZM45.5567 209.7C45.5567 209.204 45.4567 208.772 45.2567 208.404C45.0567 208.036 44.7847 207.756 44.4407 207.564C44.1047 207.364 43.7327 207.264 43.3247 207.264C42.9167 207.264 42.5447 207.36 42.2087 207.552C41.8727 207.744 41.6047 208.024 41.4047 208.392C41.2047 208.76 41.1047 209.192 41.1047 209.688C41.1047 210.192 41.2047 210.632 41.4047 211.008C41.6047 211.376 41.8727 211.66 42.2087 211.86C42.5447 212.052 42.9167 212.148 43.3247 212.148C43.7327 212.148 44.1047 212.052 44.4407 211.86C44.7847 211.66 45.0567 211.376 45.2567 211.008C45.4567 210.632 45.5567 210.196 45.5567 209.7ZM51.374 213.108C50.758 213.108 50.198 212.968 49.694 212.688C49.198 212.408 48.806 212.012 48.518 211.5C48.238 210.98 48.098 210.38 48.098 209.7C48.098 209.028 48.242 208.436 48.53 207.924C48.826 207.404 49.226 207.008 49.73 206.736C50.234 206.456 50.798 206.316 51.422 206.316C52.046 206.316 52.61 206.456 53.114 206.736C53.618 207.008 54.014 207.4 54.302 207.912C54.598 208.424 54.746 209.02 54.746 209.7C54.746 210.38 54.594 210.98 54.29 211.5C53.994 212.012 53.59 212.408 53.078 212.688C52.566 212.968 51.998 213.108 51.374 213.108ZM51.374 212.148C51.766 212.148 52.134 212.056 52.478 211.872C52.822 211.688 53.098 211.412 53.306 211.044C53.522 210.676 53.63 210.228 53.63 209.7C53.63 209.172 53.526 208.724 53.318 208.356C53.11 207.988 52.838 207.716 52.502 207.54C52.166 207.356 51.802 207.264 51.41 207.264C51.01 207.264 50.642 207.356 50.306 207.54C49.978 207.716 49.714 207.988 49.514 208.356C49.314 208.724 49.214 209.172 49.214 209.7C49.214 210.236 49.31 210.688 49.502 211.056C49.702 211.424 49.966 211.7 50.294 211.884C50.622 212.06 50.982 212.148 51.374 212.148ZM64.9418 206.424L62.8898 213H61.7618L60.1778 207.78L58.5938 213H57.4658L55.4018 206.424H56.5178L58.0298 211.944L59.6618 206.424H60.7778L62.3738 211.956L63.8618 206.424H64.9418ZM75.2248 209.46C75.2248 209.668 75.2128 209.888 75.1888 210.12H69.9328C69.9728 210.768 70.1928 211.276 70.5928 211.644C71.0008 212.004 71.4928 212.184 72.0688 212.184C72.5408 212.184 72.9328 212.076 73.2448 211.86C73.5648 211.636 73.7888 211.34 73.9168 210.972H75.0928C74.9168 211.604 74.5648 212.12 74.0368 212.52C73.5088 212.912 72.8528 213.108 72.0688 213.108C71.4448 213.108 70.8848 212.968 70.3888 212.688C69.9008 212.408 69.5168 212.012 69.2368 211.5C68.9568 210.98 68.8168 210.38 68.8168 209.7C68.8168 209.02 68.9528 208.424 69.2248 207.912C69.4968 207.4 69.8768 207.008 70.3648 206.736C70.8608 206.456 71.4288 206.316 72.0688 206.316C72.6928 206.316 73.2448 206.452 73.7248 206.724C74.2048 206.996 74.5728 207.372 74.8288 207.852C75.0928 208.324 75.2248 208.86 75.2248 209.46ZM74.0968 209.232C74.0968 208.816 74.0048 208.46 73.8208 208.164C73.6368 207.86 73.3848 207.632 73.0648 207.48C72.7528 207.32 72.4048 207.24 72.0208 207.24C71.4688 207.24 70.9968 207.416 70.6048 207.768C70.2208 208.12 70.0008 208.608 69.9448 209.232H74.0968ZM79.1142 211.992L81.1542 206.424H82.3182L79.7382 213H78.4662L75.8862 206.424H77.0622L79.1142 211.992ZM89.3928 209.46C89.3928 209.668 89.3808 209.888 89.3568 210.12H84.1008C84.1408 210.768 84.3608 211.276 84.7608 211.644C85.1688 212.004 85.6608 212.184 86.2368 212.184C86.7088 212.184 87.1008 212.076 87.4128 211.86C87.7328 211.636 87.9568 211.34 88.0848 210.972H89.2608C89.0848 211.604 88.7328 212.12 88.2048 212.52C87.6768 212.912 87.0208 213.108 86.2368 213.108C85.6128 213.108 85.0528 212.968 84.5568 212.688C84.0688 212.408 83.6848 212.012 83.4048 211.5C83.1248 210.98 82.9848 210.38 82.9848 209.7C82.9848 209.02 83.1208 208.424 83.3928 207.912C83.6648 207.4 84.0448 207.008 84.5328 206.736C85.0288 206.456 85.5968 206.316 86.2368 206.316C86.8608 206.316 87.4128 206.452 87.8928 206.724C88.3728 206.996 88.7408 207.372 88.9968 207.852C89.2608 208.324 89.3928 208.86 89.3928 209.46ZM88.2648 209.232C88.2648 208.816 88.1728 208.46 87.9888 208.164C87.8048 207.86 87.5528 207.632 87.2328 207.48C86.9208 207.32 86.5728 207.24 86.1888 207.24C85.6368 207.24 85.1648 207.416 84.7728 207.768C84.3888 208.12 84.1688 208.608 84.1128 209.232H88.2648ZM94.0382 206.304C94.8382 206.304 95.4862 206.548 95.9822 207.036C96.4782 207.516 96.7262 208.212 96.7262 209.124V213H95.6462V209.28C95.6462 208.624 95.4822 208.124 95.1542 207.78C94.8262 207.428 94.3782 207.252 93.8102 207.252C93.2342 207.252 92.7742 207.432 92.4302 207.792C92.0942 208.152 91.9262 208.676 91.9262 209.364V213H90.8342V206.424H91.9262V207.36C92.1422 207.024 92.4342 206.764 92.8022 206.58C93.1782 206.396 93.5902 206.304 94.0382 206.304ZM99.8419 207.324V211.2C99.8419 211.52 99.9099 211.748 100.046 211.884C100.182 212.012 100.418 212.076 100.754 212.076H101.558V213H100.574C99.9659 213 99.5099 212.86 99.2059 212.58C98.9019 212.3 98.7499 211.84 98.7499 211.2V207.324H97.8979V206.424H98.7499V204.768H99.8419V206.424H101.558V207.324H99.8419ZM105.209 213.108C104.705 213.108 104.253 213.024 103.853 212.856C103.453 212.68 103.137 212.44 102.905 212.136C102.673 211.824 102.545 211.468 102.521 211.068H103.649C103.681 211.396 103.833 211.664 104.105 211.872C104.385 212.08 104.749 212.184 105.197 212.184C105.613 212.184 105.941 212.092 106.181 211.908C106.421 211.724 106.541 211.492 106.541 211.212C106.541 210.924 106.413 210.712 106.157 210.576C105.901 210.432 105.505 210.292 104.969 210.156C104.481 210.028 104.081 209.9 103.769 209.772C103.465 209.636 103.201 209.44 102.977 209.184C102.761 208.92 102.653 208.576 102.653 208.152C102.653 207.816 102.753 207.508 102.953 207.228C103.153 206.948 103.437 206.728 103.805 206.568C104.173 206.4 104.593 206.316 105.065 206.316C105.793 206.316 106.381 206.5 106.829 206.868C107.277 207.236 107.517 207.74 107.549 208.38H106.457C106.433 208.036 106.293 207.76 106.037 207.552C105.789 207.344 105.453 207.24 105.029 207.24C104.637 207.24 104.325 207.324 104.093 207.492C103.861 207.66 103.745 207.88 103.745 208.152C103.745 208.368 103.813 208.548 103.949 208.692C104.093 208.828 104.269 208.94 104.477 209.028C104.693 209.108 104.989 209.2 105.365 209.304C105.837 209.432 106.221 209.56 106.517 209.688C106.813 209.808 107.065 209.992 107.273 210.24C107.489 210.488 107.601 210.812 107.609 211.212C107.609 211.572 107.509 211.896 107.309 212.184C107.109 212.472 106.825 212.7 106.457 212.868C106.097 213.028 105.681 213.108 105.209 213.108Z" fill="black" fill-opacity="0.75"/>
</g>
<rect x="12.5" y="152.5" width="118" height="68" rx="7.5" stroke="black" stroke-opacity="0.5"/>
<defs>
<clipPath id="clip0_26_2">
<rect x="12" y="152" width="119" height="69" rx="8" fill="white"/>
</clipPath>
</defs>
</svg>
