<svg width="863" height="31" viewBox="0 0 863 31" fill="none" xmlns="http://www.w3.org/2000/svg">
<path d="M16.1824 9.74769C17.5732 9.74769 18.6009 10.2031 19.2655 11.1138C19.9424 12.0123 20.2809 13.4708 20.2809 15.4892V30H15.2778V16.1538C15.2778 15.4646 15.2101 14.9785 15.0747 14.6954C14.9516 14.4123 14.6932 14.2708 14.2993 14.2708C13.9916 14.2708 13.6716 14.3631 13.3393 14.5477C13.0193 14.72 12.6624 15.0523 12.2685 15.5446V30H8.17008V16.1538C8.17008 15.4646 8.10239 14.9785 7.96701 14.6954C7.84393 14.4123 7.58547 14.2708 7.19162 14.2708C6.88393 14.2708 6.56393 14.3631 6.23162 14.5477C5.91162 14.72 5.5547 15.0523 5.16085 15.5446V30H0.0839303V10.3938H4.36701L4.7547 12.2954C5.37008 11.4585 5.99162 10.8246 6.61931 10.3938C7.24701 9.96308 7.99162 9.74769 8.85316 9.74769C9.59162 9.74769 10.2193 9.93846 10.7362 10.32C11.2655 10.6892 11.6409 11.2738 11.8624 12.0738C12.4532 11.3846 13.1055 10.8246 13.8193 10.3938C14.5332 9.96308 15.3209 9.74769 16.1824 9.74769ZM40.3431 24.3508C40.3431 25.0892 40.4416 25.6246 40.6385 25.9569C40.8478 26.2892 41.1801 26.5415 41.6354 26.7138L40.4354 30.5538C39.2785 30.4431 38.3001 30.1908 37.5001 29.7969C36.7124 29.3908 36.0908 28.7815 35.6354 27.9692C34.8847 28.8677 33.9247 29.5385 32.7554 29.9815C31.5862 30.4123 30.3924 30.6277 29.1739 30.6277C27.1554 30.6277 25.5431 30.0554 24.337 28.9108C23.1431 27.7538 22.5462 26.2708 22.5462 24.4615C22.5462 22.3323 23.377 20.6892 25.0385 19.5323C26.7124 18.3754 29.0631 17.7969 32.0908 17.7969H34.7308V17.0585C34.7308 15.0523 33.4385 14.0492 30.8539 14.0492C30.2262 14.0492 29.4201 14.1415 28.4354 14.3262C27.4508 14.4985 26.4662 14.7508 25.4816 15.0831L24.1339 11.2062C25.4016 10.7262 26.7185 10.3631 28.0847 10.1169C29.4631 9.87077 30.6939 9.74769 31.777 9.74769C34.6939 9.74769 36.8478 10.3446 38.2385 11.5385C39.6416 12.72 40.3431 14.4308 40.3431 16.6708V24.3508ZM31.1862 26.4554C31.8139 26.4554 32.4724 26.2708 33.1616 25.9015C33.8508 25.52 34.3739 24.9846 34.7308 24.2954V21.12H33.2908C31.6662 21.12 30.4724 21.3723 29.7093 21.8769C28.9462 22.3692 28.5647 23.0954 28.5647 24.0554C28.5647 24.8062 28.7924 25.3969 29.2478 25.8277C29.7154 26.2462 30.3616 26.4554 31.1862 26.4554ZM56.3808 26.0308C57.1808 26.0308 57.9316 25.8769 58.6331 25.5692C59.347 25.2492 60.0547 24.8431 60.7562 24.3508L63.3593 28.0431C62.4977 28.7815 61.4454 29.3969 60.2023 29.8892C58.9716 30.3815 57.5931 30.6277 56.067 30.6277C53.9623 30.6277 52.1531 30.1969 50.6393 29.3354C49.1254 28.4615 47.9623 27.2554 47.15 25.7169C46.3377 24.1662 45.9316 22.3692 45.9316 20.3262C45.9316 18.2831 46.3439 16.4677 47.1685 14.88C48.0054 13.28 49.187 12.0246 50.7131 11.1138C52.2516 10.2031 54.0731 9.74769 56.1777 9.74769C57.667 9.74769 58.99 9.95692 60.147 10.3754C61.3162 10.7815 62.387 11.3908 63.3593 12.2031L60.83 15.7108C60.1654 15.2431 59.4639 14.88 58.7254 14.6215C57.987 14.3631 57.2177 14.2338 56.4177 14.2338C55.1008 14.2338 54.0362 14.7015 53.2239 15.6369C52.4239 16.56 52.0239 18.1231 52.0239 20.3262C52.0239 21.7662 52.2147 22.9046 52.5962 23.7415C52.9777 24.5662 53.4947 25.1569 54.147 25.5138C54.8116 25.8585 55.5562 26.0308 56.3808 26.0308ZM68.32 30V26.0862H70.9046V14.2708H68.32V10.3938H75.3539L76.4246 14.8062C77.1262 13.12 78.0185 11.8646 79.1016 11.04C80.1969 10.2154 81.5323 9.80308 83.1077 9.80308C83.7723 9.80308 84.3631 9.85846 84.88 9.96923C85.3969 10.0677 85.8831 10.2092 86.3385 10.3938L85.2492 18.5908H81.5939V14.9723C80.4862 15.1692 79.5139 15.7723 78.6769 16.7815C77.84 17.7785 77.1939 19.0092 76.7385 20.4738V26.0862H80.6154V30H68.32ZM98.7761 9.74769C100.795 9.74769 102.512 10.1785 103.927 11.04C105.342 11.9015 106.425 13.1138 107.176 14.6769C107.927 16.2277 108.302 18.0492 108.302 20.1415C108.302 23.4154 107.465 25.9815 105.792 27.84C104.118 29.6985 101.779 30.6277 98.7761 30.6277C95.7731 30.6277 93.4346 29.7108 91.7608 27.8769C90.0869 26.0431 89.25 23.4769 89.25 20.1785C89.25 18.0985 89.6254 16.2769 90.3761 14.7138C91.1392 13.1508 92.2284 11.9323 93.6438 11.0585C95.0715 10.1846 96.7823 9.74769 98.7761 9.74769ZM98.7761 14.0492C97.5823 14.0492 96.6961 14.5415 96.1177 15.5262C95.5515 16.4985 95.2684 18.0492 95.2684 20.1785C95.2684 22.3446 95.5515 23.9138 96.1177 24.8862C96.6961 25.8585 97.5823 26.3446 98.7761 26.3446C99.97 26.3446 100.85 25.8585 101.416 24.8862C101.995 23.9138 102.284 22.3323 102.284 20.1415C102.284 18.0246 101.995 16.48 101.416 15.5077C100.85 14.5354 99.97 14.0492 98.7761 14.0492ZM112.931 22.1908V17.6492H128.918V22.1908H112.931ZM143.073 9.74769C145.091 9.74769 146.808 10.1785 148.224 11.04C149.639 11.9015 150.722 13.1138 151.473 14.6769C152.224 16.2277 152.599 18.0492 152.599 20.1415C152.599 23.4154 151.762 25.9815 150.088 27.84C148.415 29.6985 146.076 30.6277 143.073 30.6277C140.07 30.6277 137.731 29.7108 136.058 27.8769C134.384 26.0431 133.547 23.4769 133.547 20.1785C133.547 18.0985 133.922 16.2769 134.673 14.7138C135.436 13.1508 136.525 11.9323 137.941 11.0585C139.368 10.1846 141.079 9.74769 143.073 9.74769ZM143.073 14.0492C141.879 14.0492 140.993 14.5415 140.415 15.5262C139.848 16.4985 139.565 18.0492 139.565 20.1785C139.565 22.3446 139.848 23.9138 140.415 24.8862C140.993 25.8585 141.879 26.3446 143.073 26.3446C144.267 26.3446 145.147 25.8585 145.713 24.8862C146.291 23.9138 146.581 22.3323 146.581 20.1415C146.581 18.0246 146.291 16.48 145.713 15.5077C145.147 14.5354 144.267 14.0492 143.073 14.0492ZM156.914 30V26.0862H159.498V14.2708H156.914V10.3938H163.948L165.018 14.8062C165.72 13.12 166.612 11.8646 167.695 11.04C168.791 10.2154 170.126 9.80308 171.701 9.80308C172.366 9.80308 172.957 9.85846 173.474 9.96923C173.991 10.0677 174.477 10.2092 174.932 10.3938L173.843 18.5908H170.188V14.9723C169.08 15.1692 168.108 15.7723 167.271 16.7815C166.434 17.7785 165.788 19.0092 165.332 20.4738V26.0862H169.209V30H156.914ZM187.333 0.129232C188.342 0.129232 189.167 0.443078 189.807 1.07077C190.447 1.69846 190.767 2.48 190.767 3.41539C190.767 4.35077 190.447 5.13846 189.807 5.77846C189.167 6.40615 188.342 6.72 187.333 6.72C186.311 6.72 185.475 6.40615 184.822 5.77846C184.182 5.13846 183.862 4.35077 183.862 3.41539C183.862 2.48 184.182 1.69846 184.822 1.07077C185.475 0.443078 186.311 0.129232 187.333 0.129232ZM190.859 10.3938V26.0123H195.844V30H179.468V26.0123H185.025V14.3815H179.653V10.3938H190.859ZM206.084 21.8954C206.281 23.4954 206.804 24.6462 207.654 25.3477C208.503 26.0369 209.549 26.3815 210.792 26.3815C211.691 26.3815 212.558 26.2338 213.395 25.9385C214.232 25.6431 215.038 25.2492 215.814 24.7569L218.158 27.9323C217.235 28.72 216.115 29.3662 214.798 29.8708C213.494 30.3754 212.004 30.6277 210.331 30.6277C208.091 30.6277 206.214 30.1846 204.7 29.2985C203.186 28.4 202.048 27.1692 201.284 25.6062C200.521 24.0431 200.14 22.2462 200.14 20.2154C200.14 18.2831 200.509 16.5292 201.248 14.9538C201.986 13.3662 203.063 12.1046 204.478 11.1692C205.906 10.2215 207.648 9.74769 209.703 9.74769C211.574 9.74769 213.192 10.1477 214.558 10.9477C215.937 11.7477 217.001 12.8985 217.752 14.4C218.515 15.9015 218.897 17.7046 218.897 19.8092C218.897 20.1415 218.884 20.4985 218.86 20.88C218.848 21.2615 218.823 21.6 218.786 21.8954H206.084ZM209.703 13.6615C208.657 13.6615 207.814 14.0369 207.174 14.7877C206.534 15.5385 206.146 16.7385 206.011 18.3877H213.211C213.198 16.96 212.921 15.8154 212.38 14.9538C211.838 14.0923 210.946 13.6615 209.703 13.6615ZM223.174 30V10.3938H228.27L228.676 12.6646C229.55 11.68 230.473 10.9477 231.445 10.4677C232.418 9.98769 233.525 9.74769 234.768 9.74769C236.442 9.74769 237.759 10.2585 238.719 11.28C239.679 12.3015 240.159 13.7415 240.159 15.6V30H234.325V17.28C234.325 16.0738 234.19 15.2369 233.919 14.7692C233.661 14.2892 233.168 14.0492 232.442 14.0492C231.827 14.0492 231.236 14.2462 230.67 14.64C230.116 15.0338 229.562 15.5815 229.008 16.2831V30H223.174ZM262.972 28.8554C262.209 29.3477 261.286 29.7662 260.203 30.1108C259.12 30.4554 257.901 30.6277 256.548 30.6277C253.988 30.6277 252.086 29.9754 250.843 28.6708C249.6 27.3538 248.978 25.5692 248.978 23.3169V14.4185H244.861V10.3938H248.978V6.14769L254.812 5.44616V10.3938H261.126L260.554 14.4185H254.812V23.3169C254.812 24.2892 255.034 24.9846 255.477 25.4031C255.92 25.8215 256.628 26.0308 257.6 26.0308C258.289 26.0308 258.917 25.9508 259.483 25.7908C260.061 25.6185 260.578 25.4031 261.034 25.1446L262.972 28.8554ZM272.53 21.8954C272.727 23.4954 273.25 24.6462 274.099 25.3477C274.948 26.0369 275.994 26.3815 277.237 26.3815C278.136 26.3815 279.004 26.2338 279.841 25.9385C280.677 25.6431 281.484 25.2492 282.259 24.7569L284.604 27.9323C283.681 28.72 282.561 29.3662 281.244 29.8708C279.939 30.3754 278.45 30.6277 276.776 30.6277C274.536 30.6277 272.659 30.1846 271.145 29.2985C269.631 28.4 268.493 27.1692 267.73 25.6062C266.967 24.0431 266.585 22.2462 266.585 20.2154C266.585 18.2831 266.954 16.5292 267.693 14.9538C268.431 13.3662 269.508 12.1046 270.924 11.1692C272.351 10.2215 274.093 9.74769 276.148 9.74769C278.019 9.74769 279.637 10.1477 281.004 10.9477C282.382 11.7477 283.447 12.8985 284.197 14.4C284.961 15.9015 285.342 17.7046 285.342 19.8092C285.342 20.1415 285.33 20.4985 285.305 20.88C285.293 21.2615 285.268 21.6 285.231 21.8954H272.53ZM276.148 13.6615C275.102 13.6615 274.259 14.0369 273.619 14.7877C272.979 15.5385 272.591 16.7385 272.456 18.3877H279.656C279.644 16.96 279.367 15.8154 278.825 14.9538C278.284 14.0923 277.391 13.6615 276.148 13.6615ZM300.771 1.99385L306.604 2.60308V30H301.435L301.14 27.84C300.598 28.6031 299.878 29.2615 298.98 29.8154C298.081 30.3569 296.992 30.6277 295.712 30.6277C294.087 30.6277 292.74 30.1908 291.669 29.3169C290.611 28.4431 289.817 27.2246 289.287 25.6615C288.771 24.0862 288.512 22.2462 288.512 20.1415C288.512 18.1231 288.826 16.3323 289.454 14.7692C290.081 13.2062 290.98 11.9815 292.149 11.0954C293.318 10.1969 294.709 9.74769 296.321 9.74769C298.081 9.74769 299.564 10.3508 300.771 11.5569V1.99385ZM297.891 14.0123C296.881 14.0123 296.069 14.4923 295.454 15.4523C294.838 16.4 294.531 17.9754 294.531 20.1785C294.531 21.7908 294.66 23.0462 294.918 23.9446C295.177 24.8308 295.534 25.4523 295.989 25.8092C296.444 26.1662 296.967 26.3446 297.558 26.3446C298.211 26.3446 298.801 26.1415 299.331 25.7354C299.872 25.3292 300.352 24.7754 300.771 24.0738V15.6185C300.364 15.1138 299.934 14.72 299.478 14.4369C299.023 14.1538 298.494 14.0123 297.891 14.0123ZM346.397 1.99385C347.824 1.99385 349.086 2.11077 350.181 2.34462C351.277 2.56616 352.255 2.86154 353.117 3.23077L351.51 7.03385C350.834 6.77539 350.138 6.59077 349.424 6.48C348.71 6.35692 348.003 6.29539 347.301 6.29539C346.144 6.29539 345.314 6.50462 344.809 6.92308C344.317 7.34154 344.07 8.03692 344.07 9.00923V11.6308H350.458L349.812 15.6738H344.07V30H338.274V15.6738H334.157V11.6308H338.274V8.78769C338.274 7.49539 338.581 6.33846 339.197 5.31692C339.812 4.29539 340.723 3.48923 341.929 2.89846C343.135 2.29539 344.624 1.99385 346.397 1.99385ZM361.899 10.3938V23.8154C361.899 24.7631 362.071 25.4154 362.416 25.7723C362.773 26.1292 363.265 26.3077 363.893 26.3077C364.496 26.3077 365.099 26.1169 365.702 25.7354C366.305 25.3538 366.81 24.8369 367.216 24.1846V10.3938H373.05V30H367.954L367.696 27.7108C367.031 28.6708 366.157 29.3969 365.074 29.8892C363.991 30.3815 362.859 30.6277 361.677 30.6277C359.782 30.6277 358.373 30.08 357.45 28.9846C356.527 27.8769 356.065 26.3938 356.065 24.5354V10.3938H361.899ZM388.441 2.60308V23.8338C388.441 24.6215 388.663 25.1877 389.106 25.5323C389.561 25.8646 390.183 26.0308 390.97 26.0308C391.475 26.0308 391.961 25.9754 392.429 25.8646C392.897 25.7415 393.334 25.6 393.74 25.44L395.143 29.3354C394.478 29.68 393.678 29.9815 392.743 30.24C391.807 30.4985 390.718 30.6277 389.475 30.6277C387.112 30.6277 385.377 29.9508 384.269 28.5969C383.161 27.2308 382.607 25.4031 382.607 23.1138V6.59077H376.829V2.60308H388.441ZM410.59 2.60308V23.8338C410.59 24.6215 410.811 25.1877 411.254 25.5323C411.71 25.8646 412.331 26.0308 413.119 26.0308C413.623 26.0308 414.11 25.9754 414.577 25.8646C415.045 25.7415 415.482 25.6 415.888 25.44L417.291 29.3354C416.627 29.68 415.827 29.9815 414.891 30.24C413.956 30.4985 412.867 30.6277 411.623 30.6277C409.26 30.6277 407.525 29.9508 406.417 28.5969C405.31 27.2308 404.756 25.4031 404.756 23.1138V6.59077H398.977V2.60308H410.59ZM423.009 22.1908V17.6492H438.997V22.1908H423.009ZM452.523 26.4554C453.496 26.4554 454.277 26.3015 454.868 25.9938C455.471 25.6862 455.773 25.2246 455.773 24.6092C455.773 24.1908 455.656 23.84 455.422 23.5569C455.188 23.2738 454.739 23.0031 454.074 22.7446C453.41 22.4862 452.425 22.1785 451.12 21.8215C449.323 21.3415 447.859 20.6523 446.727 19.7538C445.607 18.8554 445.047 17.5385 445.047 15.8031C445.047 14.0554 445.773 12.6092 447.225 11.4646C448.69 10.32 450.8 9.74769 453.557 9.74769C455.305 9.74769 456.825 9.97539 458.117 10.4308C459.422 10.8738 460.548 11.44 461.496 12.1292L459.17 15.5631C458.357 15.0585 457.483 14.6585 456.548 14.3631C455.613 14.0554 454.671 13.9015 453.723 13.9015C451.853 13.9015 450.917 14.4062 450.917 15.4154C450.917 15.7477 451.034 16.0369 451.268 16.2831C451.514 16.5169 451.97 16.7631 452.634 17.0215C453.299 17.2677 454.271 17.5754 455.551 17.9446C456.819 18.3015 457.92 18.7138 458.856 19.1815C459.803 19.6492 460.536 20.2769 461.053 21.0646C461.57 21.84 461.828 22.8677 461.828 24.1477C461.828 25.5754 461.403 26.7754 460.554 27.7477C459.705 28.7077 458.579 29.4277 457.176 29.9077C455.773 30.3877 454.234 30.6277 452.56 30.6277C450.665 30.6277 448.991 30.3569 447.539 29.8154C446.087 29.2738 444.85 28.56 443.828 27.6738L446.763 24.3877C447.527 24.9785 448.388 25.4708 449.348 25.8646C450.32 26.2585 451.379 26.4554 452.523 26.4554ZM484.457 28.8554C483.693 29.3477 482.77 29.7662 481.687 30.1108C480.604 30.4554 479.386 30.6277 478.032 30.6277C475.472 30.6277 473.57 29.9754 472.327 28.6708C471.084 27.3538 470.463 25.5692 470.463 23.3169V14.4185H466.346V10.3938H470.463V6.14769L476.297 5.44616V10.3938H482.61L482.038 14.4185H476.297V23.3169C476.297 24.2892 476.518 24.9846 476.961 25.4031C477.404 25.8215 478.112 26.0308 479.084 26.0308C479.773 26.0308 480.401 25.9508 480.967 25.7908C481.546 25.6185 482.063 25.4031 482.518 25.1446L484.457 28.8554ZM505.46 24.3508C505.46 25.0892 505.559 25.6246 505.756 25.9569C505.965 26.2892 506.297 26.5415 506.753 26.7138L505.553 30.5538C504.396 30.4431 503.417 30.1908 502.617 29.7969C501.83 29.3908 501.208 28.7815 500.753 27.9692C500.002 28.8677 499.042 29.5385 497.873 29.9815C496.703 30.4123 495.51 30.6277 494.291 30.6277C492.273 30.6277 490.66 30.0554 489.454 28.9108C488.26 27.7538 487.663 26.2708 487.663 24.4615C487.663 22.3323 488.494 20.6892 490.156 19.5323C491.83 18.3754 494.18 17.7969 497.208 17.7969H499.848V17.0585C499.848 15.0523 498.556 14.0492 495.971 14.0492C495.343 14.0492 494.537 14.1415 493.553 14.3262C492.568 14.4985 491.583 14.7508 490.599 15.0831L489.251 11.2062C490.519 10.7262 491.836 10.3631 493.202 10.1169C494.58 9.87077 495.811 9.74769 496.894 9.74769C499.811 9.74769 501.965 10.3446 503.356 11.5385C504.759 12.72 505.46 14.4308 505.46 16.6708V24.3508ZM496.303 26.4554C496.931 26.4554 497.59 26.2708 498.279 25.9015C498.968 25.52 499.491 24.9846 499.848 24.2954V21.12H498.408C496.783 21.12 495.59 21.3723 494.826 21.8769C494.063 22.3692 493.682 23.0954 493.682 24.0554C493.682 24.8062 493.91 25.3969 494.365 25.8277C494.833 26.2462 495.479 26.4554 496.303 26.4554ZM521.498 26.0308C522.298 26.0308 523.049 25.8769 523.75 25.5692C524.464 25.2492 525.172 24.8431 525.873 24.3508L528.476 28.0431C527.615 28.7815 526.563 29.3969 525.32 29.8892C524.089 30.3815 522.71 30.6277 521.184 30.6277C519.08 30.6277 517.27 30.1969 515.756 29.3354C514.243 28.4615 513.08 27.2554 512.267 25.7169C511.455 24.1662 511.049 22.3692 511.049 20.3262C511.049 18.2831 511.461 16.4677 512.286 14.88C513.123 13.28 514.304 12.0246 515.83 11.1138C517.369 10.2031 519.19 9.74769 521.295 9.74769C522.784 9.74769 524.107 9.95692 525.264 10.3754C526.433 10.7815 527.504 11.3908 528.476 12.2031L525.947 15.7108C525.283 15.2431 524.581 14.88 523.843 14.6215C523.104 14.3631 522.335 14.2338 521.535 14.2338C520.218 14.2338 519.153 14.7015 518.341 15.6369C517.541 16.56 517.141 18.1231 517.141 20.3262C517.141 21.7662 517.332 22.9046 517.713 23.7415C518.095 24.5662 518.612 25.1569 519.264 25.5138C519.929 25.8585 520.673 26.0308 521.498 26.0308ZM539.086 1.99385V30H533.253V2.60308L539.086 1.99385ZM551.862 10.3938L545.419 19.0708L552.397 30H545.751L539.308 19.2554L545.751 10.3938H551.862ZM594.202 30H587.759L586.079 16.8185L584.325 30H577.993L575.094 10.3938H580.429L581.703 26.3631L583.771 12.8677H588.682L590.528 26.3631L591.839 10.3938H596.989L594.202 30ZM604.756 21.8954C604.953 23.4954 605.476 24.6462 606.326 25.3477C607.175 26.0369 608.221 26.3815 609.464 26.3815C610.363 26.3815 611.23 26.2338 612.067 25.9385C612.904 25.6431 613.71 25.2492 614.486 24.7569L616.83 27.9323C615.907 28.72 614.787 29.3662 613.47 29.8708C612.166 30.3754 610.676 30.6277 609.003 30.6277C606.763 30.6277 604.886 30.1846 603.372 29.2985C601.858 28.4 600.719 27.1692 599.956 25.6062C599.193 24.0431 598.812 22.2462 598.812 20.2154C598.812 18.2831 599.181 16.5292 599.919 14.9538C600.658 13.3662 601.735 12.1046 603.15 11.1692C604.578 10.2215 606.319 9.74769 608.375 9.74769C610.246 9.74769 611.864 10.1477 613.23 10.9477C614.609 11.7477 615.673 12.8985 616.424 14.4C617.187 15.9015 617.569 17.7046 617.569 19.8092C617.569 20.1415 617.556 20.4985 617.532 20.88C617.519 21.2615 617.495 21.6 617.458 21.8954H604.756ZM608.375 13.6615C607.329 13.6615 606.486 14.0369 605.846 14.7877C605.206 15.5385 604.818 16.7385 604.683 18.3877H611.883C611.87 16.96 611.593 15.8154 611.052 14.9538C610.51 14.0923 609.618 13.6615 608.375 13.6615ZM627.68 12.4062C628.296 11.5938 629.034 10.9477 629.896 10.4677C630.769 9.98769 631.705 9.74769 632.702 9.74769C635.225 9.74769 637.059 10.6831 638.203 12.5538C639.36 14.4246 639.939 16.9538 639.939 20.1415C639.939 22.16 639.637 23.9631 639.034 25.5508C638.443 27.1262 637.563 28.3692 636.394 29.28C635.225 30.1785 633.791 30.6277 632.092 30.6277C630.037 30.6277 628.419 29.8277 627.237 28.2277L627.016 30H621.846V2.60308L627.68 1.99385V12.4062ZM630.56 26.3815C631.594 26.3815 632.412 25.9077 633.016 24.96C633.619 24 633.92 22.4185 633.92 20.2154C633.92 18.5908 633.791 17.3354 633.532 16.4492C633.286 15.5508 632.929 14.9292 632.462 14.5846C632.006 14.2277 631.471 14.0492 630.856 14.0492C630.203 14.0492 629.619 14.2523 629.102 14.6585C628.585 15.0646 628.111 15.6185 627.68 16.32V24.5908C628.049 25.1692 628.462 25.6123 628.917 25.92C629.372 26.2277 629.92 26.3815 630.56 26.3815ZM678.623 1.99385C680.051 1.99385 681.312 2.11077 682.408 2.34462C683.503 2.56616 684.482 2.86154 685.343 3.23077L683.737 7.03385C683.06 6.77539 682.365 6.59077 681.651 6.48C680.937 6.35692 680.229 6.29539 679.528 6.29539C678.371 6.29539 677.54 6.50462 677.036 6.92308C676.543 7.34154 676.297 8.03692 676.297 9.00923V11.6308H682.685L682.039 15.6738H676.297V30H670.5V15.6738H666.383V11.6308H670.5V8.78769C670.5 7.49539 670.808 6.33846 671.423 5.31692C672.039 4.29539 672.949 3.48923 674.156 2.89846C675.362 2.29539 676.851 1.99385 678.623 1.99385ZM688.476 30V26.0862H691.061V14.2708H688.476V10.3938H695.51L696.581 14.8062C697.282 13.12 698.175 11.8646 699.258 11.04C700.353 10.2154 701.689 9.80308 703.264 9.80308C703.929 9.80308 704.519 9.85846 705.036 9.96923C705.553 10.0677 706.039 10.2092 706.495 10.3938L705.405 18.5908H701.75V14.9723C700.642 15.1692 699.67 15.7723 698.833 16.7815C697.996 17.7785 697.35 19.0092 696.895 20.4738V26.0862H700.772V30H688.476ZM726.945 24.3508C726.945 25.0892 727.043 25.6246 727.24 25.9569C727.449 26.2892 727.782 26.5415 728.237 26.7138L727.037 30.5538C725.88 30.4431 724.902 30.1908 724.102 29.7969C723.314 29.3908 722.692 28.7815 722.237 27.9692C721.486 28.8677 720.526 29.5385 719.357 29.9815C718.188 30.4123 716.994 30.6277 715.775 30.6277C713.757 30.6277 712.145 30.0554 710.939 28.9108C709.745 27.7538 709.148 26.2708 709.148 24.4615C709.148 22.3323 709.979 20.6892 711.64 19.5323C713.314 18.3754 715.665 17.7969 718.692 17.7969H721.332V17.0585C721.332 15.0523 720.04 14.0492 717.455 14.0492C716.828 14.0492 716.022 14.1415 715.037 14.3262C714.052 14.4985 713.068 14.7508 712.083 15.0831L710.735 11.2062C712.003 10.7262 713.32 10.3631 714.686 10.1169C716.065 9.87077 717.295 9.74769 718.379 9.74769C721.295 9.74769 723.449 10.3446 724.84 11.5385C726.243 12.72 726.945 14.4308 726.945 16.6708V24.3508ZM717.788 26.4554C718.415 26.4554 719.074 26.2708 719.763 25.9015C720.452 25.52 720.975 24.9846 721.332 24.2954V21.12H719.892C718.268 21.12 717.074 21.3723 716.311 21.8769C715.548 22.3692 715.166 23.0954 715.166 24.0554C715.166 24.8062 715.394 25.3969 715.849 25.8277C716.317 26.2462 716.963 26.4554 717.788 26.4554ZM747.081 9.74769C748.472 9.74769 749.499 10.2031 750.164 11.1138C750.841 12.0123 751.179 13.4708 751.179 15.4892V30H746.176V16.1538C746.176 15.4646 746.109 14.9785 745.973 14.6954C745.85 14.4123 745.592 14.2708 745.198 14.2708C744.89 14.2708 744.57 14.3631 744.238 14.5477C743.918 14.72 743.561 15.0523 743.167 15.5446V30H739.069V16.1538C739.069 15.4646 739.001 14.9785 738.865 14.6954C738.742 14.4123 738.484 14.2708 738.09 14.2708C737.782 14.2708 737.462 14.3631 737.13 14.5477C736.81 14.72 736.453 15.0523 736.059 15.5446V30H730.982V10.3938H735.265L735.653 12.2954C736.269 11.4585 736.89 10.8246 737.518 10.3938C738.145 9.96308 738.89 9.74769 739.752 9.74769C740.49 9.74769 741.118 9.93846 741.635 10.32C742.164 10.6892 742.539 11.2738 742.761 12.0738C743.352 11.3846 744.004 10.8246 744.718 10.3938C745.432 9.96308 746.219 9.74769 747.081 9.74769ZM759.795 21.8954C759.992 23.4954 760.515 24.6462 761.365 25.3477C762.214 26.0369 763.26 26.3815 764.503 26.3815C765.402 26.3815 766.269 26.2338 767.106 25.9385C767.943 25.6431 768.749 25.2492 769.525 24.7569L771.869 27.9323C770.946 28.72 769.826 29.3662 768.509 29.8708C767.205 30.3754 765.715 30.6277 764.042 30.6277C761.802 30.6277 759.925 30.1846 758.411 29.2985C756.897 28.4 755.758 27.1692 754.995 25.6062C754.232 24.0431 753.851 22.2462 753.851 20.2154C753.851 18.2831 754.22 16.5292 754.958 14.9538C755.697 13.3662 756.774 12.1046 758.189 11.1692C759.617 10.2215 761.358 9.74769 763.414 9.74769C765.285 9.74769 766.903 10.1477 768.269 10.9477C769.648 11.7477 770.712 12.8985 771.463 14.4C772.226 15.9015 772.608 17.7046 772.608 19.8092C772.608 20.1415 772.595 20.4985 772.571 20.88C772.558 21.2615 772.534 21.6 772.497 21.8954H759.795ZM763.414 13.6615C762.368 13.6615 761.525 14.0369 760.885 14.7877C760.245 15.5385 759.857 16.7385 759.722 18.3877H766.922C766.909 16.96 766.632 15.8154 766.091 14.9538C765.549 14.0923 764.657 13.6615 763.414 13.6615ZM793.538 30H787.095L785.415 16.8185L783.661 30H777.328L774.43 10.3938H779.765L781.039 26.3631L783.107 12.8677H788.018L789.864 26.3631L791.175 10.3938H796.325L793.538 30ZM807.526 9.74769C809.545 9.74769 811.262 10.1785 812.677 11.04C814.092 11.9015 815.175 13.1138 815.926 14.6769C816.677 16.2277 817.052 18.0492 817.052 20.1415C817.052 23.4154 816.215 25.9815 814.542 27.84C812.868 29.6985 810.529 30.6277 807.526 30.6277C804.523 30.6277 802.185 29.7108 800.511 27.8769C798.837 26.0431 798 23.4769 798 20.1785C798 18.0985 798.375 16.2769 799.126 14.7138C799.889 13.1508 800.978 11.9323 802.394 11.0585C803.822 10.1846 805.532 9.74769 807.526 9.74769ZM807.526 14.0492C806.332 14.0492 805.446 14.5415 804.868 15.5262C804.302 16.4985 804.018 18.0492 804.018 20.1785C804.018 22.3446 804.302 23.9138 804.868 24.8862C805.446 25.8585 806.332 26.3446 807.526 26.3446C808.72 26.3446 809.6 25.8585 810.166 24.8862C810.745 23.9138 811.034 22.3323 811.034 20.1415C811.034 18.0246 810.745 16.48 810.166 15.5077C809.6 14.5354 808.72 14.0492 807.526 14.0492ZM821.367 30V26.0862H823.952V14.2708H821.367V10.3938H828.401L829.472 14.8062C830.173 13.12 831.065 11.8646 832.148 11.04C833.244 10.2154 834.579 9.80308 836.155 9.80308C836.819 9.80308 837.41 9.85846 837.927 9.96923C838.444 10.0677 838.93 10.2092 839.385 10.3938L838.296 18.5908H834.641V14.9723C833.533 15.1692 832.561 15.7723 831.724 16.7815C830.887 17.7785 830.241 19.0092 829.785 20.4738V26.0862H833.662V30H821.367ZM849.165 1.99385V30H843.331V2.60308L849.165 1.99385ZM861.94 10.3938L855.497 19.0708L862.475 30H855.829L849.386 19.2554L855.829 10.3938H861.94Z" fill="white"/>
<path d="M16.1824 9.74769C17.5732 9.74769 18.6009 10.2031 19.2655 11.1138C19.9424 12.0123 20.2809 13.4708 20.2809 15.4892V30H15.2778V16.1538C15.2778 15.4646 15.2101 14.9785 15.0747 14.6954C14.9516 14.4123 14.6932 14.2708 14.2993 14.2708C13.9916 14.2708 13.6716 14.3631 13.3393 14.5477C13.0193 14.72 12.6624 15.0523 12.2685 15.5446V30H8.17008V16.1538C8.17008 15.4646 8.10239 14.9785 7.96701 14.6954C7.84393 14.4123 7.58547 14.2708 7.19162 14.2708C6.88393 14.2708 6.56393 14.3631 6.23162 14.5477C5.91162 14.72 5.5547 15.0523 5.16085 15.5446V30H0.0839303V10.3938H4.36701L4.7547 12.2954C5.37008 11.4585 5.99162 10.8246 6.61931 10.3938C7.24701 9.96308 7.99162 9.74769 8.85316 9.74769C9.59162 9.74769 10.2193 9.93846 10.7362 10.32C11.2655 10.6892 11.6409 11.2738 11.8624 12.0738C12.4532 11.3846 13.1055 10.8246 13.8193 10.3938C14.5332 9.96308 15.3209 9.74769 16.1824 9.74769ZM40.3431 24.3508C40.3431 25.0892 40.4416 25.6246 40.6385 25.9569C40.8478 26.2892 41.1801 26.5415 41.6354 26.7138L40.4354 30.5538C39.2785 30.4431 38.3001 30.1908 37.5001 29.7969C36.7124 29.3908 36.0908 28.7815 35.6354 27.9692C34.8847 28.8677 33.9247 29.5385 32.7554 29.9815C31.5862 30.4123 30.3924 30.6277 29.1739 30.6277C27.1554 30.6277 25.5431 30.0554 24.337 28.9108C23.1431 27.7538 22.5462 26.2708 22.5462 24.4615C22.5462 22.3323 23.377 20.6892 25.0385 19.5323C26.7124 18.3754 29.0631 17.7969 32.0908 17.7969H34.7308V17.0585C34.7308 15.0523 33.4385 14.0492 30.8539 14.0492C30.2262 14.0492 29.4201 14.1415 28.4354 14.3262C27.4508 14.4985 26.4662 14.7508 25.4816 15.0831L24.1339 11.2062C25.4016 10.7262 26.7185 10.3631 28.0847 10.1169C29.4631 9.87077 30.6939 9.74769 31.777 9.74769C34.6939 9.74769 36.8478 10.3446 38.2385 11.5385C39.6416 12.72 40.3431 14.4308 40.3431 16.6708V24.3508ZM31.1862 26.4554C31.8139 26.4554 32.4724 26.2708 33.1616 25.9015C33.8508 25.52 34.3739 24.9846 34.7308 24.2954V21.12H33.2908C31.6662 21.12 30.4724 21.3723 29.7093 21.8769C28.9462 22.3692 28.5647 23.0954 28.5647 24.0554C28.5647 24.8062 28.7924 25.3969 29.2478 25.8277C29.7154 26.2462 30.3616 26.4554 31.1862 26.4554ZM56.3808 26.0308C57.1808 26.0308 57.9316 25.8769 58.6331 25.5692C59.347 25.2492 60.0547 24.8431 60.7562 24.3508L63.3593 28.0431C62.4977 28.7815 61.4454 29.3969 60.2023 29.8892C58.9716 30.3815 57.5931 30.6277 56.067 30.6277C53.9623 30.6277 52.1531 30.1969 50.6393 29.3354C49.1254 28.4615 47.9623 27.2554 47.15 25.7169C46.3377 24.1662 45.9316 22.3692 45.9316 20.3262C45.9316 18.2831 46.3439 16.4677 47.1685 14.88C48.0054 13.28 49.187 12.0246 50.7131 11.1138C52.2516 10.2031 54.0731 9.74769 56.1777 9.74769C57.667 9.74769 58.99 9.95692 60.147 10.3754C61.3162 10.7815 62.387 11.3908 63.3593 12.2031L60.83 15.7108C60.1654 15.2431 59.4639 14.88 58.7254 14.6215C57.987 14.3631 57.2177 14.2338 56.4177 14.2338C55.1008 14.2338 54.0362 14.7015 53.2239 15.6369C52.4239 16.56 52.0239 18.1231 52.0239 20.3262C52.0239 21.7662 52.2147 22.9046 52.5962 23.7415C52.9777 24.5662 53.4947 25.1569 54.147 25.5138C54.8116 25.8585 55.5562 26.0308 56.3808 26.0308ZM68.32 30V26.0862H70.9046V14.2708H68.32V10.3938H75.3539L76.4246 14.8062C77.1262 13.12 78.0185 11.8646 79.1016 11.04C80.1969 10.2154 81.5323 9.80308 83.1077 9.80308C83.7723 9.80308 84.3631 9.85846 84.88 9.96923C85.3969 10.0677 85.8831 10.2092 86.3385 10.3938L85.2492 18.5908H81.5939V14.9723C80.4862 15.1692 79.5139 15.7723 78.6769 16.7815C77.84 17.7785 77.1939 19.0092 76.7385 20.4738V26.0862H80.6154V30H68.32ZM98.7761 9.74769C100.795 9.74769 102.512 10.1785 103.927 11.04C105.342 11.9015 106.425 13.1138 107.176 14.6769C107.927 16.2277 108.302 18.0492 108.302 20.1415C108.302 23.4154 107.465 25.9815 105.792 27.84C104.118 29.6985 101.779 30.6277 98.7761 30.6277C95.7731 30.6277 93.4346 29.7108 91.7608 27.8769C90.0869 26.0431 89.25 23.4769 89.25 20.1785C89.25 18.0985 89.6254 16.2769 90.3761 14.7138C91.1392 13.1508 92.2284 11.9323 93.6438 11.0585C95.0715 10.1846 96.7823 9.74769 98.7761 9.74769ZM98.7761 14.0492C97.5823 14.0492 96.6961 14.5415 96.1177 15.5262C95.5515 16.4985 95.2684 18.0492 95.2684 20.1785C95.2684 22.3446 95.5515 23.9138 96.1177 24.8862C96.6961 25.8585 97.5823 26.3446 98.7761 26.3446C99.97 26.3446 100.85 25.8585 101.416 24.8862C101.995 23.9138 102.284 22.3323 102.284 20.1415C102.284 18.0246 101.995 16.48 101.416 15.5077C100.85 14.5354 99.97 14.0492 98.7761 14.0492ZM112.931 22.1908V17.6492H128.918V22.1908H112.931ZM143.073 9.74769C145.091 9.74769 146.808 10.1785 148.224 11.04C149.639 11.9015 150.722 13.1138 151.473 14.6769C152.224 16.2277 152.599 18.0492 152.599 20.1415C152.599 23.4154 151.762 25.9815 150.088 27.84C148.415 29.6985 146.076 30.6277 143.073 30.6277C140.07 30.6277 137.731 29.7108 136.058 27.8769C134.384 26.0431 133.547 23.4769 133.547 20.1785C133.547 18.0985 133.922 16.2769 134.673 14.7138C135.436 13.1508 136.525 11.9323 137.941 11.0585C139.368 10.1846 141.079 9.74769 143.073 9.74769ZM143.073 14.0492C141.879 14.0492 140.993 14.5415 140.415 15.5262C139.848 16.4985 139.565 18.0492 139.565 20.1785C139.565 22.3446 139.848 23.9138 140.415 24.8862C140.993 25.8585 141.879 26.3446 143.073 26.3446C144.267 26.3446 145.147 25.8585 145.713 24.8862C146.291 23.9138 146.581 22.3323 146.581 20.1415C146.581 18.0246 146.291 16.48 145.713 15.5077C145.147 14.5354 144.267 14.0492 143.073 14.0492ZM156.914 30V26.0862H159.498V14.2708H156.914V10.3938H163.948L165.018 14.8062C165.72 13.12 166.612 11.8646 167.695 11.04C168.791 10.2154 170.126 9.80308 171.701 9.80308C172.366 9.80308 172.957 9.85846 173.474 9.96923C173.991 10.0677 174.477 10.2092 174.932 10.3938L173.843 18.5908H170.188V14.9723C169.08 15.1692 168.108 15.7723 167.271 16.7815C166.434 17.7785 165.788 19.0092 165.332 20.4738V26.0862H169.209V30H156.914ZM187.333 0.129232C188.342 0.129232 189.167 0.443078 189.807 1.07077C190.447 1.69846 190.767 2.48 190.767 3.41539C190.767 4.35077 190.447 5.13846 189.807 5.77846C189.167 6.40615 188.342 6.72 187.333 6.72C186.311 6.72 185.475 6.40615 184.822 5.77846C184.182 5.13846 183.862 4.35077 183.862 3.41539C183.862 2.48 184.182 1.69846 184.822 1.07077C185.475 0.443078 186.311 0.129232 187.333 0.129232ZM190.859 10.3938V26.0123H195.844V30H179.468V26.0123H185.025V14.3815H179.653V10.3938H190.859ZM206.084 21.8954C206.281 23.4954 206.804 24.6462 207.654 25.3477C208.503 26.0369 209.549 26.3815 210.792 26.3815C211.691 26.3815 212.558 26.2338 213.395 25.9385C214.232 25.6431 215.038 25.2492 215.814 24.7569L218.158 27.9323C217.235 28.72 216.115 29.3662 214.798 29.8708C213.494 30.3754 212.004 30.6277 210.331 30.6277C208.091 30.6277 206.214 30.1846 204.7 29.2985C203.186 28.4 202.048 27.1692 201.284 25.6062C200.521 24.0431 200.14 22.2462 200.14 20.2154C200.14 18.2831 200.509 16.5292 201.248 14.9538C201.986 13.3662 203.063 12.1046 204.478 11.1692C205.906 10.2215 207.648 9.74769 209.703 9.74769C211.574 9.74769 213.192 10.1477 214.558 10.9477C215.937 11.7477 217.001 12.8985 217.752 14.4C218.515 15.9015 218.897 17.7046 218.897 19.8092C218.897 20.1415 218.884 20.4985 218.86 20.88C218.848 21.2615 218.823 21.6 218.786 21.8954H206.084ZM209.703 13.6615C208.657 13.6615 207.814 14.0369 207.174 14.7877C206.534 15.5385 206.146 16.7385 206.011 18.3877H213.211C213.198 16.96 212.921 15.8154 212.38 14.9538C211.838 14.0923 210.946 13.6615 209.703 13.6615ZM223.174 30V10.3938H228.27L228.676 12.6646C229.55 11.68 230.473 10.9477 231.445 10.4677C232.418 9.98769 233.525 9.74769 234.768 9.74769C236.442 9.74769 237.759 10.2585 238.719 11.28C239.679 12.3015 240.159 13.7415 240.159 15.6V30H234.325V17.28C234.325 16.0738 234.19 15.2369 233.919 14.7692C233.661 14.2892 233.168 14.0492 232.442 14.0492C231.827 14.0492 231.236 14.2462 230.67 14.64C230.116 15.0338 229.562 15.5815 229.008 16.2831V30H223.174ZM262.972 28.8554C262.209 29.3477 261.286 29.7662 260.203 30.1108C259.12 30.4554 257.901 30.6277 256.548 30.6277C253.988 30.6277 252.086 29.9754 250.843 28.6708C249.6 27.3538 248.978 25.5692 248.978 23.3169V14.4185H244.861V10.3938H248.978V6.14769L254.812 5.44616V10.3938H261.126L260.554 14.4185H254.812V23.3169C254.812 24.2892 255.034 24.9846 255.477 25.4031C255.92 25.8215 256.628 26.0308 257.6 26.0308C258.289 26.0308 258.917 25.9508 259.483 25.7908C260.061 25.6185 260.578 25.4031 261.034 25.1446L262.972 28.8554ZM272.53 21.8954C272.727 23.4954 273.25 24.6462 274.099 25.3477C274.948 26.0369 275.994 26.3815 277.237 26.3815C278.136 26.3815 279.004 26.2338 279.841 25.9385C280.677 25.6431 281.484 25.2492 282.259 24.7569L284.604 27.9323C283.681 28.72 282.561 29.3662 281.244 29.8708C279.939 30.3754 278.45 30.6277 276.776 30.6277C274.536 30.6277 272.659 30.1846 271.145 29.2985C269.631 28.4 268.493 27.1692 267.73 25.6062C266.967 24.0431 266.585 22.2462 266.585 20.2154C266.585 18.2831 266.954 16.5292 267.693 14.9538C268.431 13.3662 269.508 12.1046 270.924 11.1692C272.351 10.2215 274.093 9.74769 276.148 9.74769C278.019 9.74769 279.637 10.1477 281.004 10.9477C282.382 11.7477 283.447 12.8985 284.197 14.4C284.961 15.9015 285.342 17.7046 285.342 19.8092C285.342 20.1415 285.33 20.4985 285.305 20.88C285.293 21.2615 285.268 21.6 285.231 21.8954H272.53ZM276.148 13.6615C275.102 13.6615 274.259 14.0369 273.619 14.7877C272.979 15.5385 272.591 16.7385 272.456 18.3877H279.656C279.644 16.96 279.367 15.8154 278.825 14.9538C278.284 14.0923 277.391 13.6615 276.148 13.6615ZM300.771 1.99385L306.604 2.60308V30H301.435L301.14 27.84C300.598 28.6031 299.878 29.2615 298.98 29.8154C298.081 30.3569 296.992 30.6277 295.712 30.6277C294.087 30.6277 292.74 30.1908 291.669 29.3169C290.611 28.4431 289.817 27.2246 289.287 25.6615C288.771 24.0862 288.512 22.2462 288.512 20.1415C288.512 18.1231 288.826 16.3323 289.454 14.7692C290.081 13.2062 290.98 11.9815 292.149 11.0954C293.318 10.1969 294.709 9.74769 296.321 9.74769C298.081 9.74769 299.564 10.3508 300.771 11.5569V1.99385ZM297.891 14.0123C296.881 14.0123 296.069 14.4923 295.454 15.4523C294.838 16.4 294.531 17.9754 294.531 20.1785C294.531 21.7908 294.66 23.0462 294.918 23.9446C295.177 24.8308 295.534 25.4523 295.989 25.8092C296.444 26.1662 296.967 26.3446 297.558 26.3446C298.211 26.3446 298.801 26.1415 299.331 25.7354C299.872 25.3292 300.352 24.7754 300.771 24.0738V15.6185C300.364 15.1138 299.934 14.72 299.478 14.4369C299.023 14.1538 298.494 14.0123 297.891 14.0123ZM346.397 1.99385C347.824 1.99385 349.086 2.11077 350.181 2.34462C351.277 2.56616 352.255 2.86154 353.117 3.23077L351.51 7.03385C350.834 6.77539 350.138 6.59077 349.424 6.48C348.71 6.35692 348.003 6.29539 347.301 6.29539C346.144 6.29539 345.314 6.50462 344.809 6.92308C344.317 7.34154 344.07 8.03692 344.07 9.00923V11.6308H350.458L349.812 15.6738H344.07V30H338.274V15.6738H334.157V11.6308H338.274V8.78769C338.274 7.49539 338.581 6.33846 339.197 5.31692C339.812 4.29539 340.723 3.48923 341.929 2.89846C343.135 2.29539 344.624 1.99385 346.397 1.99385ZM361.899 10.3938V23.8154C361.899 24.7631 362.071 25.4154 362.416 25.7723C362.773 26.1292 363.265 26.3077 363.893 26.3077C364.496 26.3077 365.099 26.1169 365.702 25.7354C366.305 25.3538 366.81 24.8369 367.216 24.1846V10.3938H373.05V30H367.954L367.696 27.7108C367.031 28.6708 366.157 29.3969 365.074 29.8892C363.991 30.3815 362.859 30.6277 361.677 30.6277C359.782 30.6277 358.373 30.08 357.45 28.9846C356.527 27.8769 356.065 26.3938 356.065 24.5354V10.3938H361.899ZM388.441 2.60308V23.8338C388.441 24.6215 388.663 25.1877 389.106 25.5323C389.561 25.8646 390.183 26.0308 390.97 26.0308C391.475 26.0308 391.961 25.9754 392.429 25.8646C392.897 25.7415 393.334 25.6 393.74 25.44L395.143 29.3354C394.478 29.68 393.678 29.9815 392.743 30.24C391.807 30.4985 390.718 30.6277 389.475 30.6277C387.112 30.6277 385.377 29.9508 384.269 28.5969C383.161 27.2308 382.607 25.4031 382.607 23.1138V6.59077H376.829V2.60308H388.441ZM410.59 2.60308V23.8338C410.59 24.6215 410.811 25.1877 411.254 25.5323C411.71 25.8646 412.331 26.0308 413.119 26.0308C413.623 26.0308 414.11 25.9754 414.577 25.8646C415.045 25.7415 415.482 25.6 415.888 25.44L417.291 29.3354C416.627 29.68 415.827 29.9815 414.891 30.24C413.956 30.4985 412.867 30.6277 411.623 30.6277C409.26 30.6277 407.525 29.9508 406.417 28.5969C405.31 27.2308 404.756 25.4031 404.756 23.1138V6.59077H398.977V2.60308H410.59ZM423.009 22.1908V17.6492H438.997V22.1908H423.009ZM452.523 26.4554C453.496 26.4554 454.277 26.3015 454.868 25.9938C455.471 25.6862 455.773 25.2246 455.773 24.6092C455.773 24.1908 455.656 23.84 455.422 23.5569C455.188 23.2738 454.739 23.0031 454.074 22.7446C453.41 22.4862 452.425 22.1785 451.12 21.8215C449.323 21.3415 447.859 20.6523 446.727 19.7538C445.607 18.8554 445.047 17.5385 445.047 15.8031C445.047 14.0554 445.773 12.6092 447.225 11.4646C448.69 10.32 450.8 9.74769 453.557 9.74769C455.305 9.74769 456.825 9.97539 458.117 10.4308C459.422 10.8738 460.548 11.44 461.496 12.1292L459.17 15.5631C458.357 15.0585 457.483 14.6585 456.548 14.3631C455.613 14.0554 454.671 13.9015 453.723 13.9015C451.853 13.9015 450.917 14.4062 450.917 15.4154C450.917 15.7477 451.034 16.0369 451.268 16.2831C451.514 16.5169 451.97 16.7631 452.634 17.0215C453.299 17.2677 454.271 17.5754 455.551 17.9446C456.819 18.3015 457.92 18.7138 458.856 19.1815C459.803 19.6492 460.536 20.2769 461.053 21.0646C461.57 21.84 461.828 22.8677 461.828 24.1477C461.828 25.5754 461.403 26.7754 460.554 27.7477C459.705 28.7077 458.579 29.4277 457.176 29.9077C455.773 30.3877 454.234 30.6277 452.56 30.6277C450.665 30.6277 448.991 30.3569 447.539 29.8154C446.087 29.2738 444.85 28.56 443.828 27.6738L446.763 24.3877C447.527 24.9785 448.388 25.4708 449.348 25.8646C450.32 26.2585 451.379 26.4554 452.523 26.4554ZM484.457 28.8554C483.693 29.3477 482.77 29.7662 481.687 30.1108C480.604 30.4554 479.386 30.6277 478.032 30.6277C475.472 30.6277 473.57 29.9754 472.327 28.6708C471.084 27.3538 470.463 25.5692 470.463 23.3169V14.4185H466.346V10.3938H470.463V6.14769L476.297 5.44616V10.3938H482.61L482.038 14.4185H476.297V23.3169C476.297 24.2892 476.518 24.9846 476.961 25.4031C477.404 25.8215 478.112 26.0308 479.084 26.0308C479.773 26.0308 480.401 25.9508 480.967 25.7908C481.546 25.6185 482.063 25.4031 482.518 25.1446L484.457 28.8554ZM505.46 24.3508C505.46 25.0892 505.559 25.6246 505.756 25.9569C505.965 26.2892 506.297 26.5415 506.753 26.7138L505.553 30.5538C504.396 30.4431 503.417 30.1908 502.617 29.7969C501.83 29.3908 501.208 28.7815 500.753 27.9692C500.002 28.8677 499.042 29.5385 497.873 29.9815C496.703 30.4123 495.51 30.6277 494.291 30.6277C492.273 30.6277 490.66 30.0554 489.454 28.9108C488.26 27.7538 487.663 26.2708 487.663 24.4615C487.663 22.3323 488.494 20.6892 490.156 19.5323C491.83 18.3754 494.18 17.7969 497.208 17.7969H499.848V17.0585C499.848 15.0523 498.556 14.0492 495.971 14.0492C495.343 14.0492 494.537 14.1415 493.553 14.3262C492.568 14.4985 491.583 14.7508 490.599 15.0831L489.251 11.2062C490.519 10.7262 491.836 10.3631 493.202 10.1169C494.58 9.87077 495.811 9.74769 496.894 9.74769C499.811 9.74769 501.965 10.3446 503.356 11.5385C504.759 12.72 505.46 14.4308 505.46 16.6708V24.3508ZM496.303 26.4554C496.931 26.4554 497.59 26.2708 498.279 25.9015C498.968 25.52 499.491 24.9846 499.848 24.2954V21.12H498.408C496.783 21.12 495.59 21.3723 494.826 21.8769C494.063 22.3692 493.682 23.0954 493.682 24.0554C493.682 24.8062 493.91 25.3969 494.365 25.8277C494.833 26.2462 495.479 26.4554 496.303 26.4554ZM521.498 26.0308C522.298 26.0308 523.049 25.8769 523.75 25.5692C524.464 25.2492 525.172 24.8431 525.873 24.3508L528.476 28.0431C527.615 28.7815 526.563 29.3969 525.32 29.8892C524.089 30.3815 522.71 30.6277 521.184 30.6277C519.08 30.6277 517.27 30.1969 515.756 29.3354C514.243 28.4615 513.08 27.2554 512.267 25.7169C511.455 24.1662 511.049 22.3692 511.049 20.3262C511.049 18.2831 511.461 16.4677 512.286 14.88C513.123 13.28 514.304 12.0246 515.83 11.1138C517.369 10.2031 519.19 9.74769 521.295 9.74769C522.784 9.74769 524.107 9.95692 525.264 10.3754C526.433 10.7815 527.504 11.3908 528.476 12.2031L525.947 15.7108C525.283 15.2431 524.581 14.88 523.843 14.6215C523.104 14.3631 522.335 14.2338 521.535 14.2338C520.218 14.2338 519.153 14.7015 518.341 15.6369C517.541 16.56 517.141 18.1231 517.141 20.3262C517.141 21.7662 517.332 22.9046 517.713 23.7415C518.095 24.5662 518.612 25.1569 519.264 25.5138C519.929 25.8585 520.673 26.0308 521.498 26.0308ZM539.086 1.99385V30H533.253V2.60308L539.086 1.99385ZM551.862 10.3938L545.419 19.0708L552.397 30H545.751L539.308 19.2554L545.751 10.3938H551.862ZM594.202 30H587.759L586.079 16.8185L584.325 30H577.993L575.094 10.3938H580.429L581.703 26.3631L583.771 12.8677H588.682L590.528 26.3631L591.839 10.3938H596.989L594.202 30ZM604.756 21.8954C604.953 23.4954 605.476 24.6462 606.326 25.3477C607.175 26.0369 608.221 26.3815 609.464 26.3815C610.363 26.3815 611.23 26.2338 612.067 25.9385C612.904 25.6431 613.71 25.2492 614.486 24.7569L616.83 27.9323C615.907 28.72 614.787 29.3662 613.47 29.8708C612.166 30.3754 610.676 30.6277 609.003 30.6277C606.763 30.6277 604.886 30.1846 603.372 29.2985C601.858 28.4 600.719 27.1692 599.956 25.6062C599.193 24.0431 598.812 22.2462 598.812 20.2154C598.812 18.2831 599.181 16.5292 599.919 14.9538C600.658 13.3662 601.735 12.1046 603.15 11.1692C604.578 10.2215 606.319 9.74769 608.375 9.74769C610.246 9.74769 611.864 10.1477 613.23 10.9477C614.609 11.7477 615.673 12.8985 616.424 14.4C617.187 15.9015 617.569 17.7046 617.569 19.8092C617.569 20.1415 617.556 20.4985 617.532 20.88C617.519 21.2615 617.495 21.6 617.458 21.8954H604.756ZM608.375 13.6615C607.329 13.6615 606.486 14.0369 605.846 14.7877C605.206 15.5385 604.818 16.7385 604.683 18.3877H611.883C611.87 16.96 611.593 15.8154 611.052 14.9538C610.51 14.0923 609.618 13.6615 608.375 13.6615ZM627.68 12.4062C628.296 11.5938 629.034 10.9477 629.896 10.4677C630.769 9.98769 631.705 9.74769 632.702 9.74769C635.225 9.74769 637.059 10.6831 638.203 12.5538C639.36 14.4246 639.939 16.9538 639.939 20.1415C639.939 22.16 639.637 23.9631 639.034 25.5508C638.443 27.1262 637.563 28.3692 636.394 29.28C635.225 30.1785 633.791 30.6277 632.092 30.6277C630.037 30.6277 628.419 29.8277 627.237 28.2277L627.016 30H621.846V2.60308L627.68 1.99385V12.4062ZM630.56 26.3815C631.594 26.3815 632.412 25.9077 633.016 24.96C633.619 24 633.92 22.4185 633.92 20.2154C633.92 18.5908 633.791 17.3354 633.532 16.4492C633.286 15.5508 632.929 14.9292 632.462 14.5846C632.006 14.2277 631.471 14.0492 630.856 14.0492C630.203 14.0492 629.619 14.2523 629.102 14.6585C628.585 15.0646 628.111 15.6185 627.68 16.32V24.5908C628.049 25.1692 628.462 25.6123 628.917 25.92C629.372 26.2277 629.92 26.3815 630.56 26.3815ZM678.623 1.99385C680.051 1.99385 681.312 2.11077 682.408 2.34462C683.503 2.56616 684.482 2.86154 685.343 3.23077L683.737 7.03385C683.06 6.77539 682.365 6.59077 681.651 6.48C680.937 6.35692 680.229 6.29539 679.528 6.29539C678.371 6.29539 677.54 6.50462 677.036 6.92308C676.543 7.34154 676.297 8.03692 676.297 9.00923V11.6308H682.685L682.039 15.6738H676.297V30H670.5V15.6738H666.383V11.6308H670.5V8.78769C670.5 7.49539 670.808 6.33846 671.423 5.31692C672.039 4.29539 672.949 3.48923 674.156 2.89846C675.362 2.29539 676.851 1.99385 678.623 1.99385ZM688.476 30V26.0862H691.061V14.2708H688.476V10.3938H695.51L696.581 14.8062C697.282 13.12 698.175 11.8646 699.258 11.04C700.353 10.2154 701.689 9.80308 703.264 9.80308C703.929 9.80308 704.519 9.85846 705.036 9.96923C705.553 10.0677 706.039 10.2092 706.495 10.3938L705.405 18.5908H701.75V14.9723C700.642 15.1692 699.67 15.7723 698.833 16.7815C697.996 17.7785 697.35 19.0092 696.895 20.4738V26.0862H700.772V30H688.476ZM726.945 24.3508C726.945 25.0892 727.043 25.6246 727.24 25.9569C727.449 26.2892 727.782 26.5415 728.237 26.7138L727.037 30.5538C725.88 30.4431 724.902 30.1908 724.102 29.7969C723.314 29.3908 722.692 28.7815 722.237 27.9692C721.486 28.8677 720.526 29.5385 719.357 29.9815C718.188 30.4123 716.994 30.6277 715.775 30.6277C713.757 30.6277 712.145 30.0554 710.939 28.9108C709.745 27.7538 709.148 26.2708 709.148 24.4615C709.148 22.3323 709.979 20.6892 711.64 19.5323C713.314 18.3754 715.665 17.7969 718.692 17.7969H721.332V17.0585C721.332 15.0523 720.04 14.0492 717.455 14.0492C716.828 14.0492 716.022 14.1415 715.037 14.3262C714.052 14.4985 713.068 14.7508 712.083 15.0831L710.735 11.2062C712.003 10.7262 713.32 10.3631 714.686 10.1169C716.065 9.87077 717.295 9.74769 718.379 9.74769C721.295 9.74769 723.449 10.3446 724.84 11.5385C726.243 12.72 726.945 14.4308 726.945 16.6708V24.3508ZM717.788 26.4554C718.415 26.4554 719.074 26.2708 719.763 25.9015C720.452 25.52 720.975 24.9846 721.332 24.2954V21.12H719.892C718.268 21.12 717.074 21.3723 716.311 21.8769C715.548 22.3692 715.166 23.0954 715.166 24.0554C715.166 24.8062 715.394 25.3969 715.849 25.8277C716.317 26.2462 716.963 26.4554 717.788 26.4554ZM747.081 9.74769C748.472 9.74769 749.499 10.2031 750.164 11.1138C750.841 12.0123 751.179 13.4708 751.179 15.4892V30H746.176V16.1538C746.176 15.4646 746.109 14.9785 745.973 14.6954C745.85 14.4123 745.592 14.2708 745.198 14.2708C744.89 14.2708 744.57 14.3631 744.238 14.5477C743.918 14.72 743.561 15.0523 743.167 15.5446V30H739.069V16.1538C739.069 15.4646 739.001 14.9785 738.865 14.6954C738.742 14.4123 738.484 14.2708 738.09 14.2708C737.782 14.2708 737.462 14.3631 737.13 14.5477C736.81 14.72 736.453 15.0523 736.059 15.5446V30H730.982V10.3938H735.265L735.653 12.2954C736.269 11.4585 736.89 10.8246 737.518 10.3938C738.145 9.96308 738.89 9.74769 739.752 9.74769C740.49 9.74769 741.118 9.93846 741.635 10.32C742.164 10.6892 742.539 11.2738 742.761 12.0738C743.352 11.3846 744.004 10.8246 744.718 10.3938C745.432 9.96308 746.219 9.74769 747.081 9.74769ZM759.795 21.8954C759.992 23.4954 760.515 24.6462 761.365 25.3477C762.214 26.0369 763.26 26.3815 764.503 26.3815C765.402 26.3815 766.269 26.2338 767.106 25.9385C767.943 25.6431 768.749 25.2492 769.525 24.7569L771.869 27.9323C770.946 28.72 769.826 29.3662 768.509 29.8708C767.205 30.3754 765.715 30.6277 764.042 30.6277C761.802 30.6277 759.925 30.1846 758.411 29.2985C756.897 28.4 755.758 27.1692 754.995 25.6062C754.232 24.0431 753.851 22.2462 753.851 20.2154C753.851 18.2831 754.22 16.5292 754.958 14.9538C755.697 13.3662 756.774 12.1046 758.189 11.1692C759.617 10.2215 761.358 9.74769 763.414 9.74769C765.285 9.74769 766.903 10.1477 768.269 10.9477C769.648 11.7477 770.712 12.8985 771.463 14.4C772.226 15.9015 772.608 17.7046 772.608 19.8092C772.608 20.1415 772.595 20.4985 772.571 20.88C772.558 21.2615 772.534 21.6 772.497 21.8954H759.795ZM763.414 13.6615C762.368 13.6615 761.525 14.0369 760.885 14.7877C760.245 15.5385 759.857 16.7385 759.722 18.3877H766.922C766.909 16.96 766.632 15.8154 766.091 14.9538C765.549 14.0923 764.657 13.6615 763.414 13.6615ZM793.538 30H787.095L785.415 16.8185L783.661 30H777.328L774.43 10.3938H779.765L781.039 26.3631L783.107 12.8677H788.018L789.864 26.3631L791.175 10.3938H796.325L793.538 30ZM807.526 9.74769C809.545 9.74769 811.262 10.1785 812.677 11.04C814.092 11.9015 815.175 13.1138 815.926 14.6769C816.677 16.2277 817.052 18.0492 817.052 20.1415C817.052 23.4154 816.215 25.9815 814.542 27.84C812.868 29.6985 810.529 30.6277 807.526 30.6277C804.523 30.6277 802.185 29.7108 800.511 27.8769C798.837 26.0431 798 23.4769 798 20.1785C798 18.0985 798.375 16.2769 799.126 14.7138C799.889 13.1508 800.978 11.9323 802.394 11.0585C803.822 10.1846 805.532 9.74769 807.526 9.74769ZM807.526 14.0492C806.332 14.0492 805.446 14.5415 804.868 15.5262C804.302 16.4985 804.018 18.0492 804.018 20.1785C804.018 22.3446 804.302 23.9138 804.868 24.8862C805.446 25.8585 806.332 26.3446 807.526 26.3446C808.72 26.3446 809.6 25.8585 810.166 24.8862C810.745 23.9138 811.034 22.3323 811.034 20.1415C811.034 18.0246 810.745 16.48 810.166 15.5077C809.6 14.5354 808.72 14.0492 807.526 14.0492ZM821.367 30V26.0862H823.952V14.2708H821.367V10.3938H828.401L829.472 14.8062C830.173 13.12 831.065 11.8646 832.148 11.04C833.244 10.2154 834.579 9.80308 836.155 9.80308C836.819 9.80308 837.41 9.85846 837.927 9.96923C838.444 10.0677 838.93 10.2092 839.385 10.3938L838.296 18.5908H834.641V14.9723C833.533 15.1692 832.561 15.7723 831.724 16.7815C830.887 17.7785 830.241 19.0092 829.785 20.4738V26.0862H833.662V30H821.367ZM849.165 1.99385V30H843.331V2.60308L849.165 1.99385ZM861.94 10.3938L855.497 19.0708L862.475 30H855.829L849.386 19.2554L855.829 10.3938H861.94Z" fill="url(#paint0_radial_207_6)" fill-opacity="0.64"/>
<path d="M16.1824 9.74769C17.5732 9.74769 18.6009 10.2031 19.2655 11.1138C19.9424 12.0123 20.2809 13.4708 20.2809 15.4892V30H15.2778V16.1538C15.2778 15.4646 15.2101 14.9785 15.0747 14.6954C14.9516 14.4123 14.6932 14.2708 14.2993 14.2708C13.9916 14.2708 13.6716 14.3631 13.3393 14.5477C13.0193 14.72 12.6624 15.0523 12.2685 15.5446V30H8.17008V16.1538C8.17008 15.4646 8.10239 14.9785 7.96701 14.6954C7.84393 14.4123 7.58547 14.2708 7.19162 14.2708C6.88393 14.2708 6.56393 14.3631 6.23162 14.5477C5.91162 14.72 5.5547 15.0523 5.16085 15.5446V30H0.0839303V10.3938H4.36701L4.7547 12.2954C5.37008 11.4585 5.99162 10.8246 6.61931 10.3938C7.24701 9.96308 7.99162 9.74769 8.85316 9.74769C9.59162 9.74769 10.2193 9.93846 10.7362 10.32C11.2655 10.6892 11.6409 11.2738 11.8624 12.0738C12.4532 11.3846 13.1055 10.8246 13.8193 10.3938C14.5332 9.96308 15.3209 9.74769 16.1824 9.74769ZM40.3431 24.3508C40.3431 25.0892 40.4416 25.6246 40.6385 25.9569C40.8478 26.2892 41.1801 26.5415 41.6354 26.7138L40.4354 30.5538C39.2785 30.4431 38.3001 30.1908 37.5001 29.7969C36.7124 29.3908 36.0908 28.7815 35.6354 27.9692C34.8847 28.8677 33.9247 29.5385 32.7554 29.9815C31.5862 30.4123 30.3924 30.6277 29.1739 30.6277C27.1554 30.6277 25.5431 30.0554 24.337 28.9108C23.1431 27.7538 22.5462 26.2708 22.5462 24.4615C22.5462 22.3323 23.377 20.6892 25.0385 19.5323C26.7124 18.3754 29.0631 17.7969 32.0908 17.7969H34.7308V17.0585C34.7308 15.0523 33.4385 14.0492 30.8539 14.0492C30.2262 14.0492 29.4201 14.1415 28.4354 14.3262C27.4508 14.4985 26.4662 14.7508 25.4816 15.0831L24.1339 11.2062C25.4016 10.7262 26.7185 10.3631 28.0847 10.1169C29.4631 9.87077 30.6939 9.74769 31.777 9.74769C34.6939 9.74769 36.8478 10.3446 38.2385 11.5385C39.6416 12.72 40.3431 14.4308 40.3431 16.6708V24.3508ZM31.1862 26.4554C31.8139 26.4554 32.4724 26.2708 33.1616 25.9015C33.8508 25.52 34.3739 24.9846 34.7308 24.2954V21.12H33.2908C31.6662 21.12 30.4724 21.3723 29.7093 21.8769C28.9462 22.3692 28.5647 23.0954 28.5647 24.0554C28.5647 24.8062 28.7924 25.3969 29.2478 25.8277C29.7154 26.2462 30.3616 26.4554 31.1862 26.4554ZM56.3808 26.0308C57.1808 26.0308 57.9316 25.8769 58.6331 25.5692C59.347 25.2492 60.0547 24.8431 60.7562 24.3508L63.3593 28.0431C62.4977 28.7815 61.4454 29.3969 60.2023 29.8892C58.9716 30.3815 57.5931 30.6277 56.067 30.6277C53.9623 30.6277 52.1531 30.1969 50.6393 29.3354C49.1254 28.4615 47.9623 27.2554 47.15 25.7169C46.3377 24.1662 45.9316 22.3692 45.9316 20.3262C45.9316 18.2831 46.3439 16.4677 47.1685 14.88C48.0054 13.28 49.187 12.0246 50.7131 11.1138C52.2516 10.2031 54.0731 9.74769 56.1777 9.74769C57.667 9.74769 58.99 9.95692 60.147 10.3754C61.3162 10.7815 62.387 11.3908 63.3593 12.2031L60.83 15.7108C60.1654 15.2431 59.4639 14.88 58.7254 14.6215C57.987 14.3631 57.2177 14.2338 56.4177 14.2338C55.1008 14.2338 54.0362 14.7015 53.2239 15.6369C52.4239 16.56 52.0239 18.1231 52.0239 20.3262C52.0239 21.7662 52.2147 22.9046 52.5962 23.7415C52.9777 24.5662 53.4947 25.1569 54.147 25.5138C54.8116 25.8585 55.5562 26.0308 56.3808 26.0308ZM68.32 30V26.0862H70.9046V14.2708H68.32V10.3938H75.3539L76.4246 14.8062C77.1262 13.12 78.0185 11.8646 79.1016 11.04C80.1969 10.2154 81.5323 9.80308 83.1077 9.80308C83.7723 9.80308 84.3631 9.85846 84.88 9.96923C85.3969 10.0677 85.8831 10.2092 86.3385 10.3938L85.2492 18.5908H81.5939V14.9723C80.4862 15.1692 79.5139 15.7723 78.6769 16.7815C77.84 17.7785 77.1939 19.0092 76.7385 20.4738V26.0862H80.6154V30H68.32ZM98.7761 9.74769C100.795 9.74769 102.512 10.1785 103.927 11.04C105.342 11.9015 106.425 13.1138 107.176 14.6769C107.927 16.2277 108.302 18.0492 108.302 20.1415C108.302 23.4154 107.465 25.9815 105.792 27.84C104.118 29.6985 101.779 30.6277 98.7761 30.6277C95.7731 30.6277 93.4346 29.7108 91.7608 27.8769C90.0869 26.0431 89.25 23.4769 89.25 20.1785C89.25 18.0985 89.6254 16.2769 90.3761 14.7138C91.1392 13.1508 92.2284 11.9323 93.6438 11.0585C95.0715 10.1846 96.7823 9.74769 98.7761 9.74769ZM98.7761 14.0492C97.5823 14.0492 96.6961 14.5415 96.1177 15.5262C95.5515 16.4985 95.2684 18.0492 95.2684 20.1785C95.2684 22.3446 95.5515 23.9138 96.1177 24.8862C96.6961 25.8585 97.5823 26.3446 98.7761 26.3446C99.97 26.3446 100.85 25.8585 101.416 24.8862C101.995 23.9138 102.284 22.3323 102.284 20.1415C102.284 18.0246 101.995 16.48 101.416 15.5077C100.85 14.5354 99.97 14.0492 98.7761 14.0492ZM112.931 22.1908V17.6492H128.918V22.1908H112.931ZM143.073 9.74769C145.091 9.74769 146.808 10.1785 148.224 11.04C149.639 11.9015 150.722 13.1138 151.473 14.6769C152.224 16.2277 152.599 18.0492 152.599 20.1415C152.599 23.4154 151.762 25.9815 150.088 27.84C148.415 29.6985 146.076 30.6277 143.073 30.6277C140.07 30.6277 137.731 29.7108 136.058 27.8769C134.384 26.0431 133.547 23.4769 133.547 20.1785C133.547 18.0985 133.922 16.2769 134.673 14.7138C135.436 13.1508 136.525 11.9323 137.941 11.0585C139.368 10.1846 141.079 9.74769 143.073 9.74769ZM143.073 14.0492C141.879 14.0492 140.993 14.5415 140.415 15.5262C139.848 16.4985 139.565 18.0492 139.565 20.1785C139.565 22.3446 139.848 23.9138 140.415 24.8862C140.993 25.8585 141.879 26.3446 143.073 26.3446C144.267 26.3446 145.147 25.8585 145.713 24.8862C146.291 23.9138 146.581 22.3323 146.581 20.1415C146.581 18.0246 146.291 16.48 145.713 15.5077C145.147 14.5354 144.267 14.0492 143.073 14.0492ZM156.914 30V26.0862H159.498V14.2708H156.914V10.3938H163.948L165.018 14.8062C165.72 13.12 166.612 11.8646 167.695 11.04C168.791 10.2154 170.126 9.80308 171.701 9.80308C172.366 9.80308 172.957 9.85846 173.474 9.96923C173.991 10.0677 174.477 10.2092 174.932 10.3938L173.843 18.5908H170.188V14.9723C169.08 15.1692 168.108 15.7723 167.271 16.7815C166.434 17.7785 165.788 19.0092 165.332 20.4738V26.0862H169.209V30H156.914ZM187.333 0.129232C188.342 0.129232 189.167 0.443078 189.807 1.07077C190.447 1.69846 190.767 2.48 190.767 3.41539C190.767 4.35077 190.447 5.13846 189.807 5.77846C189.167 6.40615 188.342 6.72 187.333 6.72C186.311 6.72 185.475 6.40615 184.822 5.77846C184.182 5.13846 183.862 4.35077 183.862 3.41539C183.862 2.48 184.182 1.69846 184.822 1.07077C185.475 0.443078 186.311 0.129232 187.333 0.129232ZM190.859 10.3938V26.0123H195.844V30H179.468V26.0123H185.025V14.3815H179.653V10.3938H190.859ZM206.084 21.8954C206.281 23.4954 206.804 24.6462 207.654 25.3477C208.503 26.0369 209.549 26.3815 210.792 26.3815C211.691 26.3815 212.558 26.2338 213.395 25.9385C214.232 25.6431 215.038 25.2492 215.814 24.7569L218.158 27.9323C217.235 28.72 216.115 29.3662 214.798 29.8708C213.494 30.3754 212.004 30.6277 210.331 30.6277C208.091 30.6277 206.214 30.1846 204.7 29.2985C203.186 28.4 202.048 27.1692 201.284 25.6062C200.521 24.0431 200.14 22.2462 200.14 20.2154C200.14 18.2831 200.509 16.5292 201.248 14.9538C201.986 13.3662 203.063 12.1046 204.478 11.1692C205.906 10.2215 207.648 9.74769 209.703 9.74769C211.574 9.74769 213.192 10.1477 214.558 10.9477C215.937 11.7477 217.001 12.8985 217.752 14.4C218.515 15.9015 218.897 17.7046 218.897 19.8092C218.897 20.1415 218.884 20.4985 218.86 20.88C218.848 21.2615 218.823 21.6 218.786 21.8954H206.084ZM209.703 13.6615C208.657 13.6615 207.814 14.0369 207.174 14.7877C206.534 15.5385 206.146 16.7385 206.011 18.3877H213.211C213.198 16.96 212.921 15.8154 212.38 14.9538C211.838 14.0923 210.946 13.6615 209.703 13.6615ZM223.174 30V10.3938H228.27L228.676 12.6646C229.55 11.68 230.473 10.9477 231.445 10.4677C232.418 9.98769 233.525 9.74769 234.768 9.74769C236.442 9.74769 237.759 10.2585 238.719 11.28C239.679 12.3015 240.159 13.7415 240.159 15.6V30H234.325V17.28C234.325 16.0738 234.19 15.2369 233.919 14.7692C233.661 14.2892 233.168 14.0492 232.442 14.0492C231.827 14.0492 231.236 14.2462 230.67 14.64C230.116 15.0338 229.562 15.5815 229.008 16.2831V30H223.174ZM262.972 28.8554C262.209 29.3477 261.286 29.7662 260.203 30.1108C259.12 30.4554 257.901 30.6277 256.548 30.6277C253.988 30.6277 252.086 29.9754 250.843 28.6708C249.6 27.3538 248.978 25.5692 248.978 23.3169V14.4185H244.861V10.3938H248.978V6.14769L254.812 5.44616V10.3938H261.126L260.554 14.4185H254.812V23.3169C254.812 24.2892 255.034 24.9846 255.477 25.4031C255.92 25.8215 256.628 26.0308 257.6 26.0308C258.289 26.0308 258.917 25.9508 259.483 25.7908C260.061 25.6185 260.578 25.4031 261.034 25.1446L262.972 28.8554ZM272.53 21.8954C272.727 23.4954 273.25 24.6462 274.099 25.3477C274.948 26.0369 275.994 26.3815 277.237 26.3815C278.136 26.3815 279.004 26.2338 279.841 25.9385C280.677 25.6431 281.484 25.2492 282.259 24.7569L284.604 27.9323C283.681 28.72 282.561 29.3662 281.244 29.8708C279.939 30.3754 278.45 30.6277 276.776 30.6277C274.536 30.6277 272.659 30.1846 271.145 29.2985C269.631 28.4 268.493 27.1692 267.73 25.6062C266.967 24.0431 266.585 22.2462 266.585 20.2154C266.585 18.2831 266.954 16.5292 267.693 14.9538C268.431 13.3662 269.508 12.1046 270.924 11.1692C272.351 10.2215 274.093 9.74769 276.148 9.74769C278.019 9.74769 279.637 10.1477 281.004 10.9477C282.382 11.7477 283.447 12.8985 284.197 14.4C284.961 15.9015 285.342 17.7046 285.342 19.8092C285.342 20.1415 285.33 20.4985 285.305 20.88C285.293 21.2615 285.268 21.6 285.231 21.8954H272.53ZM276.148 13.6615C275.102 13.6615 274.259 14.0369 273.619 14.7877C272.979 15.5385 272.591 16.7385 272.456 18.3877H279.656C279.644 16.96 279.367 15.8154 278.825 14.9538C278.284 14.0923 277.391 13.6615 276.148 13.6615ZM300.771 1.99385L306.604 2.60308V30H301.435L301.14 27.84C300.598 28.6031 299.878 29.2615 298.98 29.8154C298.081 30.3569 296.992 30.6277 295.712 30.6277C294.087 30.6277 292.74 30.1908 291.669 29.3169C290.611 28.4431 289.817 27.2246 289.287 25.6615C288.771 24.0862 288.512 22.2462 288.512 20.1415C288.512 18.1231 288.826 16.3323 289.454 14.7692C290.081 13.2062 290.98 11.9815 292.149 11.0954C293.318 10.1969 294.709 9.74769 296.321 9.74769C298.081 9.74769 299.564 10.3508 300.771 11.5569V1.99385ZM297.891 14.0123C296.881 14.0123 296.069 14.4923 295.454 15.4523C294.838 16.4 294.531 17.9754 294.531 20.1785C294.531 21.7908 294.66 23.0462 294.918 23.9446C295.177 24.8308 295.534 25.4523 295.989 25.8092C296.444 26.1662 296.967 26.3446 297.558 26.3446C298.211 26.3446 298.801 26.1415 299.331 25.7354C299.872 25.3292 300.352 24.7754 300.771 24.0738V15.6185C300.364 15.1138 299.934 14.72 299.478 14.4369C299.023 14.1538 298.494 14.0123 297.891 14.0123ZM346.397 1.99385C347.824 1.99385 349.086 2.11077 350.181 2.34462C351.277 2.56616 352.255 2.86154 353.117 3.23077L351.51 7.03385C350.834 6.77539 350.138 6.59077 349.424 6.48C348.71 6.35692 348.003 6.29539 347.301 6.29539C346.144 6.29539 345.314 6.50462 344.809 6.92308C344.317 7.34154 344.07 8.03692 344.07 9.00923V11.6308H350.458L349.812 15.6738H344.07V30H338.274V15.6738H334.157V11.6308H338.274V8.78769C338.274 7.49539 338.581 6.33846 339.197 5.31692C339.812 4.29539 340.723 3.48923 341.929 2.89846C343.135 2.29539 344.624 1.99385 346.397 1.99385ZM361.899 10.3938V23.8154C361.899 24.7631 362.071 25.4154 362.416 25.7723C362.773 26.1292 363.265 26.3077 363.893 26.3077C364.496 26.3077 365.099 26.1169 365.702 25.7354C366.305 25.3538 366.81 24.8369 367.216 24.1846V10.3938H373.05V30H367.954L367.696 27.7108C367.031 28.6708 366.157 29.3969 365.074 29.8892C363.991 30.3815 362.859 30.6277 361.677 30.6277C359.782 30.6277 358.373 30.08 357.45 28.9846C356.527 27.8769 356.065 26.3938 356.065 24.5354V10.3938H361.899ZM388.441 2.60308V23.8338C388.441 24.6215 388.663 25.1877 389.106 25.5323C389.561 25.8646 390.183 26.0308 390.97 26.0308C391.475 26.0308 391.961 25.9754 392.429 25.8646C392.897 25.7415 393.334 25.6 393.74 25.44L395.143 29.3354C394.478 29.68 393.678 29.9815 392.743 30.24C391.807 30.4985 390.718 30.6277 389.475 30.6277C387.112 30.6277 385.377 29.9508 384.269 28.5969C383.161 27.2308 382.607 25.4031 382.607 23.1138V6.59077H376.829V2.60308H388.441ZM410.59 2.60308V23.8338C410.59 24.6215 410.811 25.1877 411.254 25.5323C411.71 25.8646 412.331 26.0308 413.119 26.0308C413.623 26.0308 414.11 25.9754 414.577 25.8646C415.045 25.7415 415.482 25.6 415.888 25.44L417.291 29.3354C416.627 29.68 415.827 29.9815 414.891 30.24C413.956 30.4985 412.867 30.6277 411.623 30.6277C409.26 30.6277 407.525 29.9508 406.417 28.5969C405.31 27.2308 404.756 25.4031 404.756 23.1138V6.59077H398.977V2.60308H410.59ZM423.009 22.1908V17.6492H438.997V22.1908H423.009ZM452.523 26.4554C453.496 26.4554 454.277 26.3015 454.868 25.9938C455.471 25.6862 455.773 25.2246 455.773 24.6092C455.773 24.1908 455.656 23.84 455.422 23.5569C455.188 23.2738 454.739 23.0031 454.074 22.7446C453.41 22.4862 452.425 22.1785 451.12 21.8215C449.323 21.3415 447.859 20.6523 446.727 19.7538C445.607 18.8554 445.047 17.5385 445.047 15.8031C445.047 14.0554 445.773 12.6092 447.225 11.4646C448.69 10.32 450.8 9.74769 453.557 9.74769C455.305 9.74769 456.825 9.97539 458.117 10.4308C459.422 10.8738 460.548 11.44 461.496 12.1292L459.17 15.5631C458.357 15.0585 457.483 14.6585 456.548 14.3631C455.613 14.0554 454.671 13.9015 453.723 13.9015C451.853 13.9015 450.917 14.4062 450.917 15.4154C450.917 15.7477 451.034 16.0369 451.268 16.2831C451.514 16.5169 451.97 16.7631 452.634 17.0215C453.299 17.2677 454.271 17.5754 455.551 17.9446C456.819 18.3015 457.92 18.7138 458.856 19.1815C459.803 19.6492 460.536 20.2769 461.053 21.0646C461.57 21.84 461.828 22.8677 461.828 24.1477C461.828 25.5754 461.403 26.7754 460.554 27.7477C459.705 28.7077 458.579 29.4277 457.176 29.9077C455.773 30.3877 454.234 30.6277 452.56 30.6277C450.665 30.6277 448.991 30.3569 447.539 29.8154C446.087 29.2738 444.85 28.56 443.828 27.6738L446.763 24.3877C447.527 24.9785 448.388 25.4708 449.348 25.8646C450.32 26.2585 451.379 26.4554 452.523 26.4554ZM484.457 28.8554C483.693 29.3477 482.77 29.7662 481.687 30.1108C480.604 30.4554 479.386 30.6277 478.032 30.6277C475.472 30.6277 473.57 29.9754 472.327 28.6708C471.084 27.3538 470.463 25.5692 470.463 23.3169V14.4185H466.346V10.3938H470.463V6.14769L476.297 5.44616V10.3938H482.61L482.038 14.4185H476.297V23.3169C476.297 24.2892 476.518 24.9846 476.961 25.4031C477.404 25.8215 478.112 26.0308 479.084 26.0308C479.773 26.0308 480.401 25.9508 480.967 25.7908C481.546 25.6185 482.063 25.4031 482.518 25.1446L484.457 28.8554ZM505.46 24.3508C505.46 25.0892 505.559 25.6246 505.756 25.9569C505.965 26.2892 506.297 26.5415 506.753 26.7138L505.553 30.5538C504.396 30.4431 503.417 30.1908 502.617 29.7969C501.83 29.3908 501.208 28.7815 500.753 27.9692C500.002 28.8677 499.042 29.5385 497.873 29.9815C496.703 30.4123 495.51 30.6277 494.291 30.6277C492.273 30.6277 490.66 30.0554 489.454 28.9108C488.26 27.7538 487.663 26.2708 487.663 24.4615C487.663 22.3323 488.494 20.6892 490.156 19.5323C491.83 18.3754 494.18 17.7969 497.208 17.7969H499.848V17.0585C499.848 15.0523 498.556 14.0492 495.971 14.0492C495.343 14.0492 494.537 14.1415 493.553 14.3262C492.568 14.4985 491.583 14.7508 490.599 15.0831L489.251 11.2062C490.519 10.7262 491.836 10.3631 493.202 10.1169C494.58 9.87077 495.811 9.74769 496.894 9.74769C499.811 9.74769 501.965 10.3446 503.356 11.5385C504.759 12.72 505.46 14.4308 505.46 16.6708V24.3508ZM496.303 26.4554C496.931 26.4554 497.59 26.2708 498.279 25.9015C498.968 25.52 499.491 24.9846 499.848 24.2954V21.12H498.408C496.783 21.12 495.59 21.3723 494.826 21.8769C494.063 22.3692 493.682 23.0954 493.682 24.0554C493.682 24.8062 493.91 25.3969 494.365 25.8277C494.833 26.2462 495.479 26.4554 496.303 26.4554ZM521.498 26.0308C522.298 26.0308 523.049 25.8769 523.75 25.5692C524.464 25.2492 525.172 24.8431 525.873 24.3508L528.476 28.0431C527.615 28.7815 526.563 29.3969 525.32 29.8892C524.089 30.3815 522.71 30.6277 521.184 30.6277C519.08 30.6277 517.27 30.1969 515.756 29.3354C514.243 28.4615 513.08 27.2554 512.267 25.7169C511.455 24.1662 511.049 22.3692 511.049 20.3262C511.049 18.2831 511.461 16.4677 512.286 14.88C513.123 13.28 514.304 12.0246 515.83 11.1138C517.369 10.2031 519.19 9.74769 521.295 9.74769C522.784 9.74769 524.107 9.95692 525.264 10.3754C526.433 10.7815 527.504 11.3908 528.476 12.2031L525.947 15.7108C525.283 15.2431 524.581 14.88 523.843 14.6215C523.104 14.3631 522.335 14.2338 521.535 14.2338C520.218 14.2338 519.153 14.7015 518.341 15.6369C517.541 16.56 517.141 18.1231 517.141 20.3262C517.141 21.7662 517.332 22.9046 517.713 23.7415C518.095 24.5662 518.612 25.1569 519.264 25.5138C519.929 25.8585 520.673 26.0308 521.498 26.0308ZM539.086 1.99385V30H533.253V2.60308L539.086 1.99385ZM551.862 10.3938L545.419 19.0708L552.397 30H545.751L539.308 19.2554L545.751 10.3938H551.862ZM594.202 30H587.759L586.079 16.8185L584.325 30H577.993L575.094 10.3938H580.429L581.703 26.3631L583.771 12.8677H588.682L590.528 26.3631L591.839 10.3938H596.989L594.202 30ZM604.756 21.8954C604.953 23.4954 605.476 24.6462 606.326 25.3477C607.175 26.0369 608.221 26.3815 609.464 26.3815C610.363 26.3815 611.23 26.2338 612.067 25.9385C612.904 25.6431 613.71 25.2492 614.486 24.7569L616.83 27.9323C615.907 28.72 614.787 29.3662 613.47 29.8708C612.166 30.3754 610.676 30.6277 609.003 30.6277C606.763 30.6277 604.886 30.1846 603.372 29.2985C601.858 28.4 600.719 27.1692 599.956 25.6062C599.193 24.0431 598.812 22.2462 598.812 20.2154C598.812 18.2831 599.181 16.5292 599.919 14.9538C600.658 13.3662 601.735 12.1046 603.15 11.1692C604.578 10.2215 606.319 9.74769 608.375 9.74769C610.246 9.74769 611.864 10.1477 613.23 10.9477C614.609 11.7477 615.673 12.8985 616.424 14.4C617.187 15.9015 617.569 17.7046 617.569 19.8092C617.569 20.1415 617.556 20.4985 617.532 20.88C617.519 21.2615 617.495 21.6 617.458 21.8954H604.756ZM608.375 13.6615C607.329 13.6615 606.486 14.0369 605.846 14.7877C605.206 15.5385 604.818 16.7385 604.683 18.3877H611.883C611.87 16.96 611.593 15.8154 611.052 14.9538C610.51 14.0923 609.618 13.6615 608.375 13.6615ZM627.68 12.4062C628.296 11.5938 629.034 10.9477 629.896 10.4677C630.769 9.98769 631.705 9.74769 632.702 9.74769C635.225 9.74769 637.059 10.6831 638.203 12.5538C639.36 14.4246 639.939 16.9538 639.939 20.1415C639.939 22.16 639.637 23.9631 639.034 25.5508C638.443 27.1262 637.563 28.3692 636.394 29.28C635.225 30.1785 633.791 30.6277 632.092 30.6277C630.037 30.6277 628.419 29.8277 627.237 28.2277L627.016 30H621.846V2.60308L627.68 1.99385V12.4062ZM630.56 26.3815C631.594 26.3815 632.412 25.9077 633.016 24.96C633.619 24 633.92 22.4185 633.92 20.2154C633.92 18.5908 633.791 17.3354 633.532 16.4492C633.286 15.5508 632.929 14.9292 632.462 14.5846C632.006 14.2277 631.471 14.0492 630.856 14.0492C630.203 14.0492 629.619 14.2523 629.102 14.6585C628.585 15.0646 628.111 15.6185 627.68 16.32V24.5908C628.049 25.1692 628.462 25.6123 628.917 25.92C629.372 26.2277 629.92 26.3815 630.56 26.3815ZM678.623 1.99385C680.051 1.99385 681.312 2.11077 682.408 2.34462C683.503 2.56616 684.482 2.86154 685.343 3.23077L683.737 7.03385C683.06 6.77539 682.365 6.59077 681.651 6.48C680.937 6.35692 680.229 6.29539 679.528 6.29539C678.371 6.29539 677.54 6.50462 677.036 6.92308C676.543 7.34154 676.297 8.03692 676.297 9.00923V11.6308H682.685L682.039 15.6738H676.297V30H670.5V15.6738H666.383V11.6308H670.5V8.78769C670.5 7.49539 670.808 6.33846 671.423 5.31692C672.039 4.29539 672.949 3.48923 674.156 2.89846C675.362 2.29539 676.851 1.99385 678.623 1.99385ZM688.476 30V26.0862H691.061V14.2708H688.476V10.3938H695.51L696.581 14.8062C697.282 13.12 698.175 11.8646 699.258 11.04C700.353 10.2154 701.689 9.80308 703.264 9.80308C703.929 9.80308 704.519 9.85846 705.036 9.96923C705.553 10.0677 706.039 10.2092 706.495 10.3938L705.405 18.5908H701.75V14.9723C700.642 15.1692 699.67 15.7723 698.833 16.7815C697.996 17.7785 697.35 19.0092 696.895 20.4738V26.0862H700.772V30H688.476ZM726.945 24.3508C726.945 25.0892 727.043 25.6246 727.24 25.9569C727.449 26.2892 727.782 26.5415 728.237 26.7138L727.037 30.5538C725.88 30.4431 724.902 30.1908 724.102 29.7969C723.314 29.3908 722.692 28.7815 722.237 27.9692C721.486 28.8677 720.526 29.5385 719.357 29.9815C718.188 30.4123 716.994 30.6277 715.775 30.6277C713.757 30.6277 712.145 30.0554 710.939 28.9108C709.745 27.7538 709.148 26.2708 709.148 24.4615C709.148 22.3323 709.979 20.6892 711.64 19.5323C713.314 18.3754 715.665 17.7969 718.692 17.7969H721.332V17.0585C721.332 15.0523 720.04 14.0492 717.455 14.0492C716.828 14.0492 716.022 14.1415 715.037 14.3262C714.052 14.4985 713.068 14.7508 712.083 15.0831L710.735 11.2062C712.003 10.7262 713.32 10.3631 714.686 10.1169C716.065 9.87077 717.295 9.74769 718.379 9.74769C721.295 9.74769 723.449 10.3446 724.84 11.5385C726.243 12.72 726.945 14.4308 726.945 16.6708V24.3508ZM717.788 26.4554C718.415 26.4554 719.074 26.2708 719.763 25.9015C720.452 25.52 720.975 24.9846 721.332 24.2954V21.12H719.892C718.268 21.12 717.074 21.3723 716.311 21.8769C715.548 22.3692 715.166 23.0954 715.166 24.0554C715.166 24.8062 715.394 25.3969 715.849 25.8277C716.317 26.2462 716.963 26.4554 717.788 26.4554ZM747.081 9.74769C748.472 9.74769 749.499 10.2031 750.164 11.1138C750.841 12.0123 751.179 13.4708 751.179 15.4892V30H746.176V16.1538C746.176 15.4646 746.109 14.9785 745.973 14.6954C745.85 14.4123 745.592 14.2708 745.198 14.2708C744.89 14.2708 744.57 14.3631 744.238 14.5477C743.918 14.72 743.561 15.0523 743.167 15.5446V30H739.069V16.1538C739.069 15.4646 739.001 14.9785 738.865 14.6954C738.742 14.4123 738.484 14.2708 738.09 14.2708C737.782 14.2708 737.462 14.3631 737.13 14.5477C736.81 14.72 736.453 15.0523 736.059 15.5446V30H730.982V10.3938H735.265L735.653 12.2954C736.269 11.4585 736.89 10.8246 737.518 10.3938C738.145 9.96308 738.89 9.74769 739.752 9.74769C740.49 9.74769 741.118 9.93846 741.635 10.32C742.164 10.6892 742.539 11.2738 742.761 12.0738C743.352 11.3846 744.004 10.8246 744.718 10.3938C745.432 9.96308 746.219 9.74769 747.081 9.74769ZM759.795 21.8954C759.992 23.4954 760.515 24.6462 761.365 25.3477C762.214 26.0369 763.26 26.3815 764.503 26.3815C765.402 26.3815 766.269 26.2338 767.106 25.9385C767.943 25.6431 768.749 25.2492 769.525 24.7569L771.869 27.9323C770.946 28.72 769.826 29.3662 768.509 29.8708C767.205 30.3754 765.715 30.6277 764.042 30.6277C761.802 30.6277 759.925 30.1846 758.411 29.2985C756.897 28.4 755.758 27.1692 754.995 25.6062C754.232 24.0431 753.851 22.2462 753.851 20.2154C753.851 18.2831 754.22 16.5292 754.958 14.9538C755.697 13.3662 756.774 12.1046 758.189 11.1692C759.617 10.2215 761.358 9.74769 763.414 9.74769C765.285 9.74769 766.903 10.1477 768.269 10.9477C769.648 11.7477 770.712 12.8985 771.463 14.4C772.226 15.9015 772.608 17.7046 772.608 19.8092C772.608 20.1415 772.595 20.4985 772.571 20.88C772.558 21.2615 772.534 21.6 772.497 21.8954H759.795ZM763.414 13.6615C762.368 13.6615 761.525 14.0369 760.885 14.7877C760.245 15.5385 759.857 16.7385 759.722 18.3877H766.922C766.909 16.96 766.632 15.8154 766.091 14.9538C765.549 14.0923 764.657 13.6615 763.414 13.6615ZM793.538 30H787.095L785.415 16.8185L783.661 30H777.328L774.43 10.3938H779.765L781.039 26.3631L783.107 12.8677H788.018L789.864 26.3631L791.175 10.3938H796.325L793.538 30ZM807.526 9.74769C809.545 9.74769 811.262 10.1785 812.677 11.04C814.092 11.9015 815.175 13.1138 815.926 14.6769C816.677 16.2277 817.052 18.0492 817.052 20.1415C817.052 23.4154 816.215 25.9815 814.542 27.84C812.868 29.6985 810.529 30.6277 807.526 30.6277C804.523 30.6277 802.185 29.7108 800.511 27.8769C798.837 26.0431 798 23.4769 798 20.1785C798 18.0985 798.375 16.2769 799.126 14.7138C799.889 13.1508 800.978 11.9323 802.394 11.0585C803.822 10.1846 805.532 9.74769 807.526 9.74769ZM807.526 14.0492C806.332 14.0492 805.446 14.5415 804.868 15.5262C804.302 16.4985 804.018 18.0492 804.018 20.1785C804.018 22.3446 804.302 23.9138 804.868 24.8862C805.446 25.8585 806.332 26.3446 807.526 26.3446C808.72 26.3446 809.6 25.8585 810.166 24.8862C810.745 23.9138 811.034 22.3323 811.034 20.1415C811.034 18.0246 810.745 16.48 810.166 15.5077C809.6 14.5354 808.72 14.0492 807.526 14.0492ZM821.367 30V26.0862H823.952V14.2708H821.367V10.3938H828.401L829.472 14.8062C830.173 13.12 831.065 11.8646 832.148 11.04C833.244 10.2154 834.579 9.80308 836.155 9.80308C836.819 9.80308 837.41 9.85846 837.927 9.96923C838.444 10.0677 838.93 10.2092 839.385 10.3938L838.296 18.5908H834.641V14.9723C833.533 15.1692 832.561 15.7723 831.724 16.7815C830.887 17.7785 830.241 19.0092 829.785 20.4738V26.0862H833.662V30H821.367ZM849.165 1.99385V30H843.331V2.60308L849.165 1.99385ZM861.94 10.3938L855.497 19.0708L862.475 30H855.829L849.386 19.2554L855.829 10.3938H861.94Z" fill="url(#paint1_radial_207_6)" fill-opacity="0.64"/>
<path d="M16.1824 9.74769C17.5732 9.74769 18.6009 10.2031 19.2655 11.1138C19.9424 12.0123 20.2809 13.4708 20.2809 15.4892V30H15.2778V16.1538C15.2778 15.4646 15.2101 14.9785 15.0747 14.6954C14.9516 14.4123 14.6932 14.2708 14.2993 14.2708C13.9916 14.2708 13.6716 14.3631 13.3393 14.5477C13.0193 14.72 12.6624 15.0523 12.2685 15.5446V30H8.17008V16.1538C8.17008 15.4646 8.10239 14.9785 7.96701 14.6954C7.84393 14.4123 7.58547 14.2708 7.19162 14.2708C6.88393 14.2708 6.56393 14.3631 6.23162 14.5477C5.91162 14.72 5.5547 15.0523 5.16085 15.5446V30H0.0839303V10.3938H4.36701L4.7547 12.2954C5.37008 11.4585 5.99162 10.8246 6.61931 10.3938C7.24701 9.96308 7.99162 9.74769 8.85316 9.74769C9.59162 9.74769 10.2193 9.93846 10.7362 10.32C11.2655 10.6892 11.6409 11.2738 11.8624 12.0738C12.4532 11.3846 13.1055 10.8246 13.8193 10.3938C14.5332 9.96308 15.3209 9.74769 16.1824 9.74769ZM40.3431 24.3508C40.3431 25.0892 40.4416 25.6246 40.6385 25.9569C40.8478 26.2892 41.1801 26.5415 41.6354 26.7138L40.4354 30.5538C39.2785 30.4431 38.3001 30.1908 37.5001 29.7969C36.7124 29.3908 36.0908 28.7815 35.6354 27.9692C34.8847 28.8677 33.9247 29.5385 32.7554 29.9815C31.5862 30.4123 30.3924 30.6277 29.1739 30.6277C27.1554 30.6277 25.5431 30.0554 24.337 28.9108C23.1431 27.7538 22.5462 26.2708 22.5462 24.4615C22.5462 22.3323 23.377 20.6892 25.0385 19.5323C26.7124 18.3754 29.0631 17.7969 32.0908 17.7969H34.7308V17.0585C34.7308 15.0523 33.4385 14.0492 30.8539 14.0492C30.2262 14.0492 29.4201 14.1415 28.4354 14.3262C27.4508 14.4985 26.4662 14.7508 25.4816 15.0831L24.1339 11.2062C25.4016 10.7262 26.7185 10.3631 28.0847 10.1169C29.4631 9.87077 30.6939 9.74769 31.777 9.74769C34.6939 9.74769 36.8478 10.3446 38.2385 11.5385C39.6416 12.72 40.3431 14.4308 40.3431 16.6708V24.3508ZM31.1862 26.4554C31.8139 26.4554 32.4724 26.2708 33.1616 25.9015C33.8508 25.52 34.3739 24.9846 34.7308 24.2954V21.12H33.2908C31.6662 21.12 30.4724 21.3723 29.7093 21.8769C28.9462 22.3692 28.5647 23.0954 28.5647 24.0554C28.5647 24.8062 28.7924 25.3969 29.2478 25.8277C29.7154 26.2462 30.3616 26.4554 31.1862 26.4554ZM56.3808 26.0308C57.1808 26.0308 57.9316 25.8769 58.6331 25.5692C59.347 25.2492 60.0547 24.8431 60.7562 24.3508L63.3593 28.0431C62.4977 28.7815 61.4454 29.3969 60.2023 29.8892C58.9716 30.3815 57.5931 30.6277 56.067 30.6277C53.9623 30.6277 52.1531 30.1969 50.6393 29.3354C49.1254 28.4615 47.9623 27.2554 47.15 25.7169C46.3377 24.1662 45.9316 22.3692 45.9316 20.3262C45.9316 18.2831 46.3439 16.4677 47.1685 14.88C48.0054 13.28 49.187 12.0246 50.7131 11.1138C52.2516 10.2031 54.0731 9.74769 56.1777 9.74769C57.667 9.74769 58.99 9.95692 60.147 10.3754C61.3162 10.7815 62.387 11.3908 63.3593 12.2031L60.83 15.7108C60.1654 15.2431 59.4639 14.88 58.7254 14.6215C57.987 14.3631 57.2177 14.2338 56.4177 14.2338C55.1008 14.2338 54.0362 14.7015 53.2239 15.6369C52.4239 16.56 52.0239 18.1231 52.0239 20.3262C52.0239 21.7662 52.2147 22.9046 52.5962 23.7415C52.9777 24.5662 53.4947 25.1569 54.147 25.5138C54.8116 25.8585 55.5562 26.0308 56.3808 26.0308ZM68.32 30V26.0862H70.9046V14.2708H68.32V10.3938H75.3539L76.4246 14.8062C77.1262 13.12 78.0185 11.8646 79.1016 11.04C80.1969 10.2154 81.5323 9.80308 83.1077 9.80308C83.7723 9.80308 84.3631 9.85846 84.88 9.96923C85.3969 10.0677 85.8831 10.2092 86.3385 10.3938L85.2492 18.5908H81.5939V14.9723C80.4862 15.1692 79.5139 15.7723 78.6769 16.7815C77.84 17.7785 77.1939 19.0092 76.7385 20.4738V26.0862H80.6154V30H68.32ZM98.7761 9.74769C100.795 9.74769 102.512 10.1785 103.927 11.04C105.342 11.9015 106.425 13.1138 107.176 14.6769C107.927 16.2277 108.302 18.0492 108.302 20.1415C108.302 23.4154 107.465 25.9815 105.792 27.84C104.118 29.6985 101.779 30.6277 98.7761 30.6277C95.7731 30.6277 93.4346 29.7108 91.7608 27.8769C90.0869 26.0431 89.25 23.4769 89.25 20.1785C89.25 18.0985 89.6254 16.2769 90.3761 14.7138C91.1392 13.1508 92.2284 11.9323 93.6438 11.0585C95.0715 10.1846 96.7823 9.74769 98.7761 9.74769ZM98.7761 14.0492C97.5823 14.0492 96.6961 14.5415 96.1177 15.5262C95.5515 16.4985 95.2684 18.0492 95.2684 20.1785C95.2684 22.3446 95.5515 23.9138 96.1177 24.8862C96.6961 25.8585 97.5823 26.3446 98.7761 26.3446C99.97 26.3446 100.85 25.8585 101.416 24.8862C101.995 23.9138 102.284 22.3323 102.284 20.1415C102.284 18.0246 101.995 16.48 101.416 15.5077C100.85 14.5354 99.97 14.0492 98.7761 14.0492ZM112.931 22.1908V17.6492H128.918V22.1908H112.931ZM143.073 9.74769C145.091 9.74769 146.808 10.1785 148.224 11.04C149.639 11.9015 150.722 13.1138 151.473 14.6769C152.224 16.2277 152.599 18.0492 152.599 20.1415C152.599 23.4154 151.762 25.9815 150.088 27.84C148.415 29.6985 146.076 30.6277 143.073 30.6277C140.07 30.6277 137.731 29.7108 136.058 27.8769C134.384 26.0431 133.547 23.4769 133.547 20.1785C133.547 18.0985 133.922 16.2769 134.673 14.7138C135.436 13.1508 136.525 11.9323 137.941 11.0585C139.368 10.1846 141.079 9.74769 143.073 9.74769ZM143.073 14.0492C141.879 14.0492 140.993 14.5415 140.415 15.5262C139.848 16.4985 139.565 18.0492 139.565 20.1785C139.565 22.3446 139.848 23.9138 140.415 24.8862C140.993 25.8585 141.879 26.3446 143.073 26.3446C144.267 26.3446 145.147 25.8585 145.713 24.8862C146.291 23.9138 146.581 22.3323 146.581 20.1415C146.581 18.0246 146.291 16.48 145.713 15.5077C145.147 14.5354 144.267 14.0492 143.073 14.0492ZM156.914 30V26.0862H159.498V14.2708H156.914V10.3938H163.948L165.018 14.8062C165.72 13.12 166.612 11.8646 167.695 11.04C168.791 10.2154 170.126 9.80308 171.701 9.80308C172.366 9.80308 172.957 9.85846 173.474 9.96923C173.991 10.0677 174.477 10.2092 174.932 10.3938L173.843 18.5908H170.188V14.9723C169.08 15.1692 168.108 15.7723 167.271 16.7815C166.434 17.7785 165.788 19.0092 165.332 20.4738V26.0862H169.209V30H156.914ZM187.333 0.129232C188.342 0.129232 189.167 0.443078 189.807 1.07077C190.447 1.69846 190.767 2.48 190.767 3.41539C190.767 4.35077 190.447 5.13846 189.807 5.77846C189.167 6.40615 188.342 6.72 187.333 6.72C186.311 6.72 185.475 6.40615 184.822 5.77846C184.182 5.13846 183.862 4.35077 183.862 3.41539C183.862 2.48 184.182 1.69846 184.822 1.07077C185.475 0.443078 186.311 0.129232 187.333 0.129232ZM190.859 10.3938V26.0123H195.844V30H179.468V26.0123H185.025V14.3815H179.653V10.3938H190.859ZM206.084 21.8954C206.281 23.4954 206.804 24.6462 207.654 25.3477C208.503 26.0369 209.549 26.3815 210.792 26.3815C211.691 26.3815 212.558 26.2338 213.395 25.9385C214.232 25.6431 215.038 25.2492 215.814 24.7569L218.158 27.9323C217.235 28.72 216.115 29.3662 214.798 29.8708C213.494 30.3754 212.004 30.6277 210.331 30.6277C208.091 30.6277 206.214 30.1846 204.7 29.2985C203.186 28.4 202.048 27.1692 201.284 25.6062C200.521 24.0431 200.14 22.2462 200.14 20.2154C200.14 18.2831 200.509 16.5292 201.248 14.9538C201.986 13.3662 203.063 12.1046 204.478 11.1692C205.906 10.2215 207.648 9.74769 209.703 9.74769C211.574 9.74769 213.192 10.1477 214.558 10.9477C215.937 11.7477 217.001 12.8985 217.752 14.4C218.515 15.9015 218.897 17.7046 218.897 19.8092C218.897 20.1415 218.884 20.4985 218.86 20.88C218.848 21.2615 218.823 21.6 218.786 21.8954H206.084ZM209.703 13.6615C208.657 13.6615 207.814 14.0369 207.174 14.7877C206.534 15.5385 206.146 16.7385 206.011 18.3877H213.211C213.198 16.96 212.921 15.8154 212.38 14.9538C211.838 14.0923 210.946 13.6615 209.703 13.6615ZM223.174 30V10.3938H228.27L228.676 12.6646C229.55 11.68 230.473 10.9477 231.445 10.4677C232.418 9.98769 233.525 9.74769 234.768 9.74769C236.442 9.74769 237.759 10.2585 238.719 11.28C239.679 12.3015 240.159 13.7415 240.159 15.6V30H234.325V17.28C234.325 16.0738 234.19 15.2369 233.919 14.7692C233.661 14.2892 233.168 14.0492 232.442 14.0492C231.827 14.0492 231.236 14.2462 230.67 14.64C230.116 15.0338 229.562 15.5815 229.008 16.2831V30H223.174ZM262.972 28.8554C262.209 29.3477 261.286 29.7662 260.203 30.1108C259.12 30.4554 257.901 30.6277 256.548 30.6277C253.988 30.6277 252.086 29.9754 250.843 28.6708C249.6 27.3538 248.978 25.5692 248.978 23.3169V14.4185H244.861V10.3938H248.978V6.14769L254.812 5.44616V10.3938H261.126L260.554 14.4185H254.812V23.3169C254.812 24.2892 255.034 24.9846 255.477 25.4031C255.92 25.8215 256.628 26.0308 257.6 26.0308C258.289 26.0308 258.917 25.9508 259.483 25.7908C260.061 25.6185 260.578 25.4031 261.034 25.1446L262.972 28.8554ZM272.53 21.8954C272.727 23.4954 273.25 24.6462 274.099 25.3477C274.948 26.0369 275.994 26.3815 277.237 26.3815C278.136 26.3815 279.004 26.2338 279.841 25.9385C280.677 25.6431 281.484 25.2492 282.259 24.7569L284.604 27.9323C283.681 28.72 282.561 29.3662 281.244 29.8708C279.939 30.3754 278.45 30.6277 276.776 30.6277C274.536 30.6277 272.659 30.1846 271.145 29.2985C269.631 28.4 268.493 27.1692 267.73 25.6062C266.967 24.0431 266.585 22.2462 266.585 20.2154C266.585 18.2831 266.954 16.5292 267.693 14.9538C268.431 13.3662 269.508 12.1046 270.924 11.1692C272.351 10.2215 274.093 9.74769 276.148 9.74769C278.019 9.74769 279.637 10.1477 281.004 10.9477C282.382 11.7477 283.447 12.8985 284.197 14.4C284.961 15.9015 285.342 17.7046 285.342 19.8092C285.342 20.1415 285.33 20.4985 285.305 20.88C285.293 21.2615 285.268 21.6 285.231 21.8954H272.53ZM276.148 13.6615C275.102 13.6615 274.259 14.0369 273.619 14.7877C272.979 15.5385 272.591 16.7385 272.456 18.3877H279.656C279.644 16.96 279.367 15.8154 278.825 14.9538C278.284 14.0923 277.391 13.6615 276.148 13.6615ZM300.771 1.99385L306.604 2.60308V30H301.435L301.14 27.84C300.598 28.6031 299.878 29.2615 298.98 29.8154C298.081 30.3569 296.992 30.6277 295.712 30.6277C294.087 30.6277 292.74 30.1908 291.669 29.3169C290.611 28.4431 289.817 27.2246 289.287 25.6615C288.771 24.0862 288.512 22.2462 288.512 20.1415C288.512 18.1231 288.826 16.3323 289.454 14.7692C290.081 13.2062 290.98 11.9815 292.149 11.0954C293.318 10.1969 294.709 9.74769 296.321 9.74769C298.081 9.74769 299.564 10.3508 300.771 11.5569V1.99385ZM297.891 14.0123C296.881 14.0123 296.069 14.4923 295.454 15.4523C294.838 16.4 294.531 17.9754 294.531 20.1785C294.531 21.7908 294.66 23.0462 294.918 23.9446C295.177 24.8308 295.534 25.4523 295.989 25.8092C296.444 26.1662 296.967 26.3446 297.558 26.3446C298.211 26.3446 298.801 26.1415 299.331 25.7354C299.872 25.3292 300.352 24.7754 300.771 24.0738V15.6185C300.364 15.1138 299.934 14.72 299.478 14.4369C299.023 14.1538 298.494 14.0123 297.891 14.0123ZM346.397 1.99385C347.824 1.99385 349.086 2.11077 350.181 2.34462C351.277 2.56616 352.255 2.86154 353.117 3.23077L351.51 7.03385C350.834 6.77539 350.138 6.59077 349.424 6.48C348.71 6.35692 348.003 6.29539 347.301 6.29539C346.144 6.29539 345.314 6.50462 344.809 6.92308C344.317 7.34154 344.07 8.03692 344.07 9.00923V11.6308H350.458L349.812 15.6738H344.07V30H338.274V15.6738H334.157V11.6308H338.274V8.78769C338.274 7.49539 338.581 6.33846 339.197 5.31692C339.812 4.29539 340.723 3.48923 341.929 2.89846C343.135 2.29539 344.624 1.99385 346.397 1.99385ZM361.899 10.3938V23.8154C361.899 24.7631 362.071 25.4154 362.416 25.7723C362.773 26.1292 363.265 26.3077 363.893 26.3077C364.496 26.3077 365.099 26.1169 365.702 25.7354C366.305 25.3538 366.81 24.8369 367.216 24.1846V10.3938H373.05V30H367.954L367.696 27.7108C367.031 28.6708 366.157 29.3969 365.074 29.8892C363.991 30.3815 362.859 30.6277 361.677 30.6277C359.782 30.6277 358.373 30.08 357.45 28.9846C356.527 27.8769 356.065 26.3938 356.065 24.5354V10.3938H361.899ZM388.441 2.60308V23.8338C388.441 24.6215 388.663 25.1877 389.106 25.5323C389.561 25.8646 390.183 26.0308 390.97 26.0308C391.475 26.0308 391.961 25.9754 392.429 25.8646C392.897 25.7415 393.334 25.6 393.74 25.44L395.143 29.3354C394.478 29.68 393.678 29.9815 392.743 30.24C391.807 30.4985 390.718 30.6277 389.475 30.6277C387.112 30.6277 385.377 29.9508 384.269 28.5969C383.161 27.2308 382.607 25.4031 382.607 23.1138V6.59077H376.829V2.60308H388.441ZM410.59 2.60308V23.8338C410.59 24.6215 410.811 25.1877 411.254 25.5323C411.71 25.8646 412.331 26.0308 413.119 26.0308C413.623 26.0308 414.11 25.9754 414.577 25.8646C415.045 25.7415 415.482 25.6 415.888 25.44L417.291 29.3354C416.627 29.68 415.827 29.9815 414.891 30.24C413.956 30.4985 412.867 30.6277 411.623 30.6277C409.26 30.6277 407.525 29.9508 406.417 28.5969C405.31 27.2308 404.756 25.4031 404.756 23.1138V6.59077H398.977V2.60308H410.59ZM423.009 22.1908V17.6492H438.997V22.1908H423.009ZM452.523 26.4554C453.496 26.4554 454.277 26.3015 454.868 25.9938C455.471 25.6862 455.773 25.2246 455.773 24.6092C455.773 24.1908 455.656 23.84 455.422 23.5569C455.188 23.2738 454.739 23.0031 454.074 22.7446C453.41 22.4862 452.425 22.1785 451.12 21.8215C449.323 21.3415 447.859 20.6523 446.727 19.7538C445.607 18.8554 445.047 17.5385 445.047 15.8031C445.047 14.0554 445.773 12.6092 447.225 11.4646C448.69 10.32 450.8 9.74769 453.557 9.74769C455.305 9.74769 456.825 9.97539 458.117 10.4308C459.422 10.8738 460.548 11.44 461.496 12.1292L459.17 15.5631C458.357 15.0585 457.483 14.6585 456.548 14.3631C455.613 14.0554 454.671 13.9015 453.723 13.9015C451.853 13.9015 450.917 14.4062 450.917 15.4154C450.917 15.7477 451.034 16.0369 451.268 16.2831C451.514 16.5169 451.97 16.7631 452.634 17.0215C453.299 17.2677 454.271 17.5754 455.551 17.9446C456.819 18.3015 457.92 18.7138 458.856 19.1815C459.803 19.6492 460.536 20.2769 461.053 21.0646C461.57 21.84 461.828 22.8677 461.828 24.1477C461.828 25.5754 461.403 26.7754 460.554 27.7477C459.705 28.7077 458.579 29.4277 457.176 29.9077C455.773 30.3877 454.234 30.6277 452.56 30.6277C450.665 30.6277 448.991 30.3569 447.539 29.8154C446.087 29.2738 444.85 28.56 443.828 27.6738L446.763 24.3877C447.527 24.9785 448.388 25.4708 449.348 25.8646C450.32 26.2585 451.379 26.4554 452.523 26.4554ZM484.457 28.8554C483.693 29.3477 482.77 29.7662 481.687 30.1108C480.604 30.4554 479.386 30.6277 478.032 30.6277C475.472 30.6277 473.57 29.9754 472.327 28.6708C471.084 27.3538 470.463 25.5692 470.463 23.3169V14.4185H466.346V10.3938H470.463V6.14769L476.297 5.44616V10.3938H482.61L482.038 14.4185H476.297V23.3169C476.297 24.2892 476.518 24.9846 476.961 25.4031C477.404 25.8215 478.112 26.0308 479.084 26.0308C479.773 26.0308 480.401 25.9508 480.967 25.7908C481.546 25.6185 482.063 25.4031 482.518 25.1446L484.457 28.8554ZM505.46 24.3508C505.46 25.0892 505.559 25.6246 505.756 25.9569C505.965 26.2892 506.297 26.5415 506.753 26.7138L505.553 30.5538C504.396 30.4431 503.417 30.1908 502.617 29.7969C501.83 29.3908 501.208 28.7815 500.753 27.9692C500.002 28.8677 499.042 29.5385 497.873 29.9815C496.703 30.4123 495.51 30.6277 494.291 30.6277C492.273 30.6277 490.66 30.0554 489.454 28.9108C488.26 27.7538 487.663 26.2708 487.663 24.4615C487.663 22.3323 488.494 20.6892 490.156 19.5323C491.83 18.3754 494.18 17.7969 497.208 17.7969H499.848V17.0585C499.848 15.0523 498.556 14.0492 495.971 14.0492C495.343 14.0492 494.537 14.1415 493.553 14.3262C492.568 14.4985 491.583 14.7508 490.599 15.0831L489.251 11.2062C490.519 10.7262 491.836 10.3631 493.202 10.1169C494.58 9.87077 495.811 9.74769 496.894 9.74769C499.811 9.74769 501.965 10.3446 503.356 11.5385C504.759 12.72 505.46 14.4308 505.46 16.6708V24.3508ZM496.303 26.4554C496.931 26.4554 497.59 26.2708 498.279 25.9015C498.968 25.52 499.491 24.9846 499.848 24.2954V21.12H498.408C496.783 21.12 495.59 21.3723 494.826 21.8769C494.063 22.3692 493.682 23.0954 493.682 24.0554C493.682 24.8062 493.91 25.3969 494.365 25.8277C494.833 26.2462 495.479 26.4554 496.303 26.4554ZM521.498 26.0308C522.298 26.0308 523.049 25.8769 523.75 25.5692C524.464 25.2492 525.172 24.8431 525.873 24.3508L528.476 28.0431C527.615 28.7815 526.563 29.3969 525.32 29.8892C524.089 30.3815 522.71 30.6277 521.184 30.6277C519.08 30.6277 517.27 30.1969 515.756 29.3354C514.243 28.4615 513.08 27.2554 512.267 25.7169C511.455 24.1662 511.049 22.3692 511.049 20.3262C511.049 18.2831 511.461 16.4677 512.286 14.88C513.123 13.28 514.304 12.0246 515.83 11.1138C517.369 10.2031 519.19 9.74769 521.295 9.74769C522.784 9.74769 524.107 9.95692 525.264 10.3754C526.433 10.7815 527.504 11.3908 528.476 12.2031L525.947 15.7108C525.283 15.2431 524.581 14.88 523.843 14.6215C523.104 14.3631 522.335 14.2338 521.535 14.2338C520.218 14.2338 519.153 14.7015 518.341 15.6369C517.541 16.56 517.141 18.1231 517.141 20.3262C517.141 21.7662 517.332 22.9046 517.713 23.7415C518.095 24.5662 518.612 25.1569 519.264 25.5138C519.929 25.8585 520.673 26.0308 521.498 26.0308ZM539.086 1.99385V30H533.253V2.60308L539.086 1.99385ZM551.862 10.3938L545.419 19.0708L552.397 30H545.751L539.308 19.2554L545.751 10.3938H551.862ZM594.202 30H587.759L586.079 16.8185L584.325 30H577.993L575.094 10.3938H580.429L581.703 26.3631L583.771 12.8677H588.682L590.528 26.3631L591.839 10.3938H596.989L594.202 30ZM604.756 21.8954C604.953 23.4954 605.476 24.6462 606.326 25.3477C607.175 26.0369 608.221 26.3815 609.464 26.3815C610.363 26.3815 611.23 26.2338 612.067 25.9385C612.904 25.6431 613.71 25.2492 614.486 24.7569L616.83 27.9323C615.907 28.72 614.787 29.3662 613.47 29.8708C612.166 30.3754 610.676 30.6277 609.003 30.6277C606.763 30.6277 604.886 30.1846 603.372 29.2985C601.858 28.4 600.719 27.1692 599.956 25.6062C599.193 24.0431 598.812 22.2462 598.812 20.2154C598.812 18.2831 599.181 16.5292 599.919 14.9538C600.658 13.3662 601.735 12.1046 603.15 11.1692C604.578 10.2215 606.319 9.74769 608.375 9.74769C610.246 9.74769 611.864 10.1477 613.23 10.9477C614.609 11.7477 615.673 12.8985 616.424 14.4C617.187 15.9015 617.569 17.7046 617.569 19.8092C617.569 20.1415 617.556 20.4985 617.532 20.88C617.519 21.2615 617.495 21.6 617.458 21.8954H604.756ZM608.375 13.6615C607.329 13.6615 606.486 14.0369 605.846 14.7877C605.206 15.5385 604.818 16.7385 604.683 18.3877H611.883C611.87 16.96 611.593 15.8154 611.052 14.9538C610.51 14.0923 609.618 13.6615 608.375 13.6615ZM627.68 12.4062C628.296 11.5938 629.034 10.9477 629.896 10.4677C630.769 9.98769 631.705 9.74769 632.702 9.74769C635.225 9.74769 637.059 10.6831 638.203 12.5538C639.36 14.4246 639.939 16.9538 639.939 20.1415C639.939 22.16 639.637 23.9631 639.034 25.5508C638.443 27.1262 637.563 28.3692 636.394 29.28C635.225 30.1785 633.791 30.6277 632.092 30.6277C630.037 30.6277 628.419 29.8277 627.237 28.2277L627.016 30H621.846V2.60308L627.68 1.99385V12.4062ZM630.56 26.3815C631.594 26.3815 632.412 25.9077 633.016 24.96C633.619 24 633.92 22.4185 633.92 20.2154C633.92 18.5908 633.791 17.3354 633.532 16.4492C633.286 15.5508 632.929 14.9292 632.462 14.5846C632.006 14.2277 631.471 14.0492 630.856 14.0492C630.203 14.0492 629.619 14.2523 629.102 14.6585C628.585 15.0646 628.111 15.6185 627.68 16.32V24.5908C628.049 25.1692 628.462 25.6123 628.917 25.92C629.372 26.2277 629.92 26.3815 630.56 26.3815ZM678.623 1.99385C680.051 1.99385 681.312 2.11077 682.408 2.34462C683.503 2.56616 684.482 2.86154 685.343 3.23077L683.737 7.03385C683.06 6.77539 682.365 6.59077 681.651 6.48C680.937 6.35692 680.229 6.29539 679.528 6.29539C678.371 6.29539 677.54 6.50462 677.036 6.92308C676.543 7.34154 676.297 8.03692 676.297 9.00923V11.6308H682.685L682.039 15.6738H676.297V30H670.5V15.6738H666.383V11.6308H670.5V8.78769C670.5 7.49539 670.808 6.33846 671.423 5.31692C672.039 4.29539 672.949 3.48923 674.156 2.89846C675.362 2.29539 676.851 1.99385 678.623 1.99385ZM688.476 30V26.0862H691.061V14.2708H688.476V10.3938H695.51L696.581 14.8062C697.282 13.12 698.175 11.8646 699.258 11.04C700.353 10.2154 701.689 9.80308 703.264 9.80308C703.929 9.80308 704.519 9.85846 705.036 9.96923C705.553 10.0677 706.039 10.2092 706.495 10.3938L705.405 18.5908H701.75V14.9723C700.642 15.1692 699.67 15.7723 698.833 16.7815C697.996 17.7785 697.35 19.0092 696.895 20.4738V26.0862H700.772V30H688.476ZM726.945 24.3508C726.945 25.0892 727.043 25.6246 727.24 25.9569C727.449 26.2892 727.782 26.5415 728.237 26.7138L727.037 30.5538C725.88 30.4431 724.902 30.1908 724.102 29.7969C723.314 29.3908 722.692 28.7815 722.237 27.9692C721.486 28.8677 720.526 29.5385 719.357 29.9815C718.188 30.4123 716.994 30.6277 715.775 30.6277C713.757 30.6277 712.145 30.0554 710.939 28.9108C709.745 27.7538 709.148 26.2708 709.148 24.4615C709.148 22.3323 709.979 20.6892 711.64 19.5323C713.314 18.3754 715.665 17.7969 718.692 17.7969H721.332V17.0585C721.332 15.0523 720.04 14.0492 717.455 14.0492C716.828 14.0492 716.022 14.1415 715.037 14.3262C714.052 14.4985 713.068 14.7508 712.083 15.0831L710.735 11.2062C712.003 10.7262 713.32 10.3631 714.686 10.1169C716.065 9.87077 717.295 9.74769 718.379 9.74769C721.295 9.74769 723.449 10.3446 724.84 11.5385C726.243 12.72 726.945 14.4308 726.945 16.6708V24.3508ZM717.788 26.4554C718.415 26.4554 719.074 26.2708 719.763 25.9015C720.452 25.52 720.975 24.9846 721.332 24.2954V21.12H719.892C718.268 21.12 717.074 21.3723 716.311 21.8769C715.548 22.3692 715.166 23.0954 715.166 24.0554C715.166 24.8062 715.394 25.3969 715.849 25.8277C716.317 26.2462 716.963 26.4554 717.788 26.4554ZM747.081 9.74769C748.472 9.74769 749.499 10.2031 750.164 11.1138C750.841 12.0123 751.179 13.4708 751.179 15.4892V30H746.176V16.1538C746.176 15.4646 746.109 14.9785 745.973 14.6954C745.85 14.4123 745.592 14.2708 745.198 14.2708C744.89 14.2708 744.57 14.3631 744.238 14.5477C743.918 14.72 743.561 15.0523 743.167 15.5446V30H739.069V16.1538C739.069 15.4646 739.001 14.9785 738.865 14.6954C738.742 14.4123 738.484 14.2708 738.09 14.2708C737.782 14.2708 737.462 14.3631 737.13 14.5477C736.81 14.72 736.453 15.0523 736.059 15.5446V30H730.982V10.3938H735.265L735.653 12.2954C736.269 11.4585 736.89 10.8246 737.518 10.3938C738.145 9.96308 738.89 9.74769 739.752 9.74769C740.49 9.74769 741.118 9.93846 741.635 10.32C742.164 10.6892 742.539 11.2738 742.761 12.0738C743.352 11.3846 744.004 10.8246 744.718 10.3938C745.432 9.96308 746.219 9.74769 747.081 9.74769ZM759.795 21.8954C759.992 23.4954 760.515 24.6462 761.365 25.3477C762.214 26.0369 763.26 26.3815 764.503 26.3815C765.402 26.3815 766.269 26.2338 767.106 25.9385C767.943 25.6431 768.749 25.2492 769.525 24.7569L771.869 27.9323C770.946 28.72 769.826 29.3662 768.509 29.8708C767.205 30.3754 765.715 30.6277 764.042 30.6277C761.802 30.6277 759.925 30.1846 758.411 29.2985C756.897 28.4 755.758 27.1692 754.995 25.6062C754.232 24.0431 753.851 22.2462 753.851 20.2154C753.851 18.2831 754.22 16.5292 754.958 14.9538C755.697 13.3662 756.774 12.1046 758.189 11.1692C759.617 10.2215 761.358 9.74769 763.414 9.74769C765.285 9.74769 766.903 10.1477 768.269 10.9477C769.648 11.7477 770.712 12.8985 771.463 14.4C772.226 15.9015 772.608 17.7046 772.608 19.8092C772.608 20.1415 772.595 20.4985 772.571 20.88C772.558 21.2615 772.534 21.6 772.497 21.8954H759.795ZM763.414 13.6615C762.368 13.6615 761.525 14.0369 760.885 14.7877C760.245 15.5385 759.857 16.7385 759.722 18.3877H766.922C766.909 16.96 766.632 15.8154 766.091 14.9538C765.549 14.0923 764.657 13.6615 763.414 13.6615ZM793.538 30H787.095L785.415 16.8185L783.661 30H777.328L774.43 10.3938H779.765L781.039 26.3631L783.107 12.8677H788.018L789.864 26.3631L791.175 10.3938H796.325L793.538 30ZM807.526 9.74769C809.545 9.74769 811.262 10.1785 812.677 11.04C814.092 11.9015 815.175 13.1138 815.926 14.6769C816.677 16.2277 817.052 18.0492 817.052 20.1415C817.052 23.4154 816.215 25.9815 814.542 27.84C812.868 29.6985 810.529 30.6277 807.526 30.6277C804.523 30.6277 802.185 29.7108 800.511 27.8769C798.837 26.0431 798 23.4769 798 20.1785C798 18.0985 798.375 16.2769 799.126 14.7138C799.889 13.1508 800.978 11.9323 802.394 11.0585C803.822 10.1846 805.532 9.74769 807.526 9.74769ZM807.526 14.0492C806.332 14.0492 805.446 14.5415 804.868 15.5262C804.302 16.4985 804.018 18.0492 804.018 20.1785C804.018 22.3446 804.302 23.9138 804.868 24.8862C805.446 25.8585 806.332 26.3446 807.526 26.3446C808.72 26.3446 809.6 25.8585 810.166 24.8862C810.745 23.9138 811.034 22.3323 811.034 20.1415C811.034 18.0246 810.745 16.48 810.166 15.5077C809.6 14.5354 808.72 14.0492 807.526 14.0492ZM821.367 30V26.0862H823.952V14.2708H821.367V10.3938H828.401L829.472 14.8062C830.173 13.12 831.065 11.8646 832.148 11.04C833.244 10.2154 834.579 9.80308 836.155 9.80308C836.819 9.80308 837.41 9.85846 837.927 9.96923C838.444 10.0677 838.93 10.2092 839.385 10.3938L838.296 18.5908H834.641V14.9723C833.533 15.1692 832.561 15.7723 831.724 16.7815C830.887 17.7785 830.241 19.0092 829.785 20.4738V26.0862H833.662V30H821.367ZM849.165 1.99385V30H843.331V2.60308L849.165 1.99385ZM861.94 10.3938L855.497 19.0708L862.475 30H855.829L849.386 19.2554L855.829 10.3938H861.94Z" fill="url(#paint2_radial_207_6)" fill-opacity="0.64"/>
<defs>
<radialGradient id="paint0_radial_207_6" cx="0" cy="0" r="1" gradientUnits="userSpaceOnUse" gradientTransform="translate(529.526 38.5218) rotate(-177.77) scale(748.356 68.202)">
<stop stop-color="#FF1DE8"/>
<stop offset="1" stop-color="white" stop-opacity="0"/>
</radialGradient>
<radialGradient id="paint1_radial_207_6" cx="0" cy="0" r="1" gradientUnits="userSpaceOnUse" gradientTransform="translate(691.211 3.43843) rotate(179.624) scale(909.493 63.712)">
<stop stop-color="#4A1DFF"/>
<stop offset="1" stop-color="white" stop-opacity="0"/>
</radialGradient>
<radialGradient id="paint2_radial_207_6" cx="0" cy="0" r="1" gradientUnits="userSpaceOnUse" gradientTransform="translate(92.4737 17.1209) rotate(1.49312) scale(801.114 63.4218)">
<stop stop-color="#1DD6FF"/>
<stop offset="1" stop-color="white" stop-opacity="0"/>
</radialGradient>
</defs>
</svg>
