<svg width="324" height="244" viewBox="0 0 324 244" fill="none" xmlns="http://www.w3.org/2000/svg">
<g clip-path="url(#clip0_27_32)">
<rect width="324" height="244" rx="8" fill="white"/>
<path d="M22.736 10.272V27H20.552V19.416H12.032V27H9.848V10.272H12.032V17.616H20.552V10.272H22.736ZM25.6492 20.376C25.6492 19.032 25.9212 17.856 26.4652 16.848C27.0092 15.824 27.7532 15.032 28.6972 14.472C29.6572 13.912 30.7212 13.632 31.8892 13.632C33.0412 13.632 34.0412 13.88 34.8892 14.376C35.7372 14.872 36.3692 15.496 36.7852 16.248V13.848H38.9932V27H36.7852V24.552C36.3532 25.32 35.7052 25.96 34.8412 26.472C33.9932 26.968 33.0012 27.216 31.8652 27.216C30.6972 27.216 29.6412 26.928 28.6972 26.352C27.7532 25.776 27.0092 24.968 26.4652 23.928C25.9212 22.888 25.6492 21.704 25.6492 20.376ZM36.7852 20.4C36.7852 19.408 36.5852 18.544 36.1852 17.808C35.7852 17.072 35.2412 16.512 34.5532 16.128C33.8812 15.728 33.1372 15.528 32.3212 15.528C31.5052 15.528 30.7612 15.72 30.0892 16.104C29.4172 16.488 28.8812 17.048 28.4812 17.784C28.0812 18.52 27.8812 19.384 27.8812 20.376C27.8812 21.384 28.0812 22.264 28.4812 23.016C28.8812 23.752 29.4172 24.32 30.0892 24.72C30.7612 25.104 31.5052 25.296 32.3212 25.296C33.1372 25.296 33.8812 25.104 34.5532 24.72C35.2412 24.32 35.7852 23.752 36.1852 23.016C36.5852 22.264 36.7852 21.392 36.7852 20.4ZM44.8679 16.272C45.2999 15.52 45.9399 14.896 46.7879 14.4C47.6519 13.888 48.6519 13.632 49.7879 13.632C50.9559 13.632 52.0119 13.912 52.9559 14.472C53.9159 15.032 54.6679 15.824 55.2119 16.848C55.7559 17.856 56.0279 19.032 56.0279 20.376C56.0279 21.704 55.7559 22.888 55.2119 23.928C54.6679 24.968 53.9159 25.776 52.9559 26.352C52.0119 26.928 50.9559 27.216 49.7879 27.216C48.6679 27.216 47.6759 26.968 46.8119 26.472C45.9639 25.96 45.3159 25.328 44.8679 24.576V33.24H42.6839V13.848H44.8679V16.272ZM53.7959 20.376C53.7959 19.384 53.5959 18.52 53.1959 17.784C52.7959 17.048 52.2519 16.488 51.5639 16.104C50.8919 15.72 50.1479 15.528 49.3319 15.528C48.5319 15.528 47.7879 15.728 47.0999 16.128C46.4279 16.512 45.8839 17.08 45.4679 17.832C45.0679 18.568 44.8679 19.424 44.8679 20.4C44.8679 21.392 45.0679 22.264 45.4679 23.016C45.8839 23.752 46.4279 24.32 47.0999 24.72C47.7879 25.104 48.5319 25.296 49.3319 25.296C50.1479 25.296 50.8919 25.104 51.5639 24.72C52.2519 24.32 52.7959 23.752 53.1959 23.016C53.5959 22.264 53.7959 21.384 53.7959 20.376ZM61.0867 16.272C61.5187 15.52 62.1587 14.896 63.0067 14.4C63.8707 13.888 64.8707 13.632 66.0067 13.632C67.1747 13.632 68.2307 13.912 69.1747 14.472C70.1347 15.032 70.8867 15.824 71.4307 16.848C71.9747 17.856 72.2467 19.032 72.2467 20.376C72.2467 21.704 71.9747 22.888 71.4307 23.928C70.8867 24.968 70.1347 25.776 69.1747 26.352C68.2307 26.928 67.1747 27.216 66.0067 27.216C64.8867 27.216 63.8947 26.968 63.0307 26.472C62.1827 25.96 61.5347 25.328 61.0867 24.576V33.24H58.9027V13.848H61.0867V16.272ZM70.0147 20.376C70.0147 19.384 69.8147 18.52 69.4147 17.784C69.0147 17.048 68.4707 16.488 67.7827 16.104C67.1107 15.72 66.3667 15.528 65.5507 15.528C64.7507 15.528 64.0067 15.728 63.3187 16.128C62.6467 16.512 62.1027 17.08 61.6867 17.832C61.2867 18.568 61.0867 19.424 61.0867 20.4C61.0867 21.392 61.2867 22.264 61.6867 23.016C62.1027 23.752 62.6467 24.32 63.3187 24.72C64.0067 25.104 64.7507 25.296 65.5507 25.296C66.3667 25.296 67.1107 25.104 67.7827 24.72C68.4707 24.32 69.0147 23.752 69.4147 23.016C69.8147 22.264 70.0147 21.384 70.0147 20.376ZM86.4494 13.848L78.5294 33.192H76.2734L78.8654 26.856L73.5614 13.848H75.9854L80.1134 24.504L84.1934 13.848H86.4494ZM95.4849 18.648L100.621 27H98.1489L94.1409 20.472L90.3249 27H87.9009L93.0129 18.648L87.8769 10.272H90.3249L94.3569 16.824L98.1969 10.272H100.645L95.4849 18.648ZM112.134 25.224H117.99V27H109.95V10.272H112.134V25.224ZM121.437 11.712C121.021 11.712 120.669 11.568 120.381 11.28C120.093 10.992 119.949 10.64 119.949 10.224C119.949 9.808 120.093 9.456 120.381 9.168C120.669 8.88 121.021 8.736 121.437 8.736C121.837 8.736 122.173 8.88 122.445 9.168C122.733 9.456 122.877 9.808 122.877 10.224C122.877 10.64 122.733 10.992 122.445 11.28C122.173 11.568 121.837 11.712 121.437 11.712ZM122.493 13.848V27H120.309V13.848H122.493ZM131.111 24.984L135.191 13.848H137.519L132.359 27H129.815L124.655 13.848H127.007L131.111 24.984ZM151.668 19.92C151.668 20.336 151.644 20.776 151.596 21.24H141.084C141.164 22.536 141.604 23.552 142.404 24.288C143.22 25.008 144.204 25.368 145.356 25.368C146.3 25.368 147.084 25.152 147.708 24.72C148.348 24.272 148.796 23.68 149.052 22.944H151.404C151.052 24.208 150.348 25.24 149.292 26.04C148.236 26.824 146.924 27.216 145.356 27.216C144.108 27.216 142.988 26.936 141.996 26.376C141.02 25.816 140.252 25.024 139.692 24C139.132 22.96 138.852 21.76 138.852 20.4C138.852 19.04 139.124 17.848 139.668 16.824C140.212 15.8 140.972 15.016 141.948 14.472C142.94 13.912 144.076 13.632 145.356 13.632C146.604 13.632 147.708 13.904 148.668 14.448C149.628 14.992 150.364 15.744 150.876 16.704C151.404 17.648 151.668 18.72 151.668 19.92ZM149.412 19.464C149.412 18.632 149.228 17.92 148.86 17.328C148.492 16.72 147.988 16.264 147.348 15.96C146.724 15.64 146.028 15.48 145.26 15.48C144.156 15.48 143.212 15.832 142.428 16.536C141.66 17.24 141.22 18.216 141.108 19.464H149.412ZM168.375 10.272L162.063 27H159.543L153.231 10.272H155.559L160.815 24.696L166.071 10.272H168.375ZM171.898 11.712C171.482 11.712 171.13 11.568 170.842 11.28C170.554 10.992 170.41 10.64 170.41 10.224C170.41 9.808 170.554 9.456 170.842 9.168C171.13 8.88 171.482 8.736 171.898 8.736C172.298 8.736 172.634 8.88 172.906 9.168C173.194 9.456 173.338 9.808 173.338 10.224C173.338 10.64 173.194 10.992 172.906 11.28C172.634 11.568 172.298 11.712 171.898 11.712ZM172.954 13.848V27H170.77V13.848H172.954ZM188.676 19.92C188.676 20.336 188.652 20.776 188.604 21.24H178.092C178.172 22.536 178.612 23.552 179.412 24.288C180.228 25.008 181.212 25.368 182.364 25.368C183.308 25.368 184.092 25.152 184.716 24.72C185.356 24.272 185.804 23.68 186.06 22.944H188.412C188.06 24.208 187.356 25.24 186.3 26.04C185.244 26.824 183.932 27.216 182.364 27.216C181.116 27.216 179.996 26.936 179.004 26.376C178.028 25.816 177.26 25.024 176.7 24C176.14 22.96 175.86 21.76 175.86 20.4C175.86 19.04 176.132 17.848 176.676 16.824C177.22 15.8 177.98 15.016 178.956 14.472C179.948 13.912 181.084 13.632 182.364 13.632C183.612 13.632 184.716 13.904 185.676 14.448C186.636 14.992 187.372 15.744 187.884 16.704C188.412 17.648 188.676 18.72 188.676 19.92ZM186.42 19.464C186.42 18.632 186.236 17.92 185.868 17.328C185.5 16.72 184.996 16.264 184.356 15.96C183.732 15.64 183.036 15.48 182.268 15.48C181.164 15.48 180.22 15.832 179.436 16.536C178.668 17.24 178.228 18.216 178.116 19.464H186.42ZM209.079 13.848L204.975 27H202.719L199.551 16.56L196.383 27H194.127L189.999 13.848H192.231L195.255 24.888L198.519 13.848H200.751L203.943 24.912L206.919 13.848H209.079ZM215.902 27.216C214.894 27.216 213.99 27.048 213.19 26.712C212.39 26.36 211.758 25.88 211.294 25.272C210.83 24.648 210.574 23.936 210.526 23.136H212.782C212.846 23.792 213.15 24.328 213.694 24.744C214.254 25.16 214.982 25.368 215.878 25.368C216.71 25.368 217.366 25.184 217.846 24.816C218.326 24.448 218.566 23.984 218.566 23.424C218.566 22.848 218.31 22.424 217.798 22.152C217.286 21.864 216.494 21.584 215.422 21.312C214.446 21.056 213.646 20.8 213.022 20.544C212.414 20.272 211.886 19.88 211.438 19.368C211.006 18.84 210.79 18.152 210.79 17.304C210.79 16.632 210.99 16.016 211.39 15.456C211.79 14.896 212.358 14.456 213.094 14.136C213.83 13.8 214.67 13.632 215.614 13.632C217.07 13.632 218.246 14 219.142 14.736C220.038 15.472 220.518 16.48 220.582 17.76H218.398C218.35 17.072 218.07 16.52 217.558 16.104C217.062 15.688 216.39 15.48 215.542 15.48C214.758 15.48 214.134 15.648 213.67 15.984C213.206 16.32 212.974 16.76 212.974 17.304C212.974 17.736 213.11 18.096 213.382 18.384C213.67 18.656 214.022 18.88 214.438 19.056C214.87 19.216 215.462 19.4 216.214 19.608C217.158 19.864 217.926 20.12 218.518 20.376C219.11 20.616 219.614 20.984 220.03 21.48C220.462 21.976 220.686 22.624 220.702 23.424C220.702 24.144 220.502 24.792 220.102 25.368C219.702 25.944 219.134 26.4 218.398 26.736C217.678 27.056 216.846 27.216 215.902 27.216Z" fill="black"/>
<rect x="8.5" y="51.5" width="81" height="39" rx="7.5" stroke="black" stroke-linejoin="round"/>
<path d="M28.336 77.144C27.664 77.144 27.0613 77.032 26.528 76.808C25.9947 76.5733 25.5733 76.2533 25.264 75.848C24.9547 75.432 24.784 74.9573 24.752 74.424H26.256C26.2987 74.8613 26.5013 75.2187 26.864 75.496C27.2373 75.7733 27.7227 75.912 28.32 75.912C28.8747 75.912 29.312 75.7893 29.632 75.544C29.952 75.2987 30.112 74.9893 30.112 74.616C30.112 74.232 29.9413 73.9493 29.6 73.768C29.2587 73.576 28.7307 73.3893 28.016 73.208C27.3653 73.0373 26.832 72.8667 26.416 72.696C26.0107 72.5147 25.6587 72.2533 25.36 71.912C25.072 71.56 24.928 71.1013 24.928 70.536C24.928 70.088 25.0613 69.6773 25.328 69.304C25.5947 68.9307 25.9733 68.6373 26.464 68.424C26.9547 68.2 27.5147 68.088 28.144 68.088C29.1147 68.088 29.8987 68.3333 30.496 68.824C31.0933 69.3147 31.4133 69.9867 31.456 70.84H30C29.968 70.3813 29.7813 70.0133 29.44 69.736C29.1093 69.4587 28.6613 69.32 28.096 69.32C27.5733 69.32 27.1573 69.432 26.848 69.656C26.5387 69.88 26.384 70.1733 26.384 70.536C26.384 70.824 26.4747 71.064 26.656 71.256C26.848 71.4373 27.0827 71.5867 27.36 71.704C27.648 71.8107 28.0427 71.9333 28.544 72.072C29.1733 72.2427 29.6853 72.4133 30.08 72.584C30.4747 72.744 30.8107 72.9893 31.088 73.32C31.376 73.6507 31.5253 74.0827 31.536 74.616C31.536 75.096 31.4027 75.528 31.136 75.912C30.8693 76.296 30.4907 76.6 30 76.824C29.52 77.0373 28.9653 77.144 28.336 77.144ZM41.5914 72.28C41.5914 72.5573 41.5754 72.8507 41.5434 73.16H34.5354C34.5887 74.024 34.882 74.7013 35.4154 75.192C35.9594 75.672 36.6154 75.912 37.3834 75.912C38.0127 75.912 38.5354 75.768 38.9514 75.48C39.378 75.1813 39.6767 74.7867 39.8474 74.296H41.4154C41.1807 75.1387 40.7114 75.8267 40.0074 76.36C39.3034 76.8827 38.4287 77.144 37.3834 77.144C36.5514 77.144 35.8047 76.9573 35.1434 76.584C34.4927 76.2107 33.9807 75.6827 33.6074 75C33.234 74.3067 33.0474 73.5067 33.0474 72.6C33.0474 71.6933 33.2287 70.8987 33.5914 70.216C33.954 69.5333 34.4607 69.0107 35.1114 68.648C35.7727 68.2747 36.53 68.088 37.3834 68.088C38.2154 68.088 38.9514 68.2693 39.5914 68.632C40.2314 68.9947 40.722 69.496 41.0634 70.136C41.4154 70.7653 41.5914 71.48 41.5914 72.28ZM40.0874 71.976C40.0874 71.4213 39.9647 70.9467 39.7194 70.552C39.474 70.1467 39.138 69.8427 38.7114 69.64C38.2954 69.4267 37.8314 69.32 37.3194 69.32C36.5834 69.32 35.954 69.5547 35.4314 70.024C34.9194 70.4933 34.626 71.144 34.5514 71.976H40.0874ZM44.9693 69.656C45.2253 69.1547 45.5879 68.7653 46.0573 68.488C46.5373 68.2107 47.1186 68.072 47.8013 68.072V69.576H47.4173C45.7853 69.576 44.9693 70.4613 44.9693 72.232V77H43.5133V68.232H44.9693V69.656ZM52.746 75.656L55.466 68.232H57.018L53.578 77H51.882L48.442 68.232H50.01L52.746 75.656ZM66.4508 72.28C66.4508 72.5573 66.4348 72.8507 66.4028 73.16H59.3948C59.4481 74.024 59.7414 74.7013 60.2748 75.192C60.8188 75.672 61.4748 75.912 62.2428 75.912C62.8721 75.912 63.3948 75.768 63.8108 75.48C64.2374 75.1813 64.5361 74.7867 64.7068 74.296H66.2748C66.0401 75.1387 65.5708 75.8267 64.8668 76.36C64.1628 76.8827 63.2881 77.144 62.2428 77.144C61.4108 77.144 60.6641 76.9573 60.0028 76.584C59.3521 76.2107 58.8401 75.6827 58.4668 75C58.0934 74.3067 57.9068 73.5067 57.9068 72.6C57.9068 71.6933 58.0881 70.8987 58.4508 70.216C58.8134 69.5333 59.3201 69.0107 59.9708 68.648C60.6321 68.2747 61.3894 68.088 62.2428 68.088C63.0748 68.088 63.8108 68.2693 64.4508 68.632C65.0908 68.9947 65.5814 69.496 65.9228 70.136C66.2748 70.7653 66.4508 71.48 66.4508 72.28ZM64.9468 71.976C64.9468 71.4213 64.8241 70.9467 64.5788 70.552C64.3334 70.1467 63.9974 69.8427 63.5708 69.64C63.1548 69.4267 62.6908 69.32 62.1788 69.32C61.4428 69.32 60.8134 69.5547 60.2908 70.024C59.7788 70.4933 59.4854 71.144 59.4108 71.976H64.9468ZM69.8286 69.656C70.0846 69.1547 70.4473 68.7653 70.9166 68.488C71.3966 68.2107 71.978 68.072 72.6606 68.072V69.576H72.2766C70.6446 69.576 69.8286 70.4613 69.8286 72.232V77H68.3726V68.232H69.8286V69.656Z" fill="black"/>
<rect x="159.5" y="52.5" width="156" height="36" rx="7.5" stroke="black" stroke-linejoin="round"/>
<path d="M179.2 68.378H177.59V75H176.316V68.378H175.322V67.328H176.316V66.782C176.316 65.9233 176.535 65.298 176.974 64.906C177.422 64.5047 178.136 64.304 179.116 64.304V65.368C178.556 65.368 178.159 65.48 177.926 65.704C177.702 65.9187 177.59 66.278 177.59 66.782V67.328H179.2V68.378ZM187.489 67.328V75H186.215V73.866C185.973 74.258 185.632 74.566 185.193 74.79C184.764 75.0047 184.288 75.112 183.765 75.112C183.168 75.112 182.631 74.9907 182.155 74.748C181.679 74.496 181.301 74.1227 181.021 73.628C180.751 73.1333 180.615 72.5313 180.615 71.822V67.328H181.875V71.654C181.875 72.41 182.067 72.9933 182.449 73.404C182.832 73.8053 183.355 74.006 184.017 74.006C184.699 74.006 185.235 73.796 185.627 73.376C186.019 72.956 186.215 72.3447 186.215 71.542V67.328H187.489ZM193.379 67.188C194.312 67.188 195.068 67.4727 195.647 68.042C196.225 68.602 196.515 69.414 196.515 70.478V75H195.255V70.66C195.255 69.8947 195.063 69.3113 194.681 68.91C194.298 68.4993 193.775 68.294 193.113 68.294C192.441 68.294 191.904 68.504 191.503 68.924C191.111 69.344 190.915 69.9553 190.915 70.758V75H189.641V67.328H190.915V68.42C191.167 68.028 191.507 67.7247 191.937 67.51C192.375 67.2953 192.856 67.188 193.379 67.188ZM198.12 71.15C198.12 70.3567 198.278 69.666 198.596 69.078C198.913 68.4807 199.352 68.0187 199.912 67.692C200.481 67.3653 201.13 67.202 201.858 67.202C202.8 67.202 203.575 67.4307 204.182 67.888C204.798 68.3453 205.204 68.98 205.4 69.792H204.028C203.897 69.3253 203.64 68.9567 203.258 68.686C202.884 68.4153 202.418 68.28 201.858 68.28C201.13 68.28 200.542 68.532 200.094 69.036C199.646 69.5307 199.422 70.2353 199.422 71.15C199.422 72.074 199.646 72.788 200.094 73.292C200.542 73.796 201.13 74.048 201.858 74.048C202.418 74.048 202.884 73.9173 203.258 73.656C203.631 73.3947 203.888 73.0213 204.028 72.536H205.4C205.194 73.32 204.784 73.95 204.168 74.426C203.552 74.8927 202.782 75.126 201.858 75.126C201.13 75.126 200.481 74.9627 199.912 74.636C199.352 74.3093 198.913 73.8473 198.596 73.25C198.278 72.6527 198.12 71.9527 198.12 71.15ZM208.653 68.378V72.9C208.653 73.2733 208.733 73.5393 208.891 73.698C209.05 73.8473 209.325 73.922 209.717 73.922H210.655V75H209.507C208.798 75 208.266 74.8367 207.911 74.51C207.557 74.1833 207.379 73.6467 207.379 72.9V68.378H206.385V67.328H207.379V65.396H208.653V67.328H210.655V68.378H208.653ZM212.857 66.082C212.614 66.082 212.409 65.998 212.241 65.83C212.073 65.662 211.989 65.4567 211.989 65.214C211.989 64.9713 212.073 64.766 212.241 64.598C212.409 64.43 212.614 64.346 212.857 64.346C213.09 64.346 213.286 64.43 213.445 64.598C213.613 64.766 213.697 64.9713 213.697 65.214C213.697 65.4567 213.613 65.662 213.445 65.83C213.286 65.998 213.09 66.082 212.857 66.082ZM213.473 67.328V75H212.199V67.328H213.473ZM218.99 75.126C218.272 75.126 217.618 74.9627 217.03 74.636C216.452 74.3093 215.994 73.8473 215.658 73.25C215.332 72.6433 215.168 71.9433 215.168 71.15C215.168 70.366 215.336 69.6753 215.672 69.078C216.018 68.4713 216.484 68.0093 217.072 67.692C217.66 67.3653 218.318 67.202 219.046 67.202C219.774 67.202 220.432 67.3653 221.02 67.692C221.608 68.0093 222.07 68.4667 222.406 69.064C222.752 69.6613 222.924 70.3567 222.924 71.15C222.924 71.9433 222.747 72.6433 222.392 73.25C222.047 73.8473 221.576 74.3093 220.978 74.636C220.381 74.9627 219.718 75.126 218.99 75.126ZM218.99 74.006C219.448 74.006 219.877 73.8987 220.278 73.684C220.68 73.4693 221.002 73.1473 221.244 72.718C221.496 72.2887 221.622 71.766 221.622 71.15C221.622 70.534 221.501 70.0113 221.258 69.582C221.016 69.1527 220.698 68.8353 220.306 68.63C219.914 68.4153 219.49 68.308 219.032 68.308C218.566 68.308 218.136 68.4153 217.744 68.63C217.362 68.8353 217.054 69.1527 216.82 69.582C216.587 70.0113 216.47 70.534 216.47 71.15C216.47 71.7753 216.582 72.3027 216.806 72.732C217.04 73.1613 217.348 73.4833 217.73 73.698C218.113 73.9033 218.533 74.006 218.99 74.006ZM228.337 67.188C229.271 67.188 230.027 67.4727 230.605 68.042C231.184 68.602 231.473 69.414 231.473 70.478V75H230.213V70.66C230.213 69.8947 230.022 69.3113 229.639 68.91C229.257 68.4993 228.734 68.294 228.071 68.294C227.399 68.294 226.863 68.504 226.461 68.924C226.069 69.344 225.873 69.9553 225.873 70.758V75H224.599V67.328H225.873V68.42C226.125 68.028 226.466 67.7247 226.895 67.51C227.334 67.2953 227.815 67.188 228.337 67.188ZM236.271 75.126C235.683 75.126 235.155 75.028 234.689 74.832C234.222 74.6267 233.853 74.3467 233.583 73.992C233.312 73.628 233.163 73.2127 233.135 72.746H234.451C234.488 73.1287 234.665 73.4413 234.983 73.684C235.309 73.9267 235.734 74.048 236.257 74.048C236.742 74.048 237.125 73.9407 237.405 73.726C237.685 73.5113 237.825 73.2407 237.825 72.914C237.825 72.578 237.675 72.3307 237.377 72.172C237.078 72.004 236.616 71.8407 235.991 71.682C235.421 71.5327 234.955 71.3833 234.591 71.234C234.236 71.0753 233.928 70.8467 233.667 70.548C233.415 70.24 233.289 69.8387 233.289 69.344C233.289 68.952 233.405 68.5927 233.639 68.266C233.872 67.9393 234.203 67.6827 234.633 67.496C235.062 67.3 235.552 67.202 236.103 67.202C236.952 67.202 237.638 67.4167 238.161 67.846C238.683 68.2753 238.963 68.8633 239.001 69.61H237.727C237.699 69.2087 237.535 68.8867 237.237 68.644C236.947 68.4013 236.555 68.28 236.061 68.28C235.603 68.28 235.239 68.378 234.969 68.574C234.698 68.77 234.563 69.0267 234.563 69.344C234.563 69.596 234.642 69.806 234.801 69.974C234.969 70.1327 235.174 70.2633 235.417 70.366C235.669 70.4593 236.014 70.5667 236.453 70.688C237.003 70.8373 237.451 70.9867 237.797 71.136C238.142 71.276 238.436 71.4907 238.679 71.78C238.931 72.0693 239.061 72.4473 239.071 72.914C239.071 73.334 238.954 73.712 238.721 74.048C238.487 74.384 238.156 74.65 237.727 74.846C237.307 75.0327 236.821 75.126 236.271 75.126ZM246.189 69.33V70.408H240.603V69.33H246.189ZM252.388 67.188C252.967 67.188 253.489 67.314 253.956 67.566C254.423 67.8087 254.787 68.1773 255.048 68.672C255.319 69.1667 255.454 69.7687 255.454 70.478V75H254.194V70.66C254.194 69.8947 254.003 69.3113 253.62 68.91C253.237 68.4993 252.715 68.294 252.052 68.294C251.38 68.294 250.843 68.504 250.442 68.924C250.05 69.344 249.854 69.9553 249.854 70.758V75H248.58V64.64H249.854V68.42C250.106 68.028 250.451 67.7247 250.89 67.51C251.338 67.2953 251.837 67.188 252.388 67.188ZM264.535 70.87C264.535 71.1127 264.521 71.3693 264.493 71.64H258.361C258.408 72.396 258.664 72.9887 259.131 73.418C259.607 73.838 260.181 74.048 260.853 74.048C261.404 74.048 261.861 73.922 262.225 73.67C262.598 73.4087 262.86 73.0633 263.009 72.634H264.381C264.176 73.3713 263.765 73.9733 263.149 74.44C262.533 74.8973 261.768 75.126 260.853 75.126C260.125 75.126 259.472 74.9627 258.893 74.636C258.324 74.3093 257.876 73.8473 257.549 73.25C257.222 72.6433 257.059 71.9433 257.059 71.15C257.059 70.3567 257.218 69.6613 257.535 69.064C257.852 68.4667 258.296 68.0093 258.865 67.692C259.444 67.3653 260.106 67.202 260.853 67.202C261.581 67.202 262.225 67.3607 262.785 67.678C263.345 67.9953 263.774 68.434 264.073 68.994C264.381 69.5447 264.535 70.17 264.535 70.87ZM263.219 70.604C263.219 70.1187 263.112 69.7033 262.897 69.358C262.682 69.0033 262.388 68.7373 262.015 68.56C261.651 68.3733 261.245 68.28 260.797 68.28C260.153 68.28 259.602 68.4853 259.145 68.896C258.697 69.3067 258.44 69.876 258.375 70.604H263.219ZM267.491 64.64V75H266.217V64.64H267.491ZM270.936 68.742C271.188 68.3033 271.561 67.9393 272.056 67.65C272.56 67.3513 273.143 67.202 273.806 67.202C274.487 67.202 275.103 67.3653 275.654 67.692C276.214 68.0187 276.653 68.4807 276.97 69.078C277.287 69.666 277.446 70.352 277.446 71.136C277.446 71.9107 277.287 72.6013 276.97 73.208C276.653 73.8147 276.214 74.286 275.654 74.622C275.103 74.958 274.487 75.126 273.806 75.126C273.153 75.126 272.574 74.9813 272.07 74.692C271.575 74.3933 271.197 74.0247 270.936 73.586V78.64H269.662V67.328H270.936V68.742ZM276.144 71.136C276.144 70.5573 276.027 70.0533 275.794 69.624C275.561 69.1947 275.243 68.868 274.842 68.644C274.45 68.42 274.016 68.308 273.54 68.308C273.073 68.308 272.639 68.4247 272.238 68.658C271.846 68.882 271.529 69.2133 271.286 69.652C271.053 70.0813 270.936 70.5807 270.936 71.15C270.936 71.7287 271.053 72.2373 271.286 72.676C271.529 73.1053 271.846 73.4367 272.238 73.67C272.639 73.894 273.073 74.006 273.54 74.006C274.016 74.006 274.45 73.894 274.842 73.67C275.243 73.4367 275.561 73.1053 275.794 72.676C276.027 72.2373 276.144 71.724 276.144 71.136ZM286.123 70.87C286.123 71.1127 286.109 71.3693 286.081 71.64H279.949C279.996 72.396 280.252 72.9887 280.719 73.418C281.195 73.838 281.769 74.048 282.441 74.048C282.992 74.048 283.449 73.922 283.813 73.67C284.186 73.4087 284.448 73.0633 284.597 72.634H285.969C285.764 73.3713 285.353 73.9733 284.737 74.44C284.121 74.8973 283.356 75.126 282.441 75.126C281.713 75.126 281.06 74.9627 280.481 74.636C279.912 74.3093 279.464 73.8473 279.137 73.25C278.81 72.6433 278.647 71.9433 278.647 71.15C278.647 70.3567 278.806 69.6613 279.123 69.064C279.44 68.4667 279.884 68.0093 280.453 67.692C281.032 67.3653 281.694 67.202 282.441 67.202C283.169 67.202 283.813 67.3607 284.373 67.678C284.933 67.9953 285.362 68.434 285.661 68.994C285.969 69.5447 286.123 70.17 286.123 70.87ZM284.807 70.604C284.807 70.1187 284.7 69.7033 284.485 69.358C284.27 69.0033 283.976 68.7373 283.603 68.56C283.239 68.3733 282.833 68.28 282.385 68.28C281.741 68.28 281.19 68.4853 280.733 68.896C280.285 69.3067 280.028 69.876 279.963 70.604H284.807ZM289.079 68.574C289.303 68.1353 289.62 67.7947 290.031 67.552C290.451 67.3093 290.959 67.188 291.557 67.188V68.504H291.221C289.793 68.504 289.079 69.2787 289.079 70.828V75H287.805V67.328H289.079V68.574ZM295.743 75.126C295.155 75.126 294.628 75.028 294.161 74.832C293.695 74.6267 293.326 74.3467 293.055 73.992C292.785 73.628 292.635 73.2127 292.607 72.746H293.923C293.961 73.1287 294.138 73.4413 294.455 73.684C294.782 73.9267 295.207 74.048 295.729 74.048C296.215 74.048 296.597 73.9407 296.877 73.726C297.157 73.5113 297.297 73.2407 297.297 72.914C297.297 72.578 297.148 72.3307 296.849 72.172C296.551 72.004 296.089 71.8407 295.463 71.682C294.894 71.5327 294.427 71.3833 294.063 71.234C293.709 71.0753 293.401 70.8467 293.139 70.548C292.887 70.24 292.761 69.8387 292.761 69.344C292.761 68.952 292.878 68.5927 293.111 68.266C293.345 67.9393 293.676 67.6827 294.105 67.496C294.535 67.3 295.025 67.202 295.575 67.202C296.425 67.202 297.111 67.4167 297.633 67.846C298.156 68.2753 298.436 68.8633 298.473 69.61H297.199C297.171 69.2087 297.008 68.8867 296.709 68.644C296.42 68.4013 296.028 68.28 295.533 68.28C295.076 68.28 294.712 68.378 294.441 68.574C294.171 68.77 294.035 69.0267 294.035 69.344C294.035 69.596 294.115 69.806 294.273 69.974C294.441 70.1327 294.647 70.2633 294.889 70.366C295.141 70.4593 295.487 70.5667 295.925 70.688C296.476 70.8373 296.924 70.9867 297.269 71.136C297.615 71.276 297.909 71.4907 298.151 71.78C298.403 72.0693 298.534 72.4473 298.543 72.914C298.543 73.334 298.427 73.712 298.193 74.048C297.96 74.384 297.629 74.65 297.199 74.846C296.779 75.0327 296.294 75.126 295.743 75.126Z" fill="black"/>
<rect x="167.5" y="193.5" width="141" height="36" rx="7.5" stroke="black" stroke-linejoin="round"/>
<path d="M183.602 212.136C183.602 211.352 183.761 210.666 184.078 210.078C184.395 209.481 184.829 209.019 185.38 208.692C185.94 208.365 186.561 208.202 187.242 208.202C187.914 208.202 188.497 208.347 188.992 208.636C189.487 208.925 189.855 209.289 190.098 209.728V208.328H191.386V216H190.098V214.572C189.846 215.02 189.468 215.393 188.964 215.692C188.469 215.981 187.891 216.126 187.228 216.126C186.547 216.126 185.931 215.958 185.38 215.622C184.829 215.286 184.395 214.815 184.078 214.208C183.761 213.601 183.602 212.911 183.602 212.136ZM190.098 212.15C190.098 211.571 189.981 211.067 189.748 210.638C189.515 210.209 189.197 209.882 188.796 209.658C188.404 209.425 187.97 209.308 187.494 209.308C187.018 209.308 186.584 209.42 186.192 209.644C185.8 209.868 185.487 210.195 185.254 210.624C185.021 211.053 184.904 211.557 184.904 212.136C184.904 212.724 185.021 213.237 185.254 213.676C185.487 214.105 185.8 214.437 186.192 214.67C186.584 214.894 187.018 215.006 187.494 215.006C187.97 215.006 188.404 214.894 188.796 214.67C189.197 214.437 189.515 214.105 189.748 213.676C189.981 213.237 190.098 212.729 190.098 212.15ZM193.063 212.15C193.063 211.357 193.222 210.666 193.539 210.078C193.856 209.481 194.295 209.019 194.855 208.692C195.424 208.365 196.073 208.202 196.801 208.202C197.744 208.202 198.518 208.431 199.125 208.888C199.741 209.345 200.147 209.98 200.343 210.792H198.971C198.84 210.325 198.584 209.957 198.201 209.686C197.828 209.415 197.361 209.28 196.801 209.28C196.073 209.28 195.485 209.532 195.037 210.036C194.589 210.531 194.365 211.235 194.365 212.15C194.365 213.074 194.589 213.788 195.037 214.292C195.485 214.796 196.073 215.048 196.801 215.048C197.361 215.048 197.828 214.917 198.201 214.656C198.574 214.395 198.831 214.021 198.971 213.536H200.343C200.138 214.32 199.727 214.95 199.111 215.426C198.495 215.893 197.725 216.126 196.801 216.126C196.073 216.126 195.424 215.963 194.855 215.636C194.295 215.309 193.856 214.847 193.539 214.25C193.222 213.653 193.063 212.953 193.063 212.15ZM203.597 209.378V213.9C203.597 214.273 203.676 214.539 203.835 214.698C203.994 214.847 204.269 214.922 204.661 214.922H205.599V216H204.451C203.742 216 203.21 215.837 202.855 215.51C202.5 215.183 202.323 214.647 202.323 213.9V209.378H201.329V208.328H202.323V206.396H203.597V208.328H205.599V209.378H203.597ZM207.8 207.082C207.558 207.082 207.352 206.998 207.184 206.83C207.016 206.662 206.932 206.457 206.932 206.214C206.932 205.971 207.016 205.766 207.184 205.598C207.352 205.43 207.558 205.346 207.8 205.346C208.034 205.346 208.23 205.43 208.388 205.598C208.556 205.766 208.64 205.971 208.64 206.214C208.64 206.457 208.556 206.662 208.388 206.83C208.23 206.998 208.034 207.082 207.8 207.082ZM208.416 208.328V216H207.142V208.328H208.416ZM213.934 216.126C213.215 216.126 212.562 215.963 211.974 215.636C211.395 215.309 210.938 214.847 210.602 214.25C210.275 213.643 210.112 212.943 210.112 212.15C210.112 211.366 210.28 210.675 210.616 210.078C210.961 209.471 211.428 209.009 212.016 208.692C212.604 208.365 213.262 208.202 213.99 208.202C214.718 208.202 215.376 208.365 215.964 208.692C216.552 209.009 217.014 209.467 217.35 210.064C217.695 210.661 217.868 211.357 217.868 212.15C217.868 212.943 217.69 213.643 217.336 214.25C216.99 214.847 216.519 215.309 215.922 215.636C215.324 215.963 214.662 216.126 213.934 216.126ZM213.934 215.006C214.391 215.006 214.82 214.899 215.222 214.684C215.623 214.469 215.945 214.147 216.188 213.718C216.44 213.289 216.566 212.766 216.566 212.15C216.566 211.534 216.444 211.011 216.202 210.582C215.959 210.153 215.642 209.835 215.25 209.63C214.858 209.415 214.433 209.308 213.976 209.308C213.509 209.308 213.08 209.415 212.688 209.63C212.305 209.835 211.997 210.153 211.764 210.582C211.53 211.011 211.414 211.534 211.414 212.15C211.414 212.775 211.526 213.303 211.75 213.732C211.983 214.161 212.291 214.483 212.674 214.698C213.056 214.903 213.476 215.006 213.934 215.006ZM223.281 208.188C224.214 208.188 224.97 208.473 225.549 209.042C226.128 209.602 226.417 210.414 226.417 211.478V216H225.157V211.66C225.157 210.895 224.966 210.311 224.583 209.91C224.2 209.499 223.678 209.294 223.015 209.294C222.343 209.294 221.806 209.504 221.405 209.924C221.013 210.344 220.817 210.955 220.817 211.758V216H219.543V208.328H220.817V209.42C221.069 209.028 221.41 208.725 221.839 208.51C222.278 208.295 222.758 208.188 223.281 208.188ZM231.214 216.126C230.626 216.126 230.099 216.028 229.632 215.832C229.165 215.627 228.797 215.347 228.526 214.992C228.255 214.628 228.106 214.213 228.078 213.746H229.394C229.431 214.129 229.609 214.441 229.926 214.684C230.253 214.927 230.677 215.048 231.2 215.048C231.685 215.048 232.068 214.941 232.348 214.726C232.628 214.511 232.768 214.241 232.768 213.914C232.768 213.578 232.619 213.331 232.32 213.172C232.021 213.004 231.559 212.841 230.934 212.682C230.365 212.533 229.898 212.383 229.534 212.234C229.179 212.075 228.871 211.847 228.61 211.548C228.358 211.24 228.232 210.839 228.232 210.344C228.232 209.952 228.349 209.593 228.582 209.266C228.815 208.939 229.147 208.683 229.576 208.496C230.005 208.3 230.495 208.202 231.046 208.202C231.895 208.202 232.581 208.417 233.104 208.846C233.627 209.275 233.907 209.863 233.944 210.61H232.67C232.642 210.209 232.479 209.887 232.18 209.644C231.891 209.401 231.499 209.28 231.004 209.28C230.547 209.28 230.183 209.378 229.912 209.574C229.641 209.77 229.506 210.027 229.506 210.344C229.506 210.596 229.585 210.806 229.744 210.974C229.912 211.133 230.117 211.263 230.36 211.366C230.612 211.459 230.957 211.567 231.396 211.688C231.947 211.837 232.395 211.987 232.74 212.136C233.085 212.276 233.379 212.491 233.622 212.78C233.874 213.069 234.005 213.447 234.014 213.914C234.014 214.334 233.897 214.712 233.664 215.048C233.431 215.384 233.099 215.65 232.67 215.846C232.25 216.033 231.765 216.126 231.214 216.126ZM243.353 208.188C243.931 208.188 244.454 208.314 244.921 208.566C245.387 208.809 245.751 209.177 246.013 209.672C246.283 210.167 246.419 210.769 246.419 211.478V216H245.159V211.66C245.159 210.895 244.967 210.311 244.585 209.91C244.202 209.499 243.679 209.294 243.017 209.294C242.345 209.294 241.808 209.504 241.407 209.924C241.015 210.344 240.819 210.955 240.819 211.758V216H239.545V205.64H240.819V209.42C241.071 209.028 241.416 208.725 241.855 208.51C242.303 208.295 242.802 208.188 243.353 208.188ZM248.024 212.136C248.024 211.352 248.183 210.666 248.5 210.078C248.817 209.481 249.251 209.019 249.802 208.692C250.362 208.365 250.983 208.202 251.664 208.202C252.336 208.202 252.919 208.347 253.414 208.636C253.909 208.925 254.277 209.289 254.52 209.728V208.328H255.808V216H254.52V214.572C254.268 215.02 253.89 215.393 253.386 215.692C252.891 215.981 252.313 216.126 251.65 216.126C250.969 216.126 250.353 215.958 249.802 215.622C249.251 215.286 248.817 214.815 248.5 214.208C248.183 213.601 248.024 212.911 248.024 212.136ZM254.52 212.15C254.52 211.571 254.403 211.067 254.17 210.638C253.937 210.209 253.619 209.882 253.218 209.658C252.826 209.425 252.392 209.308 251.916 209.308C251.44 209.308 251.006 209.42 250.614 209.644C250.222 209.868 249.909 210.195 249.676 210.624C249.443 211.053 249.326 211.557 249.326 212.136C249.326 212.724 249.443 213.237 249.676 213.676C249.909 214.105 250.222 214.437 250.614 214.67C251.006 214.894 251.44 215.006 251.916 215.006C252.392 215.006 252.826 214.894 253.218 214.67C253.619 214.437 253.937 214.105 254.17 213.676C254.403 213.237 254.52 212.729 254.52 212.15ZM261.699 208.188C262.632 208.188 263.388 208.473 263.967 209.042C264.545 209.602 264.835 210.414 264.835 211.478V216H263.575V211.66C263.575 210.895 263.383 210.311 263.001 209.91C262.618 209.499 262.095 209.294 261.433 209.294C260.761 209.294 260.224 209.504 259.823 209.924C259.431 210.344 259.235 210.955 259.235 211.758V216H257.961V208.328H259.235V209.42C259.487 209.028 259.827 208.725 260.257 208.51C260.695 208.295 261.176 208.188 261.699 208.188ZM266.44 212.136C266.44 211.352 266.599 210.666 266.916 210.078C267.233 209.481 267.667 209.019 268.218 208.692C268.778 208.365 269.403 208.202 270.094 208.202C270.691 208.202 271.247 208.342 271.76 208.622C272.273 208.893 272.665 209.252 272.936 209.7V205.64H274.224V216H272.936V214.558C272.684 215.015 272.311 215.393 271.816 215.692C271.321 215.981 270.743 216.126 270.08 216.126C269.399 216.126 268.778 215.958 268.218 215.622C267.667 215.286 267.233 214.815 266.916 214.208C266.599 213.601 266.44 212.911 266.44 212.136ZM272.936 212.15C272.936 211.571 272.819 211.067 272.586 210.638C272.353 210.209 272.035 209.882 271.634 209.658C271.242 209.425 270.808 209.308 270.332 209.308C269.856 209.308 269.422 209.42 269.03 209.644C268.638 209.868 268.325 210.195 268.092 210.624C267.859 211.053 267.742 211.557 267.742 212.136C267.742 212.724 267.859 213.237 268.092 213.676C268.325 214.105 268.638 214.437 269.03 214.67C269.422 214.894 269.856 215.006 270.332 215.006C270.808 215.006 271.242 214.894 271.634 214.67C272.035 214.437 272.353 214.105 272.586 213.676C272.819 213.237 272.936 212.729 272.936 212.15ZM277.651 205.64V216H276.377V205.64H277.651ZM286.822 211.87C286.822 212.113 286.808 212.369 286.78 212.64H280.648C280.695 213.396 280.951 213.989 281.418 214.418C281.894 214.838 282.468 215.048 283.14 215.048C283.691 215.048 284.148 214.922 284.512 214.67C284.885 214.409 285.147 214.063 285.296 213.634H286.668C286.463 214.371 286.052 214.973 285.436 215.44C284.82 215.897 284.055 216.126 283.14 216.126C282.412 216.126 281.759 215.963 281.18 215.636C280.611 215.309 280.163 214.847 279.836 214.25C279.509 213.643 279.346 212.943 279.346 212.15C279.346 211.357 279.505 210.661 279.822 210.064C280.139 209.467 280.583 209.009 281.152 208.692C281.731 208.365 282.393 208.202 283.14 208.202C283.868 208.202 284.512 208.361 285.072 208.678C285.632 208.995 286.061 209.434 286.36 209.994C286.668 210.545 286.822 211.17 286.822 211.87ZM285.506 211.604C285.506 211.119 285.399 210.703 285.184 210.358C284.969 210.003 284.675 209.737 284.302 209.56C283.938 209.373 283.532 209.28 283.084 209.28C282.44 209.28 281.889 209.485 281.432 209.896C280.984 210.307 280.727 210.876 280.662 211.604H285.506ZM289.778 209.574C290.002 209.135 290.319 208.795 290.73 208.552C291.15 208.309 291.658 208.188 292.256 208.188V209.504H291.92C290.492 209.504 289.778 210.279 289.778 211.828V216H288.504V208.328H289.778V209.574Z" fill="black"/>
<rect x="182.5" y="111.5" width="111" height="57" rx="7.5" stroke="black" stroke-linejoin="round" stroke-dasharray="2 2"/>
<path d="M211.342 124.242L208.514 134H207.086L204.818 126.146L202.466 134L201.052 134.014L198.322 124.242H199.68L201.808 132.516L204.16 124.242H205.588L207.828 132.488L209.97 124.242H211.342ZM219.736 129.87C219.736 130.113 219.722 130.369 219.694 130.64H213.562C213.609 131.396 213.866 131.989 214.332 132.418C214.808 132.838 215.382 133.048 216.054 133.048C216.605 133.048 217.062 132.922 217.426 132.67C217.8 132.409 218.061 132.063 218.21 131.634H219.582C219.377 132.371 218.966 132.973 218.35 133.44C217.734 133.897 216.969 134.126 216.054 134.126C215.326 134.126 214.673 133.963 214.094 133.636C213.525 133.309 213.077 132.847 212.75 132.25C212.424 131.643 212.26 130.943 212.26 130.15C212.26 129.357 212.419 128.661 212.736 128.064C213.054 127.467 213.497 127.009 214.066 126.692C214.645 126.365 215.308 126.202 216.054 126.202C216.782 126.202 217.426 126.361 217.986 126.678C218.546 126.995 218.976 127.434 219.274 127.994C219.582 128.545 219.736 129.17 219.736 129.87ZM218.42 129.604C218.42 129.119 218.313 128.703 218.098 128.358C217.884 128.003 217.59 127.737 217.216 127.56C216.852 127.373 216.446 127.28 215.998 127.28C215.354 127.28 214.804 127.485 214.346 127.896C213.898 128.307 213.642 128.876 213.576 129.604H218.42ZM222.692 127.756C222.953 127.299 223.336 126.925 223.84 126.636C224.344 126.347 224.918 126.202 225.562 126.202C226.253 126.202 226.873 126.365 227.424 126.692C227.975 127.019 228.409 127.481 228.726 128.078C229.043 128.666 229.202 129.352 229.202 130.136C229.202 130.911 229.043 131.601 228.726 132.208C228.409 132.815 227.97 133.286 227.41 133.622C226.859 133.958 226.243 134.126 225.562 134.126C224.899 134.126 224.316 133.981 223.812 133.692C223.317 133.403 222.944 133.034 222.692 132.586V134H221.418V123.64H222.692V127.756ZM227.9 130.136C227.9 129.557 227.783 129.053 227.55 128.624C227.317 128.195 226.999 127.868 226.598 127.644C226.206 127.42 225.772 127.308 225.296 127.308C224.829 127.308 224.395 127.425 223.994 127.658C223.602 127.882 223.285 128.213 223.042 128.652C222.809 129.081 222.692 129.581 222.692 130.15C222.692 130.729 222.809 131.237 223.042 131.676C223.285 132.105 223.602 132.437 223.994 132.67C224.395 132.894 224.829 133.006 225.296 133.006C225.772 133.006 226.206 132.894 226.598 132.67C226.999 132.437 227.317 132.105 227.55 131.676C227.783 131.237 227.9 130.724 227.9 130.136ZM233.973 134.098C233.329 134.098 232.75 133.986 232.237 133.762C231.733 133.529 231.336 133.211 231.047 132.81C230.757 132.399 230.608 131.928 230.599 131.396H231.957C232.003 131.853 232.19 132.241 232.517 132.558C232.853 132.866 233.338 133.02 233.973 133.02C234.579 133.02 235.055 132.871 235.401 132.572C235.755 132.264 235.933 131.872 235.933 131.396C235.933 131.023 235.83 130.719 235.625 130.486C235.419 130.253 235.163 130.075 234.855 129.954C234.547 129.833 234.131 129.702 233.609 129.562C232.965 129.394 232.447 129.226 232.055 129.058C231.672 128.89 231.341 128.629 231.061 128.274C230.79 127.91 230.655 127.425 230.655 126.818C230.655 126.286 230.79 125.815 231.061 125.404C231.331 124.993 231.709 124.676 232.195 124.452C232.689 124.228 233.254 124.116 233.889 124.116C234.803 124.116 235.55 124.345 236.129 124.802C236.717 125.259 237.048 125.866 237.123 126.622H235.723C235.676 126.249 235.48 125.922 235.135 125.642C234.789 125.353 234.332 125.208 233.763 125.208C233.231 125.208 232.797 125.348 232.461 125.628C232.125 125.899 231.957 126.281 231.957 126.776C231.957 127.131 232.055 127.42 232.251 127.644C232.456 127.868 232.703 128.041 232.993 128.162C233.291 128.274 233.707 128.405 234.239 128.554C234.883 128.731 235.401 128.909 235.793 129.086C236.185 129.254 236.521 129.52 236.801 129.884C237.081 130.239 237.221 130.724 237.221 131.34C237.221 131.816 237.095 132.264 236.843 132.684C236.591 133.104 236.217 133.445 235.723 133.706C235.228 133.967 234.645 134.098 233.973 134.098ZM242.442 134.126C241.723 134.126 241.07 133.963 240.482 133.636C239.903 133.309 239.446 132.847 239.11 132.25C238.783 131.643 238.62 130.943 238.62 130.15C238.62 129.366 238.788 128.675 239.124 128.078C239.469 127.471 239.936 127.009 240.524 126.692C241.112 126.365 241.77 126.202 242.498 126.202C243.226 126.202 243.884 126.365 244.472 126.692C245.06 127.009 245.522 127.467 245.858 128.064C246.203 128.661 246.376 129.357 246.376 130.15C246.376 130.943 246.198 131.643 245.844 132.25C245.498 132.847 245.027 133.309 244.43 133.636C243.832 133.963 243.17 134.126 242.442 134.126ZM242.442 133.006C242.899 133.006 243.328 132.899 243.73 132.684C244.131 132.469 244.453 132.147 244.696 131.718C244.948 131.289 245.074 130.766 245.074 130.15C245.074 129.534 244.952 129.011 244.71 128.582C244.467 128.153 244.15 127.835 243.758 127.63C243.366 127.415 242.941 127.308 242.484 127.308C242.017 127.308 241.588 127.415 241.196 127.63C240.813 127.835 240.505 128.153 240.272 128.582C240.038 129.011 239.922 129.534 239.922 130.15C239.922 130.775 240.034 131.303 240.258 131.732C240.491 132.161 240.799 132.483 241.182 132.698C241.564 132.903 241.984 133.006 242.442 133.006ZM247.575 130.15C247.575 129.357 247.733 128.666 248.051 128.078C248.368 127.481 248.807 127.019 249.367 126.692C249.936 126.365 250.585 126.202 251.313 126.202C252.255 126.202 253.03 126.431 253.637 126.888C254.253 127.345 254.659 127.98 254.855 128.792H253.483C253.352 128.325 253.095 127.957 252.713 127.686C252.339 127.415 251.873 127.28 251.313 127.28C250.585 127.28 249.997 127.532 249.549 128.036C249.101 128.531 248.877 129.235 248.877 130.15C248.877 131.074 249.101 131.788 249.549 132.292C249.997 132.796 250.585 133.048 251.313 133.048C251.873 133.048 252.339 132.917 252.713 132.656C253.086 132.395 253.343 132.021 253.483 131.536H254.855C254.649 132.32 254.239 132.95 253.623 133.426C253.007 133.893 252.237 134.126 251.313 134.126C250.585 134.126 249.936 133.963 249.367 133.636C248.807 133.309 248.368 132.847 248.051 132.25C247.733 131.653 247.575 130.953 247.575 130.15ZM260.839 134L257.829 130.612V134H256.555V123.64H257.829V129.73L260.783 126.328H262.561L258.949 130.15L262.575 134H260.839ZM270.76 129.87C270.76 130.113 270.746 130.369 270.718 130.64H264.586C264.632 131.396 264.889 131.989 265.356 132.418C265.832 132.838 266.406 133.048 267.078 133.048C267.628 133.048 268.086 132.922 268.45 132.67C268.823 132.409 269.084 132.063 269.234 131.634H270.606C270.4 132.371 269.99 132.973 269.374 133.44C268.758 133.897 267.992 134.126 267.078 134.126C266.35 134.126 265.696 133.963 265.118 133.636C264.548 133.309 264.1 132.847 263.774 132.25C263.447 131.643 263.284 130.943 263.284 130.15C263.284 129.357 263.442 128.661 263.76 128.064C264.077 127.467 264.52 127.009 265.09 126.692C265.668 126.365 266.331 126.202 267.078 126.202C267.806 126.202 268.45 126.361 269.01 126.678C269.57 126.995 269.999 127.434 270.298 127.994C270.606 128.545 270.76 129.17 270.76 129.87ZM269.444 129.604C269.444 129.119 269.336 128.703 269.122 128.358C268.907 128.003 268.613 127.737 268.24 127.56C267.876 127.373 267.47 127.28 267.022 127.28C266.378 127.28 265.827 127.485 265.37 127.896C264.922 128.307 264.665 128.876 264.6 129.604H269.444ZM273.995 127.378V131.9C273.995 132.273 274.075 132.539 274.233 132.698C274.392 132.847 274.667 132.922 275.059 132.922H275.997V134H274.849C274.14 134 273.608 133.837 273.253 133.51C272.899 133.183 272.721 132.647 272.721 131.9V127.378H271.727V126.328H272.721V124.396H273.995V126.328H275.997V127.378H273.995ZM198.602 151.15C198.602 150.357 198.761 149.666 199.078 149.078C199.395 148.481 199.834 148.019 200.394 147.692C200.963 147.365 201.612 147.202 202.34 147.202C203.283 147.202 204.057 147.431 204.664 147.888C205.28 148.345 205.686 148.98 205.882 149.792H204.51C204.379 149.325 204.123 148.957 203.74 148.686C203.367 148.415 202.9 148.28 202.34 148.28C201.612 148.28 201.024 148.532 200.576 149.036C200.128 149.531 199.904 150.235 199.904 151.15C199.904 152.074 200.128 152.788 200.576 153.292C201.024 153.796 201.612 154.048 202.34 154.048C202.9 154.048 203.367 153.917 203.74 153.656C204.113 153.395 204.37 153.021 204.51 152.536H205.882C205.677 153.32 205.266 153.95 204.65 154.426C204.034 154.893 203.264 155.126 202.34 155.126C201.612 155.126 200.963 154.963 200.394 154.636C199.834 154.309 199.395 153.847 199.078 153.25C198.761 152.653 198.602 151.953 198.602 151.15ZM210.928 155.126C210.209 155.126 209.556 154.963 208.968 154.636C208.389 154.309 207.932 153.847 207.596 153.25C207.269 152.643 207.106 151.943 207.106 151.15C207.106 150.366 207.274 149.675 207.61 149.078C207.955 148.471 208.422 148.009 209.01 147.692C209.598 147.365 210.256 147.202 210.984 147.202C211.712 147.202 212.37 147.365 212.958 147.692C213.546 148.009 214.008 148.467 214.344 149.064C214.689 149.661 214.862 150.357 214.862 151.15C214.862 151.943 214.685 152.643 214.33 153.25C213.985 153.847 213.513 154.309 212.916 154.636C212.319 154.963 211.656 155.126 210.928 155.126ZM210.928 154.006C211.385 154.006 211.815 153.899 212.216 153.684C212.617 153.469 212.939 153.147 213.182 152.718C213.434 152.289 213.56 151.766 213.56 151.15C213.56 150.534 213.439 150.011 213.196 149.582C212.953 149.153 212.636 148.835 212.244 148.63C211.852 148.415 211.427 148.308 210.97 148.308C210.503 148.308 210.074 148.415 209.682 148.63C209.299 148.835 208.991 149.153 208.758 149.582C208.525 150.011 208.408 150.534 208.408 151.15C208.408 151.775 208.52 152.303 208.744 152.732C208.977 153.161 209.285 153.483 209.668 153.698C210.051 153.903 210.471 154.006 210.928 154.006ZM220.275 147.188C221.208 147.188 221.964 147.473 222.543 148.042C223.122 148.602 223.411 149.414 223.411 150.478V155H222.151V150.66C222.151 149.895 221.96 149.311 221.577 148.91C221.194 148.499 220.672 148.294 220.009 148.294C219.337 148.294 218.8 148.504 218.399 148.924C218.007 149.344 217.811 149.955 217.811 150.758V155H216.537V147.328H217.811V148.42C218.063 148.028 218.404 147.725 218.833 147.51C219.272 147.295 219.752 147.188 220.275 147.188ZM229.23 147.188C230.163 147.188 230.919 147.473 231.498 148.042C232.077 148.602 232.366 149.414 232.366 150.478V155H231.106V150.66C231.106 149.895 230.915 149.311 230.532 148.91C230.149 148.499 229.627 148.294 228.964 148.294C228.292 148.294 227.755 148.504 227.354 148.924C226.962 149.344 226.766 149.955 226.766 150.758V155H225.492V147.328H226.766V148.42C227.018 148.028 227.359 147.725 227.788 147.51C228.227 147.295 228.707 147.188 229.23 147.188ZM241.447 150.87C241.447 151.113 241.433 151.369 241.405 151.64H235.273C235.32 152.396 235.576 152.989 236.043 153.418C236.519 153.838 237.093 154.048 237.765 154.048C238.316 154.048 238.773 153.922 239.137 153.67C239.51 153.409 239.772 153.063 239.921 152.634H241.293C241.088 153.371 240.677 153.973 240.061 154.44C239.445 154.897 238.68 155.126 237.765 155.126C237.037 155.126 236.384 154.963 235.805 154.636C235.236 154.309 234.788 153.847 234.461 153.25C234.134 152.643 233.971 151.943 233.971 151.15C233.971 150.357 234.13 149.661 234.447 149.064C234.764 148.467 235.208 148.009 235.777 147.692C236.356 147.365 237.018 147.202 237.765 147.202C238.493 147.202 239.137 147.361 239.697 147.678C240.257 147.995 240.686 148.434 240.985 148.994C241.293 149.545 241.447 150.17 241.447 150.87ZM240.131 150.604C240.131 150.119 240.024 149.703 239.809 149.358C239.594 149.003 239.3 148.737 238.927 148.56C238.563 148.373 238.157 148.28 237.709 148.28C237.065 148.28 236.514 148.485 236.057 148.896C235.609 149.307 235.352 149.876 235.287 150.604H240.131ZM242.653 151.15C242.653 150.357 242.811 149.666 243.129 149.078C243.446 148.481 243.885 148.019 244.445 147.692C245.014 147.365 245.663 147.202 246.391 147.202C247.333 147.202 248.108 147.431 248.715 147.888C249.331 148.345 249.737 148.98 249.933 149.792H248.561C248.43 149.325 248.173 148.957 247.791 148.686C247.417 148.415 246.951 148.28 246.391 148.28C245.663 148.28 245.075 148.532 244.627 149.036C244.179 149.531 243.955 150.235 243.955 151.15C243.955 152.074 244.179 152.788 244.627 153.292C245.075 153.796 245.663 154.048 246.391 154.048C246.951 154.048 247.417 153.917 247.791 153.656C248.164 153.395 248.421 153.021 248.561 152.536H249.933C249.727 153.32 249.317 153.95 248.701 154.426C248.085 154.893 247.315 155.126 246.391 155.126C245.663 155.126 245.014 154.963 244.445 154.636C243.885 154.309 243.446 153.847 243.129 153.25C242.811 152.653 242.653 151.953 242.653 151.15ZM253.187 148.378V152.9C253.187 153.273 253.266 153.539 253.425 153.698C253.583 153.847 253.859 153.922 254.251 153.922H255.189V155H254.041C253.331 155 252.799 154.837 252.445 154.51C252.09 154.183 251.913 153.647 251.913 152.9V148.378H250.919V147.328H251.913V145.396H253.187V147.328H255.189V148.378H253.187ZM257.39 146.082C257.148 146.082 256.942 145.998 256.774 145.83C256.606 145.662 256.522 145.457 256.522 145.214C256.522 144.971 256.606 144.766 256.774 144.598C256.942 144.43 257.148 144.346 257.39 144.346C257.624 144.346 257.82 144.43 257.978 144.598C258.146 144.766 258.23 144.971 258.23 145.214C258.23 145.457 258.146 145.662 257.978 145.83C257.82 145.998 257.624 146.082 257.39 146.082ZM258.006 147.328V155H256.732V147.328H258.006ZM263.524 155.126C262.805 155.126 262.152 154.963 261.564 154.636C260.985 154.309 260.528 153.847 260.192 153.25C259.865 152.643 259.702 151.943 259.702 151.15C259.702 150.366 259.87 149.675 260.206 149.078C260.551 148.471 261.018 148.009 261.606 147.692C262.194 147.365 262.852 147.202 263.58 147.202C264.308 147.202 264.966 147.365 265.554 147.692C266.142 148.009 266.604 148.467 266.94 149.064C267.285 149.661 267.458 150.357 267.458 151.15C267.458 151.943 267.28 152.643 266.926 153.25C266.58 153.847 266.109 154.309 265.512 154.636C264.914 154.963 264.252 155.126 263.524 155.126ZM263.524 154.006C263.981 154.006 264.41 153.899 264.812 153.684C265.213 153.469 265.535 153.147 265.778 152.718C266.03 152.289 266.156 151.766 266.156 151.15C266.156 150.534 266.034 150.011 265.792 149.582C265.549 149.153 265.232 148.835 264.84 148.63C264.448 148.415 264.023 148.308 263.566 148.308C263.099 148.308 262.67 148.415 262.278 148.63C261.895 148.835 261.587 149.153 261.354 149.582C261.12 150.011 261.004 150.534 261.004 151.15C261.004 151.775 261.116 152.303 261.34 152.732C261.573 153.161 261.881 153.483 262.264 153.698C262.646 153.903 263.066 154.006 263.524 154.006ZM272.871 147.188C273.804 147.188 274.56 147.473 275.139 148.042C275.717 148.602 276.007 149.414 276.007 150.478V155H274.747V150.66C274.747 149.895 274.555 149.311 274.173 148.91C273.79 148.499 273.267 148.294 272.605 148.294C271.933 148.294 271.396 148.504 270.995 148.924C270.603 149.344 270.407 149.955 270.407 150.758V155H269.133V147.328H270.407V148.42C270.659 148.028 270.999 147.725 271.429 147.51C271.867 147.295 272.348 147.188 272.871 147.188Z" fill="black"/>
<rect x="8.5" y="191.5" width="81" height="39" rx="7.5" stroke="black" stroke-linejoin="round"/>
<path d="M27.688 212.6C27.688 211.693 27.8693 210.904 28.232 210.232C28.5947 209.549 29.096 209.021 29.736 208.648C30.3867 208.275 31.128 208.088 31.96 208.088C33.0373 208.088 33.9227 208.349 34.616 208.872C35.32 209.395 35.784 210.12 36.008 211.048H34.44C34.2907 210.515 33.9973 210.093 33.56 209.784C33.1333 209.475 32.6 209.32 31.96 209.32C31.128 209.32 30.456 209.608 29.944 210.184C29.432 210.749 29.176 211.555 29.176 212.6C29.176 213.656 29.432 214.472 29.944 215.048C30.456 215.624 31.128 215.912 31.96 215.912C32.6 215.912 33.1333 215.763 33.56 215.464C33.9867 215.165 34.28 214.739 34.44 214.184H36.008C35.7733 215.08 35.304 215.8 34.6 216.344C33.896 216.877 33.016 217.144 31.96 217.144C31.128 217.144 30.3867 216.957 29.736 216.584C29.096 216.211 28.5947 215.683 28.232 215C27.8693 214.317 27.688 213.517 27.688 212.6ZM39.4068 205.16V217H37.9508V205.16H39.4068ZM42.6403 206.808C42.3629 206.808 42.1283 206.712 41.9363 206.52C41.7443 206.328 41.6483 206.093 41.6483 205.816C41.6483 205.539 41.7443 205.304 41.9363 205.112C42.1283 204.92 42.3629 204.824 42.6403 204.824C42.9069 204.824 43.1309 204.92 43.3123 205.112C43.5043 205.304 43.6003 205.539 43.6003 205.816C43.6003 206.093 43.5043 206.328 43.3123 206.52C43.1309 206.712 42.9069 206.808 42.6403 206.808ZM43.3443 208.232V217H41.8883V208.232H43.3443ZM53.8258 212.28C53.8258 212.557 53.8098 212.851 53.7778 213.16H46.7698C46.8231 214.024 47.1164 214.701 47.6498 215.192C48.1938 215.672 48.8498 215.912 49.6178 215.912C50.2471 215.912 50.7698 215.768 51.1858 215.48C51.6124 215.181 51.9111 214.787 52.0818 214.296H53.6498C53.4151 215.139 52.9458 215.827 52.2418 216.36C51.5378 216.883 50.6631 217.144 49.6178 217.144C48.7858 217.144 48.0391 216.957 47.3778 216.584C46.7271 216.211 46.2151 215.683 45.8418 215C45.4684 214.307 45.2818 213.507 45.2818 212.6C45.2818 211.693 45.4631 210.899 45.8258 210.216C46.1884 209.533 46.6951 209.011 47.3458 208.648C48.0071 208.275 48.7644 208.088 49.6178 208.088C50.4498 208.088 51.1858 208.269 51.8258 208.632C52.4658 208.995 52.9564 209.496 53.2978 210.136C53.6498 210.765 53.8258 211.48 53.8258 212.28ZM52.3218 211.976C52.3218 211.421 52.1991 210.947 51.9538 210.552C51.7084 210.147 51.3724 209.843 50.9458 209.64C50.5298 209.427 50.0658 209.32 49.5538 209.32C48.8178 209.32 48.1884 209.555 47.6658 210.024C47.1538 210.493 46.8604 211.144 46.7858 211.976H52.3218ZM60.0196 208.072C61.0863 208.072 61.9503 208.397 62.6116 209.048C63.273 209.688 63.6036 210.616 63.6036 211.832V217H62.1636V212.04C62.1636 211.165 61.945 210.499 61.5076 210.04C61.0703 209.571 60.473 209.336 59.7156 209.336C58.9476 209.336 58.3343 209.576 57.8756 210.056C57.4276 210.536 57.2036 211.235 57.2036 212.152V217H55.7476V208.232H57.2036V209.48C57.4916 209.032 57.881 208.685 58.3716 208.44C58.873 208.195 59.4223 208.072 60.0196 208.072ZM67.758 209.432V214.6C67.758 215.027 67.8487 215.331 68.03 215.512C68.2113 215.683 68.526 215.768 68.974 215.768H70.046V217H68.734C67.9233 217 67.3153 216.813 66.91 216.44C66.5047 216.067 66.302 215.453 66.302 214.6V209.432H65.166V208.232H66.302V206.024H67.758V208.232H70.046V209.432H67.758Z" fill="black"/>
<path d="M187.384 111.923C187.894 111.711 188.135 111.126 187.923 110.616L184.466 102.306C184.254 101.796 183.669 101.555 183.159 101.767C182.649 101.979 182.407 102.565 182.619 103.075L185.693 110.461L178.306 113.534C177.796 113.746 177.555 114.331 177.767 114.841C177.979 115.351 178.565 115.593 179.075 115.381L187.384 111.923ZM89.6188 71.9245L186.619 111.924L187.381 110.076L90.3812 70.0755L89.6188 71.9245Z" fill="black"/>
<path d="M159.707 71.7071C160.098 71.3166 160.098 70.6834 159.707 70.2929L153.343 63.9289C152.953 63.5384 152.319 63.5384 151.929 63.9289C151.538 64.3195 151.538 64.9526 151.929 65.3431L157.586 71L151.929 76.6569C151.538 77.0474 151.538 77.6805 151.929 78.0711C152.319 78.4616 152.953 78.4616 153.343 78.0711L159.707 71.7071ZM90 72H159V70H90V72Z" fill="black"/>
<path d="M237.293 111.707C237.683 112.098 238.317 112.098 238.707 111.707L245.071 105.343C245.462 104.953 245.462 104.319 245.071 103.929C244.681 103.538 244.047 103.538 243.657 103.929L238 109.586L232.343 103.929C231.953 103.538 231.319 103.538 230.929 103.929C230.538 104.319 230.538 104.953 230.929 105.343L237.293 111.707ZM237 89L237 111L239 111L239 89L237 89Z" fill="black"/>
<path d="M237.293 194.707C237.683 195.098 238.317 195.098 238.707 194.707L245.071 188.343C245.462 187.953 245.462 187.319 245.071 186.929C244.681 186.538 244.047 186.538 243.657 186.929L238 192.586L232.343 186.929C231.953 186.538 231.319 186.538 230.929 186.929C230.538 187.319 230.538 187.953 230.929 188.343L237.293 194.707ZM237 169V194H239V169H237Z" fill="black"/>
<path d="M89.3021 210.284C88.9066 210.669 88.8984 211.302 89.2838 211.698L95.5646 218.144C95.95 218.539 96.5831 218.548 96.9787 218.162C97.3742 217.777 97.3824 217.144 96.997 216.748L91.4141 211.018L97.1439 205.435C97.5395 205.05 97.5477 204.417 97.1623 204.021C96.7769 203.626 96.1438 203.618 95.7482 204.003L89.3021 210.284ZM167.013 211L90.013 210L89.987 212L166.987 213L167.013 211Z" fill="black"/>
<path d="M49.7071 90.2929C49.3166 89.9024 48.6834 89.9024 48.2929 90.2929L41.9289 96.6569C41.5384 97.0474 41.5384 97.6805 41.9289 98.0711C42.3195 98.4616 42.9526 98.4616 43.3431 98.0711L49 92.4142L54.6568 98.0711C55.0474 98.4616 55.6805 98.4616 56.0711 98.0711C56.4616 97.6805 56.4616 97.0474 56.0711 96.6569L49.7071 90.2929ZM50 191L50 91L48 91L48 191L50 191Z" fill="black"/>
</g>
<defs>
<clipPath id="clip0_27_32">
<rect width="324" height="244" rx="8" fill="white"/>
</clipPath>
</defs>
</svg>
