<svg width="766" height="30" viewBox="0 0 766 30" fill="none" xmlns="http://www.w3.org/2000/svg">
<path d="M26.088 29.036C25.56 29.036 25.116 28.868 24.756 28.532C24.42 28.172 24.252 27.728 24.252 27.2V16.904C24.252 15.392 23.88 14.276 23.136 13.556C22.392 12.812 21.42 12.44 20.22 12.44C18.972 12.44 17.94 12.872 17.124 13.736C16.332 14.6 15.936 15.704 15.936 17.048H12.948C12.948 15.488 13.284 14.12 13.956 12.944C14.628 11.744 15.564 10.808 16.764 10.136C17.988 9.464 19.38 9.128 20.94 9.128C22.308 9.128 23.52 9.428 24.576 10.028C25.632 10.628 26.448 11.516 27.024 12.692C27.624 13.844 27.924 15.248 27.924 16.904V27.2C27.924 27.728 27.756 28.172 27.42 28.532C27.084 28.868 26.64 29.036 26.088 29.036ZM2.076 29.036C1.548 29.036 1.104 28.868 0.744 28.532C0.408 28.172 0.24 27.728 0.24 27.2V11.18C0.24 10.628 0.408 10.184 0.744 9.848C1.104 9.512 1.548 9.344 2.076 9.344C2.628 9.344 3.072 9.512 3.408 9.848C3.744 10.184 3.912 10.628 3.912 11.18V27.2C3.912 27.728 3.744 28.172 3.408 28.532C3.072 28.868 2.628 29.036 2.076 29.036ZM14.1 29.036C13.572 29.036 13.128 28.868 12.768 28.532C12.432 28.172 12.264 27.728 12.264 27.2V16.904C12.264 15.392 11.892 14.276 11.148 13.556C10.404 12.812 9.432 12.44 8.232 12.44C6.984 12.44 5.952 12.872 5.136 13.736C4.32 14.6 3.912 15.704 3.912 17.048H1.644C1.644 15.488 1.956 14.12 2.58 12.944C3.204 11.744 4.068 10.808 5.172 10.136C6.276 9.464 7.536 9.128 8.952 9.128C10.32 9.128 11.532 9.428 12.588 10.028C13.644 10.628 14.46 11.516 15.036 12.692C15.636 13.844 15.936 15.248 15.936 16.904V27.2C15.936 27.728 15.768 28.172 15.432 28.532C15.096 28.868 14.652 29.036 14.1 29.036ZM42.2332 29.144C40.4812 29.144 38.9092 28.712 37.5172 27.848C36.1252 26.96 35.0212 25.772 34.2052 24.284C33.4132 22.772 33.0172 21.068 33.0172 19.172C33.0172 17.276 33.4492 15.572 34.3132 14.06C35.2012 12.548 36.3892 11.36 37.8772 10.496C39.3892 9.608 41.0812 9.164 42.9532 9.164C44.8252 9.164 46.5052 9.608 47.9932 10.496C49.4812 11.36 50.6572 12.548 51.5212 14.06C52.4092 15.572 52.8532 17.276 52.8532 19.172H51.4492C51.4492 21.068 51.0412 22.772 50.2252 24.284C49.4332 25.772 48.3412 26.96 46.9492 27.848C45.5572 28.712 43.9852 29.144 42.2332 29.144ZM42.9532 25.904C44.1772 25.904 45.2692 25.616 46.2292 25.04C47.1892 24.44 47.9452 23.636 48.4972 22.628C49.0492 21.596 49.3252 20.444 49.3252 19.172C49.3252 17.876 49.0492 16.724 48.4972 15.716C47.9452 14.684 47.1892 13.88 46.2292 13.304C45.2692 12.704 44.1772 12.404 42.9532 12.404C41.7532 12.404 40.6612 12.704 39.6772 13.304C38.7172 13.88 37.9492 14.684 37.3732 15.716C36.8212 16.724 36.5452 17.876 36.5452 19.172C36.5452 20.444 36.8212 21.596 37.3732 22.628C37.9492 23.636 38.7172 24.44 39.6772 25.04C40.6612 25.616 41.7532 25.904 42.9532 25.904ZM51.0172 29.036C50.4892 29.036 50.0452 28.868 49.6852 28.532C49.3492 28.172 49.1812 27.728 49.1812 27.2V21.692L49.8652 17.876L52.8532 19.172V27.2C52.8532 27.728 52.6732 28.172 52.3132 28.532C51.9772 28.868 51.5452 29.036 51.0172 29.036ZM67.2461 29.144C65.3261 29.144 63.6101 28.712 62.0981 27.848C60.6101 26.96 59.4341 25.772 58.5701 24.284C57.7301 22.772 57.3101 21.068 57.3101 19.172C57.3101 17.228 57.7301 15.5 58.5701 13.988C59.4101 12.476 60.5621 11.3 62.0261 10.46C63.4901 9.596 65.1701 9.164 67.0661 9.164C68.4821 9.164 69.7781 9.44 70.9541 9.992C72.1301 10.52 73.1861 11.324 74.1221 12.404C74.4581 12.788 74.5781 13.184 74.4821 13.592C74.3861 14 74.1221 14.36 73.6901 14.672C73.3541 14.912 72.9821 14.996 72.5741 14.924C72.1661 14.828 71.7941 14.612 71.4581 14.276C70.2821 13.028 68.8181 12.404 67.0661 12.404C65.8421 12.404 64.7621 12.692 63.8261 13.268C62.8901 13.82 62.1581 14.6 61.6301 15.608C61.1021 16.616 60.8381 17.804 60.8381 19.172C60.8381 20.468 61.1021 21.62 61.6301 22.628C62.1821 23.636 62.9381 24.44 63.8981 25.04C64.8581 25.616 65.9741 25.904 67.2461 25.904C68.0861 25.904 68.8181 25.808 69.4421 25.616C70.0901 25.4 70.6781 25.076 71.2061 24.644C71.5901 24.332 71.9861 24.164 72.3941 24.14C72.8021 24.092 73.1621 24.2 73.4741 24.464C73.8821 24.8 74.1101 25.184 74.1581 25.616C74.2061 26.024 74.0621 26.396 73.7261 26.732C71.9981 28.34 69.8381 29.144 67.2461 29.144ZM81.7032 16.688C81.7032 15.248 82.0512 13.964 82.7472 12.836C83.4672 11.684 84.4272 10.772 85.6272 10.1C86.8272 9.428 88.1472 9.092 89.5872 9.092C91.0272 9.092 92.0952 9.332 92.7912 9.812C93.5112 10.268 93.7872 10.82 93.6192 11.468C93.5472 11.804 93.4032 12.068 93.1872 12.26C92.9952 12.428 92.7672 12.536 92.5032 12.584C92.2392 12.632 91.9512 12.62 91.6392 12.548C90.1032 12.236 88.7232 12.212 87.4992 12.476C86.2752 12.74 85.3032 13.232 84.5832 13.952C83.8872 14.672 83.5392 15.584 83.5392 16.688H81.7032ZM81.7392 29C81.1632 29 80.7192 28.856 80.4072 28.568C80.0952 28.256 79.9392 27.8 79.9392 27.2V11.108C79.9392 10.532 80.0952 10.088 80.4072 9.776C80.7192 9.464 81.1632 9.308 81.7392 9.308C82.3392 9.308 82.7832 9.464 83.0712 9.776C83.3832 10.064 83.5392 10.508 83.5392 11.108V27.2C83.5392 27.776 83.3832 28.22 83.0712 28.532C82.7832 28.844 82.3392 29 81.7392 29ZM104.934 29.144C102.99 29.144 101.274 28.724 99.7856 27.884C98.2976 27.02 97.1216 25.844 96.2576 24.356C95.4176 22.844 94.9976 21.116 94.9976 19.172C94.9976 17.204 95.4176 15.476 96.2576 13.988C97.1216 12.476 98.2976 11.3 99.7856 10.46C101.274 9.596 102.99 9.164 104.934 9.164C106.854 9.164 108.558 9.596 110.046 10.46C111.534 11.3 112.698 12.476 113.538 13.988C114.402 15.476 114.834 17.204 114.834 19.172C114.834 21.116 114.414 22.844 113.574 24.356C112.734 25.844 111.57 27.02 110.082 27.884C108.594 28.724 106.878 29.144 104.934 29.144ZM104.934 25.904C106.182 25.904 107.286 25.616 108.246 25.04C109.206 24.464 109.95 23.672 110.478 22.664C111.03 21.656 111.306 20.492 111.306 19.172C111.306 17.852 111.03 16.688 110.478 15.68C109.95 14.648 109.206 13.844 108.246 13.268C107.286 12.692 106.182 12.404 104.934 12.404C103.686 12.404 102.582 12.692 101.622 13.268C100.662 13.844 99.9056 14.648 99.3536 15.68C98.8016 16.688 98.5256 17.852 98.5256 19.172C98.5256 20.492 98.8016 21.656 99.3536 22.664C99.9056 23.672 100.662 24.464 101.622 25.04C102.582 25.616 103.686 25.904 104.934 25.904ZM120.191 20.972C119.663 20.972 119.219 20.804 118.859 20.468C118.523 20.132 118.355 19.7 118.355 19.172C118.355 18.62 118.523 18.176 118.859 17.84C119.219 17.504 119.663 17.336 120.191 17.336H128.219C128.747 17.336 129.179 17.504 129.515 17.84C129.851 18.176 130.019 18.62 130.019 19.172C130.019 19.7 129.851 20.132 129.515 20.468C129.179 20.804 128.747 20.972 128.219 20.972H120.191ZM142.938 29.144C140.994 29.144 139.278 28.724 137.79 27.884C136.302 27.02 135.126 25.844 134.262 24.356C133.422 22.844 133.002 21.116 133.002 19.172C133.002 17.204 133.422 15.476 134.262 13.988C135.126 12.476 136.302 11.3 137.79 10.46C139.278 9.596 140.994 9.164 142.938 9.164C144.858 9.164 146.562 9.596 148.05 10.46C149.538 11.3 150.702 12.476 151.542 13.988C152.406 15.476 152.838 17.204 152.838 19.172C152.838 21.116 152.418 22.844 151.578 24.356C150.738 25.844 149.574 27.02 148.086 27.884C146.598 28.724 144.882 29.144 142.938 29.144ZM142.938 25.904C144.186 25.904 145.29 25.616 146.25 25.04C147.21 24.464 147.954 23.672 148.482 22.664C149.034 21.656 149.31 20.492 149.31 19.172C149.31 17.852 149.034 16.688 148.482 15.68C147.954 14.648 147.21 13.844 146.25 13.268C145.29 12.692 144.186 12.404 142.938 12.404C141.69 12.404 140.586 12.692 139.626 13.268C138.666 13.844 137.91 14.648 137.358 15.68C136.806 16.688 136.53 17.852 136.53 19.172C136.53 20.492 136.806 21.656 137.358 22.664C137.91 23.672 138.666 24.464 139.626 25.04C140.586 25.616 141.69 25.904 142.938 25.904ZM160.067 16.688C160.067 15.248 160.415 13.964 161.111 12.836C161.831 11.684 162.791 10.772 163.991 10.1C165.191 9.428 166.511 9.092 167.951 9.092C169.391 9.092 170.459 9.332 171.155 9.812C171.875 10.268 172.151 10.82 171.983 11.468C171.911 11.804 171.767 12.068 171.551 12.26C171.359 12.428 171.131 12.536 170.867 12.584C170.603 12.632 170.315 12.62 170.003 12.548C168.467 12.236 167.087 12.212 165.863 12.476C164.639 12.74 163.667 13.232 162.947 13.952C162.251 14.672 161.903 15.584 161.903 16.688H160.067ZM160.103 29C159.527 29 159.083 28.856 158.771 28.568C158.459 28.256 158.303 27.8 158.303 27.2V11.108C158.303 10.532 158.459 10.088 158.771 9.776C159.083 9.464 159.527 9.308 160.103 9.308C160.703 9.308 161.147 9.464 161.435 9.776C161.747 10.064 161.903 10.508 161.903 11.108V27.2C161.903 27.776 161.747 28.22 161.435 28.532C161.147 28.844 160.703 29 160.103 29ZM178.006 29C177.478 29 177.034 28.832 176.674 28.496C176.338 28.136 176.17 27.692 176.17 27.164V11.144C176.17 10.592 176.338 10.148 176.674 9.812C177.034 9.476 177.478 9.308 178.006 9.308C178.558 9.308 179.002 9.476 179.338 9.812C179.674 10.148 179.842 10.592 179.842 11.144V27.164C179.842 27.692 179.674 28.136 179.338 28.496C179.002 28.832 178.558 29 178.006 29ZM178.006 6.104C177.358 6.104 176.794 5.876 176.314 5.42C175.858 4.94 175.63 4.376 175.63 3.728C175.63 3.08 175.858 2.528 176.314 2.072C176.794 1.592 177.358 1.352 178.006 1.352C178.654 1.352 179.206 1.592 179.662 2.072C180.142 2.528 180.382 3.08 180.382 3.728C180.382 4.376 180.142 4.94 179.662 5.42C179.206 5.876 178.654 6.104 178.006 6.104ZM195.926 29.144C193.934 29.144 192.158 28.724 190.598 27.884C189.062 27.02 187.85 25.844 186.962 24.356C186.098 22.844 185.666 21.116 185.666 19.172C185.666 17.204 186.074 15.476 186.89 13.988C187.73 12.476 188.882 11.3 190.346 10.46C191.81 9.596 193.49 9.164 195.386 9.164C197.258 9.164 198.866 9.584 200.21 10.424C201.554 11.24 202.574 12.38 203.27 13.844C203.99 15.284 204.35 16.952 204.35 18.848C204.35 19.304 204.194 19.688 203.882 20C203.57 20.288 203.174 20.432 202.694 20.432H188.186V17.552H202.586L201.11 18.56C201.086 17.36 200.846 16.292 200.39 15.356C199.934 14.396 199.286 13.64 198.446 13.088C197.606 12.536 196.586 12.26 195.386 12.26C194.018 12.26 192.842 12.56 191.858 13.16C190.898 13.76 190.166 14.588 189.662 15.644C189.158 16.676 188.906 17.852 188.906 19.172C188.906 20.492 189.206 21.668 189.806 22.7C190.406 23.732 191.234 24.548 192.29 25.148C193.346 25.748 194.558 26.048 195.926 26.048C196.67 26.048 197.426 25.916 198.194 25.652C198.986 25.364 199.622 25.04 200.102 24.68C200.462 24.416 200.846 24.284 201.254 24.284C201.686 24.26 202.058 24.38 202.37 24.644C202.778 25.004 202.994 25.4 203.018 25.832C203.042 26.264 202.85 26.636 202.442 26.948C201.626 27.596 200.606 28.124 199.382 28.532C198.182 28.94 197.03 29.144 195.926 29.144ZM225.665 29.036C225.137 29.036 224.693 28.868 224.333 28.532C223.997 28.172 223.829 27.728 223.829 27.2V18.344C223.829 16.976 223.577 15.86 223.073 14.996C222.569 14.132 221.885 13.496 221.021 13.088C220.181 12.656 219.209 12.44 218.105 12.44C217.097 12.44 216.185 12.644 215.369 13.052C214.553 13.46 213.905 14.012 213.425 14.708C212.945 15.38 212.705 16.16 212.705 17.048H210.437C210.437 15.536 210.797 14.192 211.517 13.016C212.261 11.816 213.269 10.868 214.541 10.172C215.813 9.476 217.241 9.128 218.825 9.128C220.481 9.128 221.957 9.488 223.253 10.208C224.573 10.904 225.605 11.936 226.349 13.304C227.117 14.672 227.501 16.352 227.501 18.344V27.2C227.501 27.728 227.321 28.172 226.961 28.532C226.625 28.868 226.193 29.036 225.665 29.036ZM210.869 29.036C210.341 29.036 209.897 28.868 209.537 28.532C209.201 28.172 209.033 27.728 209.033 27.2V11.144C209.033 10.592 209.201 10.148 209.537 9.812C209.897 9.476 210.341 9.308 210.869 9.308C211.421 9.308 211.865 9.476 212.201 9.812C212.537 10.148 212.705 10.592 212.705 11.144V27.2C212.705 27.728 212.537 28.172 212.201 28.532C211.865 28.868 211.421 29.036 210.869 29.036ZM240.736 29C239.536 29 238.456 28.7 237.496 28.1C236.536 27.476 235.78 26.636 235.228 25.58C234.676 24.524 234.4 23.336 234.4 22.016V4.844C234.4 4.316 234.568 3.884 234.904 3.548C235.24 3.212 235.672 3.044 236.2 3.044C236.728 3.044 237.16 3.212 237.496 3.548C237.832 3.884 238 4.316 238 4.844V22.016C238 22.976 238.264 23.78 238.792 24.428C239.32 25.076 239.968 25.4 240.736 25.4H241.96C242.392 25.4 242.752 25.568 243.04 25.904C243.352 26.24 243.508 26.672 243.508 27.2C243.508 27.728 243.304 28.16 242.896 28.496C242.512 28.832 242.008 29 241.384 29H240.736ZM232.744 13.124C232.24 13.124 231.832 12.98 231.52 12.692C231.208 12.404 231.052 12.044 231.052 11.612C231.052 11.132 231.208 10.748 231.52 10.46C231.832 10.172 232.24 10.028 232.744 10.028H241.06C241.564 10.028 241.972 10.172 242.284 10.46C242.596 10.748 242.752 11.132 242.752 11.612C242.752 12.044 242.596 12.404 242.284 12.692C241.972 12.98 241.564 13.124 241.06 13.124H232.744ZM257.273 29.144C255.281 29.144 253.505 28.724 251.945 27.884C250.409 27.02 249.197 25.844 248.309 24.356C247.445 22.844 247.013 21.116 247.013 19.172C247.013 17.204 247.421 15.476 248.237 13.988C249.077 12.476 250.229 11.3 251.693 10.46C253.157 9.596 254.837 9.164 256.733 9.164C258.605 9.164 260.213 9.584 261.557 10.424C262.901 11.24 263.921 12.38 264.617 13.844C265.337 15.284 265.697 16.952 265.697 18.848C265.697 19.304 265.541 19.688 265.229 20C264.917 20.288 264.521 20.432 264.041 20.432H249.533V17.552H263.933L262.457 18.56C262.433 17.36 262.193 16.292 261.737 15.356C261.281 14.396 260.633 13.64 259.793 13.088C258.953 12.536 257.933 12.26 256.733 12.26C255.365 12.26 254.189 12.56 253.205 13.16C252.245 13.76 251.513 14.588 251.009 15.644C250.505 16.676 250.253 17.852 250.253 19.172C250.253 20.492 250.553 21.668 251.153 22.7C251.753 23.732 252.581 24.548 253.637 25.148C254.693 25.748 255.905 26.048 257.273 26.048C258.017 26.048 258.773 25.916 259.541 25.652C260.333 25.364 260.969 25.04 261.449 24.68C261.809 24.416 262.193 24.284 262.601 24.284C263.033 24.26 263.405 24.38 263.717 24.644C264.125 25.004 264.341 25.4 264.365 25.832C264.389 26.264 264.197 26.636 263.789 26.948C262.973 27.596 261.953 28.124 260.729 28.532C259.529 28.94 258.377 29.144 257.273 29.144ZM278.606 29.144C276.734 29.144 275.042 28.712 273.53 27.848C272.042 26.96 270.854 25.76 269.966 24.248C269.102 22.736 268.67 21.032 268.67 19.136C268.67 17.24 269.066 15.548 269.858 14.06C270.674 12.548 271.778 11.36 273.17 10.496C274.562 9.608 276.134 9.164 277.886 9.164C279.302 9.164 280.61 9.464 281.81 10.064C283.01 10.64 284.018 11.432 284.834 12.44V2.72C284.834 2.168 285.002 1.724 285.338 1.388C285.698 1.052 286.142 0.883999 286.67 0.883999C287.222 0.883999 287.666 1.052 288.002 1.388C288.338 1.724 288.506 2.168 288.506 2.72V19.136C288.506 21.032 288.062 22.736 287.174 24.248C286.31 25.76 285.134 26.96 283.646 27.848C282.158 28.712 280.478 29.144 278.606 29.144ZM278.606 25.904C279.83 25.904 280.922 25.616 281.882 25.04C282.842 24.44 283.598 23.624 284.15 22.592C284.702 21.56 284.978 20.408 284.978 19.136C284.978 17.84 284.702 16.688 284.15 15.68C283.598 14.672 282.842 13.88 281.882 13.304C280.922 12.704 279.83 12.404 278.606 12.404C277.406 12.404 276.314 12.704 275.33 13.304C274.37 13.88 273.602 14.672 273.026 15.68C272.474 16.688 272.198 17.84 272.198 19.136C272.198 20.408 272.474 21.56 273.026 22.592C273.602 23.624 274.37 24.44 275.33 25.04C276.314 25.616 277.406 25.904 278.606 25.904ZM307.661 29C307.205 29 306.797 28.832 306.437 28.496C306.077 28.16 305.897 27.716 305.897 27.164V9.416C305.897 7.688 306.233 6.188 306.905 4.916C307.601 3.644 308.561 2.66 309.785 1.964C311.009 1.244 312.425 0.883999 314.033 0.883999C314.561 0.883999 314.993 1.04 315.329 1.352C315.689 1.664 315.869 2.06 315.869 2.54C315.869 2.996 315.689 3.392 315.329 3.728C314.993 4.04 314.561 4.196 314.033 4.196C313.145 4.196 312.365 4.4 311.693 4.808C311.021 5.216 310.493 5.78 310.109 6.5C309.749 7.22 309.569 8.072 309.569 9.056V27.164C309.569 27.716 309.401 28.16 309.065 28.496C308.729 28.832 308.261 29 307.661 29ZM304.349 13.124C303.845 13.124 303.437 12.98 303.125 12.692C302.813 12.404 302.657 12.044 302.657 11.612C302.657 11.132 302.813 10.748 303.125 10.46C303.437 10.172 303.845 10.028 304.349 10.028H313.241C313.745 10.028 314.153 10.172 314.465 10.46C314.777 10.748 314.933 11.132 314.933 11.612C314.933 12.044 314.777 12.404 314.465 12.692C314.153 12.98 313.745 13.124 313.241 13.124H304.349ZM327.036 29.18C325.38 29.18 323.892 28.832 322.572 28.136C321.276 27.416 320.244 26.372 319.476 25.004C318.732 23.636 318.36 21.956 318.36 19.964V11.108C318.36 10.58 318.528 10.148 318.864 9.812C319.224 9.452 319.668 9.272 320.196 9.272C320.724 9.272 321.156 9.452 321.492 9.812C321.852 10.148 322.032 10.58 322.032 11.108V19.964C322.032 21.308 322.284 22.424 322.788 23.312C323.292 24.176 323.976 24.824 324.84 25.256C325.704 25.664 326.676 25.868 327.756 25.868C328.788 25.868 329.7 25.664 330.492 25.256C331.308 24.848 331.956 24.296 332.436 23.6C332.916 22.904 333.156 22.124 333.156 21.26H335.424C335.424 22.748 335.052 24.092 334.308 25.292C333.588 26.492 332.592 27.44 331.32 28.136C330.072 28.832 328.644 29.18 327.036 29.18ZM334.992 29C334.464 29 334.02 28.832 333.66 28.496C333.324 28.136 333.156 27.692 333.156 27.164V11.108C333.156 10.556 333.324 10.112 333.66 9.776C334.02 9.44 334.464 9.272 334.992 9.272C335.544 9.272 335.988 9.44 336.324 9.776C336.66 10.112 336.828 10.556 336.828 11.108V27.164C336.828 27.692 336.66 28.136 336.324 28.496C335.988 28.832 335.544 29 334.992 29ZM347.975 29C346.919 29 345.983 28.712 345.167 28.136C344.351 27.56 343.715 26.78 343.259 25.796C342.803 24.788 342.575 23.636 342.575 22.34V2.684C342.575 2.156 342.743 1.724 343.079 1.388C343.415 1.052 343.847 0.883999 344.375 0.883999C344.903 0.883999 345.335 1.052 345.671 1.388C346.007 1.724 346.175 2.156 346.175 2.684V22.34C346.175 23.228 346.343 23.96 346.679 24.536C347.015 25.112 347.447 25.4 347.975 25.4H348.875C349.355 25.4 349.739 25.568 350.027 25.904C350.339 26.24 350.495 26.672 350.495 27.2C350.495 27.728 350.267 28.16 349.811 28.496C349.355 28.832 348.767 29 348.047 29H347.975ZM358.768 29C357.712 29 356.776 28.712 355.96 28.136C355.144 27.56 354.508 26.78 354.052 25.796C353.596 24.788 353.368 23.636 353.368 22.34V2.684C353.368 2.156 353.536 1.724 353.872 1.388C354.208 1.052 354.64 0.883999 355.168 0.883999C355.696 0.883999 356.128 1.052 356.464 1.388C356.8 1.724 356.968 2.156 356.968 2.684V22.34C356.968 23.228 357.136 23.96 357.472 24.536C357.808 25.112 358.24 25.4 358.768 25.4H359.668C360.148 25.4 360.532 25.568 360.82 25.904C361.132 26.24 361.288 26.672 361.288 27.2C361.288 27.728 361.06 28.16 360.604 28.496C360.148 28.832 359.56 29 358.84 29H358.768ZM364.773 20.972C364.245 20.972 363.801 20.804 363.441 20.468C363.105 20.132 362.937 19.7 362.937 19.172C362.937 18.62 363.105 18.176 363.441 17.84C363.801 17.504 364.245 17.336 364.773 17.336H372.801C373.329 17.336 373.761 17.504 374.097 17.84C374.433 18.176 374.601 18.62 374.601 19.172C374.601 19.7 374.433 20.132 374.097 20.468C373.761 20.804 373.329 20.972 372.801 20.972H364.773ZM386.107 29.144C384.427 29.144 382.867 28.892 381.427 28.388C380.011 27.86 378.907 27.2 378.115 26.408C377.755 26.024 377.599 25.592 377.647 25.112C377.719 24.608 377.959 24.2 378.367 23.888C378.847 23.504 379.315 23.348 379.771 23.42C380.251 23.468 380.659 23.672 380.995 24.032C381.403 24.488 382.051 24.92 382.939 25.328C383.851 25.712 384.859 25.904 385.963 25.904C387.355 25.904 388.411 25.676 389.131 25.22C389.875 24.764 390.259 24.176 390.283 23.456C390.307 22.736 389.959 22.112 389.239 21.584C388.543 21.056 387.259 20.624 385.387 20.288C382.963 19.808 381.199 19.088 380.095 18.128C379.015 17.168 378.475 15.992 378.475 14.6C378.475 13.376 378.835 12.368 379.555 11.576C380.275 10.76 381.199 10.16 382.327 9.776C383.455 9.368 384.631 9.164 385.855 9.164C387.439 9.164 388.843 9.416 390.067 9.92C391.291 10.424 392.263 11.12 392.983 12.008C393.319 12.392 393.475 12.8 393.451 13.232C393.427 13.64 393.223 13.988 392.839 14.276C392.455 14.54 391.999 14.624 391.471 14.528C390.943 14.432 390.499 14.216 390.139 13.88C389.539 13.304 388.891 12.908 388.195 12.692C387.499 12.476 386.695 12.368 385.783 12.368C384.727 12.368 383.827 12.548 383.083 12.908C382.363 13.268 382.003 13.796 382.003 14.492C382.003 14.924 382.111 15.32 382.327 15.68C382.567 16.016 383.023 16.328 383.695 16.616C384.367 16.88 385.351 17.144 386.647 17.408C388.447 17.768 389.863 18.224 390.895 18.776C391.951 19.328 392.707 19.976 393.163 20.72C393.619 21.44 393.847 22.28 393.847 23.24C393.847 24.344 393.547 25.34 392.947 26.228C392.371 27.116 391.507 27.824 390.355 28.352C389.227 28.88 387.811 29.144 386.107 29.144ZM405.654 29C404.454 29 403.374 28.7 402.414 28.1C401.454 27.476 400.698 26.636 400.146 25.58C399.594 24.524 399.318 23.336 399.318 22.016V4.844C399.318 4.316 399.486 3.884 399.822 3.548C400.158 3.212 400.59 3.044 401.118 3.044C401.646 3.044 402.078 3.212 402.414 3.548C402.75 3.884 402.918 4.316 402.918 4.844V22.016C402.918 22.976 403.182 23.78 403.71 24.428C404.238 25.076 404.886 25.4 405.654 25.4H406.878C407.31 25.4 407.67 25.568 407.958 25.904C408.27 26.24 408.426 26.672 408.426 27.2C408.426 27.728 408.222 28.16 407.814 28.496C407.43 28.832 406.926 29 406.302 29H405.654ZM397.662 13.124C397.158 13.124 396.75 12.98 396.438 12.692C396.126 12.404 395.97 12.044 395.97 11.612C395.97 11.132 396.126 10.748 396.438 10.46C396.75 10.172 397.158 10.028 397.662 10.028H405.978C406.482 10.028 406.89 10.172 407.202 10.46C407.514 10.748 407.67 11.132 407.67 11.612C407.67 12.044 407.514 12.404 407.202 12.692C406.89 12.98 406.482 13.124 405.978 13.124H397.662ZM421.147 29.144C419.395 29.144 417.823 28.712 416.431 27.848C415.039 26.96 413.935 25.772 413.119 24.284C412.327 22.772 411.931 21.068 411.931 19.172C411.931 17.276 412.363 15.572 413.227 14.06C414.115 12.548 415.303 11.36 416.791 10.496C418.303 9.608 419.995 9.164 421.867 9.164C423.739 9.164 425.419 9.608 426.907 10.496C428.395 11.36 429.571 12.548 430.435 14.06C431.323 15.572 431.767 17.276 431.767 19.172H430.363C430.363 21.068 429.955 22.772 429.139 24.284C428.347 25.772 427.255 26.96 425.863 27.848C424.471 28.712 422.899 29.144 421.147 29.144ZM421.867 25.904C423.091 25.904 424.183 25.616 425.143 25.04C426.103 24.44 426.859 23.636 427.411 22.628C427.963 21.596 428.239 20.444 428.239 19.172C428.239 17.876 427.963 16.724 427.411 15.716C426.859 14.684 426.103 13.88 425.143 13.304C424.183 12.704 423.091 12.404 421.867 12.404C420.667 12.404 419.575 12.704 418.591 13.304C417.631 13.88 416.863 14.684 416.287 15.716C415.735 16.724 415.459 17.876 415.459 19.172C415.459 20.444 415.735 21.596 416.287 22.628C416.863 23.636 417.631 24.44 418.591 25.04C419.575 25.616 420.667 25.904 421.867 25.904ZM429.931 29.036C429.403 29.036 428.959 28.868 428.599 28.532C428.263 28.172 428.095 27.728 428.095 27.2V21.692L428.779 17.876L431.767 19.172V27.2C431.767 27.728 431.587 28.172 431.227 28.532C430.891 28.868 430.459 29.036 429.931 29.036ZM446.16 29.144C444.24 29.144 442.524 28.712 441.012 27.848C439.524 26.96 438.348 25.772 437.484 24.284C436.644 22.772 436.224 21.068 436.224 19.172C436.224 17.228 436.644 15.5 437.484 13.988C438.324 12.476 439.476 11.3 440.94 10.46C442.404 9.596 444.084 9.164 445.98 9.164C447.396 9.164 448.692 9.44 449.868 9.992C451.044 10.52 452.1 11.324 453.036 12.404C453.372 12.788 453.492 13.184 453.396 13.592C453.3 14 453.036 14.36 452.604 14.672C452.268 14.912 451.896 14.996 451.488 14.924C451.08 14.828 450.708 14.612 450.372 14.276C449.196 13.028 447.732 12.404 445.98 12.404C444.756 12.404 443.676 12.692 442.74 13.268C441.804 13.82 441.072 14.6 440.544 15.608C440.016 16.616 439.752 17.804 439.752 19.172C439.752 20.468 440.016 21.62 440.544 22.628C441.096 23.636 441.852 24.44 442.812 25.04C443.772 25.616 444.888 25.904 446.16 25.904C447 25.904 447.732 25.808 448.356 25.616C449.004 25.4 449.592 25.076 450.12 24.644C450.504 24.332 450.9 24.164 451.308 24.14C451.716 24.092 452.076 24.2 452.388 24.464C452.796 24.8 453.024 25.184 453.072 25.616C453.12 26.024 452.976 26.396 452.64 26.732C450.912 28.34 448.752 29.144 446.16 29.144ZM462.309 21.8L460.077 19.352L471.129 9.488C471.489 9.152 471.885 8.996 472.317 9.02C472.773 9.044 473.157 9.236 473.469 9.596C473.805 9.956 473.961 10.352 473.937 10.784C473.913 11.216 473.721 11.6 473.361 11.936L462.309 21.8ZM460.617 29C460.089 29 459.657 28.844 459.321 28.532C459.009 28.196 458.853 27.764 458.853 27.236V2.648C458.853 2.12 459.009 1.7 459.321 1.388C459.657 1.052 460.089 0.883999 460.617 0.883999C461.145 0.883999 461.565 1.052 461.877 1.388C462.213 1.7 462.381 2.12 462.381 2.648V27.236C462.381 27.764 462.213 28.196 461.877 28.532C461.565 28.844 461.145 29 460.617 29ZM473.469 28.82C473.085 29.132 472.653 29.264 472.173 29.216C471.717 29.192 471.333 28.988 471.021 28.604L463.713 19.568L466.233 17.192L473.721 26.408C474.033 26.792 474.165 27.212 474.117 27.668C474.093 28.1 473.877 28.484 473.469 28.82ZM494.432 29C494.048 29 493.688 28.892 493.352 28.676C493.04 28.436 492.824 28.148 492.704 27.812L487.376 11.828C487.184 11.084 487.184 10.484 487.376 10.028C487.592 9.548 488.048 9.308 488.744 9.308C489.2 9.308 489.572 9.44 489.86 9.704C490.172 9.944 490.424 10.364 490.616 10.964L495.152 25.148H493.892L498.176 10.676C498.296 10.268 498.5 9.944 498.788 9.704C499.076 9.44 499.472 9.308 499.976 9.308C500.456 9.308 500.84 9.44 501.128 9.704C501.44 9.944 501.644 10.268 501.74 10.676L505.232 24.284H504.692L508.94 10.964C509.276 9.86 509.9 9.308 510.812 9.308C511.484 9.308 511.94 9.548 512.18 10.028C512.42 10.484 512.408 11.084 512.144 11.828L506.816 27.812C506.72 28.148 506.516 28.436 506.204 28.676C505.892 28.892 505.532 29 505.124 29C504.74 29 504.38 28.892 504.044 28.676C503.708 28.436 503.492 28.148 503.396 27.812L499.688 14.096H500.048L496.16 27.812C496.064 28.148 495.848 28.436 495.512 28.676C495.2 28.892 494.84 29 494.432 29ZM524.637 29.144C522.645 29.144 520.869 28.724 519.309 27.884C517.773 27.02 516.561 25.844 515.673 24.356C514.809 22.844 514.377 21.116 514.377 19.172C514.377 17.204 514.785 15.476 515.601 13.988C516.441 12.476 517.593 11.3 519.057 10.46C520.521 9.596 522.201 9.164 524.097 9.164C525.969 9.164 527.577 9.584 528.921 10.424C530.265 11.24 531.285 12.38 531.981 13.844C532.701 15.284 533.061 16.952 533.061 18.848C533.061 19.304 532.905 19.688 532.593 20C532.281 20.288 531.885 20.432 531.405 20.432H516.897V17.552H531.297L529.821 18.56C529.797 17.36 529.557 16.292 529.101 15.356C528.645 14.396 527.997 13.64 527.157 13.088C526.317 12.536 525.297 12.26 524.097 12.26C522.729 12.26 521.553 12.56 520.569 13.16C519.609 13.76 518.877 14.588 518.373 15.644C517.869 16.676 517.617 17.852 517.617 19.172C517.617 20.492 517.917 21.668 518.517 22.7C519.117 23.732 519.945 24.548 521.001 25.148C522.057 25.748 523.269 26.048 524.637 26.048C525.381 26.048 526.137 25.916 526.905 25.652C527.697 25.364 528.333 25.04 528.813 24.68C529.173 24.416 529.557 24.284 529.965 24.284C530.397 24.26 530.769 24.38 531.081 24.644C531.489 25.004 531.705 25.4 531.729 25.832C531.753 26.264 531.561 26.636 531.153 26.948C530.337 27.596 529.317 28.124 528.093 28.532C526.893 28.94 525.741 29.144 524.637 29.144ZM547.644 29.144C545.772 29.144 544.092 28.712 542.604 27.848C541.116 26.96 539.94 25.76 539.076 24.248C538.212 22.736 537.768 21.032 537.744 19.136V2.72C537.744 2.168 537.912 1.724 538.248 1.388C538.608 1.052 539.052 0.883999 539.58 0.883999C540.132 0.883999 540.576 1.052 540.912 1.388C541.248 1.724 541.416 2.168 541.416 2.72V12.44C542.256 11.432 543.264 10.64 544.44 10.064C545.64 9.464 546.948 9.164 548.364 9.164C550.116 9.164 551.688 9.608 553.08 10.496C554.472 11.36 555.564 12.548 556.356 14.06C557.172 15.548 557.58 17.24 557.58 19.136C557.58 21.032 557.136 22.736 556.248 24.248C555.384 25.76 554.208 26.96 552.72 27.848C551.232 28.712 549.54 29.144 547.644 29.144ZM547.644 25.904C548.868 25.904 549.96 25.616 550.92 25.04C551.88 24.44 552.636 23.624 553.188 22.592C553.764 21.56 554.052 20.408 554.052 19.136C554.052 17.84 553.764 16.688 553.188 15.68C552.636 14.672 551.88 13.88 550.92 13.304C549.96 12.704 548.868 12.404 547.644 12.404C546.444 12.404 545.352 12.704 544.368 13.304C543.408 13.88 542.652 14.672 542.1 15.68C541.548 16.688 541.272 17.84 541.272 19.136C541.272 20.408 541.548 21.56 542.1 22.592C542.652 23.624 543.408 24.44 544.368 25.04C545.352 25.616 546.444 25.904 547.644 25.904ZM575.727 29C575.271 29 574.863 28.832 574.503 28.496C574.143 28.16 573.963 27.716 573.963 27.164V9.416C573.963 7.688 574.299 6.188 574.971 4.916C575.667 3.644 576.627 2.66 577.851 1.964C579.075 1.244 580.491 0.883999 582.099 0.883999C582.627 0.883999 583.059 1.04 583.395 1.352C583.755 1.664 583.935 2.06 583.935 2.54C583.935 2.996 583.755 3.392 583.395 3.728C583.059 4.04 582.627 4.196 582.099 4.196C581.211 4.196 580.431 4.4 579.759 4.808C579.087 5.216 578.559 5.78 578.175 6.5C577.815 7.22 577.635 8.072 577.635 9.056V27.164C577.635 27.716 577.467 28.16 577.131 28.496C576.795 28.832 576.327 29 575.727 29ZM572.415 13.124C571.911 13.124 571.503 12.98 571.191 12.692C570.879 12.404 570.723 12.044 570.723 11.612C570.723 11.132 570.879 10.748 571.191 10.46C571.503 10.172 571.911 10.028 572.415 10.028H581.307C581.811 10.028 582.219 10.172 582.531 10.46C582.843 10.748 582.999 11.132 582.999 11.612C582.999 12.044 582.843 12.404 582.531 12.692C582.219 12.98 581.811 13.124 581.307 13.124H572.415ZM588.586 16.688C588.586 15.248 588.934 13.964 589.63 12.836C590.35 11.684 591.31 10.772 592.51 10.1C593.71 9.428 595.03 9.092 596.47 9.092C597.91 9.092 598.978 9.332 599.674 9.812C600.394 10.268 600.67 10.82 600.502 11.468C600.43 11.804 600.286 12.068 600.07 12.26C599.878 12.428 599.65 12.536 599.386 12.584C599.122 12.632 598.834 12.62 598.522 12.548C596.986 12.236 595.606 12.212 594.382 12.476C593.158 12.74 592.186 13.232 591.466 13.952C590.77 14.672 590.422 15.584 590.422 16.688H588.586ZM588.622 29C588.046 29 587.602 28.856 587.29 28.568C586.978 28.256 586.822 27.8 586.822 27.2V11.108C586.822 10.532 586.978 10.088 587.29 9.776C587.602 9.464 588.046 9.308 588.622 9.308C589.222 9.308 589.666 9.464 589.954 9.776C590.266 10.064 590.422 10.508 590.422 11.108V27.2C590.422 27.776 590.266 28.22 589.954 28.532C589.666 28.844 589.222 29 588.622 29ZM611.096 29.144C609.344 29.144 607.772 28.712 606.38 27.848C604.988 26.96 603.884 25.772 603.068 24.284C602.276 22.772 601.88 21.068 601.88 19.172C601.88 17.276 602.312 15.572 603.176 14.06C604.064 12.548 605.252 11.36 606.74 10.496C608.252 9.608 609.944 9.164 611.816 9.164C613.688 9.164 615.368 9.608 616.856 10.496C618.344 11.36 619.52 12.548 620.384 14.06C621.272 15.572 621.716 17.276 621.716 19.172H620.312C620.312 21.068 619.904 22.772 619.088 24.284C618.296 25.772 617.204 26.96 615.812 27.848C614.42 28.712 612.848 29.144 611.096 29.144ZM611.816 25.904C613.04 25.904 614.132 25.616 615.092 25.04C616.052 24.44 616.808 23.636 617.36 22.628C617.912 21.596 618.188 20.444 618.188 19.172C618.188 17.876 617.912 16.724 617.36 15.716C616.808 14.684 616.052 13.88 615.092 13.304C614.132 12.704 613.04 12.404 611.816 12.404C610.616 12.404 609.524 12.704 608.54 13.304C607.58 13.88 606.812 14.684 606.236 15.716C605.684 16.724 605.408 17.876 605.408 19.172C605.408 20.444 605.684 21.596 606.236 22.628C606.812 23.636 607.58 24.44 608.54 25.04C609.524 25.616 610.616 25.904 611.816 25.904ZM619.88 29.036C619.352 29.036 618.908 28.868 618.548 28.532C618.212 28.172 618.044 27.728 618.044 27.2V21.692L618.728 17.876L621.716 19.172V27.2C621.716 27.728 621.536 28.172 621.176 28.532C620.84 28.868 620.408 29.036 619.88 29.036ZM653.029 29.036C652.501 29.036 652.057 28.868 651.697 28.532C651.361 28.172 651.193 27.728 651.193 27.2V16.904C651.193 15.392 650.821 14.276 650.077 13.556C649.333 12.812 648.361 12.44 647.161 12.44C645.913 12.44 644.881 12.872 644.065 13.736C643.273 14.6 642.877 15.704 642.877 17.048H639.889C639.889 15.488 640.225 14.12 640.897 12.944C641.569 11.744 642.505 10.808 643.705 10.136C644.929 9.464 646.321 9.128 647.881 9.128C649.249 9.128 650.461 9.428 651.517 10.028C652.573 10.628 653.389 11.516 653.965 12.692C654.565 13.844 654.865 15.248 654.865 16.904V27.2C654.865 27.728 654.697 28.172 654.361 28.532C654.025 28.868 653.581 29.036 653.029 29.036ZM629.017 29.036C628.489 29.036 628.045 28.868 627.685 28.532C627.349 28.172 627.181 27.728 627.181 27.2V11.18C627.181 10.628 627.349 10.184 627.685 9.848C628.045 9.512 628.489 9.344 629.017 9.344C629.569 9.344 630.013 9.512 630.349 9.848C630.685 10.184 630.853 10.628 630.853 11.18V27.2C630.853 27.728 630.685 28.172 630.349 28.532C630.013 28.868 629.569 29.036 629.017 29.036ZM641.041 29.036C640.513 29.036 640.069 28.868 639.709 28.532C639.373 28.172 639.205 27.728 639.205 27.2V16.904C639.205 15.392 638.833 14.276 638.089 13.556C637.345 12.812 636.373 12.44 635.173 12.44C633.925 12.44 632.893 12.872 632.077 13.736C631.261 14.6 630.853 15.704 630.853 17.048H628.585C628.585 15.488 628.897 14.12 629.521 12.944C630.145 11.744 631.009 10.808 632.113 10.136C633.217 9.464 634.477 9.128 635.893 9.128C637.261 9.128 638.473 9.428 639.529 10.028C640.585 10.628 641.401 11.516 641.977 12.692C642.577 13.844 642.877 15.248 642.877 16.904V27.2C642.877 27.728 642.709 28.172 642.373 28.532C642.037 28.868 641.593 29.036 641.041 29.036ZM670.219 29.144C668.227 29.144 666.451 28.724 664.891 27.884C663.355 27.02 662.143 25.844 661.255 24.356C660.391 22.844 659.959 21.116 659.959 19.172C659.959 17.204 660.367 15.476 661.183 13.988C662.023 12.476 663.175 11.3 664.639 10.46C666.103 9.596 667.783 9.164 669.679 9.164C671.551 9.164 673.159 9.584 674.503 10.424C675.847 11.24 676.867 12.38 677.563 13.844C678.283 15.284 678.643 16.952 678.643 18.848C678.643 19.304 678.487 19.688 678.175 20C677.863 20.288 677.467 20.432 676.987 20.432H662.479V17.552H676.879L675.403 18.56C675.379 17.36 675.139 16.292 674.683 15.356C674.227 14.396 673.579 13.64 672.739 13.088C671.899 12.536 670.879 12.26 669.679 12.26C668.311 12.26 667.135 12.56 666.151 13.16C665.191 13.76 664.459 14.588 663.955 15.644C663.451 16.676 663.199 17.852 663.199 19.172C663.199 20.492 663.499 21.668 664.099 22.7C664.699 23.732 665.527 24.548 666.583 25.148C667.639 25.748 668.851 26.048 670.219 26.048C670.963 26.048 671.719 25.916 672.487 25.652C673.279 25.364 673.915 25.04 674.395 24.68C674.755 24.416 675.139 24.284 675.547 24.284C675.979 24.26 676.351 24.38 676.663 24.644C677.071 25.004 677.287 25.4 677.311 25.832C677.335 26.264 677.143 26.636 676.735 26.948C675.919 27.596 674.899 28.124 673.675 28.532C672.475 28.94 671.323 29.144 670.219 29.144ZM687.159 29C686.775 29 686.415 28.892 686.079 28.676C685.767 28.436 685.551 28.148 685.431 27.812L680.103 11.828C679.911 11.084 679.911 10.484 680.103 10.028C680.319 9.548 680.775 9.308 681.471 9.308C681.927 9.308 682.299 9.44 682.587 9.704C682.899 9.944 683.151 10.364 683.343 10.964L687.879 25.148H686.619L690.903 10.676C691.023 10.268 691.227 9.944 691.515 9.704C691.803 9.44 692.199 9.308 692.703 9.308C693.183 9.308 693.567 9.44 693.855 9.704C694.167 9.944 694.371 10.268 694.467 10.676L697.959 24.284H697.419L701.667 10.964C702.003 9.86 702.627 9.308 703.539 9.308C704.211 9.308 704.667 9.548 704.907 10.028C705.147 10.484 705.135 11.084 704.871 11.828L699.543 27.812C699.447 28.148 699.243 28.436 698.931 28.676C698.619 28.892 698.259 29 697.851 29C697.467 29 697.107 28.892 696.771 28.676C696.435 28.436 696.219 28.148 696.123 27.812L692.415 14.096H692.775L688.887 27.812C688.791 28.148 688.575 28.436 688.239 28.676C687.927 28.892 687.567 29 687.159 29ZM717.039 29.144C715.095 29.144 713.379 28.724 711.891 27.884C710.403 27.02 709.227 25.844 708.363 24.356C707.523 22.844 707.103 21.116 707.103 19.172C707.103 17.204 707.523 15.476 708.363 13.988C709.227 12.476 710.403 11.3 711.891 10.46C713.379 9.596 715.095 9.164 717.039 9.164C718.959 9.164 720.663 9.596 722.151 10.46C723.639 11.3 724.803 12.476 725.643 13.988C726.507 15.476 726.939 17.204 726.939 19.172C726.939 21.116 726.519 22.844 725.679 24.356C724.839 25.844 723.675 27.02 722.187 27.884C720.699 28.724 718.983 29.144 717.039 29.144ZM717.039 25.904C718.287 25.904 719.391 25.616 720.351 25.04C721.311 24.464 722.055 23.672 722.583 22.664C723.135 21.656 723.411 20.492 723.411 19.172C723.411 17.852 723.135 16.688 722.583 15.68C722.055 14.648 721.311 13.844 720.351 13.268C719.391 12.692 718.287 12.404 717.039 12.404C715.791 12.404 714.687 12.692 713.727 13.268C712.767 13.844 712.011 14.648 711.459 15.68C710.907 16.688 710.631 17.852 710.631 19.172C710.631 20.492 710.907 21.656 711.459 22.664C712.011 23.672 712.767 24.464 713.727 25.04C714.687 25.616 715.791 25.904 717.039 25.904ZM734.168 16.688C734.168 15.248 734.516 13.964 735.212 12.836C735.932 11.684 736.892 10.772 738.092 10.1C739.292 9.428 740.612 9.092 742.052 9.092C743.492 9.092 744.56 9.332 745.256 9.812C745.976 10.268 746.252 10.82 746.084 11.468C746.012 11.804 745.868 12.068 745.652 12.26C745.46 12.428 745.232 12.536 744.968 12.584C744.704 12.632 744.416 12.62 744.104 12.548C742.568 12.236 741.188 12.212 739.964 12.476C738.74 12.74 737.768 13.232 737.048 13.952C736.352 14.672 736.004 15.584 736.004 16.688H734.168ZM734.204 29C733.628 29 733.184 28.856 732.872 28.568C732.56 28.256 732.404 27.8 732.404 27.2V11.108C732.404 10.532 732.56 10.088 732.872 9.776C733.184 9.464 733.628 9.308 734.204 9.308C734.804 9.308 735.248 9.464 735.536 9.776C735.848 10.064 736.004 10.508 736.004 11.108V27.2C736.004 27.776 735.848 28.22 735.536 28.532C735.248 28.844 734.804 29 734.204 29ZM753.368 21.8L751.136 19.352L762.188 9.488C762.548 9.152 762.944 8.996 763.376 9.02C763.832 9.044 764.216 9.236 764.528 9.596C764.864 9.956 765.02 10.352 764.996 10.784C764.972 11.216 764.78 11.6 764.42 11.936L753.368 21.8ZM751.676 29C751.148 29 750.716 28.844 750.38 28.532C750.068 28.196 749.912 27.764 749.912 27.236V2.648C749.912 2.12 750.068 1.7 750.38 1.388C750.716 1.052 751.148 0.883999 751.676 0.883999C752.204 0.883999 752.624 1.052 752.936 1.388C753.272 1.7 753.44 2.12 753.44 2.648V27.236C753.44 27.764 753.272 28.196 752.936 28.532C752.624 28.844 752.204 29 751.676 29ZM764.528 28.82C764.144 29.132 763.712 29.264 763.232 29.216C762.776 29.192 762.392 28.988 762.08 28.604L754.772 19.568L757.292 17.192L764.78 26.408C765.092 26.792 765.224 27.212 765.176 27.668C765.152 28.1 764.936 28.484 764.528 28.82Z" fill="black"/>
</svg>
