<svg width="772" height="197" viewBox="0 0 772 197" fill="none" xmlns="http://www.w3.org/2000/svg">
<path d="M10.684 150C7.868 150 5.5 149.04 3.58 147.12C1.66 145.2 0.7 142.832 0.7 140.016V10.032C0.7 7.08799 1.66 4.71999 3.58 2.92799C5.5 1.008 7.868 0.0479965 10.684 0.0479965C13.628 0.0479965 15.996 1.008 17.788 2.92799C19.708 4.71999 20.668 7.08799 20.668 10.032V65.136H109.756V10.032C109.756 7.08799 110.716 4.71999 112.636 2.92799C114.556 1.008 116.924 0.0479965 119.74 0.0479965C122.684 0.0479965 125.052 1.008 126.844 2.92799C128.636 4.71999 129.532 7.08799 129.532 10.032V140.016C129.532 142.832 128.636 145.2 126.844 147.12C125.052 149.04 122.684 150 119.74 150C116.924 150 114.556 149.04 112.636 147.12C110.716 145.2 109.756 142.832 109.756 140.016V82.8H20.668V140.016C20.668 142.832 19.708 145.2 17.788 147.12C15.996 149.04 13.628 150 10.684 150ZM209.806 150.768C200.462 150.768 192.078 148.464 184.654 143.856C177.23 139.12 171.342 132.784 166.99 124.848C162.766 116.784 160.654 107.696 160.654 97.584C160.654 87.472 162.958 78.384 167.566 70.32C172.302 62.256 178.638 55.92 186.574 51.312C194.638 46.576 203.662 44.208 213.646 44.208C223.63 44.208 232.59 46.576 240.526 51.312C248.462 55.92 254.734 62.256 259.342 70.32C264.078 78.384 266.446 87.472 266.446 97.584H258.958C258.958 107.696 256.782 116.784 252.43 124.848C248.206 132.784 242.382 139.12 234.958 143.856C227.534 148.464 219.15 150.768 209.806 150.768ZM213.646 133.488C220.174 133.488 225.998 131.952 231.118 128.88C236.238 125.68 240.27 121.392 243.214 116.016C246.158 110.512 247.63 104.368 247.63 97.584C247.63 90.672 246.158 84.528 243.214 79.152C240.27 73.648 236.238 69.36 231.118 66.288C225.998 63.088 220.174 61.488 213.646 61.488C207.246 61.488 201.422 63.088 196.174 66.288C191.054 69.36 186.958 73.648 183.886 79.152C180.942 84.528 179.47 90.672 179.47 97.584C179.47 104.368 180.942 110.512 183.886 116.016C186.958 121.392 191.054 125.68 196.174 128.88C201.422 131.952 207.246 133.488 213.646 133.488ZM256.654 150.192C253.838 150.192 251.47 149.296 249.55 147.504C247.758 145.584 246.862 143.216 246.862 140.4V111.024L250.51 90.672L266.446 97.584V140.4C266.446 143.216 265.486 145.584 263.566 147.504C261.774 149.296 259.47 150.192 256.654 150.192ZM305.385 194.928C302.569 194.928 300.201 193.968 298.281 192.048C296.489 190.256 295.593 187.952 295.593 185.136V97.584C295.721 87.472 298.089 78.384 302.697 70.32C307.305 62.256 313.577 55.92 321.513 51.312C329.449 46.576 338.409 44.208 348.393 44.208C358.505 44.208 367.529 46.576 375.465 51.312C383.401 55.92 389.673 62.256 394.281 70.32C399.017 78.384 401.385 87.472 401.385 97.584C401.385 107.696 399.209 116.784 394.857 124.848C390.633 132.784 384.809 139.12 377.385 143.856C369.961 148.464 361.577 150.768 352.233 150.768C344.681 150.768 337.705 149.232 331.305 146.16C325.033 142.96 319.657 138.672 315.177 133.296V185.136C315.177 187.952 314.281 190.256 312.489 192.048C310.697 193.968 308.329 194.928 305.385 194.928ZM348.393 133.488C354.921 133.488 360.745 131.952 365.865 128.88C370.985 125.68 375.017 121.392 377.961 116.016C381.033 110.512 382.569 104.368 382.569 97.584C382.569 90.672 381.033 84.528 377.961 79.152C375.017 73.648 370.985 69.36 365.865 66.288C360.745 63.088 354.921 61.488 348.393 61.488C341.993 61.488 336.169 63.088 330.921 66.288C325.801 69.36 321.769 73.648 318.825 79.152C315.881 84.528 314.409 90.672 314.409 97.584C314.409 104.368 315.881 110.512 318.825 116.016C321.769 121.392 325.801 125.68 330.921 128.88C336.169 131.952 341.993 133.488 348.393 133.488ZM440.385 194.928C437.569 194.928 435.201 193.968 433.281 192.048C431.489 190.256 430.593 187.952 430.593 185.136V97.584C430.721 87.472 433.089 78.384 437.697 70.32C442.305 62.256 448.577 55.92 456.513 51.312C464.449 46.576 473.409 44.208 483.393 44.208C493.505 44.208 502.529 46.576 510.465 51.312C518.401 55.92 524.673 62.256 529.281 70.32C534.017 78.384 536.385 87.472 536.385 97.584C536.385 107.696 534.209 116.784 529.857 124.848C525.633 132.784 519.809 139.12 512.385 143.856C504.961 148.464 496.577 150.768 487.233 150.768C479.681 150.768 472.705 149.232 466.305 146.16C460.033 142.96 454.657 138.672 450.177 133.296V185.136C450.177 187.952 449.281 190.256 447.489 192.048C445.697 193.968 443.329 194.928 440.385 194.928ZM483.393 133.488C489.921 133.488 495.745 131.952 500.865 128.88C505.985 125.68 510.017 121.392 512.961 116.016C516.033 110.512 517.569 104.368 517.569 97.584C517.569 90.672 516.033 84.528 512.961 79.152C510.017 73.648 505.985 69.36 500.865 66.288C495.745 63.088 489.921 61.488 483.393 61.488C476.993 61.488 471.169 63.088 465.921 66.288C460.801 69.36 456.769 73.648 453.825 79.152C450.881 84.528 449.409 90.672 449.409 97.584C449.409 104.368 450.881 110.512 453.825 116.016C456.769 121.392 460.801 125.68 465.921 128.88C471.169 131.952 476.993 133.488 483.393 133.488ZM578.596 196.08C577.316 196.08 575.78 195.696 573.988 194.928C568.356 192.368 566.82 188.336 569.38 182.832L627.94 50.544C630.5 45.168 634.532 43.632 640.036 45.936C645.796 48.368 647.396 52.4 644.836 58.032L586.084 190.128C584.548 194.096 582.052 196.08 578.596 196.08ZM601.252 145.776C598.82 146.8 596.516 146.928 594.34 146.16C592.292 145.264 590.628 143.6 589.348 141.168L545.38 57.648C544.1 55.216 543.908 52.912 544.804 50.736C545.828 48.432 547.556 46.768 549.988 45.744C552.42 44.72 554.724 44.656 556.9 45.552C559.076 46.32 560.74 47.92 561.892 50.352L603.94 133.872C605.22 136.304 605.668 138.672 605.284 140.976C605.028 143.152 603.684 144.752 601.252 145.776ZM660.874 150C657.93 150 655.69 149.104 654.154 147.312C652.618 145.392 651.85 143.216 651.85 140.784C651.85 138.224 652.618 135.92 654.154 133.872L702.538 69.36L711.178 61.68L755.338 2.92799C757.13 1.008 759.498 0.0479965 762.442 0.0479965C765.13 0.0479965 767.242 0.879997 768.778 2.544C770.314 4.20799 771.146 6.25599 771.274 8.68799C771.402 11.12 770.698 13.488 769.162 15.792L722.506 78L714.25 85.296L667.786 147.12C665.866 149.04 663.562 150 660.874 150ZM761.29 150C759.626 150 758.154 149.744 756.874 149.232C755.722 148.592 754.634 147.632 753.61 146.352L708.874 84.336L701.77 78.384L656.65 15.792C655.114 13.744 654.474 11.504 654.73 9.07199C654.986 6.64 655.882 4.528 657.418 2.736C659.082 0.943996 661.258 0.0479965 663.946 0.0479965C667.274 0.0479965 669.642 1.008 671.05 2.92799L713.674 62.064L720.97 68.016L768.394 133.872C769.93 135.92 770.634 138.224 770.506 140.784C770.378 143.344 769.482 145.52 767.818 147.312C766.282 149.104 764.106 150 761.29 150Z" fill="black"/>
</svg>
