<!-- icon666.com - MILLIONS vector ICONS FREE --><svg version="1.1" id="Capa_1" xmlns="http://www.w3.org/2000/svg" xmlns:xlink="http://www.w3.org/1999/xlink" x="0px" y="0px" viewBox="0 0 512 512" style="enable-background:new 0 0 512 512;" xml:space="preserve"><linearGradient id="SVGID_1_" gradientUnits="userSpaceOnUse" x1="-33.3034" y1="641.6515" x2="-15.78" y2="624.129" gradientTransform="matrix(21.3333 0 0 -21.3333 779.5599 13791.667)"><stop offset="0" style="stop-color:#369CDC"></stop><stop offset="1" style="stop-color:#AA56D0"></stop></linearGradient><path style="fill:url(#SVGID_1_);" d="M255.994,0C144.25,0,53.328,90.923,53.328,202.667c0,55.381,22.379,105.6,58.496,142.208 L54.586,451.712c-1.749,3.307-1.664,7.296,0.277,10.517c1.92,3.2,5.397,5.184,9.152,5.184h56.469l32,40.533 c2.027,2.581,5.12,4.053,8.363,4.053c0.32,0,0.64,0,0.96-0.043c3.584-0.32,6.763-2.432,8.448-5.632l54.997-103.573 c10.069,1.536,20.267,2.581,30.741,2.581c10.475,0,20.672-1.045,30.72-2.581l54.997,103.573c1.685,3.179,4.885,5.312,8.448,5.632 c0.341,0.043,0.661,0.043,0.981,0.043c3.243,0,6.336-1.472,8.363-4.053l32-40.533h56.491c3.755,0,7.232-1.963,9.152-5.184 c1.941-3.221,2.027-7.211,0.277-10.517l-57.237-106.837c36.096-36.608,58.475-86.827,58.475-142.208 C458.661,90.923,367.738,0,255.994,0z M159.098,481.899l-25.088-31.765c-2.027-2.56-5.099-4.053-8.384-4.053h-43.84l46.293-86.4 c21.824,17.813,47.488,30.997,75.456,38.528L159.098,481.899z M74.661,202.667c0-99.989,81.344-181.333,181.333-181.333 c99.968,0,181.333,81.344,181.333,181.333S355.962,384,255.994,384C156.005,384,74.661,302.656,74.661,202.667z M386.341,446.08 c-3.264,0-6.357,1.493-8.384,4.053l-25.088,31.765l-44.437-83.691c27.968-7.509,53.632-20.693,75.456-38.528l46.293,86.4H386.341z"></path><linearGradient id="SVGID_2_" gradientUnits="userSpaceOnUse" x1="-29.8431" y1="642.2854" x2="-19.2411" y2="631.6833" gradientTransform="matrix(21.3333 0 0 -21.3333 779.5599 13791.667)"><stop offset="0" style="stop-color:#369CDC"></stop><stop offset="1" style="stop-color:#AA56D0"></stop></linearGradient><path style="fill:url(#SVGID_2_);" d="M255.994,42.667c-88.235,0-160,71.765-160,160s71.765,160,160,160s160-71.765,160-160 S344.229,42.667,255.994,42.667z M255.994,341.333c-76.459,0-138.667-62.208-138.667-138.667S179.536,64,255.994,64 s138.667,62.208,138.667,138.667S332.453,341.333,255.994,341.333z"></path><linearGradient id="SVGID_3_" gradientUnits="userSpaceOnUse" x1="-26.8956" y1="639.3379" x2="-22.6886" y2="635.1309" gradientTransform="matrix(21.3333 0 0 -21.3333 779.5599 13791.667)"><stop offset="0" style="stop-color:#369CDC"></stop><stop offset="1" style="stop-color:#AA56D0"></stop></linearGradient><path style="fill:url(#SVGID_3_);" d="M255.994,128h-21.333c-5.888,0-10.667,4.779-10.667,10.667s4.779,10.667,10.667,10.667h10.667 v117.333c0,5.888,4.779,10.667,10.667,10.667c5.888,0,10.667-4.779,10.667-10.667v-128C266.661,132.779,261.882,128,255.994,128z"></path></svg>