<?xml version="1.0" encoding="iso-8859-1"?>
<!-- Uploaded to: SVG Repo, www.svgrepo.com, Generator: SVG Repo Mixer Tools -->
<svg height="800px" width="800px" version="1.1" id="Layer_1" xmlns="http://www.w3.org/2000/svg" xmlns:xlink="http://www.w3.org/1999/xlink" 
	 viewBox="0 0 512 512" xml:space="preserve">
<path style="fill:#B9B9B9;" d="M512,297.793v-83.585l-52.337-5.233c-5.266-22.911-14.302-44.37-26.41-63.713l33.319-40.724
	l-59.111-59.111l-40.724,33.319c-19.343-12.108-40.802-21.144-63.713-26.41L297.793,0h-83.585l-5.233,52.337
	c-22.911,5.266-44.37,14.302-63.713,26.41l-40.724-33.319l-59.111,59.111l33.319,40.724c-12.108,19.343-21.144,40.802-26.41,63.713
	L0,214.207v83.585l52.337,5.233c5.266,22.911,14.302,44.37,26.41,63.713l-33.319,40.724l59.111,59.111l40.724-33.319
	c19.343,12.108,40.802,21.144,63.713,26.41L214.207,512h83.585l5.233-52.337c22.911-5.266,44.37-14.302,63.713-26.41l40.724,33.319
	l59.111-59.111l-33.319-40.724c12.108-19.343,21.144-40.802,26.41-63.713L512,297.793z M257.834,431.532
	c-0.608,0.011-1.227,0.011-1.834,0.011c-96.942,0-175.543-78.589-175.543-175.543S159.058,80.457,256,80.457
	c0.608,0,1.227,0,1.834,0.011C335.298,81.684,397.785,159.8,397.785,256S335.298,430.316,257.834,431.532z"/>
<path style="fill:#737373;" d="M257.866,80.47v82.743c50.408,0.997,90.972,42.142,90.972,92.788s-40.564,91.791-90.972,92.788
	v82.743c96.095-0.996,173.677-79.196,173.677-175.531S353.961,81.465,257.866,80.47z"/>
<path style="fill:#969696;" d="M257.834,80.468c-0.608-0.011-1.227-0.011-1.834-0.011c-96.942,0-175.543,78.589-175.543,175.543
	S159.058,431.543,256,431.543c0.608,0,1.227,0,1.834-0.011c77.464-1.215,139.95-79.332,139.95-175.532
	S335.298,81.684,257.834,80.468z M256.002,348.835c-51.271,0-92.835-41.564-92.835-92.835s41.564-92.835,92.835-92.835
	s92.835,41.564,92.835,92.835S307.273,348.835,256.002,348.835z"/>
<path style="fill:#B9B9B9;" d="M256,143.473l-10.165,17.554l10.167,16.204c43.503,0,78.769,35.266,78.769,78.769
	s-35.266,78.769-78.769,78.769l-10.517,16.159L256,368.527c62.149,0,112.527-50.379,112.527-112.527S318.149,143.473,256,143.473z"
	/>
<path style="fill:#DCDCDC;" d="M177.233,256c0-43.502,35.265-78.768,78.767-78.769v-33.758
	c-62.149,0-112.527,50.379-112.527,112.527S193.851,368.527,256,368.527v-33.758C212.498,334.768,177.233,299.502,177.233,256z"/>
</svg>