<svg width="256" height="167" viewBox="0 0 256 167" fill="none" xmlns="http://www.w3.org/2000/svg">
<g clip-path="url(#clip0_12_3)">
<path d="M129.013 4C129.013 4 119.2 12.2987 109.205 20.5333C98.9227 20.192 78.7413 22.656 67.8187 26.912C57.728 20.0853 48.8747 12.5333 48.8747 12.5333C48.8747 12.5333 41.312 26.4533 36.5653 34.6133C29.504 38.6347 22.432 43.1467 16.1173 49.12C8.78933 46.0267 0.277333 42.208 0 42.08C9.71733 63.0613 16.256 84.064 34.0267 96.6933C62.336 48.8747 193.845 53.28 222.731 96.4267C241.397 86.0053 248.651 63.5947 256 42.9013C255.2 43.1787 245.205 46.7627 238.731 49.408C234.859 44.896 225.749 37.9733 220.576 34.6347C216.649 27.0397 212.628 19.4942 208.512 12C208.512 12 200.043 18.7413 190.219 26.1013C176.96 23.4773 160.917 20.2987 147.424 21.088C141.161 15.5291 135.023 9.83168 129.013 4ZM10.048 86.6667L33.3973 147.147C73.9413 204.395 177.483 208.373 222.624 148.267C233.301 122.507 247.712 86.3147 247.712 86.3147C236.128 104.661 217.291 117.344 205.685 124.171C197.429 129.003 178.4 131.925 178.4 131.925L128.437 104.224L78.1973 131.371C78.1973 131.371 59.4133 128.139 50.912 123.893C33.76 114.08 22.2187 102.517 10.0587 86.6667H10.048Z" fill="#FFE953"/>
<path d="M-7 128C-4.16667 135.667 14.1 147.7 36.5 146.5C64.5 145 74 137.5 98.5 139.5C112.102 140.61 141 147 155 148.5C169 150 175 153 195 148.5C215 144 232 142 236.5 144C240.1 145.6 253.667 147.667 259 148.5L270.5 218.5L36.5 256L-25 215L-7 128Z" fill="#1E202A"/>
</g>
<defs>
<clipPath id="clip0_12_3">
<rect width="256" height="167" fill="white"/>
</clipPath>
</defs>
</svg>
