<svg width="800" height="411" viewBox="0 0 800 411" fill="none" xmlns="http://www.w3.org/2000/svg">
<path d="M29.684 310C26.868 310 24.5 309.04 22.58 307.12C20.66 305.2 19.7 302.832 19.7 300.016V170.032C19.7 167.088 20.66 164.72 22.58 162.928C24.5 161.008 26.868 160.048 29.684 160.048C32.628 160.048 34.996 161.008 36.788 162.928C38.708 164.72 39.668 167.088 39.668 170.032V225.136H128.756V170.032C128.756 167.088 129.716 164.72 131.636 162.928C133.556 161.008 135.924 160.048 138.74 160.048C141.684 160.048 144.052 161.008 145.844 162.928C147.636 164.72 148.532 167.088 148.532 170.032V300.016C148.532 302.832 147.636 305.2 145.844 307.12C144.052 309.04 141.684 310 138.74 310C135.924 310 133.556 309.04 131.636 307.12C129.716 305.2 128.756 302.832 128.756 300.016V242.8H39.668V300.016C39.668 302.832 38.708 305.2 36.788 307.12C34.996 309.04 32.628 310 29.684 310ZM228.806 310.768C219.462 310.768 211.078 308.464 203.654 303.856C196.23 299.12 190.342 292.784 185.99 284.848C181.766 276.784 179.654 267.696 179.654 257.584C179.654 247.472 181.958 238.384 186.566 230.32C191.302 222.256 197.638 215.92 205.574 211.312C213.638 206.576 222.662 204.208 232.646 204.208C242.63 204.208 251.59 206.576 259.526 211.312C267.462 215.92 273.734 222.256 278.342 230.32C283.078 238.384 285.446 247.472 285.446 257.584H277.958C277.958 267.696 275.782 276.784 271.43 284.848C267.206 292.784 261.382 299.12 253.958 303.856C246.534 308.464 238.15 310.768 228.806 310.768ZM232.646 293.488C239.174 293.488 244.998 291.952 250.118 288.88C255.238 285.68 259.27 281.392 262.214 276.016C265.158 270.512 266.63 264.368 266.63 257.584C266.63 250.672 265.158 244.528 262.214 239.152C259.27 233.648 255.238 229.36 250.118 226.288C244.998 223.088 239.174 221.488 232.646 221.488C226.246 221.488 220.422 223.088 215.174 226.288C210.054 229.36 205.958 233.648 202.886 239.152C199.942 244.528 198.47 250.672 198.47 257.584C198.47 264.368 199.942 270.512 202.886 276.016C205.958 281.392 210.054 285.68 215.174 288.88C220.422 291.952 226.246 293.488 232.646 293.488ZM275.654 310.192C272.838 310.192 270.47 309.296 268.55 307.504C266.758 305.584 265.862 303.216 265.862 300.4V271.024L269.51 250.672L285.446 257.584V300.4C285.446 303.216 284.486 305.584 282.566 307.504C280.774 309.296 278.47 310.192 275.654 310.192ZM324.385 354.928C321.569 354.928 319.201 353.968 317.281 352.048C315.489 350.256 314.593 347.952 314.593 345.136V257.584C314.721 247.472 317.089 238.384 321.697 230.32C326.305 222.256 332.577 215.92 340.513 211.312C348.449 206.576 357.409 204.208 367.393 204.208C377.505 204.208 386.529 206.576 394.465 211.312C402.401 215.92 408.673 222.256 413.281 230.32C418.017 238.384 420.385 247.472 420.385 257.584C420.385 267.696 418.209 276.784 413.857 284.848C409.633 292.784 403.809 299.12 396.385 303.856C388.961 308.464 380.577 310.768 371.233 310.768C363.681 310.768 356.705 309.232 350.305 306.16C344.033 302.96 338.657 298.672 334.177 293.296V345.136C334.177 347.952 333.281 350.256 331.489 352.048C329.697 353.968 327.329 354.928 324.385 354.928ZM367.393 293.488C373.921 293.488 379.745 291.952 384.865 288.88C389.985 285.68 394.017 281.392 396.961 276.016C400.033 270.512 401.569 264.368 401.569 257.584C401.569 250.672 400.033 244.528 396.961 239.152C394.017 233.648 389.985 229.36 384.865 226.288C379.745 223.088 373.921 221.488 367.393 221.488C360.993 221.488 355.169 223.088 349.921 226.288C344.801 229.36 340.769 233.648 337.825 239.152C334.881 244.528 333.409 250.672 333.409 257.584C333.409 264.368 334.881 270.512 337.825 276.016C340.769 281.392 344.801 285.68 349.921 288.88C355.169 291.952 360.993 293.488 367.393 293.488ZM459.385 354.928C456.569 354.928 454.201 353.968 452.281 352.048C450.489 350.256 449.593 347.952 449.593 345.136V257.584C449.721 247.472 452.089 238.384 456.697 230.32C461.305 222.256 467.577 215.92 475.513 211.312C483.449 206.576 492.409 204.208 502.393 204.208C512.505 204.208 521.529 206.576 529.465 211.312C537.401 215.92 543.673 222.256 548.281 230.32C553.017 238.384 555.385 247.472 555.385 257.584C555.385 267.696 553.209 276.784 548.857 284.848C544.633 292.784 538.809 299.12 531.385 303.856C523.961 308.464 515.577 310.768 506.233 310.768C498.681 310.768 491.705 309.232 485.305 306.16C479.033 302.96 473.657 298.672 469.177 293.296V345.136C469.177 347.952 468.281 350.256 466.489 352.048C464.697 353.968 462.329 354.928 459.385 354.928ZM502.393 293.488C508.921 293.488 514.745 291.952 519.865 288.88C524.985 285.68 529.017 281.392 531.961 276.016C535.033 270.512 536.569 264.368 536.569 257.584C536.569 250.672 535.033 244.528 531.961 239.152C529.017 233.648 524.985 229.36 519.865 226.288C514.745 223.088 508.921 221.488 502.393 221.488C495.993 221.488 490.169 223.088 484.921 226.288C479.801 229.36 475.769 233.648 472.825 239.152C469.881 244.528 468.409 250.672 468.409 257.584C468.409 264.368 469.881 270.512 472.825 276.016C475.769 281.392 479.801 285.68 484.921 288.88C490.169 291.952 495.993 293.488 502.393 293.488ZM597.596 356.08C596.316 356.08 594.78 355.696 592.988 354.928C587.356 352.368 585.82 348.336 588.38 342.832L646.94 210.544C649.5 205.168 653.532 203.632 659.036 205.936C664.796 208.368 666.396 212.4 663.836 218.032L605.084 350.128C603.548 354.096 601.052 356.08 597.596 356.08ZM620.252 305.776C617.82 306.8 615.516 306.928 613.34 306.16C611.292 305.264 609.628 303.6 608.348 301.168L564.38 217.648C563.1 215.216 562.908 212.912 563.804 210.736C564.828 208.432 566.556 206.768 568.988 205.744C571.42 204.72 573.724 204.656 575.9 205.552C578.076 206.32 579.74 207.92 580.892 210.352L622.94 293.872C624.22 296.304 624.668 298.672 624.284 300.976C624.028 303.152 622.684 304.752 620.252 305.776ZM679.874 310C676.93 310 674.69 309.104 673.154 307.312C671.618 305.392 670.85 303.216 670.85 300.784C670.85 298.224 671.618 295.92 673.154 293.872L721.538 229.36L730.178 221.68L774.338 162.928C776.13 161.008 778.498 160.048 781.442 160.048C784.13 160.048 786.242 160.88 787.778 162.544C789.314 164.208 790.146 166.256 790.274 168.688C790.402 171.12 789.698 173.488 788.162 175.792L741.506 238L733.25 245.296L686.786 307.12C684.866 309.04 682.562 310 679.874 310ZM780.29 310C778.626 310 777.154 309.744 775.874 309.232C774.722 308.592 773.634 307.632 772.61 306.352L727.874 244.336L720.77 238.384L675.65 175.792C674.114 173.744 673.474 171.504 673.73 169.072C673.986 166.64 674.882 164.528 676.418 162.736C678.082 160.944 680.258 160.048 682.946 160.048C686.274 160.048 688.642 161.008 690.05 162.928L732.674 222.064L739.97 228.016L787.394 293.872C788.93 295.92 789.634 298.224 789.506 300.784C789.378 303.344 788.482 305.52 786.818 307.312C785.282 309.104 783.106 310 780.29 310Z" fill="black"/>
<path d="M24.764 398.692C22.428 398.692 20.332 398.116 18.476 396.964C16.62 395.78 15.148 394.196 14.06 392.212C13.004 390.196 12.476 387.924 12.476 385.396C12.476 382.868 13.052 380.596 14.204 378.58C15.388 376.564 16.972 374.98 18.956 373.828C20.972 372.644 23.228 372.052 25.724 372.052C28.22 372.052 30.46 372.644 32.444 373.828C34.428 374.98 35.996 376.564 37.148 378.58C38.332 380.596 38.924 382.868 38.924 385.396H37.052C37.052 387.924 36.508 390.196 35.42 392.212C34.364 394.196 32.908 395.78 31.052 396.964C29.196 398.116 27.1 398.692 24.764 398.692ZM25.724 394.372C27.356 394.372 28.812 393.988 30.092 393.22C31.372 392.42 32.38 391.348 33.116 390.004C33.852 388.628 34.22 387.092 34.22 385.396C34.22 383.668 33.852 382.132 33.116 380.788C32.38 379.412 31.372 378.34 30.092 377.572C28.812 376.772 27.356 376.372 25.724 376.372C24.124 376.372 22.668 376.772 21.356 377.572C20.076 378.34 19.052 379.412 18.284 380.788C17.548 382.132 17.18 383.668 17.18 385.396C17.18 387.092 17.548 388.628 18.284 390.004C19.052 391.348 20.076 392.42 21.356 393.22C22.668 393.988 24.124 394.372 25.724 394.372ZM36.476 398.548C35.772 398.548 35.18 398.324 34.7 397.876C34.252 397.396 34.028 396.804 34.028 396.1V388.756L34.94 383.668L38.924 385.396V396.1C38.924 396.804 38.684 397.396 38.204 397.876C37.756 398.324 37.18 398.548 36.476 398.548ZM55.7626 398.692C53.5226 398.692 51.4426 398.356 49.5226 397.684C47.6346 396.98 46.1626 396.1 45.1066 395.044C44.6266 394.532 44.4186 393.956 44.4826 393.316C44.5786 392.644 44.8986 392.1 45.4426 391.684C46.0826 391.172 46.7066 390.964 47.3146 391.06C47.9546 391.124 48.4986 391.396 48.9466 391.876C49.4906 392.484 50.3546 393.06 51.5386 393.604C52.7546 394.116 54.0986 394.372 55.5706 394.372C57.4266 394.372 58.8346 394.068 59.7946 393.46C60.7866 392.852 61.2986 392.068 61.3306 391.108C61.3626 390.148 60.8986 389.316 59.9386 388.612C59.0106 387.908 57.2986 387.332 54.8026 386.884C51.5706 386.244 49.2186 385.284 47.7466 384.004C46.3066 382.724 45.5866 381.156 45.5866 379.3C45.5866 377.668 46.0666 376.324 47.0266 375.268C47.9866 374.18 49.2186 373.38 50.7226 372.868C52.2266 372.324 53.7946 372.052 55.4266 372.052C57.5386 372.052 59.4106 372.388 61.0426 373.06C62.6746 373.732 63.9706 374.66 64.9306 375.844C65.3786 376.356 65.5866 376.9 65.5546 377.476C65.5226 378.02 65.2506 378.484 64.7386 378.868C64.2266 379.22 63.6186 379.332 62.9146 379.204C62.2106 379.076 61.6186 378.788 61.1386 378.34C60.3386 377.572 59.4746 377.044 58.5466 376.756C57.6186 376.468 56.5466 376.324 55.3306 376.324C53.9226 376.324 52.7226 376.564 51.7306 377.044C50.7706 377.524 50.2906 378.228 50.2906 379.156C50.2906 379.732 50.4346 380.26 50.7226 380.74C51.0426 381.188 51.6506 381.604 52.5466 381.988C53.4426 382.34 54.7546 382.692 56.4826 383.044C58.8826 383.524 60.7706 384.132 62.1466 384.868C63.5546 385.604 64.5626 386.468 65.1706 387.46C65.7786 388.42 66.0826 389.54 66.0826 390.82C66.0826 392.292 65.6826 393.62 64.8826 394.804C64.1146 395.988 62.9626 396.932 61.4266 397.636C59.9226 398.34 58.0346 398.692 55.7626 398.692ZM76.9771 410.02C76.6571 410.02 76.2731 409.924 75.8251 409.732C74.4171 409.092 74.0331 408.084 74.6731 406.708L89.3131 373.636C89.9531 372.292 90.9611 371.908 92.3371 372.484C93.7771 373.092 94.1771 374.1 93.5371 375.508L78.8491 408.532C78.4651 409.524 77.8411 410.02 76.9771 410.02ZM82.6411 397.444C82.0331 397.7 81.4571 397.732 80.9131 397.54C80.4011 397.316 79.9851 396.9 79.6651 396.292L68.6731 375.412C68.3531 374.804 68.3051 374.228 68.5291 373.684C68.7851 373.108 69.2171 372.692 69.8251 372.436C70.4331 372.18 71.0091 372.164 71.5531 372.388C72.0971 372.58 72.5131 372.98 72.8011 373.588L83.3131 394.468C83.6331 395.076 83.7451 395.668 83.6491 396.244C83.5851 396.788 83.2491 397.188 82.6411 397.444ZM120.324 398.548C119.62 398.548 119.028 398.324 118.548 397.876C118.1 397.396 117.876 396.804 117.876 396.1V384.292C117.876 382.468 117.54 380.98 116.868 379.828C116.196 378.676 115.284 377.828 114.132 377.284C113.012 376.708 111.716 376.42 110.244 376.42C108.9 376.42 107.684 376.692 106.596 377.236C105.508 377.78 104.644 378.516 104.004 379.444C103.364 380.34 103.044 381.38 103.044 382.564H100.02C100.02 380.548 100.5 378.756 101.46 377.188C102.452 375.588 103.796 374.324 105.492 373.396C107.188 372.468 109.092 372.004 111.204 372.004C113.412 372.004 115.38 372.484 117.108 373.444C118.868 374.372 120.244 375.748 121.236 377.572C122.26 379.396 122.772 381.636 122.772 384.292V396.1C122.772 396.804 122.532 397.396 122.052 397.876C121.604 398.324 121.028 398.548 120.324 398.548ZM100.596 398.548C99.8921 398.548 99.3001 398.324 98.8201 397.876C98.3721 397.396 98.1481 396.804 98.1481 396.1V374.692C98.1481 373.956 98.3721 373.364 98.8201 372.916C99.3001 372.468 99.8921 372.244 100.596 372.244C101.332 372.244 101.924 372.468 102.372 372.916C102.82 373.364 103.044 373.956 103.044 374.692V396.1C103.044 396.804 102.82 397.396 102.372 397.876C101.924 398.324 101.332 398.548 100.596 398.548ZM142.771 398.692C140.211 398.692 137.923 398.116 135.907 396.964C133.923 395.78 132.355 394.196 131.203 392.212C130.083 390.196 129.523 387.924 129.523 385.396C129.523 382.804 130.083 380.5 131.203 378.484C132.323 376.468 133.859 374.9 135.811 373.78C137.763 372.628 140.003 372.052 142.531 372.052C144.419 372.052 146.147 372.42 147.715 373.156C149.283 373.86 150.691 374.932 151.939 376.372C152.387 376.884 152.547 377.412 152.419 377.956C152.291 378.5 151.939 378.98 151.363 379.396C150.915 379.716 150.419 379.828 149.875 379.732C149.331 379.604 148.835 379.316 148.387 378.868C146.819 377.204 144.867 376.372 142.531 376.372C140.899 376.372 139.459 376.756 138.211 377.524C136.963 378.26 135.987 379.3 135.283 380.644C134.579 381.988 134.227 383.572 134.227 385.396C134.227 387.124 134.579 388.66 135.283 390.004C136.019 391.348 137.027 392.42 138.307 393.22C139.587 393.988 141.075 394.372 142.771 394.372C143.891 394.372 144.867 394.244 145.699 393.988C146.563 393.7 147.347 393.268 148.051 392.692C148.563 392.276 149.091 392.052 149.635 392.02C150.179 391.956 150.659 392.1 151.075 392.452C151.619 392.9 151.923 393.412 151.987 393.988C152.051 394.532 151.859 395.028 151.411 395.476C149.107 397.62 146.227 398.692 142.771 398.692ZM162.143 388.948C161.439 388.948 160.847 388.724 160.367 388.276C159.919 387.796 159.695 387.204 159.695 386.5V363.46C159.695 362.724 159.919 362.132 160.367 361.684C160.847 361.236 161.439 361.012 162.143 361.012C162.879 361.012 163.471 361.236 163.919 361.684C164.367 362.132 164.591 362.724 164.591 363.46V386.5C164.591 387.204 164.367 387.796 163.919 388.276C163.471 388.724 162.879 388.948 162.143 388.948ZM181.871 398.548C181.167 398.548 180.575 398.324 180.095 397.876C179.647 397.396 179.423 396.804 179.423 396.1V384.292C179.423 382.468 179.087 380.98 178.415 379.828C177.743 378.676 176.831 377.828 175.679 377.284C174.559 376.708 173.263 376.42 171.791 376.42C170.447 376.42 169.231 376.692 168.143 377.236C167.055 377.78 166.191 378.516 165.551 379.444C164.911 380.34 164.591 381.38 164.591 382.564H161.567C161.567 380.548 162.047 378.756 163.007 377.188C163.999 375.588 165.343 374.324 167.039 373.396C168.735 372.468 170.639 372.004 172.751 372.004C174.959 372.004 176.927 372.484 178.655 373.444C180.415 374.372 181.791 375.748 182.783 377.572C183.807 379.396 184.319 381.636 184.319 384.292V396.1C184.319 396.804 184.079 397.396 183.599 397.876C183.151 398.324 182.575 398.548 181.871 398.548ZM162.143 398.548C161.439 398.548 160.847 398.324 160.367 397.876C159.919 397.396 159.695 396.804 159.695 396.1V374.692C159.695 373.956 159.919 373.364 160.367 372.916C160.847 372.468 161.439 372.244 162.143 372.244C162.879 372.244 163.471 372.468 163.919 372.916C164.367 373.364 164.591 373.956 164.591 374.692V396.1C164.591 396.804 164.367 397.396 163.919 397.876C163.471 398.324 162.879 398.548 162.143 398.548ZM204.365 398.692C201.773 398.692 199.485 398.132 197.501 397.012C195.517 395.86 193.949 394.292 192.797 392.308C191.677 390.292 191.117 387.988 191.117 385.396C191.117 382.772 191.677 380.468 192.797 378.484C193.949 376.468 195.517 374.9 197.501 373.78C199.485 372.628 201.773 372.052 204.365 372.052C206.925 372.052 209.197 372.628 211.181 373.78C213.165 374.9 214.717 376.468 215.837 378.484C216.989 380.468 217.565 382.772 217.565 385.396C217.565 387.988 217.005 390.292 215.885 392.308C214.765 394.292 213.213 395.86 211.229 397.012C209.245 398.132 206.957 398.692 204.365 398.692ZM204.365 394.372C206.029 394.372 207.501 393.988 208.781 393.22C210.061 392.452 211.053 391.396 211.757 390.052C212.493 388.708 212.861 387.156 212.861 385.396C212.861 383.636 212.493 382.084 211.757 380.74C211.053 379.364 210.061 378.292 208.781 377.524C207.501 376.756 206.029 376.372 204.365 376.372C202.701 376.372 201.229 376.756 199.949 377.524C198.669 378.292 197.661 379.364 196.925 380.74C196.189 382.084 195.821 383.636 195.821 385.396C195.821 387.156 196.189 388.708 196.925 390.052C197.661 391.396 198.669 392.452 199.949 393.22C201.229 393.988 202.701 394.372 204.365 394.372ZM227.203 382.084C227.203 380.164 227.667 378.452 228.595 376.948C229.555 375.412 230.835 374.196 232.435 373.3C234.035 372.404 235.795 371.956 237.715 371.956C239.635 371.956 241.059 372.276 241.987 372.916C242.947 373.524 243.315 374.26 243.091 375.124C242.995 375.572 242.803 375.924 242.515 376.18C242.259 376.404 241.955 376.548 241.603 376.612C241.251 376.676 240.867 376.66 240.451 376.564C238.403 376.148 236.563 376.116 234.931 376.468C233.299 376.82 232.003 377.476 231.043 378.436C230.115 379.396 229.651 380.612 229.651 382.084H227.203ZM227.251 398.5C226.483 398.5 225.891 398.308 225.475 397.924C225.059 397.508 224.851 396.9 224.851 396.1V374.644C224.851 373.876 225.059 373.284 225.475 372.868C225.891 372.452 226.483 372.244 227.251 372.244C228.051 372.244 228.643 372.452 229.027 372.868C229.443 373.252 229.651 373.844 229.651 374.644V396.1C229.651 396.868 229.443 397.46 229.027 397.876C228.643 398.292 228.051 398.5 227.251 398.5ZM258.177 398.692C255.585 398.692 253.297 398.132 251.313 397.012C249.329 395.86 247.761 394.292 246.609 392.308C245.489 390.292 244.929 387.988 244.929 385.396C244.929 382.772 245.489 380.468 246.609 378.484C247.761 376.468 249.329 374.9 251.313 373.78C253.297 372.628 255.585 372.052 258.177 372.052C260.737 372.052 263.009 372.628 264.993 373.78C266.977 374.9 268.529 376.468 269.649 378.484C270.801 380.468 271.377 382.772 271.377 385.396C271.377 387.988 270.817 390.292 269.697 392.308C268.577 394.292 267.025 395.86 265.041 397.012C263.057 398.132 260.769 398.692 258.177 398.692ZM258.177 394.372C259.841 394.372 261.313 393.988 262.593 393.22C263.873 392.452 264.865 391.396 265.569 390.052C266.305 388.708 266.673 387.156 266.673 385.396C266.673 383.636 266.305 382.084 265.569 380.74C264.865 379.364 263.873 378.292 262.593 377.524C261.313 376.756 259.841 376.372 258.177 376.372C256.513 376.372 255.041 376.756 253.761 377.524C252.481 378.292 251.473 379.364 250.737 380.74C250.001 382.084 249.633 383.636 249.633 385.396C249.633 387.156 250.001 388.708 250.737 390.052C251.473 391.396 252.481 392.452 253.761 393.22C255.041 393.988 256.513 394.372 258.177 394.372ZM300.84 398.548C300.136 398.548 299.544 398.324 299.064 397.876C298.616 397.396 298.392 396.804 298.392 396.1V384.292C298.392 382.468 298.056 380.98 297.384 379.828C296.712 378.676 295.8 377.828 294.648 377.284C293.528 376.708 292.232 376.42 290.76 376.42C289.416 376.42 288.2 376.692 287.112 377.236C286.024 377.78 285.16 378.516 284.52 379.444C283.88 380.34 283.56 381.38 283.56 382.564H280.536C280.536 380.548 281.016 378.756 281.976 377.188C282.968 375.588 284.312 374.324 286.008 373.396C287.704 372.468 289.608 372.004 291.72 372.004C293.928 372.004 295.896 372.484 297.624 373.444C299.384 374.372 300.76 375.748 301.752 377.572C302.776 379.396 303.288 381.636 303.288 384.292V396.1C303.288 396.804 303.048 397.396 302.568 397.876C302.12 398.324 301.544 398.548 300.84 398.548ZM281.112 398.548C280.408 398.548 279.816 398.324 279.336 397.876C278.888 397.396 278.664 396.804 278.664 396.1V374.692C278.664 373.956 278.888 373.364 279.336 372.916C279.816 372.468 280.408 372.244 281.112 372.244C281.848 372.244 282.44 372.468 282.888 372.916C283.336 373.364 283.56 373.956 283.56 374.692V396.1C283.56 396.804 283.336 397.396 282.888 397.876C282.44 398.324 281.848 398.548 281.112 398.548ZM323.287 398.692C320.695 398.692 318.407 398.132 316.423 397.012C314.439 395.86 312.871 394.292 311.719 392.308C310.599 390.292 310.039 387.988 310.039 385.396C310.039 382.772 310.599 380.468 311.719 378.484C312.871 376.468 314.439 374.9 316.423 373.78C318.407 372.628 320.695 372.052 323.287 372.052C325.847 372.052 328.119 372.628 330.103 373.78C332.087 374.9 333.639 376.468 334.759 378.484C335.911 380.468 336.487 382.772 336.487 385.396C336.487 387.988 335.927 390.292 334.807 392.308C333.687 394.292 332.135 395.86 330.151 397.012C328.167 398.132 325.879 398.692 323.287 398.692ZM323.287 394.372C324.951 394.372 326.423 393.988 327.703 393.22C328.983 392.452 329.975 391.396 330.679 390.052C331.415 388.708 331.783 387.156 331.783 385.396C331.783 383.636 331.415 382.084 330.679 380.74C329.975 379.364 328.983 378.292 327.703 377.524C326.423 376.756 324.951 376.372 323.287 376.372C321.623 376.372 320.151 376.756 318.871 377.524C317.591 378.292 316.583 379.364 315.847 380.74C315.111 382.084 314.743 383.636 314.743 385.396C314.743 387.156 315.111 388.708 315.847 390.052C316.583 391.396 317.591 392.452 318.871 393.22C320.151 393.988 321.623 394.372 323.287 394.372ZM354.813 398.74C352.605 398.74 350.621 398.276 348.861 397.348C347.133 396.388 345.757 394.996 344.733 393.172C343.741 391.348 343.245 389.108 343.245 386.452V374.644C343.245 373.94 343.469 373.364 343.917 372.916C344.397 372.436 344.989 372.196 345.693 372.196C346.397 372.196 346.973 372.436 347.421 372.916C347.901 373.364 348.141 373.94 348.141 374.644V386.452C348.141 388.244 348.477 389.732 349.149 390.916C349.821 392.068 350.733 392.932 351.885 393.508C353.037 394.052 354.333 394.324 355.773 394.324C357.149 394.324 358.365 394.052 359.421 393.508C360.509 392.964 361.373 392.228 362.013 391.3C362.653 390.372 362.973 389.332 362.973 388.18H365.997C365.997 390.164 365.501 391.956 364.509 393.556C363.549 395.156 362.221 396.42 360.525 397.348C358.861 398.276 356.957 398.74 354.813 398.74ZM365.421 398.5C364.717 398.5 364.125 398.276 363.645 397.828C363.197 397.348 362.973 396.756 362.973 396.052V374.644C362.973 373.908 363.197 373.316 363.645 372.868C364.125 372.42 364.717 372.196 365.421 372.196C366.157 372.196 366.749 372.42 367.197 372.868C367.645 373.316 367.869 373.908 367.869 374.644V396.052C367.869 396.756 367.645 397.348 367.197 397.828C366.749 398.276 366.157 398.5 365.421 398.5ZM386.044 398.692C383.804 398.692 381.724 398.356 379.804 397.684C377.916 396.98 376.444 396.1 375.388 395.044C374.908 394.532 374.7 393.956 374.764 393.316C374.86 392.644 375.18 392.1 375.724 391.684C376.364 391.172 376.988 390.964 377.596 391.06C378.236 391.124 378.78 391.396 379.228 391.876C379.772 392.484 380.636 393.06 381.82 393.604C383.036 394.116 384.38 394.372 385.852 394.372C387.708 394.372 389.116 394.068 390.076 393.46C391.068 392.852 391.58 392.068 391.612 391.108C391.644 390.148 391.18 389.316 390.22 388.612C389.292 387.908 387.58 387.332 385.084 386.884C381.852 386.244 379.5 385.284 378.028 384.004C376.588 382.724 375.868 381.156 375.868 379.3C375.868 377.668 376.348 376.324 377.308 375.268C378.268 374.18 379.5 373.38 381.004 372.868C382.508 372.324 384.076 372.052 385.708 372.052C387.82 372.052 389.692 372.388 391.324 373.06C392.956 373.732 394.252 374.66 395.212 375.844C395.66 376.356 395.868 376.9 395.836 377.476C395.804 378.02 395.532 378.484 395.02 378.868C394.508 379.22 393.9 379.332 393.196 379.204C392.492 379.076 391.9 378.788 391.42 378.34C390.62 377.572 389.756 377.044 388.828 376.756C387.9 376.468 386.828 376.324 385.612 376.324C384.204 376.324 383.004 376.564 382.012 377.044C381.052 377.524 380.572 378.228 380.572 379.156C380.572 379.732 380.716 380.26 381.004 380.74C381.324 381.188 381.932 381.604 382.828 381.988C383.724 382.34 385.036 382.692 386.764 383.044C389.164 383.524 391.052 384.132 392.428 384.868C393.836 385.604 394.844 386.468 395.452 387.46C396.06 388.42 396.364 389.54 396.364 390.82C396.364 392.292 395.964 393.62 395.164 394.804C394.396 395.988 393.244 396.932 391.708 397.636C390.204 398.34 388.316 398.692 386.044 398.692ZM422.665 398.5C422.153 398.5 421.673 398.356 421.225 398.068C420.809 397.748 420.521 397.364 420.361 396.916L413.257 375.604C413.001 374.612 413.001 373.812 413.257 373.204C413.545 372.564 414.153 372.244 415.081 372.244C415.689 372.244 416.185 372.42 416.569 372.772C416.985 373.092 417.321 373.652 417.577 374.452L423.625 393.364H421.945L427.657 374.068C427.817 373.524 428.089 373.092 428.473 372.772C428.857 372.42 429.385 372.244 430.057 372.244C430.697 372.244 431.209 372.42 431.593 372.772C432.009 373.092 432.281 373.524 432.409 374.068L437.065 392.212H436.345L442.009 374.452C442.457 372.98 443.289 372.244 444.505 372.244C445.401 372.244 446.009 372.564 446.329 373.204C446.649 373.812 446.633 374.612 446.281 375.604L439.177 396.916C439.049 397.364 438.777 397.748 438.361 398.068C437.945 398.356 437.465 398.5 436.921 398.5C436.409 398.5 435.929 398.356 435.481 398.068C435.033 397.748 434.745 397.364 434.617 396.916L429.673 378.628H430.153L424.969 396.916C424.841 397.364 424.553 397.748 424.105 398.068C423.689 398.356 423.209 398.5 422.665 398.5ZM462.937 398.692C460.281 398.692 457.913 398.132 455.833 397.012C453.785 395.86 452.169 394.292 450.985 392.308C449.833 390.292 449.257 387.988 449.257 385.396C449.257 382.772 449.801 380.468 450.889 378.484C452.009 376.468 453.545 374.9 455.497 373.78C457.449 372.628 459.689 372.052 462.217 372.052C464.713 372.052 466.857 372.612 468.649 373.732C470.441 374.82 471.801 376.34 472.729 378.292C473.689 380.212 474.169 382.436 474.169 384.964C474.169 385.572 473.961 386.084 473.545 386.5C473.129 386.884 472.601 387.076 471.961 387.076H452.617V383.236H471.817L469.849 384.58C469.817 382.98 469.497 381.556 468.889 380.308C468.281 379.028 467.417 378.02 466.297 377.284C465.177 376.548 463.817 376.18 462.217 376.18C460.393 376.18 458.825 376.58 457.513 377.38C456.233 378.18 455.257 379.284 454.585 380.692C453.913 382.068 453.577 383.636 453.577 385.396C453.577 387.156 453.977 388.724 454.777 390.1C455.577 391.476 456.681 392.564 458.089 393.364C459.497 394.164 461.113 394.564 462.937 394.564C463.929 394.564 464.937 394.388 465.961 394.036C467.017 393.652 467.865 393.22 468.505 392.74C468.985 392.388 469.497 392.212 470.041 392.212C470.617 392.18 471.113 392.34 471.529 392.692C472.073 393.172 472.361 393.7 472.393 394.276C472.425 394.852 472.169 395.348 471.625 395.764C470.537 396.628 469.177 397.332 467.545 397.876C465.945 398.42 464.409 398.692 462.937 398.692ZM493.614 398.692C491.118 398.692 488.878 398.116 486.894 396.964C484.91 395.78 483.342 394.18 482.19 392.164C481.038 390.148 480.446 387.876 480.414 385.348V363.46C480.414 362.724 480.638 362.132 481.086 361.684C481.566 361.236 482.158 361.012 482.862 361.012C483.598 361.012 484.19 361.236 484.638 361.684C485.086 362.132 485.31 362.724 485.31 363.46V376.42C486.43 375.076 487.774 374.02 489.342 373.252C490.942 372.452 492.686 372.052 494.574 372.052C496.91 372.052 499.006 372.644 500.862 373.828C502.718 374.98 504.174 376.564 505.23 378.58C506.318 380.564 506.862 382.82 506.862 385.348C506.862 387.876 506.27 390.148 505.086 392.164C503.934 394.18 502.366 395.78 500.382 396.964C498.398 398.116 496.142 398.692 493.614 398.692ZM493.614 394.372C495.246 394.372 496.702 393.988 497.982 393.22C499.262 392.42 500.27 391.332 501.006 389.956C501.774 388.58 502.158 387.044 502.158 385.348C502.158 383.62 501.774 382.084 501.006 380.74C500.27 379.396 499.262 378.34 497.982 377.572C496.702 376.772 495.246 376.372 493.614 376.372C492.014 376.372 490.558 376.772 489.246 377.572C487.966 378.34 486.958 379.396 486.222 380.74C485.486 382.084 485.118 383.62 485.118 385.348C485.118 387.044 485.486 388.58 486.222 389.956C486.958 391.332 487.966 392.42 489.246 393.22C490.558 393.988 492.014 394.372 493.614 394.372ZM514.02 387.796C513.316 387.796 512.724 387.572 512.244 387.124C511.796 386.676 511.572 386.1 511.572 385.396C511.572 384.66 511.796 384.068 512.244 383.62C512.724 383.172 513.316 382.948 514.02 382.948H524.724C525.428 382.948 526.004 383.172 526.452 383.62C526.9 384.068 527.124 384.66 527.124 385.396C527.124 386.1 526.9 386.676 526.452 387.124C526.004 387.572 525.428 387.796 524.724 387.796H514.02ZM535.746 398.5C535.138 398.5 534.594 398.276 534.114 397.828C533.634 397.38 533.394 396.788 533.394 396.052V372.388C533.394 370.084 533.842 368.084 534.738 366.388C535.666 364.692 536.946 363.38 538.578 362.452C540.21 361.492 542.098 361.012 544.242 361.012C544.946 361.012 545.522 361.22 545.97 361.636C546.45 362.052 546.69 362.58 546.69 363.22C546.69 363.828 546.45 364.356 545.97 364.804C545.522 365.22 544.946 365.428 544.242 365.428C543.058 365.428 542.018 365.7 541.122 366.244C540.226 366.788 539.522 367.54 539.01 368.5C538.53 369.46 538.29 370.596 538.29 371.908V396.052C538.29 396.788 538.066 397.38 537.618 397.828C537.17 398.276 536.546 398.5 535.746 398.5ZM531.33 377.332C530.658 377.332 530.114 377.14 529.698 376.756C529.282 376.372 529.074 375.892 529.074 375.316C529.074 374.676 529.282 374.164 529.698 373.78C530.114 373.396 530.658 373.204 531.33 373.204H543.186C543.858 373.204 544.402 373.396 544.818 373.78C545.234 374.164 545.442 374.676 545.442 375.316C545.442 375.892 545.234 376.372 544.818 376.756C544.402 377.14 543.858 377.332 543.186 377.332H531.33ZM552.891 382.084C552.891 380.164 553.355 378.452 554.283 376.948C555.243 375.412 556.523 374.196 558.123 373.3C559.723 372.404 561.483 371.956 563.403 371.956C565.323 371.956 566.747 372.276 567.675 372.916C568.635 373.524 569.003 374.26 568.779 375.124C568.683 375.572 568.491 375.924 568.203 376.18C567.947 376.404 567.643 376.548 567.291 376.612C566.939 376.676 566.555 376.66 566.139 376.564C564.091 376.148 562.251 376.116 560.619 376.468C558.987 376.82 557.691 377.476 556.731 378.436C555.803 379.396 555.339 380.612 555.339 382.084H552.891ZM552.939 398.5C552.171 398.5 551.579 398.308 551.163 397.924C550.747 397.508 550.539 396.9 550.539 396.1V374.644C550.539 373.876 550.747 373.284 551.163 372.868C551.579 372.452 552.171 372.244 552.939 372.244C553.739 372.244 554.331 372.452 554.715 372.868C555.131 373.252 555.339 373.844 555.339 374.644V396.1C555.339 396.868 555.131 397.46 554.715 397.876C554.331 398.292 553.739 398.5 552.939 398.5ZM582.905 398.692C580.569 398.692 578.473 398.116 576.617 396.964C574.761 395.78 573.289 394.196 572.201 392.212C571.145 390.196 570.617 387.924 570.617 385.396C570.617 382.868 571.193 380.596 572.345 378.58C573.529 376.564 575.113 374.98 577.097 373.828C579.113 372.644 581.369 372.052 583.865 372.052C586.361 372.052 588.601 372.644 590.585 373.828C592.569 374.98 594.137 376.564 595.289 378.58C596.473 380.596 597.065 382.868 597.065 385.396H595.193C595.193 387.924 594.649 390.196 593.561 392.212C592.505 394.196 591.049 395.78 589.193 396.964C587.337 398.116 585.241 398.692 582.905 398.692ZM583.865 394.372C585.497 394.372 586.953 393.988 588.233 393.22C589.513 392.42 590.521 391.348 591.257 390.004C591.993 388.628 592.361 387.092 592.361 385.396C592.361 383.668 591.993 382.132 591.257 380.788C590.521 379.412 589.513 378.34 588.233 377.572C586.953 376.772 585.497 376.372 583.865 376.372C582.265 376.372 580.809 376.772 579.497 377.572C578.217 378.34 577.193 379.412 576.425 380.788C575.689 382.132 575.321 383.668 575.321 385.396C575.321 387.092 575.689 388.628 576.425 390.004C577.193 391.348 578.217 392.42 579.497 393.22C580.809 393.988 582.265 394.372 583.865 394.372ZM594.617 398.548C593.913 398.548 593.321 398.324 592.841 397.876C592.393 397.396 592.169 396.804 592.169 396.1V388.756L593.081 383.668L597.065 385.396V396.1C597.065 396.804 596.825 397.396 596.345 397.876C595.897 398.324 595.321 398.548 594.617 398.548ZM638.815 398.548C638.111 398.548 637.519 398.324 637.039 397.876C636.591 397.396 636.367 396.804 636.367 396.1V382.372C636.367 380.356 635.871 378.868 634.879 377.908C633.887 376.916 632.591 376.42 630.991 376.42C629.327 376.42 627.951 376.996 626.863 378.148C625.807 379.3 625.279 380.772 625.279 382.564H621.295C621.295 380.484 621.743 378.66 622.639 377.092C623.535 375.492 624.783 374.244 626.383 373.348C628.015 372.452 629.871 372.004 631.951 372.004C633.775 372.004 635.391 372.404 636.799 373.204C638.207 374.004 639.295 375.188 640.063 376.756C640.863 378.292 641.263 380.164 641.263 382.372V396.1C641.263 396.804 641.039 397.396 640.591 397.876C640.143 398.324 639.551 398.548 638.815 398.548ZM606.799 398.548C606.095 398.548 605.503 398.324 605.023 397.876C604.575 397.396 604.351 396.804 604.351 396.1V374.74C604.351 374.004 604.575 373.412 605.023 372.964C605.503 372.516 606.095 372.292 606.799 372.292C607.535 372.292 608.127 372.516 608.575 372.964C609.023 373.412 609.247 374.004 609.247 374.74V396.1C609.247 396.804 609.023 397.396 608.575 397.876C608.127 398.324 607.535 398.548 606.799 398.548ZM622.831 398.548C622.127 398.548 621.535 398.324 621.055 397.876C620.607 397.396 620.383 396.804 620.383 396.1V382.372C620.383 380.356 619.887 378.868 618.895 377.908C617.903 376.916 616.607 376.42 615.007 376.42C613.343 376.42 611.967 376.996 610.879 378.148C609.791 379.3 609.247 380.772 609.247 382.564H606.223C606.223 380.484 606.639 378.66 607.471 377.092C608.303 375.492 609.455 374.244 610.927 373.348C612.399 372.452 614.079 372.004 615.967 372.004C617.791 372.004 619.407 372.404 620.815 373.204C622.223 374.004 623.311 375.188 624.079 376.756C624.879 378.292 625.279 380.164 625.279 382.372V396.1C625.279 396.804 625.055 397.396 624.607 397.876C624.159 398.324 623.567 398.548 622.831 398.548ZM661.734 398.692C659.078 398.692 656.71 398.132 654.63 397.012C652.582 395.86 650.966 394.292 649.782 392.308C648.63 390.292 648.054 387.988 648.054 385.396C648.054 382.772 648.598 380.468 649.686 378.484C650.806 376.468 652.342 374.9 654.294 373.78C656.246 372.628 658.486 372.052 661.014 372.052C663.51 372.052 665.654 372.612 667.446 373.732C669.238 374.82 670.598 376.34 671.526 378.292C672.486 380.212 672.966 382.436 672.966 384.964C672.966 385.572 672.758 386.084 672.342 386.5C671.926 386.884 671.398 387.076 670.758 387.076H651.414V383.236H670.614L668.646 384.58C668.614 382.98 668.294 381.556 667.686 380.308C667.078 379.028 666.214 378.02 665.094 377.284C663.974 376.548 662.614 376.18 661.014 376.18C659.19 376.18 657.622 376.58 656.31 377.38C655.03 378.18 654.054 379.284 653.382 380.692C652.71 382.068 652.374 383.636 652.374 385.396C652.374 387.156 652.774 388.724 653.574 390.1C654.374 391.476 655.478 392.564 656.886 393.364C658.294 394.164 659.91 394.564 661.734 394.564C662.726 394.564 663.734 394.388 664.758 394.036C665.814 393.652 666.662 393.22 667.302 392.74C667.782 392.388 668.294 392.212 668.838 392.212C669.414 392.18 669.91 392.34 670.326 392.692C670.87 393.172 671.158 393.7 671.19 394.276C671.222 394.852 670.966 395.348 670.422 395.764C669.334 396.628 667.974 397.332 666.342 397.876C664.742 398.42 663.206 398.692 661.734 398.692ZM684.321 398.5C683.809 398.5 683.329 398.356 682.881 398.068C682.465 397.748 682.177 397.364 682.017 396.916L674.913 375.604C674.657 374.612 674.657 373.812 674.913 373.204C675.201 372.564 675.809 372.244 676.737 372.244C677.345 372.244 677.841 372.42 678.225 372.772C678.641 373.092 678.977 373.652 679.233 374.452L685.281 393.364H683.601L689.313 374.068C689.473 373.524 689.745 373.092 690.129 372.772C690.513 372.42 691.041 372.244 691.713 372.244C692.353 372.244 692.865 372.42 693.249 372.772C693.665 373.092 693.937 373.524 694.065 374.068L698.721 392.212H698.001L703.665 374.452C704.113 372.98 704.945 372.244 706.161 372.244C707.057 372.244 707.665 372.564 707.985 373.204C708.305 373.812 708.289 374.612 707.937 375.604L700.833 396.916C700.705 397.364 700.433 397.748 700.017 398.068C699.601 398.356 699.121 398.5 698.577 398.5C698.065 398.5 697.585 398.356 697.137 398.068C696.689 397.748 696.401 397.364 696.273 396.916L691.329 378.628H691.809L686.625 396.916C686.497 397.364 686.209 397.748 685.761 398.068C685.345 398.356 684.865 398.5 684.321 398.5ZM724.162 398.692C721.57 398.692 719.282 398.132 717.298 397.012C715.314 395.86 713.746 394.292 712.594 392.308C711.474 390.292 710.914 387.988 710.914 385.396C710.914 382.772 711.474 380.468 712.594 378.484C713.746 376.468 715.314 374.9 717.298 373.78C719.282 372.628 721.57 372.052 724.162 372.052C726.722 372.052 728.994 372.628 730.978 373.78C732.962 374.9 734.514 376.468 735.634 378.484C736.786 380.468 737.362 382.772 737.362 385.396C737.362 387.988 736.802 390.292 735.682 392.308C734.562 394.292 733.01 395.86 731.026 397.012C729.042 398.132 726.754 398.692 724.162 398.692ZM724.162 394.372C725.826 394.372 727.298 393.988 728.578 393.22C729.858 392.452 730.85 391.396 731.554 390.052C732.29 388.708 732.658 387.156 732.658 385.396C732.658 383.636 732.29 382.084 731.554 380.74C730.85 379.364 729.858 378.292 728.578 377.524C727.298 376.756 725.826 376.372 724.162 376.372C722.498 376.372 721.026 376.756 719.746 377.524C718.466 378.292 717.458 379.364 716.722 380.74C715.986 382.084 715.618 383.636 715.618 385.396C715.618 387.156 715.986 388.708 716.722 390.052C717.458 391.396 718.466 392.452 719.746 393.22C721.026 393.988 722.498 394.372 724.162 394.372ZM747 382.084C747 380.164 747.464 378.452 748.392 376.948C749.352 375.412 750.632 374.196 752.232 373.3C753.832 372.404 755.592 371.956 757.512 371.956C759.432 371.956 760.856 372.276 761.784 372.916C762.744 373.524 763.112 374.26 762.888 375.124C762.792 375.572 762.6 375.924 762.312 376.18C762.056 376.404 761.752 376.548 761.4 376.612C761.048 376.676 760.664 376.66 760.248 376.564C758.2 376.148 756.36 376.116 754.728 376.468C753.096 376.82 751.8 377.476 750.84 378.436C749.912 379.396 749.448 380.612 749.448 382.084H747ZM747.048 398.5C746.28 398.5 745.688 398.308 745.272 397.924C744.856 397.508 744.648 396.9 744.648 396.1V374.644C744.648 373.876 744.856 373.284 745.272 372.868C745.688 372.452 746.28 372.244 747.048 372.244C747.848 372.244 748.44 372.452 748.824 372.868C749.24 373.252 749.448 373.844 749.448 374.644V396.1C749.448 396.868 749.24 397.46 748.824 397.876C748.44 398.292 747.848 398.5 747.048 398.5ZM772.6 388.9L769.624 385.636L784.36 372.484C784.84 372.036 785.368 371.828 785.944 371.86C786.552 371.892 787.064 372.148 787.48 372.628C787.928 373.108 788.136 373.636 788.104 374.212C788.072 374.788 787.816 375.3 787.336 375.748L772.6 388.9ZM770.344 398.5C769.64 398.5 769.064 398.292 768.616 397.876C768.2 397.428 767.992 396.852 767.992 396.148V363.364C767.992 362.66 768.2 362.1 768.616 361.684C769.064 361.236 769.64 361.012 770.344 361.012C771.048 361.012 771.608 361.236 772.024 361.684C772.472 362.1 772.696 362.66 772.696 363.364V396.148C772.696 396.852 772.472 397.428 772.024 397.876C771.608 398.292 771.048 398.5 770.344 398.5ZM787.48 398.26C786.968 398.676 786.392 398.852 785.752 398.788C785.144 398.756 784.632 398.484 784.216 397.972L774.472 385.924L777.832 382.756L787.816 395.044C788.232 395.556 788.408 396.116 788.344 396.724C788.312 397.3 788.024 397.812 787.48 398.26Z" fill="black"/>
<g clip-path="url(#clip0_207_9)">
<path d="M400.982 22.6406C400.982 22.6406 393.811 28.752 386.48 34.7578C378.939 34.5176 364.174 36.3105 356.176 39.4277C348.764 34.418 342.295 28.8984 342.295 28.8984C342.295 28.8984 336.74 39.0937 333.295 45.0762C328.109 48.0293 322.918 51.3281 318.313 55.6934C312.939 53.4375 306.711 50.625 306.5 50.5664C313.607 65.918 318.4 81.293 331.432 90.5449C352.156 55.5059 448.473 58.7461 469.648 90.3574C483.318 82.7344 488.627 66.3105 494 51.1465C493.42 51.3574 486.096 53.9824 481.367 55.9043C478.531 52.6055 471.846 47.543 468.061 45.0996C465.184 39.5215 462.23 33.9961 459.207 28.5C459.207 28.5 453.014 33.4453 445.807 38.8535C436.104 36.9316 424.355 34.6113 414.465 35.1914C409.889 31.0957 405.4 26.9121 400.982 22.6406ZM313.854 83.1855L330.98 127.5C360.676 169.436 436.514 172.336 469.561 128.326C477.371 109.465 487.936 82.9453 487.936 82.9453C479.451 96.4043 465.652 105.68 457.139 110.654C451.098 114.193 437.188 116.367 437.188 116.367L400.561 96.0703L363.787 115.939C363.787 115.939 350.023 113.59 343.795 110.479C331.227 103.307 322.771 94.8223 313.859 83.1914L313.854 83.1855Z" fill="black"/>
</g>
<defs>
<clipPath id="clip0_207_9">
<rect width="187.5" height="187.5" fill="white" transform="translate(306.5)"/>
</clipPath>
</defs>
</svg>
