<svg width="699" height="181" viewBox="0 0 699 181" fill="none" xmlns="http://www.w3.org/2000/svg">
<path d="M66.2435 137V79.4985H33.1604V137H0.865V0.532318H33.1604V52.9138H66.2435V0.532318H98.5388V137H66.2435ZM210.559 106.871C210.559 110.809 211.084 113.665 212.135 115.437C213.251 117.209 215.023 118.555 217.452 119.474L211.052 139.954C204.881 139.363 199.663 138.017 195.396 135.917C191.195 133.751 187.88 130.502 185.452 126.169C181.447 130.961 176.327 134.538 170.092 136.902C163.856 139.199 157.488 140.348 150.99 140.348C140.225 140.348 131.626 137.295 125.193 131.191C118.826 125.021 115.642 117.111 115.642 107.462C115.642 96.1056 120.073 87.3426 128.935 81.1723C137.862 75.0021 150.399 71.9169 166.547 71.9169H180.627V67.9785C180.627 57.279 173.735 51.9292 159.95 51.9292C156.602 51.9292 152.303 52.4215 147.052 53.4062C141.8 54.3251 136.549 55.6708 131.298 57.4431L124.11 36.7662C130.871 34.2062 137.895 32.2697 145.181 30.9569C152.533 29.6441 159.097 28.9877 164.873 28.9877C180.43 28.9877 191.917 32.1713 199.335 38.5385C206.818 44.84 210.559 53.9641 210.559 65.9108V106.871ZM161.722 118.095C165.07 118.095 168.582 117.111 172.258 115.142C175.934 113.107 178.723 110.251 180.627 106.575V89.64H172.947C164.282 89.64 157.915 90.9856 153.845 93.6769C149.776 96.3026 147.741 100.175 147.741 105.295C147.741 109.299 148.955 112.45 151.384 114.748C153.878 116.979 157.324 118.095 161.722 118.095ZM298.555 28.9877C307.679 28.9877 315.031 31.2523 320.61 35.7815C326.19 40.3108 330.26 46.7108 332.82 54.9815C335.445 63.2523 336.758 73.0656 336.758 84.4215C336.758 95.1867 335.183 104.803 332.032 113.271C328.881 121.673 324.319 128.303 318.346 133.16C312.372 137.952 305.119 140.348 296.586 140.348C286.411 140.348 278.141 136.705 271.773 129.418V177.369L240.66 180.618V32.4338H268.229L269.607 44.1508C273.874 38.7026 278.534 34.8298 283.589 32.5323C288.643 30.1692 293.632 28.9877 298.555 28.9877ZM288.906 51.9292C285.296 51.9292 282.112 53.0123 279.355 55.1785C276.598 57.3446 274.071 60.2985 271.773 64.04V108.151C273.94 111.367 276.204 113.73 278.567 115.24C280.996 116.75 283.851 117.505 287.133 117.505C292.647 117.505 296.947 115.01 300.032 110.022C303.117 104.967 304.66 96.5651 304.66 84.8154C304.66 76.1508 304.036 69.4554 302.789 64.7292C301.542 59.9374 299.737 56.6226 297.373 54.7846C295.01 52.881 292.188 51.9292 288.906 51.9292ZM416.68 28.9877C425.804 28.9877 433.156 31.2523 438.735 35.7815C444.315 40.3108 448.385 46.7108 450.945 54.9815C453.57 63.2523 454.883 73.0656 454.883 84.4215C454.883 95.1867 453.308 104.803 450.157 113.271C447.006 121.673 442.444 128.303 436.471 133.16C430.497 137.952 423.244 140.348 414.711 140.348C404.536 140.348 396.266 136.705 389.898 129.418V177.369L358.785 180.618V32.4338H386.354L387.732 44.1508C391.999 38.7026 396.659 34.8298 401.714 32.5323C406.768 30.1692 411.757 28.9877 416.68 28.9877ZM407.031 51.9292C403.421 51.9292 400.237 53.0123 397.48 55.1785C394.723 57.3446 392.196 60.2985 389.898 64.04V108.151C392.065 111.367 394.329 113.73 396.692 115.24C399.121 116.75 401.976 117.505 405.258 117.505C410.772 117.505 415.072 115.01 418.157 110.022C421.242 104.967 422.785 96.5651 422.785 84.8154C422.785 76.1508 422.161 69.4554 420.914 64.7292C419.667 59.9374 417.862 56.6226 415.498 54.7846C413.135 52.881 410.313 51.9292 407.031 51.9292ZM575.765 32.4338L540.91 137C536.315 150.85 529.357 161.386 520.036 168.606C510.78 175.827 498.21 179.896 482.325 180.815L478.78 158.858C485.673 158.005 491.219 156.725 495.42 155.018C499.687 153.312 503.1 150.982 505.66 148.028C508.286 145.139 510.551 141.464 512.454 137H501.82L468.639 32.4338H501.525L521.808 117.111L543.863 32.4338H575.765ZM584.992 0.532318H619.748L640.327 44.3477L661.398 0.532318H695.465L659.232 63.1539L698.813 137H664.056L639.933 84.9138L616.204 137H581.939L620.733 64.5323L584.992 0.532318Z" fill="white"/>
<path d="M66.2435 137V79.4985H33.1604V137H0.865V0.532318H33.1604V52.9138H66.2435V0.532318H98.5388V137H66.2435ZM210.559 106.871C210.559 110.809 211.084 113.665 212.135 115.437C213.251 117.209 215.023 118.555 217.452 119.474L211.052 139.954C204.881 139.363 199.663 138.017 195.396 135.917C191.195 133.751 187.88 130.502 185.452 126.169C181.447 130.961 176.327 134.538 170.092 136.902C163.856 139.199 157.488 140.348 150.99 140.348C140.225 140.348 131.626 137.295 125.193 131.191C118.826 125.021 115.642 117.111 115.642 107.462C115.642 96.1056 120.073 87.3426 128.935 81.1723C137.862 75.0021 150.399 71.9169 166.547 71.9169H180.627V67.9785C180.627 57.279 173.735 51.9292 159.95 51.9292C156.602 51.9292 152.303 52.4215 147.052 53.4062C141.8 54.3251 136.549 55.6708 131.298 57.4431L124.11 36.7662C130.871 34.2062 137.895 32.2697 145.181 30.9569C152.533 29.6441 159.097 28.9877 164.873 28.9877C180.43 28.9877 191.917 32.1713 199.335 38.5385C206.818 44.84 210.559 53.9641 210.559 65.9108V106.871ZM161.722 118.095C165.07 118.095 168.582 117.111 172.258 115.142C175.934 113.107 178.723 110.251 180.627 106.575V89.64H172.947C164.282 89.64 157.915 90.9856 153.845 93.6769C149.776 96.3026 147.741 100.175 147.741 105.295C147.741 109.299 148.955 112.45 151.384 114.748C153.878 116.979 157.324 118.095 161.722 118.095ZM298.555 28.9877C307.679 28.9877 315.031 31.2523 320.61 35.7815C326.19 40.3108 330.26 46.7108 332.82 54.9815C335.445 63.2523 336.758 73.0656 336.758 84.4215C336.758 95.1867 335.183 104.803 332.032 113.271C328.881 121.673 324.319 128.303 318.346 133.16C312.372 137.952 305.119 140.348 296.586 140.348C286.411 140.348 278.141 136.705 271.773 129.418V177.369L240.66 180.618V32.4338H268.229L269.607 44.1508C273.874 38.7026 278.534 34.8298 283.589 32.5323C288.643 30.1692 293.632 28.9877 298.555 28.9877ZM288.906 51.9292C285.296 51.9292 282.112 53.0123 279.355 55.1785C276.598 57.3446 274.071 60.2985 271.773 64.04V108.151C273.94 111.367 276.204 113.73 278.567 115.24C280.996 116.75 283.851 117.505 287.133 117.505C292.647 117.505 296.947 115.01 300.032 110.022C303.117 104.967 304.66 96.5651 304.66 84.8154C304.66 76.1508 304.036 69.4554 302.789 64.7292C301.542 59.9374 299.737 56.6226 297.373 54.7846C295.01 52.881 292.188 51.9292 288.906 51.9292ZM416.68 28.9877C425.804 28.9877 433.156 31.2523 438.735 35.7815C444.315 40.3108 448.385 46.7108 450.945 54.9815C453.57 63.2523 454.883 73.0656 454.883 84.4215C454.883 95.1867 453.308 104.803 450.157 113.271C447.006 121.673 442.444 128.303 436.471 133.16C430.497 137.952 423.244 140.348 414.711 140.348C404.536 140.348 396.266 136.705 389.898 129.418V177.369L358.785 180.618V32.4338H386.354L387.732 44.1508C391.999 38.7026 396.659 34.8298 401.714 32.5323C406.768 30.1692 411.757 28.9877 416.68 28.9877ZM407.031 51.9292C403.421 51.9292 400.237 53.0123 397.48 55.1785C394.723 57.3446 392.196 60.2985 389.898 64.04V108.151C392.065 111.367 394.329 113.73 396.692 115.24C399.121 116.75 401.976 117.505 405.258 117.505C410.772 117.505 415.072 115.01 418.157 110.022C421.242 104.967 422.785 96.5651 422.785 84.8154C422.785 76.1508 422.161 69.4554 420.914 64.7292C419.667 59.9374 417.862 56.6226 415.498 54.7846C413.135 52.881 410.313 51.9292 407.031 51.9292ZM575.765 32.4338L540.91 137C536.315 150.85 529.357 161.386 520.036 168.606C510.78 175.827 498.21 179.896 482.325 180.815L478.78 158.858C485.673 158.005 491.219 156.725 495.42 155.018C499.687 153.312 503.1 150.982 505.66 148.028C508.286 145.139 510.551 141.464 512.454 137H501.82L468.639 32.4338H501.525L521.808 117.111L543.863 32.4338H575.765ZM584.992 0.532318H619.748L640.327 44.3477L661.398 0.532318H695.465L659.232 63.1539L698.813 137H664.056L639.933 84.9138L616.204 137H581.939L620.733 64.5323L584.992 0.532318Z" fill="url(#paint0_radial_207_5)" fill-opacity="0.64"/>
<path d="M66.2435 137V79.4985H33.1604V137H0.865V0.532318H33.1604V52.9138H66.2435V0.532318H98.5388V137H66.2435ZM210.559 106.871C210.559 110.809 211.084 113.665 212.135 115.437C213.251 117.209 215.023 118.555 217.452 119.474L211.052 139.954C204.881 139.363 199.663 138.017 195.396 135.917C191.195 133.751 187.88 130.502 185.452 126.169C181.447 130.961 176.327 134.538 170.092 136.902C163.856 139.199 157.488 140.348 150.99 140.348C140.225 140.348 131.626 137.295 125.193 131.191C118.826 125.021 115.642 117.111 115.642 107.462C115.642 96.1056 120.073 87.3426 128.935 81.1723C137.862 75.0021 150.399 71.9169 166.547 71.9169H180.627V67.9785C180.627 57.279 173.735 51.9292 159.95 51.9292C156.602 51.9292 152.303 52.4215 147.052 53.4062C141.8 54.3251 136.549 55.6708 131.298 57.4431L124.11 36.7662C130.871 34.2062 137.895 32.2697 145.181 30.9569C152.533 29.6441 159.097 28.9877 164.873 28.9877C180.43 28.9877 191.917 32.1713 199.335 38.5385C206.818 44.84 210.559 53.9641 210.559 65.9108V106.871ZM161.722 118.095C165.07 118.095 168.582 117.111 172.258 115.142C175.934 113.107 178.723 110.251 180.627 106.575V89.64H172.947C164.282 89.64 157.915 90.9856 153.845 93.6769C149.776 96.3026 147.741 100.175 147.741 105.295C147.741 109.299 148.955 112.45 151.384 114.748C153.878 116.979 157.324 118.095 161.722 118.095ZM298.555 28.9877C307.679 28.9877 315.031 31.2523 320.61 35.7815C326.19 40.3108 330.26 46.7108 332.82 54.9815C335.445 63.2523 336.758 73.0656 336.758 84.4215C336.758 95.1867 335.183 104.803 332.032 113.271C328.881 121.673 324.319 128.303 318.346 133.16C312.372 137.952 305.119 140.348 296.586 140.348C286.411 140.348 278.141 136.705 271.773 129.418V177.369L240.66 180.618V32.4338H268.229L269.607 44.1508C273.874 38.7026 278.534 34.8298 283.589 32.5323C288.643 30.1692 293.632 28.9877 298.555 28.9877ZM288.906 51.9292C285.296 51.9292 282.112 53.0123 279.355 55.1785C276.598 57.3446 274.071 60.2985 271.773 64.04V108.151C273.94 111.367 276.204 113.73 278.567 115.24C280.996 116.75 283.851 117.505 287.133 117.505C292.647 117.505 296.947 115.01 300.032 110.022C303.117 104.967 304.66 96.5651 304.66 84.8154C304.66 76.1508 304.036 69.4554 302.789 64.7292C301.542 59.9374 299.737 56.6226 297.373 54.7846C295.01 52.881 292.188 51.9292 288.906 51.9292ZM416.68 28.9877C425.804 28.9877 433.156 31.2523 438.735 35.7815C444.315 40.3108 448.385 46.7108 450.945 54.9815C453.57 63.2523 454.883 73.0656 454.883 84.4215C454.883 95.1867 453.308 104.803 450.157 113.271C447.006 121.673 442.444 128.303 436.471 133.16C430.497 137.952 423.244 140.348 414.711 140.348C404.536 140.348 396.266 136.705 389.898 129.418V177.369L358.785 180.618V32.4338H386.354L387.732 44.1508C391.999 38.7026 396.659 34.8298 401.714 32.5323C406.768 30.1692 411.757 28.9877 416.68 28.9877ZM407.031 51.9292C403.421 51.9292 400.237 53.0123 397.48 55.1785C394.723 57.3446 392.196 60.2985 389.898 64.04V108.151C392.065 111.367 394.329 113.73 396.692 115.24C399.121 116.75 401.976 117.505 405.258 117.505C410.772 117.505 415.072 115.01 418.157 110.022C421.242 104.967 422.785 96.5651 422.785 84.8154C422.785 76.1508 422.161 69.4554 420.914 64.7292C419.667 59.9374 417.862 56.6226 415.498 54.7846C413.135 52.881 410.313 51.9292 407.031 51.9292ZM575.765 32.4338L540.91 137C536.315 150.85 529.357 161.386 520.036 168.606C510.78 175.827 498.21 179.896 482.325 180.815L478.78 158.858C485.673 158.005 491.219 156.725 495.42 155.018C499.687 153.312 503.1 150.982 505.66 148.028C508.286 145.139 510.551 141.464 512.454 137H501.82L468.639 32.4338H501.525L521.808 117.111L543.863 32.4338H575.765ZM584.992 0.532318H619.748L640.327 44.3477L661.398 0.532318H695.465L659.232 63.1539L698.813 137H664.056L639.933 84.9138L616.204 137H581.939L620.733 64.5323L584.992 0.532318Z" fill="url(#paint1_radial_207_5)" fill-opacity="0.64"/>
<path d="M66.2435 137V79.4985H33.1604V137H0.865V0.532318H33.1604V52.9138H66.2435V0.532318H98.5388V137H66.2435ZM210.559 106.871C210.559 110.809 211.084 113.665 212.135 115.437C213.251 117.209 215.023 118.555 217.452 119.474L211.052 139.954C204.881 139.363 199.663 138.017 195.396 135.917C191.195 133.751 187.88 130.502 185.452 126.169C181.447 130.961 176.327 134.538 170.092 136.902C163.856 139.199 157.488 140.348 150.99 140.348C140.225 140.348 131.626 137.295 125.193 131.191C118.826 125.021 115.642 117.111 115.642 107.462C115.642 96.1056 120.073 87.3426 128.935 81.1723C137.862 75.0021 150.399 71.9169 166.547 71.9169H180.627V67.9785C180.627 57.279 173.735 51.9292 159.95 51.9292C156.602 51.9292 152.303 52.4215 147.052 53.4062C141.8 54.3251 136.549 55.6708 131.298 57.4431L124.11 36.7662C130.871 34.2062 137.895 32.2697 145.181 30.9569C152.533 29.6441 159.097 28.9877 164.873 28.9877C180.43 28.9877 191.917 32.1713 199.335 38.5385C206.818 44.84 210.559 53.9641 210.559 65.9108V106.871ZM161.722 118.095C165.07 118.095 168.582 117.111 172.258 115.142C175.934 113.107 178.723 110.251 180.627 106.575V89.64H172.947C164.282 89.64 157.915 90.9856 153.845 93.6769C149.776 96.3026 147.741 100.175 147.741 105.295C147.741 109.299 148.955 112.45 151.384 114.748C153.878 116.979 157.324 118.095 161.722 118.095ZM298.555 28.9877C307.679 28.9877 315.031 31.2523 320.61 35.7815C326.19 40.3108 330.26 46.7108 332.82 54.9815C335.445 63.2523 336.758 73.0656 336.758 84.4215C336.758 95.1867 335.183 104.803 332.032 113.271C328.881 121.673 324.319 128.303 318.346 133.16C312.372 137.952 305.119 140.348 296.586 140.348C286.411 140.348 278.141 136.705 271.773 129.418V177.369L240.66 180.618V32.4338H268.229L269.607 44.1508C273.874 38.7026 278.534 34.8298 283.589 32.5323C288.643 30.1692 293.632 28.9877 298.555 28.9877ZM288.906 51.9292C285.296 51.9292 282.112 53.0123 279.355 55.1785C276.598 57.3446 274.071 60.2985 271.773 64.04V108.151C273.94 111.367 276.204 113.73 278.567 115.24C280.996 116.75 283.851 117.505 287.133 117.505C292.647 117.505 296.947 115.01 300.032 110.022C303.117 104.967 304.66 96.5651 304.66 84.8154C304.66 76.1508 304.036 69.4554 302.789 64.7292C301.542 59.9374 299.737 56.6226 297.373 54.7846C295.01 52.881 292.188 51.9292 288.906 51.9292ZM416.68 28.9877C425.804 28.9877 433.156 31.2523 438.735 35.7815C444.315 40.3108 448.385 46.7108 450.945 54.9815C453.57 63.2523 454.883 73.0656 454.883 84.4215C454.883 95.1867 453.308 104.803 450.157 113.271C447.006 121.673 442.444 128.303 436.471 133.16C430.497 137.952 423.244 140.348 414.711 140.348C404.536 140.348 396.266 136.705 389.898 129.418V177.369L358.785 180.618V32.4338H386.354L387.732 44.1508C391.999 38.7026 396.659 34.8298 401.714 32.5323C406.768 30.1692 411.757 28.9877 416.68 28.9877ZM407.031 51.9292C403.421 51.9292 400.237 53.0123 397.48 55.1785C394.723 57.3446 392.196 60.2985 389.898 64.04V108.151C392.065 111.367 394.329 113.73 396.692 115.24C399.121 116.75 401.976 117.505 405.258 117.505C410.772 117.505 415.072 115.01 418.157 110.022C421.242 104.967 422.785 96.5651 422.785 84.8154C422.785 76.1508 422.161 69.4554 420.914 64.7292C419.667 59.9374 417.862 56.6226 415.498 54.7846C413.135 52.881 410.313 51.9292 407.031 51.9292ZM575.765 32.4338L540.91 137C536.315 150.85 529.357 161.386 520.036 168.606C510.78 175.827 498.21 179.896 482.325 180.815L478.78 158.858C485.673 158.005 491.219 156.725 495.42 155.018C499.687 153.312 503.1 150.982 505.66 148.028C508.286 145.139 510.551 141.464 512.454 137H501.82L468.639 32.4338H501.525L521.808 117.111L543.863 32.4338H575.765ZM584.992 0.532318H619.748L640.327 44.3477L661.398 0.532318H695.465L659.232 63.1539L698.813 137H664.056L639.933 84.9138L616.204 137H581.939L620.733 64.5323L584.992 0.532318Z" fill="url(#paint2_radial_207_5)" fill-opacity="0.64"/>
<defs>
<radialGradient id="paint0_radial_207_5" cx="0" cy="0" r="1" gradientUnits="userSpaceOnUse" gradientTransform="translate(443.526 182.708) rotate(-168.203) scale(763.926 358.355)">
<stop stop-color="#FF1DE8"/>
<stop offset="1" stop-color="white" stop-opacity="0"/>
</radialGradient>
<radialGradient id="paint1_radial_207_5" cx="0" cy="0" r="1" gradientUnits="userSpaceOnUse" gradientTransform="translate(605.211 -5.4666) rotate(177.986) scale(910.036 341.524)">
<stop stop-color="#4A1DFF"/>
<stop offset="1" stop-color="white" stop-opacity="0"/>
</radialGradient>
<radialGradient id="paint2_radial_207_5" cx="0" cy="0" r="1" gradientUnits="userSpaceOnUse" gradientTransform="translate(6.47372 67.9214) rotate(7.95879) scale(808.631 337.009)">
<stop stop-color="#1DD6FF"/>
<stop offset="1" stop-color="white" stop-opacity="0"/>
</radialGradient>
</defs>
</svg>
