<svg width="241" height="287" viewBox="0 0 241 287" fill="none" xmlns="http://www.w3.org/2000/svg">
<g clip-path="url(#clip0_30_2)">
<rect width="241" height="287" rx="8" fill="white"/>
<path d="M22.736 10.272V27H20.552V19.416H12.032V27H9.848V10.272H12.032V17.616H20.552V10.272H22.736ZM25.6492 20.376C25.6492 19.032 25.9212 17.856 26.4652 16.848C27.0092 15.824 27.7532 15.032 28.6972 14.472C29.6572 13.912 30.7212 13.632 31.8892 13.632C33.0412 13.632 34.0412 13.88 34.8892 14.376C35.7372 14.872 36.3692 15.496 36.7852 16.248V13.848H38.9932V27H36.7852V24.552C36.3532 25.32 35.7052 25.96 34.8412 26.472C33.9932 26.968 33.0012 27.216 31.8652 27.216C30.6972 27.216 29.6412 26.928 28.6972 26.352C27.7532 25.776 27.0092 24.968 26.4652 23.928C25.9212 22.888 25.6492 21.704 25.6492 20.376ZM36.7852 20.4C36.7852 19.408 36.5852 18.544 36.1852 17.808C35.7852 17.072 35.2412 16.512 34.5532 16.128C33.8812 15.728 33.1372 15.528 32.3212 15.528C31.5052 15.528 30.7612 15.72 30.0892 16.104C29.4172 16.488 28.8812 17.048 28.4812 17.784C28.0812 18.52 27.8812 19.384 27.8812 20.376C27.8812 21.384 28.0812 22.264 28.4812 23.016C28.8812 23.752 29.4172 24.32 30.0892 24.72C30.7612 25.104 31.5052 25.296 32.3212 25.296C33.1372 25.296 33.8812 25.104 34.5532 24.72C35.2412 24.32 35.7852 23.752 36.1852 23.016C36.5852 22.264 36.7852 21.392 36.7852 20.4ZM44.8679 16.272C45.2999 15.52 45.9399 14.896 46.7879 14.4C47.6519 13.888 48.6519 13.632 49.7879 13.632C50.9559 13.632 52.0119 13.912 52.9559 14.472C53.9159 15.032 54.6679 15.824 55.2119 16.848C55.7559 17.856 56.0279 19.032 56.0279 20.376C56.0279 21.704 55.7559 22.888 55.2119 23.928C54.6679 24.968 53.9159 25.776 52.9559 26.352C52.0119 26.928 50.9559 27.216 49.7879 27.216C48.6679 27.216 47.6759 26.968 46.8119 26.472C45.9639 25.96 45.3159 25.328 44.8679 24.576V33.24H42.6839V13.848H44.8679V16.272ZM53.7959 20.376C53.7959 19.384 53.5959 18.52 53.1959 17.784C52.7959 17.048 52.2519 16.488 51.5639 16.104C50.8919 15.72 50.1479 15.528 49.3319 15.528C48.5319 15.528 47.7879 15.728 47.0999 16.128C46.4279 16.512 45.8839 17.08 45.4679 17.832C45.0679 18.568 44.8679 19.424 44.8679 20.4C44.8679 21.392 45.0679 22.264 45.4679 23.016C45.8839 23.752 46.4279 24.32 47.0999 24.72C47.7879 25.104 48.5319 25.296 49.3319 25.296C50.1479 25.296 50.8919 25.104 51.5639 24.72C52.2519 24.32 52.7959 23.752 53.1959 23.016C53.5959 22.264 53.7959 21.384 53.7959 20.376ZM61.0867 16.272C61.5187 15.52 62.1587 14.896 63.0067 14.4C63.8707 13.888 64.8707 13.632 66.0067 13.632C67.1747 13.632 68.2307 13.912 69.1747 14.472C70.1347 15.032 70.8867 15.824 71.4307 16.848C71.9747 17.856 72.2467 19.032 72.2467 20.376C72.2467 21.704 71.9747 22.888 71.4307 23.928C70.8867 24.968 70.1347 25.776 69.1747 26.352C68.2307 26.928 67.1747 27.216 66.0067 27.216C64.8867 27.216 63.8947 26.968 63.0307 26.472C62.1827 25.96 61.5347 25.328 61.0867 24.576V33.24H58.9027V13.848H61.0867V16.272ZM70.0147 20.376C70.0147 19.384 69.8147 18.52 69.4147 17.784C69.0147 17.048 68.4707 16.488 67.7827 16.104C67.1107 15.72 66.3667 15.528 65.5507 15.528C64.7507 15.528 64.0067 15.728 63.3187 16.128C62.6467 16.512 62.1027 17.08 61.6867 17.832C61.2867 18.568 61.0867 19.424 61.0867 20.4C61.0867 21.392 61.2867 22.264 61.6867 23.016C62.1027 23.752 62.6467 24.32 63.3187 24.72C64.0067 25.104 64.7507 25.296 65.5507 25.296C66.3667 25.296 67.1107 25.104 67.7827 24.72C68.4707 24.32 69.0147 23.752 69.4147 23.016C69.8147 22.264 70.0147 21.384 70.0147 20.376ZM86.4494 13.848L78.5294 33.192H76.2734L78.8654 26.856L73.5614 13.848H75.9854L80.1134 24.504L84.1934 13.848H86.4494ZM95.4849 18.648L100.621 27H98.1489L94.1409 20.472L90.3249 27H87.9009L93.0129 18.648L87.8769 10.272H90.3249L94.3569 16.824L98.1969 10.272H100.645L95.4849 18.648ZM118.758 27L114.774 20.16H112.134V27H109.95V10.272H115.35C116.614 10.272 117.678 10.488 118.542 10.92C119.422 11.352 120.078 11.936 120.51 12.672C120.942 13.408 121.158 14.248 121.158 15.192C121.158 16.344 120.822 17.36 120.15 18.24C119.494 19.12 118.502 19.704 117.174 19.992L121.374 27H118.758ZM112.134 18.408H115.35C116.534 18.408 117.422 18.12 118.014 17.544C118.606 16.952 118.902 16.168 118.902 15.192C118.902 14.2 118.606 13.432 118.014 12.888C117.438 12.344 116.55 12.072 115.35 12.072H112.134V18.408ZM136.551 19.92C136.551 20.336 136.527 20.776 136.479 21.24H125.967C126.047 22.536 126.487 23.552 127.287 24.288C128.103 25.008 129.087 25.368 130.239 25.368C131.183 25.368 131.967 25.152 132.591 24.72C133.231 24.272 133.679 23.68 133.935 22.944H136.287C135.935 24.208 135.231 25.24 134.175 26.04C133.119 26.824 131.807 27.216 130.239 27.216C128.991 27.216 127.871 26.936 126.879 26.376C125.903 25.816 125.135 25.024 124.575 24C124.015 22.96 123.735 21.76 123.735 20.4C123.735 19.04 124.007 17.848 124.551 16.824C125.095 15.8 125.855 15.016 126.831 14.472C127.823 13.912 128.959 13.632 130.239 13.632C131.487 13.632 132.591 13.904 133.551 14.448C134.511 14.992 135.247 15.744 135.759 16.704C136.287 17.648 136.551 18.72 136.551 19.92ZM134.295 19.464C134.295 18.632 134.111 17.92 133.743 17.328C133.375 16.72 132.871 16.264 132.231 15.96C131.607 15.64 130.911 15.48 130.143 15.48C129.039 15.48 128.095 15.832 127.311 16.536C126.543 17.24 126.103 18.216 125.991 19.464H134.295ZM138.618 20.376C138.618 19.032 138.89 17.856 139.434 16.848C139.978 15.824 140.722 15.032 141.666 14.472C142.626 13.912 143.69 13.632 144.858 13.632C146.01 13.632 147.01 13.88 147.858 14.376C148.706 14.872 149.338 15.496 149.754 16.248V13.848H151.962V27H149.754V24.552C149.322 25.32 148.674 25.96 147.81 26.472C146.962 26.968 145.97 27.216 144.834 27.216C143.666 27.216 142.61 26.928 141.666 26.352C140.722 25.776 139.978 24.968 139.434 23.928C138.89 22.888 138.618 21.704 138.618 20.376ZM149.754 20.4C149.754 19.408 149.554 18.544 149.154 17.808C148.754 17.072 148.21 16.512 147.522 16.128C146.85 15.728 146.106 15.528 145.29 15.528C144.474 15.528 143.73 15.72 143.058 16.104C142.386 16.488 141.85 17.048 141.45 17.784C141.05 18.52 140.85 19.384 140.85 20.376C140.85 21.384 141.05 22.264 141.45 23.016C141.85 23.752 142.386 24.32 143.058 24.72C143.73 25.104 144.474 25.296 145.29 25.296C146.106 25.296 146.85 25.104 147.522 24.72C148.21 24.32 148.754 23.752 149.154 23.016C149.554 22.264 149.754 21.392 149.754 20.4ZM154.837 20.4C154.837 19.04 155.109 17.856 155.653 16.848C156.197 15.824 156.949 15.032 157.909 14.472C158.885 13.912 159.997 13.632 161.245 13.632C162.861 13.632 164.189 14.024 165.229 14.808C166.285 15.592 166.981 16.68 167.317 18.072H164.965C164.741 17.272 164.301 16.64 163.645 16.176C163.005 15.712 162.205 15.48 161.245 15.48C159.997 15.48 158.989 15.912 158.221 16.776C157.453 17.624 157.069 18.832 157.069 20.4C157.069 21.984 157.453 23.208 158.221 24.072C158.989 24.936 159.997 25.368 161.245 25.368C162.205 25.368 163.005 25.144 163.645 24.696C164.285 24.248 164.725 23.608 164.965 22.776H167.317C166.965 24.12 166.261 25.2 165.205 26.016C164.149 26.816 162.829 27.216 161.245 27.216C159.997 27.216 158.885 26.936 157.909 26.376C156.949 25.816 156.197 25.024 155.653 24C155.109 22.976 154.837 21.776 154.837 20.4ZM172.895 15.648V23.4C172.895 24.04 173.031 24.496 173.303 24.768C173.575 25.024 174.047 25.152 174.719 25.152H176.327V27H174.359C173.143 27 172.231 26.72 171.623 26.16C171.015 25.6 170.711 24.68 170.711 23.4V15.648H169.007V13.848H170.711V10.536H172.895V13.848H176.327V15.648H172.895ZM180.101 11.712C179.685 11.712 179.333 11.568 179.045 11.28C178.757 10.992 178.613 10.64 178.613 10.224C178.613 9.808 178.757 9.456 179.045 9.168C179.333 8.88 179.685 8.736 180.101 8.736C180.501 8.736 180.837 8.88 181.109 9.168C181.397 9.456 181.541 9.808 181.541 10.224C181.541 10.64 181.397 10.992 181.109 11.28C180.837 11.568 180.501 11.712 180.101 11.712ZM181.157 13.848V27H178.973V13.848H181.157ZM189.775 24.984L193.855 13.848H196.183L191.023 27H188.479L183.319 13.848H185.671L189.775 24.984ZM199.46 11.712C199.044 11.712 198.692 11.568 198.404 11.28C198.116 10.992 197.972 10.64 197.972 10.224C197.972 9.808 198.116 9.456 198.404 9.168C198.692 8.88 199.044 8.736 199.46 8.736C199.86 8.736 200.196 8.88 200.468 9.168C200.756 9.456 200.9 9.808 200.9 10.224C200.9 10.64 200.756 10.992 200.468 11.28C200.196 11.568 199.86 11.712 199.46 11.712ZM200.516 13.848V27H198.332V13.848H200.516ZM206.903 15.648V23.4C206.903 24.04 207.039 24.496 207.311 24.768C207.583 25.024 208.055 25.152 208.727 25.152H210.335V27H208.367C207.151 27 206.239 26.72 205.631 26.16C205.023 25.6 204.719 24.68 204.719 23.4V15.648H203.015V13.848H204.719V10.536H206.903V13.848H210.335V15.648H206.903ZM224.309 13.848L216.389 33.192H214.133L216.725 26.856L211.421 13.848H213.845L217.973 24.504L222.053 13.848H224.309Z" fill="black"/>
<rect x="8.5" y="46.5" width="165" height="39" rx="7.5" stroke="black" stroke-linejoin="round"/>
<path d="M26.688 64.656C26.944 64.1547 27.3067 63.7653 27.776 63.488C28.256 63.2107 28.8373 63.072 29.52 63.072V64.576H29.136C27.504 64.576 26.688 65.4613 26.688 67.232V72H25.232V63.232H26.688V64.656ZM39.2008 67.28C39.2008 67.5573 39.1848 67.8507 39.1528 68.16H32.1448C32.1981 69.024 32.4914 69.7013 33.0248 70.192C33.5688 70.672 34.2248 70.912 34.9928 70.912C35.6221 70.912 36.1448 70.768 36.5608 70.48C36.9874 70.1813 37.2861 69.7867 37.4568 69.296H39.0248C38.7901 70.1387 38.3208 70.8267 37.6168 71.36C36.9128 71.8827 36.0381 72.144 34.9928 72.144C34.1608 72.144 33.4141 71.9573 32.7528 71.584C32.1021 71.2107 31.5901 70.6827 31.2168 70C30.8434 69.3067 30.6568 68.5067 30.6568 67.6C30.6568 66.6933 30.8381 65.8987 31.2008 65.216C31.5634 64.5333 32.0701 64.0107 32.7208 63.648C33.3821 63.2747 34.1394 63.088 34.9928 63.088C35.8248 63.088 36.5608 63.2693 37.2008 63.632C37.8408 63.9947 38.3314 64.496 38.6728 65.136C39.0248 65.7653 39.2008 66.48 39.2008 67.28ZM37.6968 66.976C37.6968 66.4213 37.5741 65.9467 37.3288 65.552C37.0834 65.1467 36.7474 64.8427 36.3208 64.64C35.9048 64.4267 35.4408 64.32 34.9288 64.32C34.1928 64.32 33.5634 64.5547 33.0408 65.024C32.5288 65.4933 32.2354 66.144 32.1608 66.976H37.6968ZM51.6666 63.072C52.3493 63.072 52.9573 63.216 53.4906 63.504C54.024 63.7813 54.4453 64.2027 54.7546 64.768C55.064 65.3333 55.2186 66.0213 55.2186 66.832V72H53.7786V67.04C53.7786 66.1653 53.56 65.4987 53.1226 65.04C52.696 64.5707 52.1146 64.336 51.3786 64.336C50.6213 64.336 50.0186 64.5813 49.5706 65.072C49.1226 65.552 48.8986 66.2507 48.8986 67.168V72H47.4586V67.04C47.4586 66.1653 47.24 65.4987 46.8026 65.04C46.376 64.5707 45.7946 64.336 45.0586 64.336C44.3013 64.336 43.6986 64.5813 43.2506 65.072C42.8026 65.552 42.5786 66.2507 42.5786 67.168V72H41.1226V63.232H42.5786V64.496C42.8666 64.0373 43.2506 63.6853 43.7306 63.44C44.2213 63.1947 44.76 63.072 45.3466 63.072C46.0826 63.072 46.7333 63.2373 47.2986 63.568C47.864 63.8987 48.2853 64.384 48.5626 65.024C48.808 64.4053 49.2133 63.9253 49.7786 63.584C50.344 63.2427 50.9733 63.072 51.6666 63.072ZM65.607 67.28C65.607 67.5573 65.591 67.8507 65.559 68.16H58.551C58.6043 69.024 58.8977 69.7013 59.431 70.192C59.975 70.672 60.631 70.912 61.399 70.912C62.0283 70.912 62.551 70.768 62.967 70.48C63.3937 70.1813 63.6923 69.7867 63.863 69.296H65.431C65.1963 70.1387 64.727 70.8267 64.023 71.36C63.319 71.8827 62.4443 72.144 61.399 72.144C60.567 72.144 59.8203 71.9573 59.159 71.584C58.5083 71.2107 57.9963 70.6827 57.623 70C57.2497 69.3067 57.063 68.5067 57.063 67.6C57.063 66.6933 57.2443 65.8987 57.607 65.216C57.9697 64.5333 58.4763 64.0107 59.127 63.648C59.7883 63.2747 60.5457 63.088 61.399 63.088C62.231 63.088 62.967 63.2693 63.607 63.632C64.247 63.9947 64.7377 64.496 65.079 65.136C65.431 65.7653 65.607 66.48 65.607 67.28ZM64.103 66.976C64.103 66.4213 63.9803 65.9467 63.735 65.552C63.4897 65.1467 63.1537 64.8427 62.727 64.64C62.311 64.4267 61.847 64.32 61.335 64.32C60.599 64.32 59.9697 64.5547 59.447 65.024C58.935 65.4933 58.6417 66.144 58.567 66.976H64.103ZM78.0729 63.072C78.7555 63.072 79.3635 63.216 79.8969 63.504C80.4302 63.7813 80.8515 64.2027 81.1609 64.768C81.4702 65.3333 81.6249 66.0213 81.6249 66.832V72H80.1849V67.04C80.1849 66.1653 79.9662 65.4987 79.5289 65.04C79.1022 64.5707 78.5209 64.336 77.7849 64.336C77.0275 64.336 76.4249 64.5813 75.9769 65.072C75.5289 65.552 75.3049 66.2507 75.3049 67.168V72H73.8649V67.04C73.8649 66.1653 73.6462 65.4987 73.2089 65.04C72.7822 64.5707 72.2009 64.336 71.4649 64.336C70.7075 64.336 70.1049 64.5813 69.6569 65.072C69.2089 65.552 68.9849 66.2507 68.9849 67.168V72H67.5289V63.232H68.9849V64.496C69.2729 64.0373 69.6569 63.6853 70.1369 63.44C70.6275 63.1947 71.1662 63.072 71.7529 63.072C72.4889 63.072 73.1395 63.2373 73.7049 63.568C74.2702 63.8987 74.6915 64.384 74.9689 65.024C75.2142 64.4053 75.6195 63.9253 76.1849 63.584C76.7502 63.2427 77.3795 63.072 78.0729 63.072ZM85.4693 64.864C85.7679 64.3413 86.2053 63.9147 86.7812 63.584C87.3573 63.2533 88.0133 63.088 88.7493 63.088C89.5386 63.088 90.2479 63.2747 90.8773 63.648C91.5066 64.0213 92.0026 64.5493 92.3653 65.232C92.7279 65.904 92.9093 66.688 92.9093 67.584C92.9093 68.4693 92.7279 69.2587 92.3653 69.952C92.0026 70.6453 91.5012 71.184 90.8612 71.568C90.2319 71.952 89.5279 72.144 88.7493 72.144C87.9919 72.144 87.3253 71.9787 86.7493 71.648C86.1839 71.3173 85.7573 70.896 85.4693 70.384V72H84.0133V60.16H85.4693V64.864ZM91.4213 67.584C91.4213 66.9227 91.2879 66.3467 91.0213 65.856C90.7546 65.3653 90.3919 64.992 89.9333 64.736C89.4853 64.48 88.9893 64.352 88.4453 64.352C87.9119 64.352 87.4159 64.4853 86.9573 64.752C86.5093 65.008 86.1466 65.3867 85.8693 65.888C85.6026 66.3787 85.4693 66.9493 85.4693 67.6C85.4693 68.2613 85.6026 68.8427 85.8693 69.344C86.1466 69.8347 86.5093 70.2133 86.9573 70.48C87.4159 70.736 87.9119 70.864 88.4453 70.864C88.9893 70.864 89.4853 70.736 89.9333 70.48C90.3919 70.2133 90.7546 69.8347 91.0213 69.344C91.2879 68.8427 91.4213 68.256 91.4213 67.584ZM102.826 67.28C102.826 67.5573 102.81 67.8507 102.778 68.16H95.7698C95.8231 69.024 96.1164 69.7013 96.6498 70.192C97.1938 70.672 97.8498 70.912 98.6178 70.912C99.2471 70.912 99.7698 70.768 100.186 70.48C100.612 70.1813 100.911 69.7867 101.082 69.296H102.65C102.415 70.1387 101.946 70.8267 101.242 71.36C100.538 71.8827 99.6631 72.144 98.6178 72.144C97.7858 72.144 97.0391 71.9573 96.3778 71.584C95.7271 71.2107 95.2151 70.6827 94.8418 70C94.4684 69.3067 94.2818 68.5067 94.2818 67.6C94.2818 66.6933 94.4631 65.8987 94.8258 65.216C95.1884 64.5333 95.6951 64.0107 96.3458 63.648C97.0071 63.2747 97.7644 63.088 98.6178 63.088C99.4498 63.088 100.186 63.2693 100.826 63.632C101.466 63.9947 101.956 64.496 102.298 65.136C102.65 65.7653 102.826 66.48 102.826 67.28ZM101.322 66.976C101.322 66.4213 101.199 65.9467 100.954 65.552C100.708 65.1467 100.372 64.8427 99.9458 64.64C99.5298 64.4267 99.0658 64.32 98.5538 64.32C97.8178 64.32 97.1884 64.5547 96.6658 65.024C96.1538 65.4933 95.8604 66.144 95.7858 66.976H101.322ZM106.204 64.656C106.46 64.1547 106.822 63.7653 107.292 63.488C107.772 63.2107 108.353 63.072 109.036 63.072V64.576H108.652C107.02 64.576 106.204 65.4613 106.204 67.232V72H104.748V63.232H106.204V64.656ZM118.246 70.656L120.966 63.232H122.518L119.078 72H117.382L113.942 63.232H115.51L118.246 70.656ZM123.407 67.584C123.407 66.688 123.588 65.904 123.951 65.232C124.313 64.5493 124.809 64.0213 125.439 63.648C126.079 63.2747 126.788 63.088 127.567 63.088C128.335 63.088 129.001 63.2533 129.567 63.584C130.132 63.9147 130.553 64.3307 130.831 64.832V63.232H132.303V72H130.831V70.368C130.543 70.88 130.111 71.3067 129.535 71.648C128.969 71.9787 128.308 72.144 127.551 72.144C126.772 72.144 126.068 71.952 125.439 71.568C124.809 71.184 124.313 70.6453 123.951 69.952C123.588 69.2587 123.407 68.4693 123.407 67.584ZM130.831 67.6C130.831 66.9387 130.697 66.3627 130.431 65.872C130.164 65.3813 129.801 65.008 129.343 64.752C128.895 64.4853 128.399 64.352 127.855 64.352C127.311 64.352 126.815 64.48 126.367 64.736C125.919 64.992 125.561 65.3653 125.295 65.856C125.028 66.3467 124.895 66.9227 124.895 67.584C124.895 68.256 125.028 68.8427 125.295 69.344C125.561 69.8347 125.919 70.2133 126.367 70.48C126.815 70.736 127.311 70.864 127.855 70.864C128.399 70.864 128.895 70.736 129.343 70.48C129.801 70.2133 130.164 69.8347 130.431 69.344C130.697 68.8427 130.831 68.2613 130.831 67.6ZM136.219 60.16V72H134.763V60.16H136.219ZM146.477 63.232V72H145.021V70.704C144.743 71.152 144.354 71.504 143.853 71.76C143.362 72.0053 142.818 72.128 142.221 72.128C141.538 72.128 140.925 71.9893 140.381 71.712C139.837 71.424 139.405 70.9973 139.085 70.432C138.775 69.8667 138.621 69.1787 138.621 68.368V63.232H140.061V68.176C140.061 69.04 140.279 69.7067 140.717 70.176C141.154 70.6347 141.751 70.864 142.509 70.864C143.287 70.864 143.901 70.624 144.349 70.144C144.797 69.664 145.021 68.9653 145.021 68.048V63.232H146.477ZM156.935 67.28C156.935 67.5573 156.919 67.8507 156.887 68.16H149.879C149.932 69.024 150.226 69.7013 150.759 70.192C151.303 70.672 151.959 70.912 152.727 70.912C153.356 70.912 153.879 70.768 154.295 70.48C154.722 70.1813 155.02 69.7867 155.191 69.296H156.759C156.524 70.1387 156.055 70.8267 155.351 71.36C154.647 71.8827 153.772 72.144 152.727 72.144C151.895 72.144 151.148 71.9573 150.487 71.584C149.836 71.2107 149.324 70.6827 148.951 70C148.578 69.3067 148.391 68.5067 148.391 67.6C148.391 66.6933 148.572 65.8987 148.935 65.216C149.298 64.5333 149.804 64.0107 150.455 63.648C151.116 63.2747 151.874 63.088 152.727 63.088C153.559 63.088 154.295 63.2693 154.935 63.632C155.575 63.9947 156.066 64.496 156.407 65.136C156.759 65.7653 156.935 66.48 156.935 67.28ZM155.431 66.976C155.431 66.4213 155.308 65.9467 155.063 65.552C154.818 65.1467 154.482 64.8427 154.055 64.64C153.639 64.4267 153.175 64.32 152.663 64.32C151.927 64.32 151.298 64.5547 150.775 65.024C150.263 65.4933 149.97 66.144 149.895 66.976H155.431Z" fill="black"/>
<rect x="20.5" y="134.5" width="141" height="39" rx="7.5" stroke="black" stroke-linejoin="round"/>
<path d="M36.688 155.6C36.688 154.693 36.8693 153.904 37.232 153.232C37.5947 152.549 38.096 152.021 38.736 151.648C39.3867 151.275 40.128 151.088 40.96 151.088C42.0373 151.088 42.9227 151.349 43.616 151.872C44.32 152.395 44.784 153.12 45.008 154.048H43.44C43.2907 153.515 42.9973 153.093 42.56 152.784C42.1333 152.475 41.6 152.32 40.96 152.32C40.128 152.32 39.456 152.608 38.944 153.184C38.432 153.749 38.176 154.555 38.176 155.6C38.176 156.656 38.432 157.472 38.944 158.048C39.456 158.624 40.128 158.912 40.96 158.912C41.6 158.912 42.1333 158.763 42.56 158.464C42.9867 158.165 43.28 157.739 43.44 157.184H45.008C44.7733 158.08 44.304 158.8 43.6 159.344C42.896 159.877 42.016 160.144 40.96 160.144C40.128 160.144 39.3867 159.957 38.736 159.584C38.096 159.211 37.5947 158.683 37.232 158C36.8693 157.317 36.688 156.517 36.688 155.6ZM51.3028 151.072C51.9641 151.072 52.5614 151.216 53.0948 151.504C53.6281 151.781 54.0441 152.203 54.3428 152.768C54.6521 153.333 54.8068 154.021 54.8068 154.832V160H53.3668V155.04C53.3668 154.165 53.1481 153.499 52.7108 153.04C52.2734 152.571 51.6761 152.336 50.9188 152.336C50.1508 152.336 49.5374 152.576 49.0788 153.056C48.6308 153.536 48.4068 154.235 48.4068 155.152V160H46.9508V148.16H48.4068V152.48C48.6948 152.032 49.0894 151.685 49.5908 151.44C50.1028 151.195 50.6734 151.072 51.3028 151.072ZM56.6411 155.584C56.6411 154.688 56.8225 153.904 57.1851 153.232C57.5478 152.549 58.0438 152.021 58.6731 151.648C59.3131 151.275 60.0225 151.088 60.8011 151.088C61.5691 151.088 62.2358 151.253 62.8011 151.584C63.3665 151.915 63.7878 152.331 64.0651 152.832V151.232H65.5371V160H64.0651V158.368C63.7771 158.88 63.3451 159.307 62.7691 159.648C62.2038 159.979 61.5425 160.144 60.7851 160.144C60.0065 160.144 59.3025 159.952 58.6731 159.568C58.0438 159.184 57.5478 158.645 57.1851 157.952C56.8225 157.259 56.6411 156.469 56.6411 155.584ZM64.0651 155.6C64.0651 154.939 63.9318 154.363 63.6651 153.872C63.3985 153.381 63.0358 153.008 62.5771 152.752C62.1291 152.485 61.6331 152.352 61.0891 152.352C60.5451 152.352 60.0491 152.48 59.6011 152.736C59.1531 152.992 58.7958 153.365 58.5291 153.856C58.2625 154.347 58.1291 154.923 58.1291 155.584C58.1291 156.256 58.2625 156.843 58.5291 157.344C58.7958 157.835 59.1531 158.213 59.6011 158.48C60.0491 158.736 60.5451 158.864 61.0891 158.864C61.6331 158.864 62.1291 158.736 62.5771 158.48C63.0358 158.213 63.3985 157.835 63.6651 157.344C63.9318 156.843 64.0651 156.261 64.0651 155.6ZM72.2696 151.072C73.3363 151.072 74.2003 151.397 74.8616 152.048C75.523 152.688 75.8536 153.616 75.8536 154.832V160H74.4136V155.04C74.4136 154.165 74.195 153.499 73.7576 153.04C73.3203 152.571 72.723 152.336 71.9656 152.336C71.1976 152.336 70.5843 152.576 70.1256 153.056C69.6776 153.536 69.4536 154.235 69.4536 155.152V160H67.9976V151.232H69.4536V152.48C69.7416 152.032 70.131 151.685 70.6216 151.44C71.123 151.195 71.6723 151.072 72.2696 151.072ZM81.848 151.088C82.6053 151.088 83.2667 151.253 83.832 151.584C84.408 151.915 84.8347 152.331 85.112 152.832V151.232H86.584V160.192C86.584 160.992 86.4133 161.701 86.072 162.32C85.7307 162.949 85.24 163.44 84.6 163.792C83.9707 164.144 83.2347 164.32 82.392 164.32C81.24 164.32 80.28 164.048 79.512 163.504C78.744 162.96 78.2907 162.219 78.152 161.28H79.592C79.752 161.813 80.0827 162.24 80.584 162.56C81.0853 162.891 81.688 163.056 82.392 163.056C83.192 163.056 83.8427 162.805 84.344 162.304C84.856 161.803 85.112 161.099 85.112 160.192V158.352C84.824 158.864 84.3973 159.291 83.832 159.632C83.2667 159.973 82.6053 160.144 81.848 160.144C81.0693 160.144 80.36 159.952 79.72 159.568C79.0907 159.184 78.5947 158.645 78.232 157.952C77.8693 157.259 77.688 156.469 77.688 155.584C77.688 154.688 77.8693 153.904 78.232 153.232C78.5947 152.549 79.0907 152.021 79.72 151.648C80.36 151.275 81.0693 151.088 81.848 151.088ZM85.112 155.6C85.112 154.939 84.9787 154.363 84.712 153.872C84.4453 153.381 84.0827 153.008 83.624 152.752C83.176 152.485 82.68 152.352 82.136 152.352C81.592 152.352 81.096 152.48 80.648 152.736C80.2 152.992 79.8427 153.365 79.576 153.856C79.3093 154.347 79.176 154.923 79.176 155.584C79.176 156.256 79.3093 156.843 79.576 157.344C79.8427 157.835 80.2 158.213 80.648 158.48C81.096 158.736 81.592 158.864 82.136 158.864C82.68 158.864 83.176 158.736 83.624 158.48C84.0827 158.213 84.4453 157.835 84.712 157.344C84.9787 156.843 85.112 156.261 85.112 155.6ZM97.0445 155.28C97.0445 155.557 97.0285 155.851 96.9965 156.16H89.9885C90.0418 157.024 90.3352 157.701 90.8685 158.192C91.4125 158.672 92.0685 158.912 92.8365 158.912C93.4658 158.912 93.9885 158.768 94.4045 158.48C94.8312 158.181 95.1298 157.787 95.3005 157.296H96.8685C96.6338 158.139 96.1645 158.827 95.4605 159.36C94.7565 159.883 93.8818 160.144 92.8365 160.144C92.0045 160.144 91.2578 159.957 90.5965 159.584C89.9458 159.211 89.4338 158.683 89.0605 158C88.6872 157.307 88.5005 156.507 88.5005 155.6C88.5005 154.693 88.6818 153.899 89.0445 153.216C89.4072 152.533 89.9138 152.011 90.5645 151.648C91.2258 151.275 91.9832 151.088 92.8365 151.088C93.6685 151.088 94.4045 151.269 95.0445 151.632C95.6845 151.995 96.1752 152.496 96.5165 153.136C96.8685 153.765 97.0445 154.48 97.0445 155.28ZM95.5405 154.976C95.5405 154.421 95.4178 153.947 95.1725 153.552C94.9272 153.147 94.5912 152.843 94.1645 152.64C93.7485 152.427 93.2845 152.32 92.7725 152.32C92.0365 152.32 91.4072 152.555 90.8845 153.024C90.3725 153.493 90.0792 154.144 90.0045 154.976H95.5405ZM106.496 158.656L109.216 151.232H110.768L107.328 160H105.632L102.192 151.232H103.76L106.496 158.656ZM111.657 155.584C111.657 154.688 111.838 153.904 112.201 153.232C112.563 152.549 113.059 152.021 113.689 151.648C114.329 151.275 115.038 151.088 115.817 151.088C116.585 151.088 117.251 151.253 117.817 151.584C118.382 151.915 118.803 152.331 119.081 152.832V151.232H120.553V160H119.081V158.368C118.793 158.88 118.361 159.307 117.785 159.648C117.219 159.979 116.558 160.144 115.801 160.144C115.022 160.144 114.318 159.952 113.689 159.568C113.059 159.184 112.563 158.645 112.201 157.952C111.838 157.259 111.657 156.469 111.657 155.584ZM119.081 155.6C119.081 154.939 118.947 154.363 118.681 153.872C118.414 153.381 118.051 153.008 117.593 152.752C117.145 152.485 116.649 152.352 116.105 152.352C115.561 152.352 115.065 152.48 114.617 152.736C114.169 152.992 113.811 153.365 113.545 153.856C113.278 154.347 113.145 154.923 113.145 155.584C113.145 156.256 113.278 156.843 113.545 157.344C113.811 157.835 114.169 158.213 114.617 158.48C115.065 158.736 115.561 158.864 116.105 158.864C116.649 158.864 117.145 158.736 117.593 158.48C118.051 158.213 118.414 157.835 118.681 157.344C118.947 156.843 119.081 156.261 119.081 155.6ZM124.469 148.16V160H123.013V148.16H124.469ZM134.727 151.232V160H133.271V158.704C132.993 159.152 132.604 159.504 132.103 159.76C131.612 160.005 131.068 160.128 130.471 160.128C129.788 160.128 129.175 159.989 128.631 159.712C128.087 159.424 127.655 158.997 127.335 158.432C127.025 157.867 126.871 157.179 126.871 156.368V151.232H128.311V156.176C128.311 157.04 128.529 157.707 128.967 158.176C129.404 158.635 130.001 158.864 130.759 158.864C131.537 158.864 132.151 158.624 132.599 158.144C133.047 157.664 133.271 156.965 133.271 156.048V151.232H134.727ZM145.185 155.28C145.185 155.557 145.169 155.851 145.137 156.16H138.129C138.182 157.024 138.476 157.701 139.009 158.192C139.553 158.672 140.209 158.912 140.977 158.912C141.606 158.912 142.129 158.768 142.545 158.48C142.972 158.181 143.27 157.787 143.441 157.296H145.009C144.774 158.139 144.305 158.827 143.601 159.36C142.897 159.883 142.022 160.144 140.977 160.144C140.145 160.144 139.398 159.957 138.737 159.584C138.086 159.211 137.574 158.683 137.201 158C136.828 157.307 136.641 156.507 136.641 155.6C136.641 154.693 136.822 153.899 137.185 153.216C137.548 152.533 138.054 152.011 138.705 151.648C139.366 151.275 140.124 151.088 140.977 151.088C141.809 151.088 142.545 151.269 143.185 151.632C143.825 151.995 144.316 152.496 144.657 153.136C145.009 153.765 145.185 154.48 145.185 155.28ZM143.681 154.976C143.681 154.421 143.558 153.947 143.313 153.552C143.068 153.147 142.732 152.843 142.305 152.64C141.889 152.427 141.425 152.32 140.913 152.32C140.177 152.32 139.548 152.555 139.025 153.024C138.513 153.493 138.22 154.144 138.145 154.976H143.681Z" fill="black"/>
<rect x="23.5" y="218.5" width="135" height="39" rx="7.5" stroke="black" stroke-linejoin="round"/>
<path d="M41.688 236.656C41.944 236.155 42.3067 235.765 42.776 235.488C43.256 235.211 43.8373 235.072 44.52 235.072V236.576H44.136C42.504 236.576 41.688 237.461 41.688 239.232V244H40.232V235.232H41.688V236.656ZM54.2008 239.28C54.2008 239.557 54.1848 239.851 54.1528 240.16H47.1448C47.1981 241.024 47.4914 241.701 48.0248 242.192C48.5688 242.672 49.2248 242.912 49.9928 242.912C50.6221 242.912 51.1448 242.768 51.5608 242.48C51.9874 242.181 52.2861 241.787 52.4568 241.296H54.0248C53.7901 242.139 53.3208 242.827 52.6168 243.36C51.9128 243.883 51.0381 244.144 49.9928 244.144C49.1608 244.144 48.4141 243.957 47.7528 243.584C47.1021 243.211 46.5901 242.683 46.2168 242C45.8434 241.307 45.6568 240.507 45.6568 239.6C45.6568 238.693 45.8381 237.899 46.2008 237.216C46.5634 236.533 47.0701 236.011 47.7208 235.648C48.3821 235.275 49.1394 235.088 49.9928 235.088C50.8248 235.088 51.5608 235.269 52.2008 235.632C52.8408 235.995 53.3314 236.496 53.6728 237.136C54.0248 237.765 54.2008 238.48 54.2008 239.28ZM52.6968 238.976C52.6968 238.421 52.5741 237.947 52.3288 237.552C52.0834 237.147 51.7474 236.843 51.3208 236.64C50.9048 236.427 50.4408 236.32 49.9288 236.32C49.1928 236.32 48.5634 236.555 48.0408 237.024C47.5288 237.493 47.2354 238.144 47.1608 238.976H52.6968ZM55.5786 239.584C55.5786 238.688 55.76 237.904 56.1226 237.232C56.4853 236.549 56.9813 236.021 57.6106 235.648C58.2506 235.275 58.9653 235.088 59.7546 235.088C60.4373 235.088 61.072 235.248 61.6586 235.568C62.2453 235.877 62.6933 236.288 63.0026 236.8V232.16H64.4746V244H63.0026V242.352C62.7146 242.875 62.288 243.307 61.7226 243.648C61.1573 243.979 60.496 244.144 59.7386 244.144C58.96 244.144 58.2506 243.952 57.6106 243.568C56.9813 243.184 56.4853 242.645 56.1226 241.952C55.76 241.259 55.5786 240.469 55.5786 239.584ZM63.0026 239.6C63.0026 238.939 62.8693 238.363 62.6026 237.872C62.336 237.381 61.9733 237.008 61.5146 236.752C61.0666 236.485 60.5706 236.352 60.0266 236.352C59.4826 236.352 58.9866 236.48 58.5386 236.736C58.0906 236.992 57.7333 237.365 57.4666 237.856C57.2 238.347 57.0666 238.923 57.0666 239.584C57.0666 240.256 57.2 240.843 57.4666 241.344C57.7333 241.835 58.0906 242.213 58.5386 242.48C58.9866 242.736 59.4826 242.864 60.0266 242.864C60.5706 242.864 61.0666 242.736 61.5146 242.48C61.9733 242.213 62.336 241.835 62.6026 241.344C62.8693 240.843 63.0026 240.261 63.0026 239.6ZM68.3911 236.656C68.6471 236.155 69.0098 235.765 69.4791 235.488C69.9591 235.211 70.5405 235.072 71.2231 235.072V236.576H70.8391C69.2071 236.576 68.3911 237.461 68.3911 239.232V244H66.9351V235.232H68.3911V236.656ZM72.3599 239.584C72.3599 238.688 72.5412 237.904 72.9039 237.232C73.2665 236.549 73.7625 236.021 74.3919 235.648C75.0319 235.275 75.7412 235.088 76.5199 235.088C77.2879 235.088 77.9545 235.253 78.5199 235.584C79.0852 235.915 79.5065 236.331 79.7839 236.832V235.232H81.2559V244H79.7839V242.368C79.4959 242.88 79.0639 243.307 78.4879 243.648C77.9225 243.979 77.2612 244.144 76.5039 244.144C75.7252 244.144 75.0212 243.952 74.3919 243.568C73.7625 243.184 73.2665 242.645 72.9039 241.952C72.5412 241.259 72.3599 240.469 72.3599 239.584ZM79.7839 239.6C79.7839 238.939 79.6505 238.363 79.3839 237.872C79.1172 237.381 78.7545 237.008 78.2959 236.752C77.8479 236.485 77.3519 236.352 76.8079 236.352C76.2639 236.352 75.7679 236.48 75.3199 236.736C74.8719 236.992 74.5145 237.365 74.2479 237.856C73.9812 238.347 73.8479 238.923 73.8479 239.584C73.8479 240.256 73.9812 240.843 74.2479 241.344C74.5145 241.835 74.8719 242.213 75.3199 242.48C75.7679 242.736 76.2639 242.864 76.8079 242.864C77.3519 242.864 77.8479 242.736 78.2959 242.48C78.7545 242.213 79.1172 241.835 79.3839 241.344C79.6505 240.843 79.7839 240.261 79.7839 239.6ZM95.3964 235.232L92.6604 244H91.1564L89.0444 237.04L86.9324 244H85.4284L82.6764 235.232H84.1644L86.1804 242.592L88.3564 235.232H89.8444L91.9724 242.608L93.9564 235.232H95.3964ZM102.563 236.848C102.851 236.347 103.278 235.931 103.843 235.6C104.419 235.259 105.086 235.088 105.843 235.088C106.622 235.088 107.326 235.275 107.955 235.648C108.595 236.021 109.096 236.549 109.459 237.232C109.822 237.904 110.003 238.688 110.003 239.584C110.003 240.469 109.822 241.259 109.459 241.952C109.096 242.645 108.595 243.184 107.955 243.568C107.326 243.952 106.622 244.144 105.843 244.144C105.096 244.144 104.435 243.979 103.859 243.648C103.294 243.307 102.862 242.885 102.563 242.384V248.16H101.107V235.232H102.563V236.848ZM108.515 239.584C108.515 238.923 108.382 238.347 108.115 237.856C107.848 237.365 107.486 236.992 107.027 236.736C106.579 236.48 106.083 236.352 105.539 236.352C105.006 236.352 104.51 236.485 104.051 236.752C103.603 237.008 103.24 237.387 102.963 237.888C102.696 238.379 102.563 238.949 102.563 239.6C102.563 240.261 102.696 240.843 102.963 241.344C103.24 241.835 103.603 242.213 104.051 242.48C104.51 242.736 105.006 242.864 105.539 242.864C106.083 242.864 106.579 242.736 107.027 242.48C107.486 242.213 107.848 241.835 108.115 241.344C108.382 240.843 108.515 240.256 108.515 239.584ZM111.376 239.584C111.376 238.688 111.557 237.904 111.92 237.232C112.282 236.549 112.778 236.021 113.408 235.648C114.048 235.275 114.757 235.088 115.536 235.088C116.304 235.088 116.97 235.253 117.536 235.584C118.101 235.915 118.522 236.331 118.8 236.832V235.232H120.272V244H118.8V242.368C118.512 242.88 118.08 243.307 117.504 243.648C116.938 243.979 116.277 244.144 115.52 244.144C114.741 244.144 114.037 243.952 113.408 243.568C112.778 243.184 112.282 242.645 111.92 241.952C111.557 241.259 111.376 240.469 111.376 239.584ZM118.8 239.6C118.8 238.939 118.666 238.363 118.4 237.872C118.133 237.381 117.77 237.008 117.312 236.752C116.864 236.485 116.368 236.352 115.824 236.352C115.28 236.352 114.784 236.48 114.336 236.736C113.888 236.992 113.53 237.365 113.264 237.856C112.997 238.347 112.864 238.923 112.864 239.584C112.864 240.256 112.997 240.843 113.264 241.344C113.53 241.835 113.888 242.213 114.336 242.48C114.784 242.736 115.28 242.864 115.824 242.864C116.368 242.864 116.864 242.736 117.312 242.48C117.77 242.213 118.133 241.835 118.4 241.344C118.666 240.843 118.8 240.261 118.8 239.6ZM126.348 235.088C127.105 235.088 127.767 235.253 128.332 235.584C128.908 235.915 129.335 236.331 129.612 236.832V235.232H131.084V244.192C131.084 244.992 130.913 245.701 130.572 246.32C130.231 246.949 129.74 247.44 129.1 247.792C128.471 248.144 127.735 248.32 126.892 248.32C125.74 248.32 124.78 248.048 124.012 247.504C123.244 246.96 122.791 246.219 122.652 245.28H124.092C124.252 245.813 124.583 246.24 125.084 246.56C125.585 246.891 126.188 247.056 126.892 247.056C127.692 247.056 128.343 246.805 128.844 246.304C129.356 245.803 129.612 245.099 129.612 244.192V242.352C129.324 242.864 128.897 243.291 128.332 243.632C127.767 243.973 127.105 244.144 126.348 244.144C125.569 244.144 124.86 243.952 124.22 243.568C123.591 243.184 123.095 242.645 122.732 241.952C122.369 241.259 122.188 240.469 122.188 239.584C122.188 238.688 122.369 237.904 122.732 237.232C123.095 236.549 123.591 236.021 124.22 235.648C124.86 235.275 125.569 235.088 126.348 235.088ZM129.612 239.6C129.612 238.939 129.479 238.363 129.212 237.872C128.945 237.381 128.583 237.008 128.124 236.752C127.676 236.485 127.18 236.352 126.636 236.352C126.092 236.352 125.596 236.48 125.148 236.736C124.7 236.992 124.343 237.365 124.076 237.856C123.809 238.347 123.676 238.923 123.676 239.584C123.676 240.256 123.809 240.843 124.076 241.344C124.343 241.835 124.7 242.213 125.148 242.48C125.596 242.736 126.092 242.864 126.636 242.864C127.18 242.864 127.676 242.736 128.124 242.48C128.583 242.213 128.945 241.835 129.212 241.344C129.479 240.843 129.612 240.261 129.612 239.6ZM141.545 239.28C141.545 239.557 141.529 239.851 141.497 240.16H134.489C134.542 241.024 134.835 241.701 135.369 242.192C135.913 242.672 136.569 242.912 137.337 242.912C137.966 242.912 138.489 242.768 138.905 242.48C139.331 242.181 139.63 241.787 139.801 241.296H141.369C141.134 242.139 140.665 242.827 139.961 243.36C139.257 243.883 138.382 244.144 137.337 244.144C136.505 244.144 135.758 243.957 135.097 243.584C134.446 243.211 133.934 242.683 133.561 242C133.187 241.307 133.001 240.507 133.001 239.6C133.001 238.693 133.182 237.899 133.545 237.216C133.907 236.533 134.414 236.011 135.065 235.648C135.726 235.275 136.483 235.088 137.337 235.088C138.169 235.088 138.905 235.269 139.545 235.632C140.185 235.995 140.675 236.496 141.017 237.136C141.369 237.765 141.545 238.48 141.545 239.28ZM140.041 238.976C140.041 238.421 139.918 237.947 139.673 237.552C139.427 237.147 139.091 236.843 138.665 236.64C138.249 236.427 137.785 236.32 137.273 236.32C136.537 236.32 135.907 236.555 135.385 237.024C134.873 237.493 134.579 238.144 134.505 238.976H140.041Z" fill="black"/>
<path d="M90.2929 134.707C90.6834 135.098 91.3166 135.098 91.7071 134.707L98.0711 128.343C98.4616 127.953 98.4616 127.319 98.0711 126.929C97.6805 126.538 97.0474 126.538 96.6569 126.929L91 132.586L85.3431 126.929C84.9526 126.538 84.3195 126.538 83.9289 126.929C83.5384 127.319 83.5384 127.953 83.9289 128.343L90.2929 134.707ZM90 86V134H92V86H90Z" fill="black"/>
<path d="M90.2929 218.707C90.6834 219.098 91.3166 219.098 91.7071 218.707L98.0711 212.343C98.4616 211.953 98.4616 211.319 98.0711 210.929C97.6805 210.538 97.0474 210.538 96.6569 210.929L91 216.586L85.3431 210.929C84.9526 210.538 84.3195 210.538 83.9289 210.929C83.5384 211.319 83.5384 211.953 83.9289 212.343L90.2929 218.707ZM90 174L90 218L92 218L92 174L90 174Z" fill="black"/>
</g>
<defs>
<clipPath id="clip0_30_2">
<rect width="241" height="287" rx="8" fill="white"/>
</clipPath>
</defs>
</svg>
