<svg width="386" height="173" viewBox="0 0 386 173" fill="none" xmlns="http://www.w3.org/2000/svg">
<path fill-rule="evenodd" clip-rule="evenodd" d="M183.656 6.5375C187.566 3.33437 191.391 0.0750008 191.391 0.0750008C193.747 2.35312 196.141 4.58437 198.581 6.76875C203.856 6.45937 210.122 7.69687 215.297 8.72187C219.141 5.8375 222.444 3.2 222.444 3.2C224.056 6.13125 225.631 9.07812 227.166 12.0531C229.184 13.3562 232.75 16.0562 234.262 17.8156C236.585 16.8715 240.083 15.6092 240.862 15.328C240.929 15.3039 240.976 15.287 241 15.2781C240.878 15.6219 240.756 15.9669 240.634 16.3127C237.886 24.1018 234.993 32.2978 228.012 36.1906C216.719 19.3312 165.35 17.6031 154.297 36.2906C148.568 32.2229 145.824 25.9361 142.914 19.2664C142.294 17.8453 141.666 16.4068 141 14.9687C141.04 14.9798 141.48 15.174 142.158 15.4736C143.402 16.0224 145.446 16.9249 147.3 17.7031C149.756 15.375 152.525 13.6156 155.291 12.0406C157.128 8.85 160.091 3.4125 160.091 3.4125C160.091 3.4125 163.541 6.35625 167.494 9.02812C171.759 7.36562 179.634 6.40937 183.656 6.5375ZM154.056 56L144.922 32.3656L144.925 32.3687C149.678 38.5719 154.188 43.0969 160.891 46.9219C164.212 48.5812 171.553 49.8344 171.553 49.8344L191.166 39.2375L210.7 50.0625C210.7 50.0625 218.119 48.9031 221.341 47.0156C225.881 44.3625 233.241 39.4156 237.766 32.2375C237.766 32.2375 232.131 46.3812 227.966 56.4406C210.341 79.9125 169.894 78.3656 154.056 56ZM2.04 147.56C3 148.52 4.184 149 5.592 149C7.064 149 8.248 148.52 9.144 147.56C10.104 146.6 10.584 145.416 10.584 144.008V115.4H55.128V144.008C55.128 145.416 55.608 146.6 56.568 147.56C57.528 148.52 58.712 149 60.12 149C61.592 149 62.776 148.52 63.672 147.56C64.568 146.6 65.016 145.416 65.016 144.008V79.016C65.016 77.544 64.568 76.36 63.672 75.464C62.776 74.504 61.592 74.024 60.12 74.024C58.712 74.024 57.528 74.504 56.568 75.464C55.608 76.36 55.128 77.544 55.128 79.016V106.568H10.584V79.016C10.584 77.544 10.104 76.36 9.144 75.464C8.248 74.504 7.064 74.024 5.592 74.024C4.184 74.024 3 74.504 2.04 75.464C1.08 76.36 0.6 77.544 0.6 79.016V144.008C0.6 145.416 1.08 146.6 2.04 147.56ZM92.577 145.928C96.289 148.232 100.481 149.384 105.153 149.384C109.825 149.384 114.017 148.232 117.729 145.928C120.017 144.468 122.001 142.705 123.681 140.638V144.2C123.681 145.608 124.129 146.792 125.025 147.752C125.985 148.648 127.169 149.096 128.577 149.096C129.985 149.096 131.137 148.648 132.033 147.752C132.993 146.792 133.473 145.608 133.473 144.2V122.792C133.473 117.736 132.289 113.192 129.921 109.16C127.617 105.128 124.481 101.96 120.513 99.656C116.545 97.288 112.065 96.104 107.073 96.104C102.081 96.104 97.569 97.288 93.537 99.656C89.569 101.96 86.401 105.128 84.033 109.16C81.729 113.192 80.577 117.736 80.577 122.792C80.577 127.848 81.633 132.392 83.745 136.424C85.921 140.392 88.865 143.56 92.577 145.928ZM115.809 138.44C113.249 139.976 110.337 140.744 107.073 140.744C103.873 140.744 100.961 139.976 98.337 138.44C95.777 136.84 93.729 134.696 92.193 132.008C90.721 129.256 89.985 126.184 89.985 122.792C89.985 119.336 90.721 116.264 92.193 113.576C93.729 110.824 95.777 108.68 98.337 107.144C100.961 105.544 103.873 104.744 107.073 104.744C110.337 104.744 113.249 105.544 115.809 107.144C118.369 108.68 120.385 110.824 121.857 113.576C123.329 116.264 124.065 119.336 124.065 122.792C124.065 126.184 123.329 129.256 121.857 132.008C120.385 134.696 118.369 136.84 115.809 138.44ZM149.39 170.024C150.35 170.984 151.534 171.464 152.942 171.464C154.414 171.464 155.598 170.984 156.494 170.024C157.39 169.128 157.838 167.976 157.838 166.568V140.648C160.078 143.336 162.766 145.48 165.902 147.08C169.102 148.616 172.59 149.384 176.366 149.384C181.038 149.384 185.23 148.232 188.942 145.928C192.654 143.56 195.566 140.392 197.678 136.424C199.854 132.392 200.942 127.848 200.942 122.792C200.942 117.736 199.758 113.192 197.39 109.16C195.086 105.128 191.95 101.96 187.982 99.656C184.014 97.288 179.502 96.104 174.446 96.104C169.454 96.104 164.974 97.288 161.006 99.656C157.038 101.96 153.902 105.128 151.598 109.16C149.294 113.192 148.11 117.736 148.046 122.792V166.568C148.046 167.976 148.494 169.128 149.39 170.024ZM183.182 138.44C180.622 139.976 177.71 140.744 174.446 140.744C171.246 140.744 168.334 139.976 165.71 138.44C163.15 136.84 161.134 134.696 159.662 132.008C158.19 129.256 157.454 126.184 157.454 122.792C157.454 119.336 158.19 116.264 159.662 113.576C161.134 110.824 163.15 108.68 165.71 107.144C168.334 105.544 171.246 104.744 174.446 104.744C177.71 104.744 180.622 105.544 183.182 107.144C185.742 108.68 187.758 110.824 189.23 113.576C190.766 116.264 191.534 119.336 191.534 122.792C191.534 126.184 190.766 129.256 189.23 132.008C187.758 134.696 185.742 136.84 183.182 138.44ZM216.89 170.024C217.85 170.984 219.034 171.464 220.442 171.464C221.914 171.464 223.098 170.984 223.994 170.024C224.89 169.128 225.338 167.976 225.338 166.568V140.648C227.578 143.336 230.266 145.48 233.402 147.08C236.602 148.616 240.09 149.384 243.866 149.384C248.538 149.384 252.73 148.232 256.442 145.928C260.154 143.56 263.066 140.392 265.178 136.424C267.354 132.392 268.442 127.848 268.442 122.792C268.442 117.736 267.258 113.192 264.89 109.16C262.586 105.128 259.45 101.96 255.482 99.656C251.514 97.288 247.002 96.104 241.946 96.104C236.954 96.104 232.474 97.288 228.506 99.656C224.538 101.96 221.402 105.128 219.098 109.16C216.794 113.192 215.61 117.736 215.546 122.792V166.568C215.546 167.976 215.994 169.128 216.89 170.024ZM250.682 138.44C248.122 139.976 245.21 140.744 241.946 140.744C238.746 140.744 235.834 139.976 233.21 138.44C230.65 136.84 228.634 134.696 227.162 132.008C225.69 129.256 224.954 126.184 224.954 122.792C224.954 119.336 225.69 116.264 227.162 113.576C228.634 110.824 230.65 108.68 233.21 107.144C235.834 105.544 238.746 104.744 241.946 104.744C245.21 104.744 248.122 105.544 250.682 107.144C253.242 108.68 255.258 110.824 256.73 113.576C258.266 116.264 259.034 119.336 259.034 122.792C259.034 126.184 258.266 129.256 256.73 132.008C255.258 134.696 253.242 136.84 250.682 138.44ZM287.244 171.464C288.14 171.848 288.908 172.04 289.548 172.04C291.276 172.04 292.524 171.048 293.292 169.064L322.668 103.016C323.948 100.2 323.148 98.184 320.268 96.968C317.516 95.816 315.5 96.584 314.22 99.272L298.791 134.126L281.196 99.176C280.62 97.96 279.788 97.16 278.7 96.776C277.612 96.328 276.46 96.36 275.244 96.872C274.028 97.384 273.164 98.216 272.652 99.368C272.204 100.456 272.3 101.608 272.94 102.824L294.51 143.797L284.94 165.416C283.66 168.168 284.428 170.184 287.244 171.464ZM327.327 147.656C328.095 148.552 329.215 149 330.687 149C332.031 149 333.183 148.52 334.143 147.56L356.18 118.238L377.055 147.176C377.567 147.816 378.111 148.296 378.687 148.616C379.327 148.872 380.063 149 380.895 149C382.303 149 383.391 148.552 384.159 147.656C384.991 146.76 385.439 145.672 385.503 144.392C385.567 143.112 385.215 141.96 384.447 140.936L362.945 111.077L384.831 81.896C385.599 80.744 385.951 79.56 385.887 78.344C385.823 77.128 385.407 76.104 384.639 75.272C383.871 74.44 382.815 74.024 381.471 74.024C379.999 74.024 378.815 74.504 377.919 75.464L356.405 104.086L335.775 75.464C335.071 74.504 333.887 74.024 332.223 74.024C330.879 74.024 329.791 74.472 328.959 75.368C328.191 76.264 327.743 77.32 327.615 78.536C327.487 79.752 327.807 80.872 328.575 81.896L349.665 111.152L327.327 140.936C326.559 141.96 326.175 143.112 326.175 144.392C326.175 145.608 326.559 146.696 327.327 147.656Z" fill="url(#paint0_linear_1_16)"/>
<defs>
<linearGradient id="paint0_linear_1_16" x1="0.599976" y1="0.0750008" x2="367.198" y2="205.419" gradientUnits="userSpaceOnUse">
<stop stop-color="#FCFF82"/>
<stop offset="0.494792" stop-color="#EF7575"/>
<stop offset="1" stop-color="#A8377B"/>
</linearGradient>
</defs>
</svg>
