<svg width="188" height="188" viewBox="0 0 188 188" fill="none" xmlns="http://www.w3.org/2000/svg">
<g clip-path="url(#clip0_207_7)">
<path d="M94.9824 22.6406C94.9824 22.6406 87.8105 28.752 80.4805 34.7578C72.9395 34.5176 58.1738 36.3105 50.1758 39.4277C42.7637 34.418 36.2949 28.8984 36.2949 28.8984C36.2949 28.8984 30.7402 39.0937 27.2949 45.0762C22.1094 48.0293 16.918 51.3281 12.3125 55.6934C6.93945 53.4375 0.710937 50.625 0.5 50.5664C7.60742 65.918 12.4004 81.293 25.4316 90.5449C46.1562 55.5059 142.473 58.7461 163.648 90.3574C177.318 82.7344 182.627 66.3105 188 51.1465C187.42 51.3574 180.096 53.9824 175.367 55.9043C172.531 52.6055 165.846 47.543 162.061 45.0996C159.184 39.5215 156.23 33.9961 153.207 28.5C153.207 28.5 147.014 33.4453 139.807 38.8535C130.104 36.9316 118.355 34.6113 108.465 35.1914C103.889 31.0957 99.4004 26.9121 94.9824 22.6406ZM7.85352 83.1855L24.9805 127.5C54.6758 169.436 130.514 172.336 163.561 128.326C171.371 109.465 181.936 82.9453 181.936 82.9453C173.451 96.4043 159.652 105.68 151.139 110.654C145.098 114.193 131.188 116.367 131.188 116.367L94.5605 96.0703L57.7871 115.939C57.7871 115.939 44.0234 113.59 37.7949 110.479C25.2266 103.307 16.7715 94.8223 7.85938 83.1914L7.85352 83.1855Z" fill="black"/>
</g>
<defs>
<clipPath id="clip0_207_7">
<rect width="187.5" height="187.5" fill="white" transform="translate(0.5)"/>
</clipPath>
</defs>
</svg>
